<svg width="208" height="262" viewBox="0 0 208 262" fill="none" xmlns="http://www.w3.org/2000/svg">
<path d="M75.5235 59.91C74.7367 56.9736 72.0955 53.0218 68.5117 53.982C64.9468 54.9373 64.61 59.6607 65.3947 62.5895C65.8222 64.1848 68.3024 63.5231 67.8742 61.9251C67.4852 60.4731 67.1578 57.0024 69.1761 56.4616C71.2099 55.9166 72.6542 59.1197 73.044 60.5744C73.4715 62.1697 75.9517 61.508 75.5235 59.91Z" fill="#09061D"/>
<path d="M103.285 52.3841C102.937 50.9447 102.615 47.5552 104.613 47.02C106.621 46.4824 108.038 49.6059 108.453 51.0302C108.915 52.6138 111.397 51.9552 110.933 50.3658C110.088 47.4702 107.518 43.5847 103.949 44.5405C100.389 45.494 100.099 50.1225 100.805 53.0485C101.192 54.6555 103.672 53.9903 103.285 52.3841Z" fill="#09061D"/>
<path d="M75.109 59.1932C74.3222 56.2568 71.6809 52.305 68.0972 53.2653C64.5323 54.2205 64.1954 58.9439 64.9802 61.8727C65.4076 63.468 67.8879 62.8063 67.4597 61.2083C67.0706 59.7563 66.7432 56.2856 68.7616 55.7448C70.7954 55.1998 72.2397 58.4029 72.6294 59.8576C73.057 61.4532 75.5372 60.7915 75.109 59.1932Z" fill="#09061D"/>
<path d="M102.871 51.6703C102.524 50.2308 102.202 46.8413 104.2 46.3062C106.207 45.7685 107.624 48.892 108.04 50.3163C108.502 51.9 110.983 51.2413 110.519 49.6519C109.674 46.7564 107.104 42.8708 103.535 43.8266C99.9758 44.7802 99.6859 49.4087 100.392 52.3347C100.779 53.9416 103.258 53.2764 102.871 51.6703Z" fill="#09061D"/>
<path d="M123.041 227.499L123.04 227.497" stroke="#FF7500" stroke-miterlimit="10"/>
<path d="M141.177 239.422C141.471 239.477 141.766 239.278 141.915 239.018C142.064 238.759 142.097 238.451 142.122 238.153C142.193 237.271 142.21 236.386 142.172 235.503C142.169 235.432 142.064 235.427 142.052 235.496C141.956 236.021 141.934 236.423 141.67 236.854C141.556 237.041 141.438 237.226 141.292 237.39C141.15 237.549 140.982 237.688 140.874 237.871C140.73 238.114 140.577 238.686 140.696 239.014C140.779 239.244 140.974 239.341 141.177 239.422Z" fill="#D73502"/>
<path d="M134.325 236.97C134.357 237.004 134.631 237.312 134.652 238.032C134.663 238.416 134.826 238.787 135.121 239.035C135.333 239.214 135.639 239.385 136.078 239.49C136.115 239.499 136.146 239.461 136.131 239.427C136.031 239.203 135.761 238.577 135.677 238.173C135.63 237.949 135.53 237.74 135.384 237.563C135.14 237.266 134.753 236.911 134.326 236.966C134.325 236.966 134.324 236.969 134.325 236.97Z" fill="#FF7500"/>
<path d="M144.312 231.678C144.276 231.618 143.975 231.076 144.182 230.012C144.292 229.445 144.175 228.848 143.825 228.388C143.572 228.055 143.18 227.704 142.571 227.405C142.52 227.38 142.462 227.424 142.473 227.48C142.546 227.841 142.735 228.848 142.726 229.467C142.721 229.811 142.799 230.151 142.953 230.459C143.213 230.975 143.664 231.623 144.308 231.683C144.311 231.683 144.313 231.68 144.312 231.678Z" fill="#FF7500"/>
<path d="M142.97 224.233C142.645 222.638 142.8 220.978 142.887 220.313C142.913 220.107 142.9 219.899 142.846 219.698C141.41 214.338 135.76 211.195 130.227 212.678C124.693 214.16 121.372 219.707 122.808 225.067C123.452 227.47 124.944 229.428 126.893 230.723C127.19 230.921 127.498 231.104 127.817 231.27C127.82 231.272 127.824 231.274 127.827 231.276C133.739 234.876 133.558 236.841 133.558 236.841C134.095 235.826 133.628 234.083 133.628 234.083C136.974 235.985 137.227 240.776 137.227 240.776C143.4 235.084 141.704 227.134 141.133 225.09C141.133 225.089 141.133 225.088 141.133 225.088C142.562 226.824 143.915 226.472 143.915 226.472C143.428 225.837 143.138 225.045 142.972 224.236C142.971 224.235 142.971 224.234 142.97 224.233Z" fill="#D73502"/>
<path d="M140.29 222.181C140.036 220.939 140.157 219.645 140.224 219.128C140.245 218.967 140.235 218.805 140.193 218.648C139.074 214.472 134.672 212.024 130.361 213.179C126.05 214.334 123.462 218.656 124.581 222.832C125.083 224.704 126.245 226.229 127.764 227.238C127.995 227.393 128.235 227.535 128.484 227.664C128.486 227.666 128.489 227.667 128.491 227.669C133.097 230.473 132.957 232.005 132.957 232.005C133.375 231.214 133.011 229.856 133.011 229.856C135.618 231.338 135.815 235.07 135.815 235.07C140.625 230.636 139.303 224.442 138.858 222.849C138.858 222.848 138.858 222.848 138.858 222.847C139.972 224.2 141.026 223.926 141.026 223.926C140.646 223.431 140.42 222.814 140.29 222.183C140.29 222.183 140.29 222.182 140.29 222.181Z" fill="#FF7500"/>
<path d="M137.226 219.403C137.05 218.545 137.134 217.65 137.181 217.292C137.195 217.181 137.188 217.068 137.159 216.96C136.385 214.073 133.342 212.38 130.361 213.179C127.38 213.978 125.591 216.965 126.365 219.853C126.711 221.147 127.515 222.201 128.565 222.899C128.725 223.006 128.891 223.104 129.063 223.194C129.064 223.195 129.067 223.196 129.068 223.197C132.253 225.136 132.156 226.195 132.156 226.195C132.445 225.648 132.193 224.709 132.193 224.709C133.996 225.734 134.132 228.315 134.132 228.315C137.457 225.249 136.544 220.966 136.236 219.865C136.236 219.864 136.236 219.864 136.236 219.863C137.006 220.799 137.735 220.609 137.735 220.609C137.472 220.267 137.316 219.841 137.226 219.404C137.226 219.405 137.226 219.404 137.226 219.403Z" fill="#FAC000"/>
<path d="M151.442 167.3L166.846 178.691C169.011 180.292 168.367 183.686 165.766 184.383L139.891 191.316" fill="#FDE159"/>
<path d="M88.8723 184.066L81.2277 201.633C80.1534 204.102 82.4075 206.719 85.0083 206.022L110.884 199.089" fill="#FDE159"/>
<path d="M151.754 166.956L151.985 125.828C152.08 108.846 136.004 96.4196 119.594 100.791L83.1588 110.497C66.7229 114.875 58.9673 133.699 67.5481 148.385L88.3218 183.938C96.0613 197.184 111.705 203.617 126.524 199.646C141.337 195.677 151.668 182.292 151.754 166.956Z" fill="#FDE159"/>
<path d="M99.0445 182.671L88.6724 184.527C95.3762 194.999 107.48 201.432 119.714 200.904C119.718 200.905 119.723 200.904 119.727 200.903C119.941 200.894 120.155 200.881 120.368 200.868C120.383 200.867 120.399 200.867 120.412 200.866C120.873 200.835 121.334 200.796 121.795 200.745C121.808 200.746 121.821 200.745 121.834 200.741C122.511 200.666 123.187 200.569 123.86 200.453C123.865 200.454 123.869 200.453 123.875 200.451C124.55 200.333 125.219 200.193 125.884 200.03C126.117 199.975 126.349 199.915 126.581 199.853C133.986 197.868 140.273 193.528 144.719 187.771C145.501 186.757 146.227 185.661 146.889 184.505C149.763 179.496 151.478 173.334 151.745 167.527L142.041 171.15L99.0445 182.671Z" fill="#C63755"/>
<path d="M99.0442 182.671L142.041 171.15C138.855 172.003 135.454 171.012 133.232 168.571C130.602 165.684 125.6 164.513 117.682 166.635C109.863 168.73 106.251 172.193 105.414 175.897C104.677 179.164 102.28 181.804 99.0442 182.671Z" fill="#C63755"/>
<path d="M88.6724 184.526C94.3434 195.079 107.203 201.475 119.714 200.904C107.48 201.432 95.3762 194.999 88.6724 184.526Z" fill="#C63755"/>
<path d="M120.368 200.869C120.155 200.882 119.941 200.895 119.727 200.903C119.941 200.895 120.155 200.884 120.368 200.869Z" fill="#C63755"/>
<path d="M121.795 200.745C121.334 200.795 120.873 200.835 120.412 200.865C120.873 200.837 121.334 200.795 121.795 200.745Z" fill="#C63755"/>
<path d="M123.861 200.453C123.187 200.569 122.511 200.666 121.834 200.741C122.51 200.669 123.186 200.572 123.861 200.453Z" fill="#C63755"/>
<path d="M125.884 200.03C125.219 200.193 124.55 200.332 123.875 200.451C124.546 200.334 125.215 200.194 125.884 200.03Z" fill="#C63755"/>
<path opacity="0.35" d="M88.6726 184.525C88.6726 184.525 95.4959 199.637 116.627 200.915C116.627 200.915 133.6 203.735 146.288 185.6C146.288 185.6 151.23 178.207 151.746 167.526C151.746 167.526 146.457 179.959 138.151 187.48C138.151 187.48 127.574 197.204 109.346 194.505C109.346 194.505 99.8365 193.14 88.6726 184.525Z" fill="#170F4A"/>
<path d="M81.2184 102.952L117.416 93.2526C135.972 88.2804 147.087 69.0297 142.115 50.473L138.937 38.6134C133.965 20.0571 114.714 8.94261 96.1574 13.9148L59.9599 23.6139C41.4034 28.5861 30.2889 47.837 35.2611 66.3935L38.4389 78.2531C43.411 96.8094 62.6619 107.924 81.2184 102.952Z" fill="#FDE159"/>
<path opacity="0.35" d="M37.1816 73.5586L38.439 78.2511C43.4114 96.8082 62.6625 107.923 81.2176 102.951L117.417 93.2516C135.972 88.2798 147.086 69.0286 142.114 50.4715L140.857 45.779C145.829 64.3361 134.714 83.5873 116.159 88.5591L79.9603 98.2586C61.4052 103.23 42.154 92.1157 37.1816 73.5586Z" fill="#170F4A"/>
<path d="M71.4712 35.4634C73.2541 34.9856 75.1578 35.3725 76.6129 36.5082L78.7665 38.1892C80.2672 39.3612 82.0074 39.6794 83.5515 39.2656C85.0979 38.8513 86.4459 37.7054 87.1595 35.9403L88.1823 33.41C88.8743 31.698 90.33 30.4104 92.1136 29.9325L95.3136 29.075C107.393 25.8383 119.925 33.0734 123.162 45.153L125.182 52.6951C128.42 64.7759 121.184 77.3089 109.103 80.5459L82.0616 87.7916C69.982 91.0283 57.4504 83.7932 54.2136 71.7136L52.1921 64.1692C48.9551 52.0886 56.1918 39.5577 68.2701 36.3213L71.4712 35.4634Z" fill="#FEF0AC"/>
<path d="M119.182 207.611L121.441 210.227C121.89 210.747 122.596 210.964 123.258 210.786C127.107 210.446 130.873 209.468 134.402 207.893L134.924 207.66C135.586 207.483 136.089 206.942 136.218 206.268L136.867 202.872C137.14 201.444 135.691 200.309 134.367 200.909C132.182 201.9 129.894 202.722 127.517 203.359C125.142 203.996 122.752 204.427 120.366 204.661C118.92 204.804 118.232 206.512 119.182 207.611Z" fill="#FDE159"/>
<path opacity="0.35" d="M119.181 207.611L119.325 207.778C119.524 207.132 120.083 206.599 120.864 206.52C123.25 206.286 125.64 205.856 128.016 205.219C130.392 204.583 132.681 203.759 134.865 202.769C135.579 202.444 136.33 202.626 136.826 203.087L136.868 202.872C137.141 201.443 135.689 200.309 134.366 200.909C132.182 201.899 129.894 202.723 127.518 203.36C125.141 203.996 122.752 204.426 120.365 204.66C118.92 204.804 118.233 206.512 119.181 207.611Z" fill="#170F4A"/>
<path d="M164.106 130.317C171.993 145.754 170.107 158.328 181.38 155.23C188.887 153.166 186.814 137.139 178.928 121.703C171.042 106.266 160.096 97.8907 155.514 99.0781C145.351 101.712 156.22 114.88 164.106 130.317Z" fill="#FDE159"/>
<path opacity="0.35" d="M164.106 130.316C171.993 145.751 170.107 158.326 181.38 155.228C181.594 155.169 181.802 155.1 181.999 155.016C172.097 156.859 174.507 144.577 166.922 129.734C159.373 114.957 148.133 102.343 156.184 98.976C155.948 98.9883 155.725 99.0237 155.514 99.0781C145.35 101.711 156.22 114.878 164.106 130.316Z" fill="#170F4A"/>
<path d="M106.434 143.202C98.3969 135.263 90.3598 127.324 82.3229 119.385C80.7345 117.816 81.4494 115.115 83.6059 114.537L88.7671 113.154C91.0738 112.536 93.4871 113.413 94.9548 115.297C97.2139 118.196 101.066 119.623 104.84 118.612C108.613 117.601 111.236 114.439 111.743 110.798C112.073 108.433 113.724 106.467 116.031 105.849L121.14 104.48C123.308 103.899 125.282 105.903 124.668 108.062L115.342 140.859C114.229 144.772 109.328 146.061 106.434 143.202Z" fill="#C63755"/>
<path d="M116.035 161.324C119.237 160.467 121.136 157.176 120.279 153.975C119.421 150.774 116.13 148.874 112.929 149.732C109.728 150.59 107.829 153.88 108.686 157.081C109.544 160.282 112.834 162.182 116.035 161.324Z" fill="#9E2C44"/>
<path d="M37.1161 97.8412C26.4803 84.1532 25.9795 71.4477 15.4861 76.6007C8.4977 80.0325 13.5326 95.3889 24.1684 109.077C34.8042 122.765 47.1233 128.944 51.4028 126.92C60.8934 122.431 47.7521 111.529 37.1161 97.8412Z" fill="#FDE159"/>
<path opacity="0.35" d="M37.1167 97.8412C26.4803 84.1547 25.9796 71.449 15.4857 76.6019C15.2863 76.7005 15.0953 76.807 14.9178 76.9261C24.2998 73.2631 24.2304 85.7785 34.4589 98.9401C44.6404 112.044 58.0426 122.332 50.7632 127.146C50.9926 127.09 51.2051 127.013 51.4025 126.92C60.894 122.432 47.7522 111.531 37.1167 97.8412Z" fill="#170F4A"/>
<path d="M23.0705 107.639C23.0705 107.639 26.651 104.983 26.6992 105.044C28.6666 107.521 31.6264 108.447 33.3123 107.111C34.9981 105.774 34.7716 102.679 32.8051 100.2C32.8018 100.194 36.6746 97.2581 36.6746 97.2581" stroke="#C63755" stroke-width="8" stroke-miterlimit="10"/>
<path d="M179.736 123.321C179.736 123.321 175.722 125.259 175.686 125.19C174.217 122.389 171.482 120.925 169.576 121.923C167.67 122.921 167.314 126.003 168.781 128.807C168.783 128.813 164.43 130.973 164.43 130.973" stroke="#C63755" stroke-width="8" stroke-miterlimit="10"/>
<path d="M35.1594 66.3445L38.3561 78.2731C39.2658 81.668 40.6582 84.8139 42.4399 87.654C46.5722 83.6943 48.3378 76.7546 46.4598 69.7458C44.5807 62.7329 39.5834 57.6119 34.0255 56.2509C33.9025 59.6013 34.2503 62.9517 35.1594 66.3445Z" fill="#C63755"/>
<path d="M139.059 38.505L142.254 50.4339C143.164 53.8288 143.531 57.2494 143.408 60.5999C137.85 59.2368 132.851 54.1096 130.973 47.1009C129.094 40.088 130.861 33.1544 134.994 29.1968C136.775 32.0369 138.149 35.1122 139.059 38.505Z" fill="#C63755"/>
<path opacity="0.35" d="M81.0828 203.82C81.6292 205.524 83.2092 206.418 84.9158 206.066L108.741 199.663C100.861 197.538 93.282 192.471 89.2 185.459C89.0162 185.144 88.8628 184.837 88.6728 184.525L87.5827 187.03C90.3838 190.83 94.6019 196.821 99.291 198.691C99.5763 198.805 99.7297 199.487 99.2124 199.638C96.034 200.563 85.6955 203.831 81.0828 203.82Z" fill="#170F4A"/>
<path opacity="0.35" d="M168.06 180.495C168.439 182.244 167.517 183.808 165.864 184.357L142.164 190.709C147.926 184.929 151.006 176.861 151.685 168.701C151.715 168.337 151.738 167.891 151.746 167.525L154.036 169.205C153.51 173.897 152.853 181.194 149.727 185.158C149.537 185.4 149.745 186.067 150.268 185.939C153.483 185.15 164.071 182.811 168.06 180.495Z" fill="#170F4A"/>
<path d="M109.33 48.8468C108.744 46.6586 106.44 45.307 104.245 45.8952C102.033 46.4879 100.734 48.8185 101.323 51.0145C101.376 51.2139 101.686 51.1313 101.633 50.9315C101.089 48.9032 102.286 46.7523 104.328 46.2052C106.354 45.6624 108.479 46.9098 109.02 48.9298C109.074 49.1292 109.384 49.0466 109.33 48.8468Z" fill="#09061D"/>
<path d="M65.9126 60.4688C65.4628 58.442 66.5656 56.3609 68.6259 55.8086C70.679 55.2582 72.6694 56.4984 73.3007 58.4692C73.3634 58.6653 73.6739 58.5834 73.6106 58.3862C72.9271 56.2517 70.7677 54.9023 68.5428 55.4987C66.3117 56.0967 65.1156 58.3574 65.6027 60.5518C65.6474 60.7536 65.9572 60.6701 65.9126 60.4688Z" fill="#09061D"/>
<path d="M75.5235 59.91C74.7367 56.9736 72.0955 53.0218 68.5117 53.982C64.9468 54.9373 64.61 59.6607 65.3947 62.5895C65.8222 64.1848 68.3024 63.5231 67.8742 61.9251C67.4852 60.4731 67.1578 57.0024 69.1761 56.4616C71.2099 55.9166 72.6542 59.1197 73.044 60.5744C73.4715 62.1697 75.9517 61.508 75.5235 59.91Z" fill="#09061D"/>
<path d="M103.285 52.3841C102.937 50.9447 102.615 47.5552 104.613 47.02C106.621 46.4824 108.038 49.6059 108.453 51.0302C108.915 52.6138 111.397 51.9552 110.933 50.3658C110.088 47.4702 107.518 43.5847 103.949 44.5405C100.389 45.494 100.099 50.1225 100.805 53.0485C101.192 54.6555 103.672 53.9903 103.285 52.3841Z" fill="#09061D"/>
</svg>
