<svg width="116" height="68" viewBox="0 0 116 68" fill="none" xmlns="http://www.w3.org/2000/svg">
<path d="M115.977 5.1012C105.495 23.2782 95.0153 41.454 84.5369 59.6282C82.9666 62.3598 80.945 63.2297 78.6171 62.2811C77.6526 61.8607 76.8624 61.12 76.3796 60.1832C66.1103 42.3841 55.8411 24.585 45.5719 6.78586C44.0016 4.03058 44.6768 2.14912 47.8016 0H65.8395C66.338 0.787224 66.4322 1.68466 66.5264 2.58996C66.8464 6.0304 68.4229 9.23097 70.9533 11.5769C73.4833 13.9228 76.7886 15.2486 80.2345 15.2997C87.269 15.3587 93.2516 9.98592 94.1662 2.79464C94.2879 1.83816 94.2997 0.858074 94.8336 0H112.467C114.359 0.661269 115.368 2.12156 116 3.93611L115.977 5.1012Z" fill="#115395"/>
<path d="M0 61.6159C4.55889 53.7831 9.11645 45.9474 13.6727 38.1095C19.5584 27.936 25.4323 17.7519 31.2945 7.55736C33.6105 3.55434 37.3555 3.51892 39.652 7.49045C49.772 25.0455 59.8097 42.6084 70.0396 60.0769C72.0888 63.5722 70.0396 67.5319 65.8629 67.1934C61.1247 66.7998 56.3355 67.0556 51.5699 67.1344C50.0233 67.1619 49.4344 66.7407 49.2931 65.0915C48.6768 57.8255 43.3224 52.496 36.4448 52.1023C29.2139 51.7087 23.302 56.1762 21.7593 63.2415C21.7161 63.4344 21.6612 63.6351 21.6298 63.8162C21.1077 67.0911 21.1077 67.0911 17.8416 67.0911C13.7276 67.0911 9.59796 66.9454 5.50361 67.1462C2.99519 67.2642 1.24047 66.4495 0.0078511 64.3436L0 61.6159Z" fill="#FEB82F"/>
</svg>
