<svg width="56" height="33" viewBox="0 0 56 33" fill="none" xmlns="http://www.w3.org/2000/svg">
<path d="M55.275 3.19037C50.2849 11.8443 45.2954 20.4977 40.3067 29.1503C39.5591 30.4508 38.5966 30.865 37.4883 30.4134C37.0292 30.2132 36.6529 29.8605 36.4231 29.4145C31.5339 20.9405 26.6448 12.4665 21.7557 3.99242C21.0081 2.68065 21.3296 1.7849 22.8173 0.761719H31.405C31.6423 1.13651 31.6872 1.56377 31.732 1.99478C31.8844 3.63276 32.6349 5.15653 33.8396 6.27339C35.0442 7.39027 36.6178 8.02149 38.2583 8.0458C41.6075 8.07391 44.4557 5.51595 44.8912 2.09223C44.9491 1.63686 44.9547 1.17024 45.2089 0.761719H53.6041C54.505 1.07654 54.9853 1.77178 55.2862 2.63568L55.275 3.19037Z" fill="white"/>
<path d="M0.0595703 30.0966C2.23003 26.3674 4.39985 22.6369 6.56905 18.9053C9.37121 14.0618 12.1677 9.2132 14.9587 4.35965C16.0613 2.45383 17.8443 2.43697 18.9376 4.32779C23.7557 12.6856 28.5346 21.0472 33.405 29.3639C34.3806 31.0279 33.405 32.9131 31.4165 32.752C29.1607 32.5646 26.8806 32.6864 24.6117 32.7239C23.8753 32.737 23.595 32.5365 23.5277 31.7513C23.2343 28.292 20.6851 25.7546 17.4107 25.5672C13.9681 25.3798 11.1535 27.5068 10.419 30.8705C10.3985 30.9624 10.3723 31.0579 10.3574 31.1441C10.1088 32.7033 10.1088 32.7033 8.55385 32.7033C6.59521 32.7033 4.6291 32.6339 2.6798 32.7295C1.48556 32.7857 0.650152 32.3978 0.0633082 31.3952L0.0595703 30.0966Z" fill="white"/>
</svg>
