<svg width="23" height="40" viewBox="0 0 23 40" fill="none" xmlns="http://www.w3.org/2000/svg">
<path d="M5.93802 20.342C6.33173 20.2071 6.74683 20.0478 7.18331 19.8641C7.71147 19.6416 8.246 19.3827 8.7054 19.1579C9.11741 18.9557 9.53405 18.7251 9.9374 18.5021L10.1951 18.3599C11.1873 17.7948 12.157 17.1851 13.0792 16.5477C13.649 16.1565 14.0755 15.8503 14.4632 15.5538L14.5522 15.4862C14.9688 15.1695 15.3999 14.8425 15.7998 14.5038H15.8027C16.1644 14.2068 16.5142 13.9067 16.8521 13.6035C16.7044 11.5059 16.2468 9.44171 15.4941 7.4782L15.3531 7.13148C15.3011 7.00493 15.2526 6.88878 15.204 6.7761L15.0648 6.45423C14.1058 4.34047 12.7801 2.41322 11.1492 0.761719C4.82621 7.19563 4.84355 15.544 5.93802 20.342Z" fill="url(#paint0_linear_1162_1180)"/>
<path d="M14.6203 18.7817C13.6036 19.4779 12.5493 20.1176 11.4623 20.6979C10.3698 21.2827 9.23744 21.79 8.0737 22.2159C7.60275 22.3893 7.12659 22.5372 6.65332 22.6666C7.01622 23.5612 7.38432 24.1049 7.64724 24.183H14.6607C15.2964 23.9946 16.5446 21.092 16.8497 17.0938C16.1551 17.6687 15.4085 18.2333 14.6203 18.7817Z" fill="url(#paint1_linear_1162_1180)"/>
<path d="M14.9965 24.7624C15.679 24.5595 17.0416 21.3599 17.3155 16.9971L20.2464 21.0554C20.42 21.2959 20.5359 21.5732 20.585 21.8657C20.6341 22.1582 20.6151 22.4582 20.5295 22.7422L18.926 28.0677C18.9074 28.13 18.8731 28.1864 18.8265 28.2316C18.7799 28.2768 18.7225 28.3094 18.6597 28.3261C18.597 28.3429 18.531 28.3433 18.468 28.3273C18.4051 28.3113 18.3473 28.2794 18.3002 28.2347L14.6221 24.7624H14.9965Z" fill="url(#paint2_linear_1162_1180)"/>
<path d="M8.20956 24.9238C3.18795 29.8992 7.11509 34.7215 7.11509 34.7215C6.41588 33.4987 7.12145 32.2944 7.67909 31.6588C7.3578 32.6412 8.7071 35.0549 9.2711 35.6692C9.92119 36.3782 11.2069 37.5397 10.7331 39.7616C13.6097 38.2753 13.3051 35.516 13.1069 34.5822C13.041 34.2871 13.0157 33.9844 13.0318 33.6825C13.2277 30.6579 15.9402 31.9784 15.8252 33.1254C17.5877 31.326 16.2875 27.3087 14.1251 24.9238H8.20956Z" fill="url(#paint3_linear_1162_1180)"/>
<path d="M2.32193 20.771H2.32828L2.36238 20.7866L2.3982 20.7976C2.42363 20.8051 2.44848 20.8138 2.47333 20.8225L2.48951 20.8282H2.49471L2.51204 20.8323L2.65015 20.8641L2.79346 20.8843C2.91929 20.8989 3.04587 20.9061 3.17254 20.9057C3.49679 20.9013 3.82021 20.8717 4.13988 20.8173C4.58823 20.7368 5.03114 20.6285 5.46607 20.4931C5.21921 19.3404 5.05889 18.1708 4.98645 16.9941L2.27686 20.7462C2.28957 20.7525 2.3017 20.7589 2.31557 20.7647L2.32193 20.771Z" fill="url(#paint4_linear_1162_1180)"/>
<path d="M6.12296 22.8057C5.55277 22.9434 4.97342 23.04 4.38938 23.0946H4.37898C4.14784 23.1108 3.90513 23.1258 3.6555 23.1258C3.56766 23.1258 3.48214 23.1258 3.3995 23.1206C3.05681 23.1107 2.71576 23.0691 2.38073 22.9964H2.37149H2.36224L2.13572 22.9386L2.11261 22.9328L2.09007 22.9253L1.87511 22.8513C1.84795 22.8432 1.8231 22.834 1.79883 22.8247L3.37639 28.0648C3.39501 28.127 3.42925 28.1834 3.47586 28.2287C3.52247 28.2739 3.57988 28.3064 3.64263 28.3232C3.70539 28.3399 3.77138 28.3403 3.83433 28.3243C3.89727 28.3083 3.95507 28.2765 4.00221 28.2318L7.6803 24.7594H7.30585C6.99611 24.6698 6.54711 23.9597 6.12296 22.8057Z" fill="url(#paint5_linear_1162_1180)"/>
<path d="M13.1019 9.8574C13.295 9.85091 13.4883 9.86077 13.6798 9.88687C13.7338 9.8918 13.7873 9.90107 13.8399 9.91461C13.8219 9.92039 13.8081 9.92559 13.7936 9.92963C13.3999 10.0432 13.0192 10.1981 12.6581 10.3919C12.4252 10.516 12.2112 10.6726 12.0225 10.8571C11.7486 11.1273 11.5717 11.4803 11.5192 11.8614C11.491 12.0799 11.4867 12.3008 11.5065 12.5202C11.529 12.8166 11.5787 13.109 11.6157 13.4032C11.6481 13.6303 11.6624 13.8597 11.6584 14.0891C11.6557 14.3924 11.5988 14.6928 11.4903 14.9761C11.427 15.1466 11.3306 15.3029 11.2068 15.4361C11.0829 15.5693 10.934 15.6767 10.7685 15.7522C10.6321 15.8128 10.488 15.8546 10.3403 15.8764C10.3461 15.862 10.3582 15.8568 10.3669 15.8492C10.6498 15.6289 10.8518 15.321 10.9413 14.9738C10.995 14.7583 11.0179 14.5363 11.0095 14.3144C10.9903 13.9852 10.9532 13.6573 10.8985 13.3321C10.8541 13.051 10.824 12.7679 10.8084 12.4838C10.7888 12.0047 10.8564 11.543 11.084 11.1142C11.1972 10.8971 11.3417 10.6977 11.5128 10.5225C11.6782 10.355 11.8699 10.2156 12.0803 10.1099C12.3145 9.99338 12.566 9.91533 12.8251 9.87878C12.917 9.8668 13.0094 9.85967 13.1019 9.8574Z" fill="white"/>
<path d="M9.48524 12.714L9.36967 12.844C9.10549 13.1361 8.90636 13.481 8.78545 13.8559C8.74278 13.9946 8.71546 14.1376 8.70397 14.2823C8.67418 14.6229 8.74575 14.9647 8.90969 15.2647C9.02491 15.475 9.17836 15.6619 9.36215 15.816C9.60797 16.0219 9.88887 16.1818 10.1914 16.2881L10.2105 16.2985C10.1787 16.2985 10.1561 16.2985 10.133 16.2985C9.82045 16.2911 9.51324 16.2158 9.23271 16.0777C9.03694 15.9807 8.85959 15.8502 8.70859 15.6923C8.46157 15.4365 8.29449 15.1142 8.22781 14.7648C8.20775 14.663 8.19768 14.5595 8.19776 14.4557C8.19693 14.2087 8.25018 13.9645 8.35378 13.7403C8.4485 13.5367 8.57972 13.3522 8.74095 13.1959C8.8937 13.0472 9.0664 12.9204 9.25409 12.8192C9.31766 12.7839 9.38238 12.7504 9.44883 12.7215C9.45923 12.7169 9.46964 12.714 9.48004 12.71L9.48524 12.714Z" fill="white"/>
<path d="M14.592 11.4592L14.4811 11.4691C13.8924 11.5133 13.3259 11.7122 12.8388 12.0458C12.5057 12.2788 12.2093 12.5603 11.9593 12.8808C11.8892 12.9686 11.8222 13.0586 11.7582 13.1506L11.7397 13.1761C11.7366 13.1224 11.7386 13.0687 11.7455 13.0154C11.7675 12.7573 11.8407 12.5063 11.961 12.2769C12.0818 12.0438 12.2518 11.8398 12.4592 11.6789C12.6667 11.5181 12.9066 11.4043 13.1624 11.3454C13.5771 11.2466 14.0109 11.264 14.4164 11.3957C14.4767 11.4114 14.5355 11.4327 14.592 11.4592Z" fill="white"/>
<path d="M9.89608 12.0005C9.89584 12.1044 9.86475 12.2059 9.80675 12.2921C9.74875 12.3784 9.66645 12.4454 9.57029 12.4848C9.47412 12.5242 9.36842 12.5342 9.26659 12.5134C9.16477 12.4927 9.07139 12.4422 8.99832 12.3683C8.92524 12.2944 8.87575 12.2005 8.85612 12.0984C8.8365 11.9964 8.84762 11.8908 8.88807 11.795C8.92853 11.6993 8.9965 11.6178 9.08336 11.5607C9.17023 11.5037 9.27208 11.4737 9.376 11.4746C9.51456 11.4759 9.647 11.5318 9.74444 11.6303C9.84187 11.7289 9.89639 11.8619 9.89608 12.0005Z" fill="white"/>
<path d="M22.3873 8.05876L22.3804 7.94318L22.3608 7.82761C22.3181 7.51016 22.2008 7.20734 22.0185 6.94397C21.8362 6.6806 21.594 6.46419 21.3119 6.31246L21.2097 6.25467L21.1022 6.20671C21.0317 6.17242 20.9591 6.1425 20.8849 6.11714L20.663 6.04317L20.4365 5.98828C20.135 5.92392 19.8282 5.88832 19.52 5.88195C19.2142 5.87334 18.9082 5.88299 18.6035 5.91084C17.999 5.9724 17.4001 6.0802 16.8121 6.23329C16.4516 6.32517 16.0944 6.43034 15.7414 6.54534C15.7934 6.66669 15.8444 6.78862 15.8945 6.91112C16.2366 6.8229 16.5798 6.74586 16.9242 6.67998C17.4959 6.569 18.0757 6.5056 18.6578 6.49044C18.939 6.48479 19.2203 6.49792 19.4998 6.52973C19.7653 6.55711 20.0276 6.61033 20.2828 6.68865L20.4619 6.7499L20.6278 6.82329C20.681 6.84734 20.7325 6.87494 20.782 6.90592L20.8566 6.94753L20.9219 6.99665C21.0852 7.10902 21.22 7.25803 21.3154 7.43178C21.3988 7.60099 21.4444 7.78635 21.4489 7.97496L21.4535 8.04893L21.4489 8.12868C21.4482 8.18204 21.4441 8.23531 21.4368 8.28817L21.4136 8.45228L21.3755 8.62217C21.2634 9.07984 21.0352 9.55599 20.7688 10.0165C20.685 10.161 20.5954 10.3055 20.5 10.4447C20.1912 10.3479 19.8606 10.3452 19.5503 10.4368C19.2399 10.5284 18.9638 10.7103 18.757 10.9593C18.5503 11.2083 18.4223 11.5131 18.3893 11.835C18.3563 12.157 18.4198 12.4814 18.5717 12.7672C17.813 13.537 17.0134 14.2656 16.1765 14.9497C15.7367 15.3202 15.2762 15.668 14.8174 16.0165C14.3585 16.3649 13.887 16.7001 13.4108 17.0272C12.4603 17.6836 11.4814 18.2985 10.4822 18.8665C9.97893 19.1439 9.4785 19.4276 8.96479 19.6795C8.45107 19.9315 7.93619 20.1782 7.41265 20.399C6.36846 20.8382 5.29595 21.208 4.23441 21.3929C3.70914 21.4755 3.18386 21.5206 2.71811 21.4622L2.54475 21.4374L2.38295 21.401C2.33114 21.3892 2.28018 21.3739 2.23039 21.3553L2.15469 21.3317L2.08766 21.301C1.91382 21.2301 1.75747 21.1222 1.62942 20.9849C1.50164 20.8346 1.41081 20.6565 1.36418 20.4649L1.34164 20.3863L1.32951 20.3019C1.31798 20.2447 1.31045 20.1868 1.30697 20.1285V20.1239C1.50362 20.0802 1.68315 19.9798 1.82342 19.8352C1.96368 19.6906 2.05854 19.5081 2.09627 19.3102C2.13401 19.1124 2.11297 18.9078 2.03575 18.7217C1.95854 18.5356 1.82853 18.3762 1.66178 18.2632L1.69645 18.1713C1.91825 17.633 2.184 17.1139 2.49101 16.6192C2.80039 16.1133 3.13961 15.6262 3.50689 15.1607C3.93448 14.6161 4.38946 14.0936 4.87006 13.5952V13.5623C4.87931 13.441 4.88971 13.3208 4.90069 13.2C4.3182 13.7484 3.75941 14.3222 3.23298 14.9261C2.83422 15.381 2.45945 15.8565 2.1102 16.3505C1.75737 16.8459 1.44287 17.3675 1.16944 17.9107L1.08969 18.0841H1.0816C0.855582 18.0837 0.635689 18.1575 0.455769 18.2943C0.275849 18.4311 0.145874 18.6233 0.0858479 18.8412C0.0258221 19.0591 0.0390729 19.2907 0.12356 19.5003C0.208048 19.71 0.359089 19.886 0.553438 20.0014L0.548237 20.117C0.545743 20.1954 0.547865 20.274 0.554593 20.3522L0.56095 20.4677L0.580019 20.5833C0.621183 20.9008 0.736881 21.2041 0.917657 21.4683C1.09843 21.7325 1.33916 21.9503 1.62017 22.1037L1.72245 22.1615L1.82993 22.21C1.90053 22.2446 1.97308 22.2751 2.04721 22.3013L2.26969 22.3764L2.49563 22.4342C2.79767 22.5005 3.10531 22.538 3.41443 22.5463C3.72073 22.5563 4.02734 22.548 4.33265 22.5215C4.93939 22.4631 5.54078 22.3584 6.13153 22.2083C6.72075 22.061 7.30191 21.8832 7.87263 21.6755C9.01219 21.2604 10.121 20.7653 11.1907 20.1938C12.2594 19.6241 13.2958 18.9956 14.295 18.3112C15.2905 17.6213 16.2473 16.8772 17.1612 16.0824C18.0504 15.3107 18.8859 14.4793 19.6622 13.5941C19.776 13.6195 19.8922 13.6324 20.0089 13.6328C20.2964 13.634 20.5792 13.5592 20.8284 13.4158C21.0777 13.2724 21.2846 13.0656 21.4281 12.8164C21.5715 12.5672 21.6465 12.2845 21.6454 11.997C21.6443 11.7094 21.5671 11.4273 21.4217 11.1792C21.55 10.9596 21.672 10.7366 21.7841 10.5077C21.9174 10.2316 22.0345 9.94799 22.1348 9.65827C22.2372 9.36679 22.3118 9.06633 22.3579 8.76086L22.3862 8.52971L22.3949 8.2951C22.3973 8.21624 22.3948 8.1373 22.3873 8.05876Z" fill="url(#paint6_linear_1162_1180)"/>
<path d="M19.2465 17.6267C19.9036 17.6267 20.4363 17.094 20.4363 16.4369C20.4363 15.7798 19.9036 15.2471 19.2465 15.2471C18.5893 15.2471 18.0566 15.7798 18.0566 16.4369C18.0566 17.094 18.5893 17.6267 19.2465 17.6267Z" fill="url(#paint7_linear_1162_1180)"/>
<path d="M4.47499 16.2342C4.80339 16.2342 5.06961 15.9679 5.06961 15.6395C5.06961 15.3111 4.80339 15.0449 4.47499 15.0449C4.14659 15.0449 3.88037 15.3111 3.88037 15.6395C3.88037 15.9679 4.14659 16.2342 4.47499 16.2342Z" fill="url(#paint8_linear_1162_1180)"/>
<path d="M16.5272 8.51248C16.8556 8.51248 17.1219 8.24626 17.1219 7.91786C17.1219 7.58946 16.8556 7.32324 16.5272 7.32324C16.1988 7.32324 15.9326 7.58946 15.9326 7.91786C15.9326 8.24626 16.1988 8.51248 16.5272 8.51248Z" fill="url(#paint9_linear_1162_1180)"/>
<path d="M5.14392 6.01342C5.80103 6.01342 6.33373 5.48072 6.33373 4.82361C6.33373 4.16649 5.80103 3.63379 5.14392 3.63379C4.4868 3.63379 3.9541 4.16649 3.9541 4.82361C3.9541 5.48072 4.4868 6.01342 5.14392 6.01342Z" fill="url(#paint10_linear_1162_1180)"/>
<defs>
<linearGradient id="paint0_linear_1162_1180" x1="11.1804" y1="2.99631" x2="11.0671" y2="24.5031" gradientUnits="userSpaceOnUse">
<stop stop-color="#00AEEF"/>
<stop offset="1" stop-color="#3A38B6"/>
</linearGradient>
<linearGradient id="paint1_linear_1162_1180" x1="11.8379" y1="2.99972" x2="11.7246" y2="24.5066" gradientUnits="userSpaceOnUse">
<stop stop-color="#00AEEF"/>
<stop offset="1" stop-color="#3A38B6"/>
</linearGradient>
<linearGradient id="paint2_linear_1162_1180" x1="21.056" y1="25.053" x2="17.2074" y2="22.1666" gradientUnits="userSpaceOnUse">
<stop stop-color="#00AEEF"/>
<stop offset="1" stop-color="#3A38B6"/>
</linearGradient>
<linearGradient id="paint3_linear_1162_1180" x1="10.8677" y1="25.1111" x2="11.6039" y2="39.3738" gradientUnits="userSpaceOnUse">
<stop stop-color="#FD3A77"/>
<stop offset="1" stop-color="#F8B658"/>
</linearGradient>
<linearGradient id="paint4_linear_1162_1180" x1="-0.739001" y1="22.3735" x2="4.04396" y2="19.4651" gradientUnits="userSpaceOnUse">
<stop stop-color="#00AEEF"/>
<stop offset="1" stop-color="#3A38B6"/>
</linearGradient>
<linearGradient id="paint5_linear_1162_1180" x1="1.64801" y1="26.2977" x2="6.43039" y2="23.3893" gradientUnits="userSpaceOnUse">
<stop stop-color="#00AEEF"/>
<stop offset="1" stop-color="#3A38B6"/>
</linearGradient>
<linearGradient id="paint6_linear_1162_1180" x1="20.652" y1="17.3352" x2="4.34132" y2="11.7848" gradientUnits="userSpaceOnUse">
<stop stop-color="#FD3A77"/>
<stop offset="1" stop-color="#F8B658"/>
</linearGradient>
<linearGradient id="paint7_linear_1162_1180" x1="19.1875" y1="15.302" x2="19.3048" y2="17.5695" gradientUnits="userSpaceOnUse">
<stop stop-color="#FD3A77"/>
<stop offset="1" stop-color="#F8B658"/>
</linearGradient>
<linearGradient id="paint8_linear_1162_1180" x1="4.4461" y1="15.0715" x2="4.50446" y2="16.2053" gradientUnits="userSpaceOnUse">
<stop stop-color="#FD3A77"/>
<stop offset="1" stop-color="#F8B658"/>
</linearGradient>
<linearGradient id="paint9_linear_1162_1180" x1="16.4978" y1="7.3504" x2="16.5561" y2="8.48416" gradientUnits="userSpaceOnUse">
<stop stop-color="#FD3A77"/>
<stop offset="1" stop-color="#F8B658"/>
</linearGradient>
<linearGradient id="paint10_linear_1162_1180" x1="5.08555" y1="3.68811" x2="5.20228" y2="5.95563" gradientUnits="userSpaceOnUse">
<stop stop-color="#FD3A77"/>
<stop offset="1" stop-color="#F8B658"/>
</linearGradient>
</defs>
</svg>
