<svg width="983" height="293" viewBox="0 0 983 293" fill="none" xmlns="http://www.w3.org/2000/svg">
<g clip-path="url(#clip0_921_914)">
<rect x="6.14404" y="88.6064" width="307.91" height="81.3143" rx="40.6572" fill="white"/>
<path d="M139.878 147.787V140.089H148.606C150.087 140.089 151.189 139.71 151.912 138.951C152.635 138.192 152.996 137.09 152.996 135.644C152.996 134.199 152.635 133.114 151.912 132.392C151.189 131.633 150.087 131.253 148.606 131.253H139.878V125.29H148.28C151.063 125.29 153.557 125.634 155.761 126.32C157.966 126.971 159.7 128.055 160.965 129.573C162.23 131.091 162.863 133.114 162.863 135.644V136.403C162.863 138.788 162.302 140.83 161.182 142.529C160.062 144.227 158.417 145.528 156.249 146.432C154.081 147.335 151.424 147.787 148.28 147.787H139.878ZM131.204 147.787V107.564H140.962V147.787H131.204ZM139.878 129.735V123.772H147.142C148.624 123.772 149.69 123.411 150.34 122.688C151.027 121.929 151.37 120.881 151.37 119.544C151.37 118.171 151.027 117.123 150.34 116.4C149.69 115.641 148.624 115.261 147.142 115.261H139.878V107.564H146.708C151.334 107.564 154.912 108.539 157.442 110.491C159.971 112.406 161.236 115.153 161.236 118.731V119.544C161.236 122.038 160.586 124.043 159.285 125.561C158.02 127.043 156.285 128.109 154.081 128.76C151.912 129.41 149.455 129.735 146.708 129.735H139.878ZM179.629 148.438C176.232 148.438 173.594 147.335 171.714 145.131C169.871 142.89 168.95 139.475 168.95 134.885V117.538H178.816V135.156C178.816 136.494 179.213 137.578 180.008 138.409C180.804 139.24 181.87 139.656 183.207 139.656C184.544 139.656 185.628 139.24 186.459 138.409C187.291 137.578 187.706 136.457 187.706 135.048V117.538H197.572V147.462H189.766V134.885H190.308C190.308 137.957 189.911 140.505 189.116 142.529C188.357 144.517 187.218 145.998 185.7 146.974C184.183 147.95 182.303 148.438 180.063 148.438H179.629ZM207.351 147.462V117.538H217.217V147.462H207.351ZM203.557 124.694V117.538H217.217V124.694H203.557ZM211.417 115.153C209.61 115.153 208.273 114.701 207.406 113.798C206.574 112.858 206.159 111.666 206.159 110.22C206.159 108.774 206.574 107.6 207.406 106.696C208.273 105.757 209.592 105.287 211.363 105.287C213.17 105.287 214.489 105.757 215.32 106.696C216.151 107.6 216.567 108.774 216.567 110.22C216.567 111.666 216.151 112.858 215.32 113.798C214.489 114.701 213.188 115.153 211.417 115.153ZM225.988 147.462V107.889H235.855V147.462H225.988ZM222.627 115.045V107.889H235.855V115.045H222.627ZM256.52 148.438C254.424 148.438 252.509 148.058 250.774 147.299C249.075 146.54 247.594 145.492 246.329 144.155C245.1 142.782 244.142 141.174 243.456 139.33C242.805 137.487 242.48 135.482 242.48 133.313V132.012C242.48 129.844 242.787 127.838 243.401 125.995C244.052 124.116 244.974 122.489 246.166 121.116C247.359 119.707 248.804 118.622 250.503 117.863C252.202 117.068 254.099 116.671 256.195 116.671C258.616 116.671 260.676 117.213 262.375 118.297C264.11 119.345 265.429 120.881 266.332 122.905C267.272 124.929 267.778 127.386 267.85 130.277L265.573 128.597V107.889H275.439V147.462H267.633V135.319H268.717C268.645 137.993 268.103 140.324 267.091 142.312C266.079 144.264 264.67 145.781 262.863 146.866C261.092 147.914 258.978 148.438 256.52 148.438ZM259.176 140.306C260.369 140.306 261.453 140.035 262.429 139.493C263.441 138.951 264.254 138.156 264.868 137.108C265.483 136.06 265.79 134.795 265.79 133.313V131.47C265.79 130.025 265.465 128.814 264.814 127.838C264.2 126.862 263.387 126.121 262.375 125.615C261.399 125.073 260.333 124.802 259.176 124.802C257.875 124.802 256.701 125.146 255.653 125.832C254.641 126.483 253.828 127.404 253.213 128.597C252.635 129.753 252.346 131.109 252.346 132.663C252.346 134.217 252.635 135.572 253.213 136.728C253.828 137.849 254.641 138.734 255.653 139.385C256.701 139.999 257.875 140.306 259.176 140.306Z" fill="#1C1259"/>
<path d="M139.878 147.787V140.089H148.606C150.087 140.089 151.189 139.71 151.912 138.951C152.635 138.192 152.996 137.09 152.996 135.644C152.996 134.199 152.635 133.114 151.912 132.392C151.189 131.633 150.087 131.253 148.606 131.253H139.878V125.29H148.28C151.063 125.29 153.557 125.634 155.761 126.32C157.966 126.971 159.7 128.055 160.965 129.573C162.23 131.091 162.863 133.114 162.863 135.644V136.403C162.863 138.788 162.302 140.83 161.182 142.529C160.062 144.227 158.417 145.528 156.249 146.432C154.081 147.335 151.424 147.787 148.28 147.787H139.878ZM131.204 147.787V107.564H140.962V147.787H131.204ZM139.878 129.735V123.772H147.142C148.624 123.772 149.69 123.411 150.34 122.688C151.027 121.929 151.37 120.881 151.37 119.544C151.37 118.171 151.027 117.123 150.34 116.4C149.69 115.641 148.624 115.261 147.142 115.261H139.878V107.564H146.708C151.334 107.564 154.912 108.539 157.442 110.491C159.971 112.406 161.236 115.153 161.236 118.731V119.544C161.236 122.038 160.586 124.043 159.285 125.561C158.02 127.043 156.285 128.109 154.081 128.76C151.912 129.41 149.455 129.735 146.708 129.735H139.878ZM179.629 148.438C176.232 148.438 173.594 147.335 171.714 145.131C169.871 142.89 168.95 139.475 168.95 134.885V117.538H178.816V135.156C178.816 136.494 179.213 137.578 180.008 138.409C180.804 139.24 181.87 139.656 183.207 139.656C184.544 139.656 185.628 139.24 186.459 138.409C187.291 137.578 187.706 136.457 187.706 135.048V117.538H197.572V147.462H189.766V134.885H190.308C190.308 137.957 189.911 140.505 189.116 142.529C188.357 144.517 187.218 145.998 185.7 146.974C184.183 147.95 182.303 148.438 180.063 148.438H179.629ZM207.351 147.462V117.538H217.217V147.462H207.351ZM203.557 124.694V117.538H217.217V124.694H203.557ZM211.417 115.153C209.61 115.153 208.273 114.701 207.406 113.798C206.574 112.858 206.159 111.666 206.159 110.22C206.159 108.774 206.574 107.6 207.406 106.696C208.273 105.757 209.592 105.287 211.363 105.287C213.17 105.287 214.489 105.757 215.32 106.696C216.151 107.6 216.567 108.774 216.567 110.22C216.567 111.666 216.151 112.858 215.32 113.798C214.489 114.701 213.188 115.153 211.417 115.153ZM225.988 147.462V107.889H235.855V147.462H225.988ZM222.627 115.045V107.889H235.855V115.045H222.627ZM256.52 148.438C254.424 148.438 252.509 148.058 250.774 147.299C249.075 146.54 247.594 145.492 246.329 144.155C245.1 142.782 244.142 141.174 243.456 139.33C242.805 137.487 242.48 135.482 242.48 133.313V132.012C242.48 129.844 242.787 127.838 243.401 125.995C244.052 124.116 244.974 122.489 246.166 121.116C247.359 119.707 248.804 118.622 250.503 117.863C252.202 117.068 254.099 116.671 256.195 116.671C258.616 116.671 260.676 117.213 262.375 118.297C264.11 119.345 265.429 120.881 266.332 122.905C267.272 124.929 267.778 127.386 267.85 130.277L265.573 128.597V107.889H275.439V147.462H267.633V135.319H268.717C268.645 137.993 268.103 140.324 267.091 142.312C266.079 144.264 264.67 145.781 262.863 146.866C261.092 147.914 258.978 148.438 256.52 148.438ZM259.176 140.306C260.369 140.306 261.453 140.035 262.429 139.493C263.441 138.951 264.254 138.156 264.868 137.108C265.483 136.06 265.79 134.795 265.79 133.313V131.47C265.79 130.025 265.465 128.814 264.814 127.838C264.2 126.862 263.387 126.121 262.375 125.615C261.399 125.073 260.333 124.802 259.176 124.802C257.875 124.802 256.701 125.146 255.653 125.832C254.641 126.483 253.828 127.404 253.213 128.597C252.635 129.753 252.346 131.109 252.346 132.663C252.346 134.217 252.635 135.572 253.213 136.728C253.828 137.849 254.641 138.734 255.653 139.385C256.701 139.999 257.875 140.306 259.176 140.306Z" fill="#1C1259"/>
<path d="M75.8936 148.417C75.8936 130.478 63.4534 115.518 46.9334 112.105C43.0241 111.297 39.7539 114.61 39.7539 118.602V148.417C39.7539 168.876 55.9342 185.46 75.8936 185.46C95.853 185.46 112.033 168.876 112.033 148.417V118.602C112.033 114.61 108.763 111.297 104.854 112.105C88.3338 115.518 75.8936 130.478 75.8936 148.417Z" fill="#EE4266"/>
<path d="M75.8936 148.417C75.8936 130.478 63.4534 115.518 46.9334 112.105C43.0241 111.297 39.7539 114.61 39.7539 118.602V148.417C39.7539 168.876 55.9342 185.46 75.8936 185.46C95.853 185.46 112.033 168.876 112.033 148.417V118.602C112.033 114.61 108.763 111.297 104.854 112.105C88.3338 115.518 75.8936 130.478 75.8936 148.417Z" fill="#EE4266"/>
</g>
<g clip-path="url(#clip1_921_914)">
<rect x="352.723" y="180.041" width="615.821" height="87.8195" rx="43.9097" fill="white"/>
<path d="M456.264 219.072C450.548 219.072 445.915 223.566 445.915 229.11V232.99H442.728C436.731 232.99 431.87 237.273 431.87 242.557C431.87 247.841 436.731 252.125 442.728 252.125C442.728 252.125 451.624 251.521 451.624 260.879C451.624 273.163 445.277 281.991 454.619 282.957C455.686 283.067 456.302 283.067 457.37 282.957C466.741 281.997 460.904 273.163 460.904 260.879C460.904 251.521 469.8 252.125 469.8 252.125C475.797 252.125 480.658 247.841 480.658 242.557C480.658 237.273 475.797 232.99 469.8 232.99H466.613V229.11C466.613 223.566 461.98 219.072 456.264 219.072Z" fill="#EE4266"/>
<path d="M410.908 171.367C402.271 171.367 395.27 178.756 395.27 187.87V194.249H390.454C381.392 194.249 374.046 201.291 374.046 209.978C374.046 218.665 381.392 225.708 390.454 225.708C390.454 225.708 403.896 224.715 403.896 240.1C403.896 260.296 394.306 274.811 408.422 276.398C410.036 276.58 410.966 276.578 412.579 276.398C426.74 274.819 417.92 260.296 417.92 240.1C417.92 224.715 431.363 225.708 431.363 225.708C440.425 225.708 447.771 218.665 447.771 209.978C447.771 201.291 440.425 194.249 431.363 194.249H426.547V187.87C426.547 178.756 419.546 171.367 410.908 171.367Z" fill="#EE4266"/>
<path d="M469.175 239.667C466.575 239.667 464.32 239.182 462.41 238.211C460.53 237.208 459.074 235.768 458.04 233.888C457.038 232.009 456.537 229.723 456.537 227.029V225.291H464.148V227.452C464.148 228.955 464.586 230.177 465.463 231.116C466.372 232.025 467.609 232.479 469.175 232.479C470.71 232.479 471.916 232.025 472.793 231.116C473.701 230.177 474.155 228.955 474.155 227.452V210.257H481.86V227.029C481.86 229.723 481.343 232.009 480.31 233.888C479.307 235.768 477.851 237.208 475.94 238.211C474.061 239.182 471.806 239.667 469.175 239.667ZM460.53 211.196V204.478H481.86V211.196H460.53ZM500.821 239.667C498.628 239.667 496.686 239.291 494.995 238.54C493.335 237.788 491.941 236.786 490.814 235.533C489.717 234.249 488.872 232.823 488.277 231.257C487.713 229.66 487.431 228.031 487.431 226.371V225.432C487.431 223.709 487.713 222.065 488.277 220.499C488.872 218.901 489.717 217.476 490.814 216.223C491.91 214.97 493.272 213.984 494.901 213.263C496.561 212.512 498.44 212.136 500.539 212.136C503.295 212.136 505.613 212.762 507.492 214.015C509.403 215.237 510.859 216.85 511.861 218.854C512.864 220.827 513.365 222.989 513.365 225.338V227.875H490.579V223.599H508.808L506.365 225.573C506.365 224.038 506.145 222.722 505.707 221.626C505.268 220.53 504.611 219.7 503.734 219.136C502.888 218.541 501.823 218.243 500.539 218.243C499.223 218.243 498.112 218.541 497.203 219.136C496.295 219.731 495.606 220.608 495.136 221.767C494.666 222.895 494.431 224.288 494.431 225.948C494.431 227.483 494.651 228.83 495.089 229.989C495.528 231.116 496.217 231.993 497.156 232.62C498.096 233.246 499.317 233.559 500.821 233.559C502.199 233.559 503.326 233.293 504.203 232.761C505.08 232.228 505.676 231.571 505.989 230.788H512.895C512.519 232.51 511.783 234.045 510.687 235.392C509.591 236.739 508.213 237.788 506.553 238.54C504.893 239.291 502.982 239.667 500.821 239.667ZM530.514 239.103C527.915 239.103 525.816 238.79 524.219 238.164C522.621 237.506 521.447 236.425 520.695 234.922C519.975 233.387 519.615 231.32 519.615 228.72V206.075H526.615V229.002C526.615 230.224 526.928 231.163 527.554 231.821C528.212 232.448 529.136 232.761 530.326 232.761H534.132V239.103H530.514ZM515.715 218.525V213.028H534.132V218.525H515.715ZM539.657 248.171V213.028H545.623V224.163L544.825 224.116C544.95 221.548 545.482 219.387 546.422 217.633C547.362 215.847 548.63 214.516 550.227 213.639C551.825 212.731 553.626 212.277 555.63 212.277C557.416 212.277 559.029 212.606 560.469 213.263C561.942 213.921 563.194 214.845 564.228 216.035C565.293 217.194 566.092 218.572 566.624 220.17C567.188 221.736 567.47 223.458 567.47 225.338V226.418C567.47 228.266 567.204 230.005 566.671 231.633C566.139 233.231 565.356 234.624 564.322 235.815C563.32 237.005 562.083 237.944 560.61 238.633C559.17 239.291 557.51 239.62 555.63 239.62C553.688 239.62 551.934 239.229 550.368 238.446C548.834 237.631 547.597 236.41 546.657 234.781C545.717 233.121 545.2 231.022 545.106 228.485L547.174 231.304V248.171H539.657ZM553.516 233.325C554.8 233.325 555.912 233.011 556.852 232.385C557.823 231.758 558.575 230.882 559.107 229.754C559.639 228.626 559.906 227.327 559.906 225.854C559.906 224.382 559.639 223.098 559.107 222.002C558.575 220.906 557.839 220.06 556.899 219.465C555.959 218.839 554.832 218.525 553.516 218.525C552.389 218.525 551.324 218.792 550.321 219.324C549.319 219.856 548.505 220.624 547.878 221.626C547.283 222.597 546.986 223.787 546.986 225.197V226.935C546.986 228.282 547.299 229.441 547.925 230.412C548.583 231.351 549.413 232.072 550.415 232.573C551.418 233.074 552.451 233.325 553.516 233.325ZM588.711 238.774V231.163H587.443V222.895C587.443 221.579 587.13 220.593 586.503 219.935C585.877 219.277 584.874 218.948 583.496 218.948C582.807 218.948 581.899 218.964 580.771 218.995C579.644 219.026 578.485 219.073 577.295 219.136C576.105 219.199 575.024 219.261 574.053 219.324V212.982C574.773 212.919 575.619 212.856 576.59 212.794C577.561 212.731 578.563 212.684 579.597 212.653C580.63 212.621 581.601 212.606 582.51 212.606C585.141 212.606 587.349 212.982 589.134 213.733C590.951 214.485 592.329 215.628 593.269 217.163C594.208 218.666 594.678 220.608 594.678 222.989V238.774H588.711ZM580.49 239.432C578.642 239.432 577.013 239.103 575.603 238.446C574.225 237.788 573.145 236.848 572.362 235.627C571.579 234.374 571.187 232.886 571.187 231.163C571.187 229.284 571.673 227.749 572.644 226.559C573.615 225.338 574.977 224.445 576.731 223.881C578.485 223.286 580.505 222.989 582.792 222.989H588.288V227.17H582.745C581.429 227.17 580.411 227.499 579.691 228.157C579.002 228.783 578.657 229.644 578.657 230.741C578.657 231.774 579.002 232.62 579.691 233.278C580.411 233.904 581.429 234.217 582.745 234.217C583.59 234.217 584.342 234.076 585 233.794C585.689 233.481 586.253 232.964 586.691 232.244C587.13 231.524 587.38 230.521 587.443 229.237L589.228 231.116C589.071 232.902 588.633 234.405 587.913 235.627C587.224 236.848 586.253 237.788 585 238.446C583.778 239.103 582.275 239.432 580.49 239.432ZM613.083 239.667C610.859 239.667 608.917 239.307 607.257 238.586C605.629 237.835 604.266 236.833 603.17 235.58C602.074 234.327 601.259 232.917 600.727 231.351C600.194 229.754 599.928 228.11 599.928 226.418V225.526C599.928 223.772 600.21 222.096 600.774 220.499C601.338 218.87 602.168 217.429 603.264 216.176C604.36 214.923 605.723 213.937 607.351 213.216C609.011 212.496 610.906 212.136 613.036 212.136C615.354 212.136 617.405 212.59 619.191 213.498C620.976 214.375 622.401 215.612 623.466 217.21C624.531 218.807 625.126 220.64 625.251 222.707H617.875C617.75 221.548 617.28 220.577 616.466 219.794C615.683 218.979 614.539 218.572 613.036 218.572C611.783 218.572 610.734 218.886 609.888 219.512C609.074 220.138 608.463 221 608.056 222.096C607.649 223.192 607.445 224.492 607.445 225.995C607.445 227.374 607.633 228.626 608.009 229.754C608.385 230.85 608.98 231.712 609.794 232.338C610.64 232.933 611.736 233.231 613.083 233.231C614.085 233.231 614.931 233.058 615.62 232.714C616.34 232.338 616.904 231.837 617.311 231.21C617.75 230.553 618.016 229.801 618.11 228.955H625.439C625.345 231.085 624.75 232.964 623.654 234.593C622.558 236.19 621.101 237.443 619.285 238.352C617.468 239.229 615.401 239.667 613.083 239.667ZM648.851 238.774L640.724 226.747H637.106L647.583 213.028H655.476L645.61 225.807L645.704 222.143L657.308 238.774H648.851ZM630.717 238.774V204.478H638.234V238.774H630.717ZM688.205 239.667C685.135 239.667 682.457 239.166 680.171 238.164C677.884 237.13 675.99 235.752 674.486 234.029C673.014 232.307 671.918 230.396 671.197 228.298C670.477 226.199 670.117 224.1 670.117 222.002V220.968C670.117 218.807 670.477 216.693 671.197 214.626C671.918 212.559 672.998 210.679 674.439 208.988C675.911 207.297 677.728 205.95 679.889 204.948C682.081 203.945 684.603 203.444 687.453 203.444C690.554 203.444 693.294 204.024 695.675 205.183C698.055 206.31 699.966 207.892 701.407 209.928C702.847 211.932 703.677 214.266 703.897 216.928H696.192C696.004 215.675 695.503 214.579 694.688 213.639C693.905 212.7 692.887 211.964 691.634 211.431C690.413 210.899 689.019 210.632 687.453 210.632C685.95 210.632 684.603 210.899 683.413 211.431C682.254 211.964 681.251 212.715 680.406 213.686C679.591 214.657 678.965 215.816 678.527 217.163C678.119 218.478 677.916 219.935 677.916 221.532C677.916 223.192 678.135 224.711 678.574 226.089C679.043 227.436 679.717 228.611 680.594 229.613C681.471 230.584 682.551 231.336 683.835 231.868C685.151 232.401 686.607 232.667 688.205 232.667C690.335 232.667 692.183 232.228 693.749 231.351C695.315 230.474 696.442 229.315 697.131 227.875L696.192 233.137V224.962H703.286V232.291C701.814 234.671 699.778 236.504 697.178 237.788C694.61 239.041 691.619 239.667 688.205 239.667ZM687.218 226.465V220.921H706.105V226.465H687.218ZM722.925 239.667C720.732 239.667 718.79 239.291 717.099 238.54C715.439 237.788 714.045 236.786 712.917 235.533C711.821 234.249 710.976 232.823 710.38 231.257C709.817 229.66 709.535 228.031 709.535 226.371V225.432C709.535 223.709 709.817 222.065 710.38 220.499C710.976 218.901 711.821 217.476 712.917 216.223C714.014 214.97 715.376 213.984 717.005 213.263C718.665 212.512 720.544 212.136 722.643 212.136C725.399 212.136 727.717 212.762 729.596 214.015C731.507 215.237 732.963 216.85 733.965 218.854C734.968 220.827 735.469 222.989 735.469 225.338V227.875H712.683V223.599H730.911L728.468 225.573C728.468 224.038 728.249 222.722 727.811 221.626C727.372 220.53 726.714 219.7 725.837 219.136C724.992 218.541 723.927 218.243 722.643 218.243C721.327 218.243 720.215 218.541 719.307 219.136C718.399 219.731 717.71 220.608 717.24 221.767C716.77 222.895 716.535 224.288 716.535 225.948C716.535 227.483 716.754 228.83 717.193 229.989C717.631 231.116 718.32 231.993 719.26 232.62C720.2 233.246 721.421 233.559 722.925 233.559C724.303 233.559 725.43 233.293 726.307 232.761C727.184 232.228 727.779 231.571 728.093 230.788H734.999C734.623 232.51 733.887 234.045 732.791 235.392C731.694 236.739 730.316 237.788 728.656 238.54C726.996 239.291 725.086 239.667 722.925 239.667ZM740.92 238.774V213.028H746.886V224.069H746.463C746.463 221.438 746.792 219.246 747.45 217.492C748.139 215.738 749.173 214.422 750.551 213.545C751.929 212.668 753.605 212.23 755.578 212.23H755.907C758.914 212.23 761.2 213.216 762.766 215.19C764.363 217.132 765.162 220.091 765.162 224.069V238.774H757.645V223.646C757.645 222.268 757.238 221.141 756.424 220.264C755.609 219.387 754.513 218.948 753.135 218.948C751.725 218.948 750.582 219.402 749.705 220.311C748.859 221.188 748.437 222.347 748.437 223.787V238.774H740.92ZM783.83 239.667C781.637 239.667 779.696 239.291 778.004 238.54C776.344 237.788 774.95 236.786 773.823 235.533C772.727 234.249 771.881 232.823 771.286 231.257C770.722 229.66 770.44 228.031 770.44 226.371V225.432C770.44 223.709 770.722 222.065 771.286 220.499C771.881 218.901 772.727 217.476 773.823 216.223C774.919 214.97 776.282 213.984 777.91 213.263C779.57 212.512 781.45 212.136 783.548 212.136C786.304 212.136 788.622 212.762 790.501 214.015C792.412 215.237 793.868 216.85 794.871 218.854C795.873 220.827 796.374 222.989 796.374 225.338V227.875H773.588V223.599H791.817L789.374 225.573C789.374 224.038 789.155 222.722 788.716 221.626C788.278 220.53 787.62 219.7 786.743 219.136C785.897 218.541 784.832 218.243 783.548 218.243C782.233 218.243 781.121 218.541 780.212 219.136C779.304 219.731 778.615 220.608 778.145 221.767C777.675 222.895 777.44 224.288 777.44 225.948C777.44 227.483 777.66 228.83 778.098 229.989C778.537 231.116 779.226 231.993 780.165 232.62C781.105 233.246 782.327 233.559 783.83 233.559C785.208 233.559 786.336 233.293 787.213 232.761C788.09 232.228 788.685 231.571 788.998 230.788H795.904C795.528 232.51 794.792 234.045 793.696 235.392C792.6 236.739 791.222 237.788 789.562 238.54C787.902 239.291 785.991 239.667 783.83 239.667ZM801.825 238.774V213.028H807.792V224.069H807.651C807.651 220.436 808.418 217.633 809.953 215.659C811.519 213.686 813.774 212.7 816.718 212.7H817.705V219.183H815.826C813.758 219.183 812.161 219.747 811.033 220.874C809.906 221.971 809.342 223.568 809.342 225.667V238.774H801.825ZM837.437 238.774V231.163H836.168V222.895C836.168 221.579 835.855 220.593 835.229 219.935C834.602 219.277 833.6 218.948 832.222 218.948C831.533 218.948 830.624 218.964 829.497 218.995C828.369 219.026 827.21 219.073 826.02 219.136C824.83 219.199 823.749 219.261 822.778 219.324V212.982C823.499 212.919 824.345 212.856 825.315 212.794C826.286 212.731 827.289 212.684 828.322 212.653C829.356 212.621 830.327 212.606 831.235 212.606C833.866 212.606 836.074 212.982 837.86 213.733C839.676 214.485 841.054 215.628 841.994 217.163C842.934 218.666 843.403 220.608 843.403 222.989V238.774H837.437ZM829.215 239.432C827.367 239.432 825.738 239.103 824.329 238.446C822.951 237.788 821.87 236.848 821.087 235.627C820.304 234.374 819.913 232.886 819.913 231.163C819.913 229.284 820.398 227.749 821.369 226.559C822.34 225.338 823.702 224.445 825.456 223.881C827.21 223.286 829.231 222.989 831.517 222.989H837.014V227.17H831.47C830.155 227.17 829.137 227.499 828.416 228.157C827.727 228.783 827.383 229.644 827.383 230.741C827.383 231.774 827.727 232.62 828.416 233.278C829.137 233.904 830.155 234.217 831.47 234.217C832.316 234.217 833.067 234.076 833.725 233.794C834.414 233.481 834.978 232.964 835.417 232.244C835.855 231.524 836.106 230.521 836.168 229.237L837.954 231.116C837.797 232.902 837.358 234.405 836.638 235.627C835.949 236.848 834.978 237.788 833.725 238.446C832.504 239.103 831 239.432 829.215 239.432ZM861.949 239.103C859.35 239.103 857.251 238.79 855.654 238.164C854.056 237.506 852.882 236.425 852.13 234.922C851.41 233.387 851.05 231.32 851.05 228.72V206.075H858.05V229.002C858.05 230.224 858.363 231.163 858.99 231.821C859.647 232.448 860.571 232.761 861.761 232.761H865.567V239.103H861.949ZM847.15 218.525V213.028H865.567V218.525H847.15ZM872.313 238.774V213.028H879.83V238.774H872.313ZM868.884 218.572V213.028H879.83V218.572H868.884ZM875.226 210.491C873.817 210.491 872.767 210.131 872.078 209.411C871.421 208.659 871.092 207.72 871.092 206.592C871.092 205.433 871.421 204.493 872.078 203.773C872.767 203.021 873.817 202.646 875.226 202.646C876.636 202.646 877.669 203.021 878.327 203.773C879.016 204.493 879.36 205.433 879.36 206.592C879.36 207.72 879.016 208.659 878.327 209.411C877.669 210.131 876.636 210.491 875.226 210.491ZM899.797 239.667C897.542 239.667 895.537 239.323 893.783 238.633C892.029 237.913 890.541 236.942 889.32 235.721C888.13 234.499 887.221 233.105 886.595 231.539C885.968 229.942 885.655 228.266 885.655 226.512V225.432C885.655 223.646 885.968 221.955 886.595 220.358C887.253 218.729 888.192 217.304 889.414 216.082C890.667 214.861 892.17 213.905 893.924 213.216C895.678 212.496 897.636 212.136 899.797 212.136C902.021 212.136 903.994 212.496 905.716 213.216C907.47 213.905 908.958 214.861 910.18 216.082C911.401 217.304 912.341 218.729 912.999 220.358C913.656 221.955 913.985 223.646 913.985 225.432V226.512C913.985 228.266 913.672 229.942 913.046 231.539C912.419 233.105 911.495 234.499 910.274 235.721C909.083 236.942 907.611 237.913 905.857 238.633C904.103 239.323 902.083 239.667 899.797 239.667ZM899.797 233.325C901.269 233.325 902.49 233.011 903.461 232.385C904.432 231.758 905.168 230.882 905.669 229.754C906.202 228.626 906.468 227.374 906.468 225.995C906.468 224.523 906.202 223.239 905.669 222.143C905.137 221.015 904.37 220.123 903.367 219.465C902.396 218.807 901.206 218.478 899.797 218.478C898.419 218.478 897.228 218.807 896.226 219.465C895.224 220.123 894.457 221.015 893.924 222.143C893.423 223.239 893.172 224.523 893.172 225.995C893.172 227.374 893.423 228.626 893.924 229.754C894.425 230.882 895.177 231.758 896.179 232.385C897.181 233.011 898.387 233.325 899.797 233.325ZM919.701 238.774V213.028H925.668V224.069H925.245C925.245 221.438 925.574 219.246 926.232 217.492C926.921 215.738 927.954 214.422 929.332 213.545C930.711 212.668 932.386 212.23 934.359 212.23H934.688C937.695 212.23 939.982 213.216 941.548 215.19C943.145 217.132 943.944 220.091 943.944 224.069V238.774H936.427V223.646C936.427 222.268 936.019 221.141 935.205 220.264C934.391 219.387 933.294 218.948 931.916 218.948C930.507 218.948 929.364 219.402 928.487 220.311C927.641 221.188 927.218 222.347 927.218 223.787V238.774H919.701Z" fill="#1C1259"/>
</g>
<rect x="276.83" y="19.5801" width="427.894" height="54.2096" rx="27.1048" fill="white"/>
<path d="M50.0538 267.86C25.8031 267.86 6.14404 248.201 6.14404 223.951V223.951C6.14404 199.7 25.8031 180.041 50.0538 180.041L269.603 180.041C273.594 180.041 276.83 183.277 276.83 187.269V260.632C276.83 264.624 273.594 267.86 269.603 267.86H50.0538Z" fill="#FCD307"/>
<path d="M50.0538 267.86C25.8031 267.86 6.14404 248.201 6.14404 223.951V223.951C6.14404 199.7 25.8031 180.041 50.0538 180.041L269.603 180.041C273.594 180.041 276.83 183.277 276.83 187.269V260.632C276.83 264.624 273.594 267.86 269.603 267.86H50.0538Z" fill="#FCD307"/>
<path d="M606.889 266.376C614.251 264.348 619.841 263.456 620.123 264.368C620.406 265.281 615.293 267.709 608.076 270.202C614.716 273.973 619.298 277.295 618.854 278.14C618.409 278.985 613.076 277.087 606.21 273.746C608.238 281.108 609.13 286.697 608.218 286.98C607.305 287.263 604.877 282.15 602.384 274.933C598.613 281.573 595.291 286.155 594.446 285.71C593.601 285.265 595.499 279.933 598.84 273.067C591.478 275.095 585.889 275.986 585.606 275.074C585.323 274.162 590.436 271.734 597.653 269.241C591.013 265.47 586.431 262.148 586.876 261.303C587.321 260.458 592.653 262.356 599.519 265.696C597.491 258.335 596.6 252.745 597.512 252.463C598.424 252.18 600.852 257.293 603.345 264.51C607.116 257.87 610.438 253.287 611.283 253.732C612.128 254.177 610.23 259.51 606.889 266.376Z" fill="#FCD307"/>
<path d="M45.3135 242.362V204.108H55.0604V242.362H45.3135ZM63.5439 242.362V213.436H71.0898V225.855H70.6706C70.6706 222.851 71.0549 220.371 71.8235 218.414C72.592 216.423 73.7274 214.938 75.2296 213.96C76.7668 212.982 78.6183 212.493 80.7843 212.493H81.2035C84.4874 212.493 87.0202 213.593 88.8019 215.794C90.6185 217.96 91.5268 221.296 91.5268 225.803V242.362H81.9896V225.541C81.9896 224.214 81.5878 223.131 80.7843 222.292C80.0157 221.419 78.9502 220.982 77.5878 220.982C76.2253 220.982 75.1248 221.419 74.2864 222.292C73.4829 223.131 73.0811 224.248 73.0811 225.646V242.362H63.5439ZM100.344 242.362V213.436H109.881V242.362H100.344ZM96.6754 220.353V213.436H109.881V220.353H96.6754ZM104.274 211.13C102.527 211.13 101.234 210.694 100.396 209.82C99.5925 208.912 99.1907 207.759 99.1907 206.362C99.1907 204.964 99.5925 203.829 100.396 202.956C101.234 202.047 102.51 201.593 104.221 201.593C105.968 201.593 107.243 202.047 108.047 202.956C108.85 203.829 109.252 204.964 109.252 206.362C109.252 207.759 108.85 208.912 108.047 209.82C107.243 210.694 105.986 211.13 104.274 211.13ZM131.722 242.782C128.578 242.782 126.063 242.397 124.176 241.629C122.325 240.86 120.98 239.585 120.141 237.803C119.303 236.022 118.883 233.611 118.883 230.572L118.936 205.89H127.739L127.687 230.834C127.687 232.126 128.019 233.122 128.683 233.821C129.381 234.484 130.377 234.816 131.67 234.816H135.652V242.782H131.722ZM114.691 220.353V213.436H135.652V220.353H114.691ZM143.174 242.362V213.436H152.712V242.362H143.174ZM139.506 220.353V213.436H152.712V220.353H139.506ZM147.105 211.13C145.358 211.13 144.065 210.694 143.227 209.82C142.423 208.912 142.022 207.759 142.022 206.362C142.022 204.964 142.423 203.829 143.227 202.956C144.065 202.047 145.34 201.593 147.052 201.593C148.799 201.593 150.074 202.047 150.878 202.956C151.681 203.829 152.083 204.964 152.083 206.362C152.083 207.759 151.681 208.912 150.878 209.82C150.074 210.694 148.816 211.13 147.105 211.13ZM178.274 242.362V233.873H176.701V224.807C176.701 223.48 176.387 222.502 175.758 221.873C175.164 221.209 174.169 220.877 172.771 220.877C172.108 220.877 171.129 220.895 169.837 220.93C168.544 220.965 167.182 221.017 165.749 221.087C164.317 221.157 163.007 221.227 161.819 221.296V213.331C162.658 213.261 163.653 213.192 164.806 213.122C165.959 213.052 167.147 212.999 168.369 212.964C169.627 212.93 170.78 212.912 171.828 212.912C174.798 212.912 177.313 213.349 179.374 214.222C181.47 215.095 183.06 216.406 184.143 218.152C185.261 219.899 185.82 222.117 185.82 224.807V242.362H178.274ZM169.103 243.096C167.077 243.096 165.278 242.729 163.706 241.995C162.134 241.262 160.893 240.214 159.985 238.851C159.112 237.454 158.675 235.795 158.675 233.873C158.675 231.707 159.251 229.96 160.404 228.633C161.557 227.27 163.147 226.275 165.173 225.646C167.199 225.017 169.522 224.703 172.142 224.703H177.75V229.628H172.142C170.85 229.628 169.854 229.96 169.156 230.624C168.457 231.253 168.107 232.109 168.107 233.192C168.107 234.24 168.457 235.096 169.156 235.76C169.854 236.388 170.85 236.703 172.142 236.703C172.981 236.703 173.715 236.563 174.343 236.284C175.007 235.969 175.549 235.445 175.968 234.712C176.387 233.978 176.632 232.965 176.701 231.672L178.902 233.768C178.728 235.76 178.239 237.454 177.435 238.851C176.667 240.214 175.584 241.262 174.186 241.995C172.824 242.729 171.129 243.096 169.103 243.096ZM207.022 242.782C203.878 242.782 201.363 242.397 199.476 241.629C197.625 240.86 196.28 239.585 195.441 237.803C194.603 236.022 194.183 233.611 194.183 230.572L194.236 205.89H203.04L202.987 230.834C202.987 232.126 203.319 233.122 203.983 233.821C204.681 234.484 205.677 234.816 206.97 234.816H210.952V242.782H207.022ZM189.991 220.353V213.436H210.952V220.353H189.991ZM230.582 243.41C228.137 243.41 225.971 242.991 224.084 242.153C222.198 241.314 220.608 240.179 219.315 238.747C218.023 237.314 217.027 235.707 216.328 233.925C215.665 232.144 215.333 230.31 215.333 228.423V227.375C215.333 225.419 215.665 223.55 216.328 221.768C217.027 219.951 218.005 218.344 219.263 216.947C220.556 215.55 222.128 214.449 223.979 213.646C225.831 212.807 227.927 212.388 230.268 212.388C233.377 212.388 236.014 213.087 238.18 214.484C240.346 215.882 242.006 217.733 243.159 220.039C244.311 222.31 244.888 224.79 244.888 227.48V230.519H219.315V225.384H239.386L236.084 227.69C236.084 226.048 235.857 224.668 235.403 223.55C234.984 222.397 234.337 221.524 233.464 220.93C232.626 220.336 231.56 220.039 230.268 220.039C229.01 220.039 227.909 220.336 226.966 220.93C226.058 221.489 225.359 222.362 224.87 223.55C224.381 224.703 224.136 226.17 224.136 227.952C224.136 229.559 224.364 230.956 224.818 232.144C225.272 233.297 225.971 234.188 226.914 234.816C227.857 235.445 229.08 235.76 230.582 235.76C231.91 235.76 232.992 235.533 233.831 235.078C234.704 234.624 235.316 234.013 235.665 233.244H244.364C243.945 235.201 243.106 236.947 241.849 238.485C240.626 240.022 239.054 241.227 237.132 242.1C235.246 242.974 233.062 243.41 230.582 243.41Z" fill="#1C1259"/>
<path d="M45.3135 242.362V204.108H55.0604V242.362H45.3135ZM63.5439 242.362V213.436H71.0898V225.855H70.6706C70.6706 222.851 71.0549 220.371 71.8235 218.414C72.592 216.423 73.7274 214.938 75.2296 213.96C76.7668 212.982 78.6183 212.493 80.7843 212.493H81.2035C84.4874 212.493 87.0202 213.593 88.8019 215.794C90.6185 217.96 91.5268 221.296 91.5268 225.803V242.362H81.9896V225.541C81.9896 224.214 81.5878 223.131 80.7843 222.292C80.0157 221.419 78.9502 220.982 77.5878 220.982C76.2253 220.982 75.1248 221.419 74.2864 222.292C73.4829 223.131 73.0811 224.248 73.0811 225.646V242.362H63.5439ZM100.344 242.362V213.436H109.881V242.362H100.344ZM96.6754 220.353V213.436H109.881V220.353H96.6754ZM104.274 211.13C102.527 211.13 101.234 210.694 100.396 209.82C99.5925 208.912 99.1907 207.759 99.1907 206.362C99.1907 204.964 99.5925 203.829 100.396 202.956C101.234 202.047 102.51 201.593 104.221 201.593C105.968 201.593 107.243 202.047 108.047 202.956C108.85 203.829 109.252 204.964 109.252 206.362C109.252 207.759 108.85 208.912 108.047 209.82C107.243 210.694 105.986 211.13 104.274 211.13ZM131.722 242.782C128.578 242.782 126.063 242.397 124.176 241.629C122.325 240.86 120.98 239.585 120.141 237.803C119.303 236.022 118.883 233.611 118.883 230.572L118.936 205.89H127.739L127.687 230.834C127.687 232.126 128.019 233.122 128.683 233.821C129.381 234.484 130.377 234.816 131.67 234.816H135.652V242.782H131.722ZM114.691 220.353V213.436H135.652V220.353H114.691ZM143.174 242.362V213.436H152.712V242.362H143.174ZM139.506 220.353V213.436H152.712V220.353H139.506ZM147.105 211.13C145.358 211.13 144.065 210.694 143.227 209.82C142.423 208.912 142.022 207.759 142.022 206.362C142.022 204.964 142.423 203.829 143.227 202.956C144.065 202.047 145.34 201.593 147.052 201.593C148.799 201.593 150.074 202.047 150.878 202.956C151.681 203.829 152.083 204.964 152.083 206.362C152.083 207.759 151.681 208.912 150.878 209.82C150.074 210.694 148.816 211.13 147.105 211.13ZM178.274 242.362V233.873H176.701V224.807C176.701 223.48 176.387 222.502 175.758 221.873C175.164 221.209 174.169 220.877 172.771 220.877C172.108 220.877 171.129 220.895 169.837 220.93C168.544 220.965 167.182 221.017 165.749 221.087C164.317 221.157 163.007 221.227 161.819 221.296V213.331C162.658 213.261 163.653 213.192 164.806 213.122C165.959 213.052 167.147 212.999 168.369 212.964C169.627 212.93 170.78 212.912 171.828 212.912C174.798 212.912 177.313 213.349 179.374 214.222C181.47 215.095 183.06 216.406 184.143 218.152C185.261 219.899 185.82 222.117 185.82 224.807V242.362H178.274ZM169.103 243.096C167.077 243.096 165.278 242.729 163.706 241.995C162.134 241.262 160.893 240.214 159.985 238.851C159.112 237.454 158.675 235.795 158.675 233.873C158.675 231.707 159.251 229.96 160.404 228.633C161.557 227.27 163.147 226.275 165.173 225.646C167.199 225.017 169.522 224.703 172.142 224.703H177.75V229.628H172.142C170.85 229.628 169.854 229.96 169.156 230.624C168.457 231.253 168.107 232.109 168.107 233.192C168.107 234.24 168.457 235.096 169.156 235.76C169.854 236.388 170.85 236.703 172.142 236.703C172.981 236.703 173.715 236.563 174.343 236.284C175.007 235.969 175.549 235.445 175.968 234.712C176.387 233.978 176.632 232.965 176.701 231.672L178.902 233.768C178.728 235.76 178.239 237.454 177.435 238.851C176.667 240.214 175.584 241.262 174.186 241.995C172.824 242.729 171.129 243.096 169.103 243.096ZM207.022 242.782C203.878 242.782 201.363 242.397 199.476 241.629C197.625 240.86 196.28 239.585 195.441 237.803C194.603 236.022 194.183 233.611 194.183 230.572L194.236 205.89H203.04L202.987 230.834C202.987 232.126 203.319 233.122 203.983 233.821C204.681 234.484 205.677 234.816 206.97 234.816H210.952V242.782H207.022ZM189.991 220.353V213.436H210.952V220.353H189.991ZM230.582 243.41C228.137 243.41 225.971 242.991 224.084 242.153C222.198 241.314 220.608 240.179 219.315 238.747C218.023 237.314 217.027 235.707 216.328 233.925C215.665 232.144 215.333 230.31 215.333 228.423V227.375C215.333 225.419 215.665 223.55 216.328 221.768C217.027 219.951 218.005 218.344 219.263 216.947C220.556 215.55 222.128 214.449 223.979 213.646C225.831 212.807 227.927 212.388 230.268 212.388C233.377 212.388 236.014 213.087 238.18 214.484C240.346 215.882 242.006 217.733 243.159 220.039C244.311 222.31 244.888 224.79 244.888 227.48V230.519H219.315V225.384H239.386L236.084 227.69C236.084 226.048 235.857 224.668 235.403 223.55C234.984 222.397 234.337 221.524 233.464 220.93C232.626 220.336 231.56 220.039 230.268 220.039C229.01 220.039 227.909 220.336 226.966 220.93C226.058 221.489 225.359 222.362 224.87 223.55C224.381 224.703 224.136 226.17 224.136 227.952C224.136 229.559 224.364 230.956 224.818 232.144C225.272 233.297 225.971 234.188 226.914 234.816C227.857 235.445 229.08 235.76 230.582 235.76C231.91 235.76 232.992 235.533 233.831 235.078C234.704 234.624 235.316 234.013 235.665 233.244H244.364C243.945 235.201 243.106 236.947 241.849 238.485C240.626 240.022 239.054 241.227 237.132 242.1C235.246 242.974 233.062 243.41 230.582 243.41Z" fill="#1C1259"/>
<path d="M134.732 83.3662C142.161 81.6024 147.779 80.9118 148.029 81.8336C148.279 82.7553 143.083 84.9989 135.781 87.232C142.281 91.2381 146.742 94.7223 146.267 95.5509C145.792 96.3795 140.531 94.2915 133.789 90.7072C135.553 98.1365 136.243 103.754 135.322 104.005C134.4 104.255 132.156 99.0581 129.923 91.7561C125.917 98.2566 122.433 102.717 121.604 102.242C120.776 101.767 122.864 96.5065 126.448 89.7642C119.019 91.528 113.401 92.2185 113.151 91.2968C112.9 90.375 118.097 88.1314 125.399 85.8984C118.899 81.8922 114.438 78.4081 114.913 77.5794C115.388 76.7508 120.649 78.8389 127.391 82.4231C125.627 74.9938 124.937 69.3759 125.858 69.1258C126.78 68.8757 129.024 74.0723 131.257 81.3743C135.263 74.8738 138.747 70.413 139.576 70.8879C140.404 71.3629 138.316 76.6239 134.732 83.3662Z" fill="#EE4266"/>
<path d="M134.732 83.3662C142.161 81.6024 147.779 80.9118 148.029 81.8336C148.279 82.7553 143.083 84.9989 135.781 87.232C142.281 91.2381 146.742 94.7223 146.267 95.5509C145.792 96.3795 140.531 94.2915 133.789 90.7072C135.553 98.1365 136.243 103.754 135.322 104.005C134.4 104.255 132.156 99.0581 129.923 91.7561C125.917 98.2566 122.433 102.717 121.604 102.242C120.776 101.767 122.864 96.5065 126.448 89.7642C119.019 91.528 113.401 92.2185 113.151 91.2968C112.9 90.375 118.097 88.1314 125.399 85.8984C118.899 81.8922 114.438 78.4081 114.913 77.5794C115.388 76.7508 120.649 78.8389 127.391 82.4231C125.627 74.9938 124.937 69.3759 125.858 69.1258C126.78 68.8757 129.024 74.0723 131.257 81.3743C135.263 74.8738 138.747 70.413 139.576 70.8879C140.404 71.3629 138.316 76.6239 134.732 83.3662Z" fill="#EE4266"/>
<path d="M26.313 251.776C33.7423 250.013 39.3603 249.322 39.6104 250.244C39.8604 251.165 34.6639 253.409 27.3619 255.642C33.8624 259.648 38.3232 263.132 37.8482 263.961C37.3733 264.79 32.1123 262.702 25.37 259.117C27.1338 266.547 27.8243 272.165 26.9026 272.415C25.9808 272.665 23.7372 267.468 21.5042 260.166C17.498 266.667 14.0139 271.128 13.1852 270.653C12.3566 270.178 14.4447 264.917 18.0289 258.174C10.5996 259.938 4.98171 260.629 4.73162 259.707C4.48154 258.785 9.67809 256.542 16.9801 254.309C10.4796 250.302 6.0188 246.818 6.49374 245.99C6.96868 245.161 12.2297 247.249 18.972 250.833C17.2082 243.404 16.5176 237.786 17.4394 237.536C18.3611 237.286 20.6047 242.482 22.8378 249.784C26.8439 243.284 30.3281 238.823 31.1567 239.298C31.9853 239.773 29.8973 245.034 26.313 251.776Z" fill="white"/>
<path d="M26.313 251.777C33.7423 250.014 39.3603 249.323 39.6104 250.245C39.8604 251.166 34.6639 253.41 27.3619 255.643C33.8624 259.649 38.3232 263.133 37.8482 263.962C37.3733 264.791 32.1123 262.703 25.37 259.118C27.1338 266.548 27.8243 272.166 26.9026 272.416C25.9808 272.666 23.7372 267.469 21.5042 260.167C17.498 266.668 14.0139 271.128 13.1852 270.654C12.3566 270.179 14.4447 264.918 18.0289 258.175C10.5996 259.939 4.98171 260.63 4.73162 259.708C4.48154 258.786 9.67809 256.543 16.9801 254.309C10.4796 250.303 6.0188 246.819 6.49374 245.991C6.96868 245.162 12.2297 247.25 18.972 250.834C17.2082 243.405 16.5176 237.787 17.4394 237.537C18.3611 237.287 20.6047 242.483 22.8378 249.785C26.8439 243.285 30.3281 238.824 31.1567 239.299C31.9853 239.774 29.8973 245.035 26.313 251.777Z" fill="white"/>
<path d="M341.516 75.5802C346.877 67.6369 358.571 67.6369 363.932 75.5802V75.5802C366.968 80.0783 372.423 82.321 377.749 81.2828V81.2828C387.132 79.4537 395.434 87.7012 393.594 97.0824V97.0824C392.551 102.404 394.802 107.833 399.305 110.855V110.855C407.255 116.19 407.255 127.883 399.305 133.218V133.218C394.802 136.24 392.551 141.669 393.594 146.99V146.99C395.434 156.372 387.132 164.619 377.749 162.79V162.79C372.423 161.752 366.968 163.995 363.932 168.493V168.493C358.571 176.436 346.877 176.436 341.516 168.493V168.493C338.48 163.995 333.025 161.752 327.699 162.79V162.79C318.315 164.619 310.014 156.372 311.854 146.99V146.99C312.897 141.669 310.646 136.24 306.143 133.218V133.218C298.193 127.883 298.193 116.19 306.143 110.855V110.855C310.646 107.833 312.897 102.404 311.854 97.0824V97.0824C310.014 87.7012 318.315 79.4537 327.699 81.2828V81.2828C333.025 82.321 338.48 80.0783 341.516 75.5802V75.5802Z" fill="#1C1259"/>
<path d="M341.516 75.5802C346.877 67.6369 358.571 67.6369 363.932 75.5802V75.5802C366.968 80.0783 372.423 82.321 377.749 81.2828V81.2828C387.132 79.4537 395.434 87.7012 393.594 97.0824V97.0824C392.551 102.404 394.802 107.833 399.305 110.855V110.855C407.255 116.19 407.255 127.883 399.305 133.218V133.218C394.802 136.24 392.551 141.669 393.594 146.99V146.99C395.434 156.372 387.132 164.619 377.749 162.79V162.79C372.423 161.752 366.968 163.995 363.932 168.493V168.493C358.571 176.436 346.877 176.436 341.516 168.493V168.493C338.48 163.995 333.025 161.752 327.699 162.79V162.79C318.315 164.619 310.014 156.372 311.854 146.99V146.99C312.897 141.669 310.646 136.24 306.143 133.218V133.218C298.193 127.883 298.193 116.19 306.143 110.855V110.855C310.646 107.833 312.897 102.404 311.854 97.0824V97.0824C310.014 87.7012 318.315 79.4537 327.699 81.2828V81.2828C333.025 82.321 338.48 80.0783 341.516 75.5802V75.5802Z" fill="#1C1259"/>
<path d="M341.516 75.5802C346.877 67.6369 358.571 67.6369 363.932 75.5802V75.5802C366.968 80.0783 372.423 82.321 377.749 81.2828V81.2828C387.132 79.4537 395.434 87.7012 393.594 97.0824V97.0824C392.551 102.404 394.802 107.833 399.305 110.855V110.855C407.255 116.19 407.255 127.883 399.305 133.218V133.218C394.802 136.24 392.551 141.669 393.594 146.99V146.99C395.434 156.372 387.132 164.619 377.749 162.79V162.79C372.423 161.752 366.968 163.995 363.932 168.493V168.493C358.571 176.436 346.877 176.436 341.516 168.493V168.493C338.48 163.995 333.025 161.752 327.699 162.79V162.79C318.315 164.619 310.014 156.372 311.854 146.99V146.99C312.897 141.669 310.646 136.24 306.143 133.218V133.218C298.193 127.883 298.193 116.19 306.143 110.855V110.855C310.646 107.833 312.897 102.404 311.854 97.0824V97.0824C310.014 87.7012 318.315 79.4537 327.699 81.2828V81.2828C333.025 82.321 338.48 80.0783 341.516 75.5802V75.5802Z" fill="#1C1259"/>
<path d="M341.516 75.5802C346.877 67.6369 358.571 67.6369 363.932 75.5802V75.5802C366.968 80.0783 372.423 82.321 377.749 81.2828V81.2828C387.132 79.4537 395.434 87.7012 393.594 97.0824V97.0824C392.551 102.404 394.802 107.833 399.305 110.855V110.855C407.255 116.19 407.255 127.883 399.305 133.218V133.218C394.802 136.24 392.551 141.669 393.594 146.99V146.99C395.434 156.372 387.132 164.619 377.749 162.79V162.79C372.423 161.752 366.968 163.995 363.932 168.493V168.493C358.571 176.436 346.877 176.436 341.516 168.493V168.493C338.48 163.995 333.025 161.752 327.699 162.79V162.79C318.315 164.619 310.014 156.372 311.854 146.99V146.99C312.897 141.669 310.646 136.24 306.143 133.218V133.218C298.193 127.883 298.193 116.19 306.143 110.855V110.855C310.646 107.833 312.897 102.404 311.854 97.0824V97.0824C310.014 87.7012 318.315 79.4537 327.699 81.2828V81.2828C333.025 82.321 338.48 80.0783 341.516 75.5802V75.5802Z" fill="#EE4266"/>
<path d="M341.516 75.5802C346.877 67.6369 358.571 67.6369 363.932 75.5802V75.5802C366.968 80.0783 372.423 82.321 377.749 81.2828V81.2828C387.132 79.4537 395.434 87.7012 393.594 97.0824V97.0824C392.551 102.404 394.802 107.833 399.305 110.855V110.855C407.255 116.19 407.255 127.883 399.305 133.218V133.218C394.802 136.24 392.551 141.669 393.594 146.99V146.99C395.434 156.372 387.132 164.619 377.749 162.79V162.79C372.423 161.752 366.968 163.995 363.932 168.493V168.493C358.571 176.436 346.877 176.436 341.516 168.493V168.493C338.48 163.995 333.025 161.752 327.699 162.79V162.79C318.315 164.619 310.014 156.372 311.854 146.99V146.99C312.897 141.669 310.646 136.24 306.143 133.218V133.218C298.193 127.883 298.193 116.19 306.143 110.855V110.855C310.646 107.833 312.897 102.404 311.854 97.0824V97.0824C310.014 87.7012 318.315 79.4537 327.699 81.2828V81.2828C333.025 82.321 338.48 80.0783 341.516 75.5802V75.5802Z" fill="#1C1259"/>
<path d="M341.516 75.5802C346.877 67.6369 358.571 67.6369 363.932 75.5802V75.5802C366.968 80.0783 372.423 82.321 377.749 81.2828V81.2828C387.132 79.4537 395.434 87.7012 393.594 97.0824V97.0824C392.551 102.404 394.802 107.833 399.305 110.855V110.855C407.255 116.19 407.255 127.883 399.305 133.218V133.218C394.802 136.24 392.551 141.669 393.594 146.99V146.99C395.434 156.372 387.132 164.619 377.749 162.79V162.79C372.423 161.752 366.968 163.995 363.932 168.493V168.493C358.571 176.436 346.877 176.436 341.516 168.493V168.493C338.48 163.995 333.025 161.752 327.699 162.79V162.79C318.315 164.619 310.014 156.372 311.854 146.99V146.99C312.897 141.669 310.646 136.24 306.143 133.218V133.218C298.193 127.883 298.193 116.19 306.143 110.855V110.855C310.646 107.833 312.897 102.404 311.854 97.0824V97.0824C310.014 87.7012 318.315 79.4537 327.699 81.2828V81.2828C333.025 82.321 338.48 80.0783 341.516 75.5802V75.5802Z" fill="#1C1259"/>
<path d="M341.516 75.5802C346.877 67.6369 358.571 67.6369 363.932 75.5802V75.5802C366.968 80.0783 372.423 82.321 377.749 81.2828V81.2828C387.132 79.4537 395.434 87.7012 393.594 97.0824V97.0824C392.551 102.404 394.802 107.833 399.305 110.855V110.855C407.255 116.19 407.255 127.883 399.305 133.218V133.218C394.802 136.24 392.551 141.669 393.594 146.99V146.99C395.434 156.372 387.132 164.619 377.749 162.79V162.79C372.423 161.752 366.968 163.995 363.932 168.493V168.493C358.571 176.436 346.877 176.436 341.516 168.493V168.493C338.48 163.995 333.025 161.752 327.699 162.79V162.79C318.315 164.619 310.014 156.372 311.854 146.99V146.99C312.897 141.669 310.646 136.24 306.143 133.218V133.218C298.193 127.883 298.193 116.19 306.143 110.855V110.855C310.646 107.833 312.897 102.404 311.854 97.0824V97.0824C310.014 87.7012 318.315 79.4537 327.699 81.2828V81.2828C333.025 82.321 338.48 80.0783 341.516 75.5802V75.5802Z" fill="#1C1259"/>
<path d="M341.516 75.5802C346.877 67.6369 358.571 67.6369 363.932 75.5802V75.5802C366.968 80.0783 372.423 82.321 377.749 81.2828V81.2828C387.132 79.4537 395.434 87.7012 393.594 97.0824V97.0824C392.551 102.404 394.802 107.833 399.305 110.855V110.855C407.255 116.19 407.255 127.883 399.305 133.218V133.218C394.802 136.24 392.551 141.669 393.594 146.99V146.99C395.434 156.372 387.132 164.619 377.749 162.79V162.79C372.423 161.752 366.968 163.995 363.932 168.493V168.493C358.571 176.436 346.877 176.436 341.516 168.493V168.493C338.48 163.995 333.025 161.752 327.699 162.79V162.79C318.315 164.619 310.014 156.372 311.854 146.99V146.99C312.897 141.669 310.646 136.24 306.143 133.218V133.218C298.193 127.883 298.193 116.19 306.143 110.855V110.855C310.646 107.833 312.897 102.404 311.854 97.0824V97.0824C310.014 87.7012 318.315 79.4537 327.699 81.2828V81.2828C333.025 82.321 338.48 80.0783 341.516 75.5802V75.5802Z" fill="#EE4266"/>
<path d="M333.502 132.269C331.334 132.269 329.599 132.004 328.298 131.474C327.021 130.943 326.094 130.064 325.515 128.835C324.937 127.607 324.648 125.944 324.648 123.848L324.684 106.826H330.756L330.719 124.029C330.719 124.92 330.948 125.607 331.406 126.089C331.888 126.546 332.575 126.775 333.466 126.775H336.213V132.269H333.502ZM321.757 116.801V112.03H336.213V116.801H321.757ZM339.738 131.979V105.598H346.315V120.632H345.448C345.448 118.608 345.701 116.909 346.207 115.536C346.713 114.163 347.448 113.127 348.411 112.428C349.399 111.729 350.616 111.38 352.062 111.38H352.351C354.519 111.38 356.169 112.163 357.302 113.729C358.458 115.295 359.037 117.596 359.037 120.632V131.979H352.459V120.379C352.459 119.463 352.182 118.716 351.628 118.138C351.074 117.536 350.339 117.234 349.423 117.234C348.508 117.234 347.761 117.536 347.183 118.138C346.605 118.716 346.315 119.487 346.315 120.451V131.979H339.738ZM372.815 132.702C371.128 132.702 369.635 132.413 368.334 131.835C367.032 131.257 365.936 130.474 365.045 129.486C364.153 128.498 363.467 127.39 362.985 126.161C362.527 124.932 362.298 123.667 362.298 122.366V121.644C362.298 120.294 362.527 119.005 362.985 117.777C363.467 116.524 364.141 115.415 365.009 114.452C365.9 113.488 366.984 112.729 368.261 112.175C369.538 111.597 370.984 111.308 372.598 111.308C374.742 111.308 376.561 111.789 378.055 112.753C379.549 113.717 380.693 114.994 381.488 116.584C382.283 118.15 382.681 119.861 382.681 121.716V123.812H365.045V120.27H378.886L376.609 121.86C376.609 120.728 376.453 119.776 376.14 119.005C375.851 118.21 375.405 117.608 374.803 117.198C374.224 116.789 373.489 116.584 372.598 116.584C371.731 116.584 370.972 116.789 370.321 117.198C369.695 117.584 369.213 118.186 368.876 119.005C368.538 119.8 368.37 120.812 368.37 122.041C368.37 123.149 368.526 124.113 368.839 124.932C369.153 125.727 369.635 126.342 370.285 126.775C370.936 127.209 371.779 127.426 372.815 127.426C373.73 127.426 374.477 127.269 375.055 126.956C375.658 126.643 376.079 126.221 376.32 125.691H382.32C382.03 127.04 381.452 128.245 380.585 129.305C379.742 130.365 378.657 131.196 377.332 131.799C376.031 132.401 374.525 132.702 372.815 132.702Z" fill="white"/>
<path d="M333.502 132.269C331.334 132.269 329.599 132.004 328.298 131.474C327.021 130.943 326.094 130.064 325.515 128.835C324.937 127.607 324.648 125.944 324.648 123.848L324.684 106.826H330.756L330.719 124.029C330.719 124.92 330.948 125.607 331.406 126.089C331.888 126.546 332.575 126.775 333.466 126.775H336.213V132.269H333.502ZM321.757 116.801V112.03H336.213V116.801H321.757ZM339.738 131.979V105.598H346.315V120.632H345.448C345.448 118.608 345.701 116.909 346.207 115.536C346.713 114.163 347.448 113.127 348.411 112.428C349.399 111.729 350.616 111.38 352.062 111.38H352.351C354.519 111.38 356.169 112.163 357.302 113.729C358.458 115.295 359.037 117.596 359.037 120.632V131.979H352.459V120.379C352.459 119.463 352.182 118.716 351.628 118.138C351.074 117.536 350.339 117.234 349.423 117.234C348.508 117.234 347.761 117.536 347.183 118.138C346.605 118.716 346.315 119.487 346.315 120.451V131.979H339.738ZM372.815 132.702C371.128 132.702 369.635 132.413 368.334 131.835C367.032 131.257 365.936 130.474 365.045 129.486C364.153 128.498 363.467 127.39 362.985 126.161C362.527 124.932 362.298 123.667 362.298 122.366V121.644C362.298 120.294 362.527 119.005 362.985 117.777C363.467 116.524 364.141 115.415 365.009 114.452C365.9 113.488 366.984 112.729 368.261 112.175C369.538 111.597 370.984 111.308 372.598 111.308C374.742 111.308 376.561 111.789 378.055 112.753C379.549 113.717 380.693 114.994 381.488 116.584C382.283 118.15 382.681 119.861 382.681 121.716V123.812H365.045V120.27H378.886L376.609 121.86C376.609 120.728 376.453 119.776 376.14 119.005C375.851 118.21 375.405 117.608 374.803 117.198C374.224 116.789 373.489 116.584 372.598 116.584C371.731 116.584 370.972 116.789 370.321 117.198C369.695 117.584 369.213 118.186 368.876 119.005C368.538 119.8 368.37 120.812 368.37 122.041C368.37 123.149 368.526 124.113 368.839 124.932C369.153 125.727 369.635 126.342 370.285 126.775C370.936 127.209 371.779 127.426 372.815 127.426C373.73 127.426 374.477 127.269 375.055 126.956C375.658 126.643 376.079 126.221 376.32 125.691H382.32C382.03 127.04 381.452 128.245 380.585 129.305C379.742 130.365 378.657 131.196 377.332 131.799C376.031 132.401 374.525 132.702 372.815 132.702Z" fill="white"/>
<path d="M916.142 88.6064C920.134 88.6064 923.37 91.8425 923.37 95.8344V162.693C923.37 166.685 920.134 169.921 916.142 169.921H877.834C873.842 169.921 870.606 166.685 870.606 162.693V95.8344C870.606 91.8425 873.842 88.6064 877.834 88.6064H916.142Z" fill="#EE4266"/>
<path d="M928.826 88.6064C930.789 88.6064 932.668 89.4053 934.031 90.8192L966.241 124.248C968.939 127.048 968.939 131.479 966.241 134.279L934.031 167.708C932.668 169.122 930.789 169.921 928.826 169.921H882.893C878.901 169.921 875.665 166.685 875.665 162.693V157.835C875.665 153.844 878.901 150.608 882.893 150.608H892.327C906.392 150.608 917.795 141.052 917.795 129.264C917.795 117.476 906.392 107.92 892.327 107.92H882.893C878.901 107.92 875.665 104.684 875.665 100.692V95.8344C875.665 91.8425 878.901 88.6064 882.893 88.6064H928.826Z" fill="#EE4266"/>
<path fill-rule="evenodd" clip-rule="evenodd" d="M907.437 104.495C907.779 104.047 908.31 103.784 908.874 103.784H925.392C926.902 103.784 927.746 105.526 926.81 106.711L917.737 118.207C916.802 119.392 917.646 121.134 919.155 121.134H936.566C938.196 121.134 938.993 123.123 937.813 124.248L902.675 157.765C901.225 159.148 898.937 157.494 899.795 155.683L908.255 137.839C908.824 136.64 907.949 135.258 906.623 135.258H887.628C886.132 135.258 885.284 133.544 886.191 132.355L907.437 104.495Z" fill="white"/>
<path d="M594.137 88.6055C598.129 88.6055 601.365 91.8415 601.365 95.8334V162.692C601.365 166.684 598.129 169.92 594.137 169.92H485.718C481.726 169.92 478.49 166.684 478.49 162.692V95.8334C478.49 91.8415 481.726 88.6055 485.718 88.6055L594.137 88.6055Z" fill="#FCD307"/>
<path d="M597.786 88.6055C599.75 88.6055 601.629 89.4043 602.991 90.8182L635.202 124.247C637.899 127.047 637.899 131.478 635.202 134.278L602.991 167.707C601.629 169.121 599.75 169.92 597.786 169.92H551.853C547.861 169.92 544.625 166.684 544.625 162.692V157.835C544.625 153.843 547.861 150.607 551.853 150.607H561.287C575.353 150.607 586.755 141.051 586.755 129.263C586.755 117.475 575.353 107.919 561.287 107.919H551.853C547.861 107.919 544.625 104.683 544.625 100.691V95.8334C544.625 91.8415 547.861 88.6055 551.853 88.6055H597.786Z" fill="#FCD307"/>
<path d="M528.001 88.6064C531.993 88.6064 535.229 91.8425 535.229 95.8344V162.693C535.229 166.685 531.993 169.921 528.001 169.921H419.582C415.59 169.921 412.354 166.685 412.354 162.693V95.8344C412.354 91.8425 415.59 88.6064 419.582 88.6064L528.001 88.6064Z" fill="#FCD307"/>
<path d="M531.651 88.6064C533.614 88.6064 535.493 89.4053 536.856 90.8192L569.066 124.248C571.763 127.048 571.763 131.479 569.066 134.279L536.856 167.708C535.493 169.122 533.614 169.921 531.651 169.921H485.718C481.726 169.921 478.49 166.685 478.49 162.693V157.835C478.49 153.844 481.726 150.608 485.718 150.608H495.152C509.217 150.608 520.62 141.052 520.62 129.264C520.62 117.476 509.217 107.92 495.152 107.92H485.718C481.726 107.92 478.49 104.684 478.49 100.692V95.8344C478.49 91.8425 481.726 88.6064 485.718 88.6064H531.651Z" fill="#FCD307"/>
<path d="M820.372 88.6055C824.364 88.6055 827.6 91.8415 827.6 95.8334V162.692C827.6 166.684 824.364 169.92 820.372 169.92H711.953C707.961 169.92 704.725 166.684 704.725 162.692V95.8334C704.725 91.8415 707.961 88.6055 711.953 88.6055L820.372 88.6055Z" fill="#FCD307"/>
<path d="M824.021 88.6055C825.985 88.6055 827.864 89.4043 829.226 90.8182L861.437 124.247C864.134 127.047 864.134 131.478 861.437 134.278L829.226 167.707C827.864 169.121 825.985 169.92 824.021 169.92H778.088C774.096 169.92 770.86 166.684 770.86 162.692V157.835C770.86 153.843 774.096 150.607 778.088 150.607H787.522C801.588 150.607 812.99 141.051 812.99 129.263C812.99 117.475 801.588 107.919 787.522 107.919H778.088C774.096 107.919 770.86 104.683 770.86 100.691V95.8334C770.86 91.8415 774.096 88.6055 778.088 88.6055H824.021Z" fill="#FCD307"/>
<path d="M706.17 88.6064C710.162 88.6064 713.398 91.8425 713.398 95.8344V162.693C713.398 166.685 710.162 169.921 706.17 169.921H597.751C593.759 169.921 590.523 166.685 590.523 162.693V95.8344C590.523 91.8425 593.759 88.6064 597.751 88.6064L706.17 88.6064Z" fill="#FCD307"/>
<path d="M711.626 88.6064C713.59 88.6064 715.469 89.4053 716.831 90.8192L749.042 124.248C751.739 127.048 751.739 131.479 749.042 134.279L716.831 167.708C715.469 169.122 713.59 169.921 711.626 169.921H665.693C661.701 169.921 658.465 166.685 658.465 162.693V157.835C658.465 153.844 661.701 150.608 665.693 150.608H675.127C689.193 150.608 700.595 141.052 700.595 129.264C700.595 117.476 689.193 107.92 675.127 107.92H665.693C661.701 107.92 658.465 104.684 658.465 100.692V95.8344C658.465 91.8425 661.701 88.6064 665.693 88.6064H711.626Z" fill="#FCD307"/>
<path d="M452.816 145.203V137.185H459.943C461.725 137.185 463.332 136.923 464.764 136.399C466.197 135.84 467.419 135.072 468.432 134.093C469.446 133.08 470.214 131.875 470.738 130.478C471.262 129.045 471.524 127.473 471.524 125.761C471.524 123.98 471.262 122.39 470.738 120.993C470.214 119.595 469.446 118.408 468.432 117.429C467.419 116.451 466.197 115.718 464.764 115.229C463.332 114.704 461.725 114.442 459.943 114.442H452.816V106.425H459.472C462.93 106.425 465.952 106.931 468.537 107.945C471.122 108.958 473.288 110.338 475.035 112.084C476.782 113.831 478.074 115.84 478.913 118.111C479.786 120.346 480.223 122.705 480.223 125.185V126.338C480.223 128.644 479.786 130.932 478.913 133.203C478.074 135.438 476.782 137.465 475.035 139.281C473.288 141.063 471.122 142.495 468.537 143.578C465.952 144.661 462.93 145.203 459.472 145.203H452.816ZM445.27 145.203V106.425H453.864V145.203H445.27ZM499.939 145.989C497.494 145.989 495.328 145.57 493.442 144.731C491.59 143.893 490.035 142.775 488.778 141.377C487.555 139.945 486.612 138.356 485.948 136.609C485.319 134.827 485.005 133.01 485.005 131.159V130.111C485.005 128.189 485.319 126.355 485.948 124.609C486.612 122.827 487.555 121.237 488.778 119.84C490 118.443 491.52 117.342 493.337 116.539C495.188 115.7 497.284 115.281 499.625 115.281C502.699 115.281 505.285 115.98 507.381 117.377C509.512 118.739 511.136 120.539 512.254 122.774C513.372 124.975 513.931 127.386 513.931 130.006V132.836H488.516V128.067H508.848L506.123 130.268C506.123 128.556 505.878 127.089 505.389 125.866C504.9 124.643 504.167 123.718 503.188 123.089C502.245 122.425 501.057 122.093 499.625 122.093C498.158 122.093 496.918 122.425 495.904 123.089C494.891 123.753 494.123 124.731 493.599 126.023C493.075 127.281 492.813 128.836 492.813 130.687C492.813 132.399 493.057 133.901 493.546 135.194C494.035 136.452 494.804 137.43 495.852 138.128C496.9 138.827 498.263 139.176 499.939 139.176C501.477 139.176 502.734 138.88 503.712 138.286C504.691 137.692 505.354 136.958 505.704 136.085H513.407C512.988 138.006 512.167 139.718 510.944 141.22C509.721 142.722 508.184 143.893 506.333 144.731C504.481 145.57 502.35 145.989 499.939 145.989ZM533.688 145.989C531.242 145.989 529.077 145.57 527.19 144.731C525.338 143.893 523.784 142.775 522.526 141.377C521.303 139.945 520.36 138.356 519.696 136.609C519.068 134.827 518.753 133.01 518.753 131.159V130.111C518.753 128.189 519.068 126.355 519.696 124.609C520.36 122.827 521.303 121.237 522.526 119.84C523.749 118.443 525.269 117.342 527.085 116.539C528.937 115.7 531.033 115.281 533.374 115.281C536.448 115.281 539.033 115.98 541.129 117.377C543.26 118.739 544.885 120.539 546.003 122.774C547.12 124.975 547.679 127.386 547.679 130.006V132.836H522.264V128.067H542.596L539.871 130.268C539.871 128.556 539.627 127.089 539.138 125.866C538.649 124.643 537.915 123.718 536.937 123.089C535.994 122.425 534.806 122.093 533.374 122.093C531.906 122.093 530.666 122.425 529.653 123.089C528.64 123.753 527.871 124.731 527.347 126.023C526.823 127.281 526.561 128.836 526.561 130.687C526.561 132.399 526.806 133.901 527.295 135.194C527.784 136.452 528.552 137.43 529.601 138.128C530.649 138.827 532.011 139.176 533.688 139.176C535.225 139.176 536.483 138.88 537.461 138.286C538.439 137.692 539.103 136.958 539.452 136.085H547.155C546.736 138.006 545.915 139.718 544.692 141.22C543.47 142.722 541.933 143.893 540.081 144.731C538.23 145.57 536.098 145.989 533.688 145.989ZM554.283 155.474V116.277H560.939V128.696L560.048 128.644C560.187 125.779 560.781 123.368 561.829 121.412C562.877 119.421 564.292 117.936 566.074 116.958C567.856 115.945 569.864 115.438 572.1 115.438C574.092 115.438 575.891 115.805 577.498 116.539C579.14 117.272 580.537 118.303 581.69 119.63C582.878 120.923 583.769 122.46 584.362 124.242C584.991 125.988 585.306 127.91 585.306 130.006V131.211C585.306 133.272 585.009 135.211 584.415 137.028C583.821 138.81 582.948 140.364 581.795 141.692C580.677 143.019 579.297 144.067 577.655 144.836C576.048 145.57 574.196 145.936 572.1 145.936C569.934 145.936 567.978 145.5 566.231 144.626C564.519 143.718 563.139 142.356 562.091 140.539C561.043 138.687 560.467 136.347 560.362 133.517L562.668 136.661V155.474H554.283ZM569.742 138.914C571.174 138.914 572.415 138.565 573.463 137.866C574.546 137.168 575.384 136.19 575.978 134.932C576.572 133.674 576.869 132.224 576.869 130.582C576.869 128.941 576.572 127.508 575.978 126.285C575.384 125.063 574.563 124.119 573.515 123.456C572.467 122.757 571.209 122.408 569.742 122.408C568.484 122.408 567.297 122.705 566.179 123.298C565.061 123.892 564.153 124.748 563.454 125.866C562.79 126.949 562.458 128.277 562.458 129.849V131.788C562.458 133.29 562.808 134.583 563.506 135.666C564.24 136.714 565.166 137.517 566.284 138.076C567.401 138.635 568.554 138.914 569.742 138.914ZM604.699 144.993V106.739H613.293V144.993H604.699ZM612.245 144.993V137.447H628.28V144.993H612.245ZM647.291 145.989C644.846 145.989 642.68 145.57 640.793 144.731C638.942 143.893 637.387 142.775 636.129 141.377C634.907 139.945 633.963 138.356 633.299 136.609C632.671 134.827 632.356 133.01 632.356 131.159V130.111C632.356 128.189 632.671 126.355 633.299 124.609C633.963 122.827 634.907 121.237 636.129 119.84C637.352 118.443 638.872 117.342 640.688 116.539C642.54 115.7 644.636 115.281 646.977 115.281C650.051 115.281 652.636 115.98 654.732 117.377C656.863 118.739 658.488 120.539 659.606 122.774C660.724 124.975 661.282 127.386 661.282 130.006V132.836H635.867V128.067H656.199L653.474 130.268C653.474 128.556 653.23 127.089 652.741 125.866C652.252 124.643 651.518 123.718 650.54 123.089C649.597 122.425 648.409 122.093 646.977 122.093C645.509 122.093 644.269 122.425 643.256 123.089C642.243 123.753 641.474 124.731 640.95 126.023C640.426 127.281 640.164 128.836 640.164 130.687C640.164 132.399 640.409 133.901 640.898 135.194C641.387 136.452 642.156 137.43 643.204 138.128C644.252 138.827 645.614 139.176 647.291 139.176C648.828 139.176 650.086 138.88 651.064 138.286C652.042 137.692 652.706 136.958 653.055 136.085H660.758C660.339 138.006 659.518 139.718 658.296 141.22C657.073 142.722 655.536 143.893 653.684 144.731C651.833 145.57 649.701 145.989 647.291 145.989ZM685.232 144.993V136.504H683.817V127.281C683.817 125.814 683.467 124.713 682.769 123.98C682.07 123.246 680.952 122.879 679.415 122.879C678.646 122.879 677.633 122.897 676.376 122.932C675.118 122.967 673.825 123.019 672.498 123.089C671.17 123.159 669.965 123.229 668.882 123.298V116.224C669.686 116.154 670.629 116.084 671.712 116.015C672.795 115.945 673.913 115.892 675.066 115.857C676.218 115.822 677.301 115.805 678.315 115.805C681.249 115.805 683.712 116.224 685.703 117.063C687.73 117.901 689.267 119.176 690.315 120.888C691.363 122.565 691.887 124.731 691.887 127.386V144.993H685.232ZM676.061 145.727C674 145.727 672.183 145.36 670.611 144.626C669.074 143.893 667.869 142.845 666.996 141.482C666.122 140.085 665.686 138.425 665.686 136.504C665.686 134.408 666.227 132.696 667.31 131.368C668.393 130.006 669.913 129.01 671.869 128.382C673.825 127.718 676.079 127.386 678.629 127.386H684.76V132.05H678.577C677.109 132.05 675.974 132.417 675.17 133.15C674.402 133.849 674.018 134.81 674.018 136.032C674.018 137.185 674.402 138.128 675.17 138.862C675.974 139.561 677.109 139.91 678.577 139.91C679.52 139.91 680.358 139.753 681.092 139.438C681.86 139.089 682.489 138.513 682.978 137.709C683.467 136.906 683.747 135.788 683.817 134.355L685.808 136.452C685.633 138.443 685.144 140.12 684.341 141.482C683.572 142.845 682.489 143.893 681.092 144.626C679.729 145.36 678.053 145.727 676.061 145.727ZM700.049 144.993V116.277H706.704V128.591H706.546C706.546 124.539 707.402 121.412 709.114 119.211C710.861 117.01 713.376 115.91 716.66 115.91H717.761V123.141H715.664C713.359 123.141 711.577 123.77 710.319 125.028C709.062 126.251 708.433 128.032 708.433 130.373V144.993H700.049ZM723.153 144.993V116.277H729.808V128.591H729.336C729.336 125.657 729.703 123.211 730.437 121.255C731.205 119.298 732.358 117.831 733.895 116.853C735.432 115.875 737.301 115.386 739.502 115.386H739.869C743.223 115.386 745.773 116.486 747.52 118.687C749.302 120.853 750.192 124.154 750.192 128.591V144.993H741.808V128.12C741.808 126.582 741.354 125.325 740.446 124.347C739.537 123.368 738.315 122.879 736.777 122.879C735.205 122.879 733.93 123.386 732.952 124.399C732.009 125.377 731.537 126.67 731.537 128.277V144.993H723.153ZM771.538 145.989C769.093 145.989 766.927 145.57 765.04 144.731C763.189 143.893 761.634 142.775 760.377 141.377C759.154 139.945 758.211 138.356 757.547 136.609C756.918 134.827 756.604 133.01 756.604 131.159V130.111C756.604 128.189 756.918 126.355 757.547 124.609C758.211 122.827 759.154 121.237 760.377 119.84C761.599 118.443 763.119 117.342 764.936 116.539C766.787 115.7 768.883 115.281 771.224 115.281C774.298 115.281 776.883 115.98 778.979 117.377C781.111 118.739 782.735 120.539 783.853 122.774C784.971 124.975 785.53 127.386 785.53 130.006V132.836H760.115V128.067H780.447L777.722 130.268C777.722 128.556 777.477 127.089 776.988 125.866C776.499 124.643 775.765 123.718 774.787 123.089C773.844 122.425 772.656 122.093 771.224 122.093C769.757 122.093 768.516 122.425 767.503 123.089C766.49 123.753 765.722 124.731 765.198 126.023C764.674 127.281 764.412 128.836 764.412 130.687C764.412 132.399 764.656 133.901 765.145 135.194C765.634 136.452 766.403 137.43 767.451 138.128C768.499 138.827 769.861 139.176 771.538 139.176C773.075 139.176 774.333 138.88 775.311 138.286C776.289 137.692 776.953 136.958 777.303 136.085H785.006C784.587 138.006 783.766 139.718 782.543 141.22C781.32 142.722 779.783 143.893 777.931 144.731C776.08 145.57 773.949 145.989 771.538 145.989ZM792.134 144.993V116.277H798.789V128.591H798.632C798.632 124.539 799.488 121.412 801.199 119.211C802.946 117.01 805.461 115.91 808.745 115.91H809.846V123.141H807.75C805.444 123.141 803.662 123.77 802.405 125.028C801.147 126.251 800.518 128.032 800.518 130.373V144.993H792.134Z" fill="#1C1259"/>
<path d="M826.808 85.1728C834.237 83.409 839.855 82.7185 840.105 83.6402C840.355 84.562 835.159 86.8056 827.857 89.0386C834.357 93.0448 838.818 96.529 838.343 97.3576C837.868 98.1862 832.607 96.0981 825.865 92.5139C827.628 99.9432 828.319 105.561 827.397 105.811C826.475 106.061 824.232 100.865 821.999 93.5627C817.993 100.063 814.508 104.524 813.68 104.049C812.851 103.574 814.939 98.3131 818.524 91.5708C811.094 93.3346 805.476 94.0252 805.226 93.1034C804.976 92.1817 810.173 89.9381 817.475 87.705C810.974 83.6989 806.513 80.2147 806.988 79.3861C807.463 78.5575 812.724 80.6455 819.467 84.2298C817.703 76.8005 817.012 71.1825 817.934 70.9325C818.856 70.6824 821.099 75.8789 823.332 83.1809C827.339 76.6804 830.823 72.2196 831.651 72.6946C832.48 73.1695 830.392 78.4305 826.808 85.1728Z" fill="#EE4266"/>
<path d="M677.437 19.8639C684.906 21.4527 690.278 23.2353 690.109 24.1753C689.94 25.1153 684.284 24.9166 676.729 23.8064C680.887 30.211 683.425 35.2702 682.641 35.8155C681.857 36.3608 677.997 32.2203 673.44 26.0934C671.851 33.562 670.069 38.9342 669.129 38.7654C668.189 38.5965 668.388 32.9398 669.498 25.3851C663.093 29.5428 658.034 32.0811 657.489 31.2969C656.943 30.5128 661.084 26.6535 667.211 22.0965C659.742 20.5077 654.37 18.7252 654.539 17.7851C654.708 16.8451 660.364 17.0439 667.919 18.154C663.761 11.7494 661.223 6.69025 662.007 6.14497C662.791 5.59968 666.651 9.74013 671.208 15.8671C672.796 8.3984 674.579 3.02621 675.519 3.19509C676.459 3.36396 676.26 9.02067 675.15 16.5753C681.555 12.4176 686.614 9.87938 687.159 10.6635C687.705 11.4476 683.564 15.307 677.437 19.8639Z" fill="#EE4266"/>
<path d="M352.408 188.119C354.867 185.441 353.085 180.041 349.448 180.041H325.3C303.321 180.041 285.504 199.7 285.504 223.951C285.504 248.201 303.321 267.86 325.3 267.86H349.448C353.085 267.86 354.867 262.461 352.408 259.782C344.027 250.653 338.834 237.971 338.834 223.951C338.834 209.93 344.027 197.248 352.408 188.119Z" fill="#FCD307"/>
<path d="M352.408 188.119C354.867 185.441 353.085 180.041 349.448 180.041H325.3C303.321 180.041 285.504 199.7 285.504 223.951C285.504 248.201 303.321 267.86 325.3 267.86H349.448C353.085 267.86 354.867 262.461 352.408 259.782C344.027 250.653 338.834 237.971 338.834 223.951C338.834 209.93 344.027 197.248 352.408 188.119Z" fill="#FCD307"/>
<path d="M307.435 55.3975L312.834 39.5683H317.865L323.416 55.3975H320.25L315.545 41.6716L316.65 42.1486H313.94L315.068 41.6716L310.514 55.3975H307.435ZM311.208 51.1908L312.184 48.5887H318.602L319.556 51.1908H311.208ZM325.767 55.3975V39.5683H330.819L337.476 52.8388H338.192L337.758 53.2291V39.5683H340.664V55.3975H335.59L328.933 42.127H328.196L328.629 41.7367V55.3975H325.767ZM344.571 55.3975V39.5683H347.65V55.3975H344.571ZM347.217 48.8056V46.2035L353.548 46.1818V48.7839L347.217 48.8056ZM347.217 42.1703V39.5683H353.852V42.1703H347.217ZM364.079 55.8095C362.648 55.8095 361.404 55.5565 360.349 55.0505C359.308 54.5446 358.441 53.8868 357.747 53.0773C357.068 52.2533 356.554 51.3715 356.207 50.4319C355.875 49.4778 355.709 48.5598 355.709 47.678V47.201C355.709 46.2324 355.882 45.2711 356.229 44.317C356.576 43.3485 357.097 42.4739 357.79 41.6933C358.499 40.9127 359.373 40.2911 360.414 39.8285C361.455 39.3514 362.677 39.1129 364.079 39.1129C365.466 39.1129 366.681 39.3514 367.722 39.8285C368.762 40.2911 369.63 40.9127 370.324 41.6933C371.032 42.4739 371.56 43.3485 371.907 44.317C372.254 45.2711 372.427 46.2324 372.427 47.201V47.678C372.427 48.5598 372.254 49.4778 371.907 50.4319C371.574 51.3715 371.061 52.2533 370.367 53.0773C369.688 53.8868 368.82 54.5446 367.765 55.0505C366.724 55.5565 365.495 55.8095 364.079 55.8095ZM364.079 52.9472C364.888 52.9472 365.611 52.8026 366.247 52.5135C366.898 52.2244 367.447 51.8269 367.895 51.3209C368.358 50.8005 368.705 50.215 368.936 49.5645C369.182 48.8995 369.305 48.1984 369.305 47.4612C369.305 46.6661 369.182 45.9361 368.936 45.2711C368.705 44.6061 368.358 44.0279 367.895 43.5364C367.447 43.0449 366.898 42.6618 366.247 42.3872C365.597 42.1125 364.874 41.9752 364.079 41.9752C363.269 41.9752 362.539 42.1125 361.889 42.3872C361.238 42.6618 360.682 43.0449 360.219 43.5364C359.771 44.0279 359.424 44.6061 359.178 45.2711C358.947 45.9361 358.831 46.6661 358.831 47.4612C358.831 48.1984 358.947 48.8995 359.178 49.5645C359.424 50.215 359.771 50.8005 360.219 51.3209C360.682 51.8269 361.238 52.2244 361.889 52.5135C362.539 52.8026 363.269 52.9472 364.079 52.9472ZM375.403 55.3975V39.4599H378.482V55.3975H375.403ZM385.074 55.3975L380.217 48.502H383.664L388.673 55.3975H385.074ZM377.571 50.1066V47.613H381.604C382.168 47.613 382.652 47.4973 383.057 47.266C383.476 47.0347 383.802 46.7095 384.033 46.2903C384.264 45.871 384.38 45.394 384.38 44.8591C384.38 44.3098 384.264 43.8255 384.033 43.4063C383.802 42.9871 383.476 42.6618 383.057 42.4305C382.652 42.1992 382.168 42.0836 381.604 42.0836H377.571V39.4599H381.279C382.551 39.4599 383.65 39.6478 384.575 40.0236C385.515 40.3995 386.237 40.9705 386.743 41.7367C387.249 42.5028 387.502 43.4641 387.502 44.6206V44.9675C387.502 46.1385 387.242 47.0998 386.722 47.8515C386.216 48.6032 385.5 49.167 384.575 49.5428C383.65 49.9187 382.551 50.1066 381.279 50.1066H377.571ZM397.931 55.8095C396.5 55.8095 395.272 55.5565 394.245 55.0505C393.219 54.5446 392.38 53.8868 391.73 53.0773C391.094 52.2678 390.624 51.386 390.32 50.4319C390.017 49.4778 389.865 48.5598 389.865 47.678V47.201C389.865 46.218 390.017 45.2494 390.32 44.2953C390.638 43.3413 391.123 42.4739 391.773 41.6933C392.424 40.9127 393.248 40.2911 394.245 39.8285C395.257 39.3514 396.45 39.1129 397.823 39.1129C399.254 39.1129 400.497 39.3731 401.553 39.8935C402.622 40.3995 403.475 41.1223 404.111 42.0619C404.747 42.9871 405.13 44.0713 405.261 45.3145H402.16C402.044 44.5917 401.784 43.9845 401.379 43.493C400.989 42.9871 400.49 42.6112 399.883 42.3655C399.276 42.1053 398.589 41.9752 397.823 41.9752C397.042 41.9752 396.348 42.1125 395.741 42.3872C395.134 42.6474 394.628 43.0232 394.223 43.5147C393.819 44.0062 393.508 44.5845 393.291 45.2494C393.089 45.9144 392.987 46.6517 392.987 47.4612C392.987 48.2418 393.089 48.9646 393.291 49.6296C393.508 50.2945 393.826 50.88 394.245 51.386C394.664 51.8775 395.178 52.2605 395.785 52.5352C396.406 52.8099 397.122 52.9472 397.931 52.9472C399.117 52.9472 400.114 52.6581 400.924 52.0798C401.748 51.4871 402.246 50.6632 402.42 49.6079H405.521C405.376 50.7354 404.993 51.769 404.372 52.7087C403.75 53.6483 402.897 54.4 401.813 54.9638C400.729 55.5276 399.435 55.8095 397.931 55.8095ZM415.557 55.8095C414.125 55.8095 412.882 55.5565 411.827 55.0505C410.786 54.5446 409.919 53.8868 409.225 53.0773C408.546 52.2533 408.032 51.3715 407.685 50.4319C407.353 49.4778 407.187 48.5598 407.187 47.678V47.201C407.187 46.2324 407.36 45.2711 407.707 44.317C408.054 43.3485 408.574 42.4739 409.268 41.6933C409.977 40.9127 410.851 40.2911 411.892 39.8285C412.933 39.3514 414.154 39.1129 415.557 39.1129C416.944 39.1129 418.159 39.3514 419.2 39.8285C420.24 40.2911 421.108 40.9127 421.802 41.6933C422.51 42.4739 423.038 43.3485 423.384 44.317C423.731 45.2711 423.905 46.2324 423.905 47.201V47.678C423.905 48.5598 423.731 49.4778 423.384 50.4319C423.052 51.3715 422.539 52.2533 421.845 53.0773C421.166 53.8868 420.298 54.5446 419.243 55.0505C418.202 55.5565 416.973 55.8095 415.557 55.8095ZM415.557 52.9472C416.366 52.9472 417.089 52.8026 417.725 52.5135C418.376 52.2244 418.925 51.8269 419.373 51.3209C419.836 50.8005 420.183 50.215 420.414 49.5645C420.66 48.8995 420.782 48.1984 420.782 47.4612C420.782 46.6661 420.66 45.9361 420.414 45.2711C420.183 44.6061 419.836 44.0279 419.373 43.5364C418.925 43.0449 418.376 42.6618 417.725 42.3872C417.074 42.1125 416.352 41.9752 415.557 41.9752C414.747 41.9752 414.017 42.1125 413.367 42.3872C412.716 42.6618 412.159 43.0449 411.697 43.5364C411.249 44.0279 410.902 44.6061 410.656 45.2711C410.425 45.9361 410.309 46.6661 410.309 47.4612C410.309 48.1984 410.425 48.8995 410.656 49.5645C410.902 50.215 411.249 50.8005 411.697 51.3209C412.159 51.8269 412.716 52.2244 413.367 52.5135C414.017 52.8026 414.747 52.9472 415.557 52.9472ZM426.881 55.3975V39.5683H431.087L435.055 49.0224H435.446L439.392 39.5683H443.664V55.3975H440.607V41.8884L440.997 41.9318L436.725 52.1666H433.581L429.288 41.9318L429.7 41.8884V55.3975H426.881ZM451.707 55.3975V52.3617C451.707 51.6968 451.808 51.1185 452.011 50.627C452.227 50.1355 452.574 49.7018 453.051 49.326C453.543 48.9357 454.186 48.5671 454.981 48.2201L457.67 47.0275C458.335 46.7239 458.841 46.3553 459.188 45.9216C459.549 45.4735 459.73 44.9025 459.73 44.2086C459.73 43.4424 459.499 42.8353 459.036 42.3872C458.588 41.9246 457.945 41.6933 457.106 41.6933C456.268 41.6933 455.617 41.9246 455.155 42.3872C454.707 42.8498 454.482 43.493 454.482 44.317H451.512C451.512 43.334 451.721 42.4522 452.141 41.6716C452.56 40.8765 453.181 40.2549 454.005 39.8068C454.829 39.3442 455.863 39.1129 457.106 39.1129C458.349 39.1129 459.383 39.337 460.207 39.7851C461.031 40.2332 461.653 40.8332 462.072 41.5849C462.491 42.3221 462.701 43.1461 462.701 44.0568V44.3387C462.701 45.5241 462.368 46.5143 461.703 47.3094C461.038 48.09 460.062 48.7694 458.776 49.3477L456.087 50.5403C455.581 50.7571 455.227 50.9884 455.025 51.2342C454.822 51.4655 454.721 51.7835 454.721 52.1883V53.576L453.984 52.7737H462.766V55.3975H451.707ZM472.11 55.8095C470.867 55.8095 469.812 55.6071 468.945 55.2023C468.077 54.7831 467.369 54.2193 466.82 53.511C466.27 52.7882 465.865 51.9642 465.605 51.039C465.36 50.0994 465.237 49.1164 465.237 48.09V46.8757C465.237 45.4157 465.482 44.1002 465.974 42.9293C466.465 41.7583 467.217 40.8332 468.229 40.1537C469.241 39.4599 470.535 39.1129 472.11 39.1129C473.672 39.1129 474.958 39.4599 475.97 40.1537C476.982 40.8332 477.727 41.7583 478.204 42.9293C478.695 44.1002 478.941 45.4157 478.941 46.8757V48.09C478.941 49.1164 478.811 50.0994 478.551 51.039C478.305 51.9642 477.907 52.7882 477.358 53.511C476.823 54.2193 476.122 54.7831 475.255 55.2023C474.387 55.6071 473.339 55.8095 472.11 55.8095ZM472.11 52.9906C473.397 52.9906 474.344 52.5497 474.951 51.6678C475.558 50.7716 475.862 49.3838 475.862 47.5045C475.862 45.5096 475.551 44.0857 474.929 43.2328C474.308 42.3655 473.368 41.9318 472.11 41.9318C470.838 41.9318 469.884 42.3655 469.248 43.2328C468.627 44.0857 468.316 45.4952 468.316 47.4612C468.316 49.3549 468.627 50.7499 469.248 51.6462C469.87 52.5424 470.824 52.9906 472.11 52.9906ZM481.692 55.3975V52.3617C481.692 51.6968 481.793 51.1185 481.995 50.627C482.212 50.1355 482.559 49.7018 483.036 49.326C483.528 48.9357 484.171 48.5671 484.966 48.2201L487.655 47.0275C488.32 46.7239 488.826 46.3553 489.173 45.9216C489.534 45.4735 489.715 44.9025 489.715 44.2086C489.715 43.4424 489.483 42.8353 489.021 42.3872C488.573 41.9246 487.929 41.6933 487.091 41.6933C486.252 41.6933 485.602 41.9246 485.139 42.3872C484.691 42.8498 484.467 43.493 484.467 44.317H481.496C481.496 43.334 481.706 42.4522 482.125 41.6716C482.545 40.8765 483.166 40.2549 483.99 39.8068C484.814 39.3442 485.848 39.1129 487.091 39.1129C488.334 39.1129 489.368 39.337 490.192 39.7851C491.016 40.2332 491.637 40.8332 492.056 41.5849C492.476 42.3221 492.685 43.1461 492.685 44.0568V44.3387C492.685 45.5241 492.353 46.5143 491.688 47.3094C491.023 48.09 490.047 48.7694 488.761 49.3477L486.072 50.5403C485.566 50.7571 485.212 50.9884 485.009 51.2342C484.807 51.4655 484.706 51.7835 484.706 52.1883V53.576L483.968 52.7737H492.75V55.3975H481.692ZM500.512 55.8095C499.298 55.8095 498.25 55.5782 497.368 55.1156C496.501 54.653 495.836 54.0386 495.373 53.2724C494.911 52.4918 494.679 51.6245 494.679 50.6704H497.65C497.65 51.4365 497.903 52.0582 498.409 52.5352C498.929 52.9978 499.63 53.2291 500.512 53.2291C501.105 53.2291 501.611 53.1207 502.03 52.9038C502.464 52.6725 502.796 52.3617 503.027 51.9714C503.259 51.5667 503.374 51.1041 503.374 50.5837C503.374 49.803 503.121 49.167 502.615 48.6755C502.11 48.1695 501.416 47.9165 500.534 47.9165C500.1 47.9165 499.717 47.9744 499.385 48.09C499.067 48.2057 498.785 48.3574 498.539 48.5454L497.129 46.1168L502.334 42.5606L502.138 42.192H495.33V39.5683H505.673V42.7341L500.317 46.2903L498.647 45.9867C498.922 45.8999 499.218 45.8349 499.536 45.7915C499.854 45.7337 500.201 45.7048 500.577 45.7048C501.777 45.7048 502.803 45.9144 503.656 46.3336C504.524 46.7384 505.189 47.3022 505.651 48.025C506.114 48.7478 506.345 49.579 506.345 50.5186V50.8005C506.345 51.7112 506.114 52.5497 505.651 53.3158C505.189 54.0675 504.524 54.6747 503.656 55.1373C502.789 55.5854 501.741 55.8095 500.512 55.8095ZM521.519 55.8095C520.088 55.8095 518.845 55.5565 517.79 55.0505C516.749 54.5446 515.882 53.8868 515.188 53.0773C514.508 52.2533 513.995 51.3715 513.648 50.4319C513.316 49.4778 513.149 48.5598 513.149 47.678V47.201C513.149 46.2324 513.323 45.2711 513.67 44.317C514.017 43.3485 514.537 42.4739 515.231 41.6933C515.939 40.9127 516.814 40.2911 517.855 39.8285C518.896 39.3514 520.117 39.1129 521.519 39.1129C522.907 39.1129 524.121 39.3514 525.162 39.8285C526.203 40.2911 527.07 40.9127 527.764 41.6933C528.473 42.4739 529 43.3485 529.347 44.317C529.694 45.2711 529.868 46.2324 529.868 47.201V47.678C529.868 48.5598 529.694 49.4778 529.347 50.4319C529.015 51.3715 528.502 52.2533 527.808 53.0773C527.128 53.8868 526.261 54.5446 525.206 55.0505C524.165 55.5565 522.936 55.8095 521.519 55.8095ZM521.519 52.9472C522.329 52.9472 523.052 52.8026 523.688 52.5135C524.338 52.2244 524.888 51.8269 525.336 51.3209C525.798 50.8005 526.145 50.215 526.377 49.5645C526.622 48.8995 526.745 48.1984 526.745 47.4612C526.745 46.6661 526.622 45.9361 526.377 45.2711C526.145 44.6061 525.798 44.0279 525.336 43.5364C524.888 43.0449 524.338 42.6618 523.688 42.3872C523.037 42.1125 522.314 41.9752 521.519 41.9752C520.71 41.9752 519.98 42.1125 519.329 42.3872C518.679 42.6618 518.122 43.0449 517.66 43.5364C517.212 44.0279 516.865 44.6061 516.619 45.2711C516.388 45.9361 516.272 46.6661 516.272 47.4612C516.272 48.1984 516.388 48.8995 516.619 49.5645C516.865 50.215 517.212 50.8005 517.66 51.3209C518.122 51.8269 518.679 52.2244 519.329 52.5135C519.98 52.8026 520.71 52.9472 521.519 52.9472ZM532.865 55.3975V43.1027C532.865 41.7583 533.234 40.7681 533.971 40.132C534.723 39.4815 535.829 39.1563 537.289 39.1563H538.394V41.4764H537.072C536.624 41.4764 536.277 41.5993 536.031 41.8451C535.8 42.0764 535.684 42.4089 535.684 42.8425V55.3975H532.865ZM540.541 55.3975V43.2328C540.541 41.8884 540.91 40.8982 541.647 40.2622C542.399 39.6116 543.505 39.2864 544.965 39.2864H546.331V41.6065H544.748C544.3 41.6065 543.953 41.7294 543.707 41.9752C543.476 42.2065 543.36 42.539 543.36 42.9726V55.3975H540.541ZM548.586 55.3975V43.6231H551.6V55.3975H548.586ZM531.412 45.8999V43.6882H546.071V45.8999H531.412ZM547.09 45.8783V43.6231H551.6V45.8783H547.09ZM549.67 42.2137C549.092 42.2137 548.658 42.0619 548.369 41.7583C548.094 41.4403 547.957 41.0428 547.957 40.5657C547.957 40.0887 548.094 39.6984 548.369 39.3948C548.658 39.0912 549.092 38.9394 549.67 38.9394C550.263 38.9394 550.696 39.0912 550.971 39.3948C551.26 39.6984 551.405 40.0887 551.405 40.5657C551.405 41.0428 551.26 41.4403 550.971 41.7583C550.696 42.0619 550.263 42.2137 549.67 42.2137ZM560.298 55.8095C559.272 55.8095 558.383 55.636 557.631 55.289C556.894 54.9421 556.272 54.4795 555.766 53.9013C555.275 53.323 554.906 52.6725 554.66 51.9497C554.414 51.2269 554.292 50.4897 554.292 49.738V49.326C554.292 48.5309 554.414 47.772 554.66 47.0492C554.92 46.3119 555.303 45.6614 555.809 45.0976C556.315 44.5194 556.937 44.064 557.674 43.7316C558.426 43.3846 559.293 43.2112 560.276 43.2112C561.303 43.2112 562.221 43.4135 563.03 43.8183C563.84 44.2086 564.483 44.7579 564.96 45.4663C565.452 46.1746 565.726 46.9986 565.784 47.9382H562.857C562.784 47.3311 562.524 46.8251 562.076 46.4204C561.642 46.0156 561.042 45.8132 560.276 45.8132C559.611 45.8132 559.055 45.9722 558.607 46.2903C558.173 46.6083 557.848 47.0492 557.631 47.613C557.414 48.1623 557.306 48.7984 557.306 49.5211C557.306 50.215 557.407 50.8439 557.609 51.4076C557.826 51.9714 558.151 52.4123 558.585 52.7304C559.033 53.0484 559.604 53.2074 560.298 53.2074C560.818 53.2074 561.267 53.1134 561.642 52.9255C562.018 52.7376 562.315 52.4774 562.531 52.1449C562.763 51.8124 562.907 51.4365 562.965 51.0173H565.892C565.835 51.9714 565.553 52.8099 565.047 53.5327C564.555 54.241 563.898 54.7975 563.074 55.2023C562.264 55.6071 561.339 55.8095 560.298 55.8095ZM568.871 55.3975V43.6231H571.885V55.3975H568.871ZM567.223 45.8783V43.6231H571.885V45.8783H567.223ZM569.977 42.2137C569.384 42.2137 568.943 42.0619 568.654 41.7583C568.379 41.4403 568.242 41.05 568.242 40.5874C568.242 40.0959 568.379 39.6984 568.654 39.3948C568.943 39.0912 569.384 38.9394 569.977 38.9394C570.569 38.9394 571.003 39.0912 571.278 39.3948C571.552 39.6984 571.69 40.0959 571.69 40.5874C571.69 41.05 571.552 41.4403 571.278 41.7583C571.003 42.0619 570.569 42.2137 569.977 42.2137ZM582.492 55.3975V51.9064H581.994V48.025C581.994 47.3455 581.827 46.8396 581.495 46.5071C581.162 46.1746 580.649 46.0084 579.955 46.0084C579.594 46.0084 579.16 46.0156 578.654 46.03C578.148 46.0445 577.635 46.0662 577.115 46.0951C576.609 46.1096 576.153 46.1312 575.749 46.1602V43.6015C576.081 43.5725 576.457 43.5436 576.876 43.5147C577.295 43.4858 577.722 43.4714 578.156 43.4714C578.604 43.4569 579.023 43.4497 579.413 43.4497C580.628 43.4497 581.632 43.6087 582.427 43.9267C583.237 44.2447 583.844 44.7435 584.249 45.4229C584.668 46.1023 584.878 46.9914 584.878 48.09V55.3975H582.492ZM578.698 55.701C577.845 55.701 577.093 55.5492 576.443 55.2457C575.807 54.9421 575.308 54.5084 574.946 53.9446C574.599 53.3809 574.426 52.7014 574.426 51.9064C574.426 51.039 574.636 50.3307 575.055 49.7814C575.489 49.232 576.088 48.82 576.855 48.5454C577.635 48.2707 578.546 48.1334 579.587 48.1334H582.319V49.9331H579.543C578.85 49.9331 578.315 50.1066 577.939 50.4535C577.577 50.786 577.397 51.2197 577.397 51.7546C577.397 52.2894 577.577 52.7231 577.939 53.0556C578.315 53.3881 578.85 53.5543 579.543 53.5543C579.963 53.5543 580.346 53.4821 580.693 53.3375C581.054 53.1785 581.35 52.9183 581.582 52.5569C581.827 52.181 581.965 51.6751 581.994 51.039L582.731 51.8847C582.659 52.7087 582.456 53.4025 582.124 53.9663C581.806 54.5301 581.358 54.9638 580.779 55.2674C580.216 55.5565 579.522 55.701 578.698 55.701ZM588.258 55.3975V39.5683H591.272V55.3975H588.258ZM586.783 41.8234V39.5683H591.272V41.8234H586.783ZM602.754 55.3975V41.8451H605.833V55.3975H602.754ZM598.178 42.2787V39.5683H610.408V42.2787H598.178ZM612.628 55.3975V39.5683H615.642V48.8056H615.121C615.121 47.6202 615.273 46.6155 615.577 45.7915C615.88 44.9675 616.328 44.3387 616.921 43.905C617.528 43.4714 618.294 43.2545 619.219 43.2545H619.349C620.694 43.2545 621.713 43.7171 622.407 44.6423C623.101 45.5675 623.448 46.9119 623.448 48.6755V55.3975H620.434V48.3936C620.434 47.6419 620.217 47.0492 619.783 46.6155C619.364 46.1818 618.807 45.965 618.114 45.965C617.376 45.965 616.776 46.2107 616.314 46.7022C615.866 47.1793 615.642 47.8081 615.642 48.5887V55.3975H612.628ZM631.957 55.8095C630.945 55.8095 630.056 55.636 629.29 55.289C628.538 54.9421 627.91 54.4795 627.404 53.9013C626.912 53.3086 626.536 52.6508 626.276 51.928C626.03 51.2053 625.908 50.468 625.908 49.7163V49.3043C625.908 48.5237 626.03 47.772 626.276 47.0492C626.536 46.3119 626.912 45.6614 627.404 45.0976C627.91 44.5194 628.531 44.064 629.268 43.7316C630.006 43.3846 630.859 43.2112 631.827 43.2112C633.099 43.2112 634.162 43.493 635.015 44.0568C635.882 44.6061 636.533 45.3362 636.966 46.2469C637.4 47.1432 637.617 48.1117 637.617 49.1525V50.2367H627.187V48.3936H635.73L634.798 49.3043C634.798 48.5526 634.689 47.9093 634.473 47.3744C634.256 46.8396 633.923 46.4276 633.475 46.1385C633.041 45.8494 632.492 45.7048 631.827 45.7048C631.162 45.7048 630.598 45.8566 630.136 46.1602C629.673 46.4637 629.319 46.9046 629.073 47.4829C628.842 48.0466 628.726 48.7261 628.726 49.5211C628.726 50.2584 628.842 50.9161 629.073 51.4944C629.305 52.0582 629.659 52.5063 630.136 52.8388C630.613 53.1568 631.22 53.3158 631.957 53.3158C632.695 53.3158 633.294 53.1713 633.757 52.8821C634.22 52.5786 634.516 52.2099 634.646 51.7763H637.422C637.248 52.5858 636.916 53.2941 636.424 53.9013C635.933 54.5084 635.304 54.9782 634.538 55.3107C633.786 55.6432 632.926 55.8095 631.957 55.8095ZM640.135 55.3975V43.6231H642.52V48.6755H642.303C642.303 47.4901 642.455 46.4999 642.758 45.7048C643.062 44.8953 643.51 44.2881 644.103 43.8834C644.71 43.4641 645.462 43.2545 646.358 43.2545H646.488C647.399 43.2545 648.15 43.4641 648.743 43.8834C649.35 44.2881 649.798 44.8953 650.087 45.7048C650.391 46.4999 650.543 47.4901 650.543 48.6755H649.784C649.784 47.4901 649.936 46.4999 650.239 45.7048C650.557 44.8953 651.013 44.2881 651.605 43.8834C652.212 43.4641 652.964 43.2545 653.86 43.2545H653.991C654.901 43.2545 655.66 43.4641 656.267 43.8834C656.875 44.2881 657.33 44.8953 657.633 45.7048C657.951 46.4999 658.11 47.4901 658.11 48.6755V55.3975H655.096V48.3936C655.096 47.6563 654.909 47.0709 654.533 46.6372C654.157 46.1891 653.622 45.965 652.928 45.965C652.234 45.965 651.678 46.1963 651.258 46.6589C650.839 47.107 650.63 47.7142 650.63 48.4803V55.3975H647.616V48.3936C647.616 47.6563 647.428 47.0709 647.052 46.6372C646.676 46.1891 646.141 45.965 645.447 45.965C644.753 45.965 644.197 46.1963 643.777 46.6589C643.358 47.107 643.149 47.7142 643.149 48.4803V55.3975H640.135ZM666.601 55.8095C665.589 55.8095 664.7 55.636 663.933 55.289C663.182 54.9421 662.553 54.4795 662.047 53.9013C661.555 53.3086 661.18 52.6508 660.919 51.928C660.674 51.2053 660.551 50.468 660.551 49.7163V49.3043C660.551 48.5237 660.674 47.772 660.919 47.0492C661.18 46.3119 661.555 45.6614 662.047 45.0976C662.553 44.5194 663.175 44.064 663.912 43.7316C664.649 43.3846 665.502 43.2112 666.47 43.2112C667.743 43.2112 668.805 43.493 669.658 44.0568C670.525 44.6061 671.176 45.3362 671.61 46.2469C672.043 47.1432 672.26 48.1117 672.26 49.1525V50.2367H661.83V48.3936H670.374L669.441 49.3043C669.441 48.5526 669.333 47.9093 669.116 47.3744C668.899 46.8396 668.567 46.4276 668.118 46.1385C667.685 45.8494 667.135 45.7048 666.47 45.7048C665.806 45.7048 665.242 45.8566 664.779 46.1602C664.317 46.4637 663.962 46.9046 663.717 47.4829C663.485 48.0466 663.37 48.7261 663.37 49.5211C663.37 50.2584 663.485 50.9161 663.717 51.4944C663.948 52.0582 664.302 52.5063 664.779 52.8388C665.256 53.1568 665.863 53.3158 666.601 53.3158C667.338 53.3158 667.938 53.1713 668.4 52.8821C668.863 52.5786 669.159 52.2099 669.289 51.7763H672.065C671.891 52.5858 671.559 53.2941 671.067 53.9013C670.576 54.5084 669.947 54.9782 669.181 55.3107C668.429 55.6432 667.569 55.8095 666.601 55.8095Z" fill="#1C1259"/>
<path d="M651.567 73.79H675.451C675.451 100.711 647.503 105.922 633.529 105.163C649.295 105.163 652.124 84.2476 651.567 73.79Z" fill="white"/>
<path fill-rule="evenodd" clip-rule="evenodd" d="M305.931 219.862C305.327 218.812 304.987 217.625 304.987 216.37C304.987 212.074 308.966 208.591 313.873 208.591V215.594C314.544 214.577 315.474 213.704 316.641 213.071C320.624 210.911 325.853 212.366 328.321 216.321L321.791 219.862C323.075 219.893 324.356 220.208 325.53 220.836C329.528 222.972 330.791 227.922 328.351 231.892L321.816 228.4C322.419 229.45 322.759 230.636 322.759 231.892C322.759 236.188 318.781 239.671 313.873 239.671V232.667C313.203 233.685 312.272 234.558 311.105 235.191C307.122 237.351 301.893 235.896 299.425 231.94L305.955 228.399C304.671 228.368 303.391 228.053 302.216 227.426C298.218 225.29 296.955 220.34 299.395 216.37L305.931 219.862ZM313.878 224.113C313.876 224.111 313.875 224.108 313.873 224.105L313.873 224.113C313.875 224.113 313.876 224.113 313.878 224.113ZM313.873 224.149V224.156L313.868 224.149L313.873 224.149Z" fill="#1C1259"/>
<path fill-rule="evenodd" clip-rule="evenodd" d="M305.931 219.862C305.327 218.812 304.987 217.625 304.987 216.37C304.987 212.074 308.966 208.591 313.873 208.591V215.594C314.544 214.577 315.474 213.704 316.641 213.071C320.624 210.911 325.853 212.366 328.321 216.321L321.791 219.862C323.075 219.893 324.356 220.208 325.53 220.836C329.528 222.972 330.791 227.922 328.351 231.892L321.816 228.4C322.419 229.45 322.759 230.636 322.759 231.892C322.759 236.188 318.781 239.671 313.873 239.671V232.667C313.203 233.685 312.272 234.558 311.105 235.191C307.122 237.351 301.893 235.896 299.425 231.94L305.955 228.399C304.671 228.368 303.391 228.053 302.216 227.426C298.218 225.29 296.955 220.34 299.395 216.37L305.931 219.862ZM313.878 224.113C313.876 224.111 313.875 224.108 313.873 224.105L313.873 224.113C313.875 224.113 313.876 224.113 313.878 224.113ZM313.873 224.149V224.156L313.868 224.149L313.873 224.149Z" fill="#1C1259"/>
<defs>
<clipPath id="clip0_921_914">
<rect x="6.14404" y="88.6064" width="307.91" height="81.3143" rx="40.6572" fill="white"/>
</clipPath>
<clipPath id="clip1_921_914">
<rect x="352.723" y="180.041" width="615.821" height="87.8195" rx="43.9097" fill="white"/>
</clipPath>
</defs>
</svg>
