<svg width="1087" height="333" viewBox="0 0 1087 333" fill="none" xmlns="http://www.w3.org/2000/svg">
<rect x="103.5" y="70.9219" width="738.206" height="194.603" rx="97.3013" fill="white"/>
<path d="M223.967 204.026L247.817 129.621H278.191L302.857 204.026H283.288L264.126 142.871L269.528 144.909H256.073L261.577 142.871L242.925 204.026H223.967ZM243.435 186.801L249.143 171.308H277.376L283.084 186.801H243.435ZM312.442 204.026V147.763H327.12V171.92H326.304C326.304 166.076 327.052 161.252 328.547 157.446C330.042 153.573 332.25 150.685 335.172 148.783C338.162 146.88 341.763 145.929 345.976 145.929H346.791C353.179 145.929 358.105 148.069 361.571 152.35C365.104 156.563 366.871 163.052 366.871 171.818V204.026H348.32V171.308C348.32 168.726 347.539 166.62 345.976 164.989C344.481 163.29 342.409 162.441 339.759 162.441C337.108 162.441 334.968 163.29 333.337 164.989C331.774 166.62 330.993 168.794 330.993 171.512V204.026H312.442ZM382.593 204.026V147.967C382.593 141.376 384.495 136.484 388.301 133.29C392.106 130.028 397.746 128.397 405.22 128.397H412.457V142.055H404.813C403.182 142.055 401.925 142.497 401.041 143.381C400.158 144.264 399.716 145.521 399.716 147.152V204.026H382.593ZM376.273 162.441V148.986H413.272V162.441H376.273ZM450.257 206.065C445.297 206.065 440.88 205.317 437.007 203.823C433.134 202.328 429.838 200.255 427.12 197.605C424.47 194.955 422.431 191.897 421.005 188.432C419.646 184.966 418.966 181.263 418.966 177.322V174.876C418.966 170.799 419.679 166.993 421.106 163.46C422.601 159.926 424.708 156.835 427.426 154.185C430.144 151.535 433.439 149.462 437.313 147.967C441.186 146.472 445.501 145.725 450.257 145.725C455.082 145.725 459.397 146.472 463.202 147.967C467.075 149.462 470.371 151.535 473.089 154.185C475.807 156.835 477.879 159.926 479.306 163.46C480.801 166.993 481.548 170.799 481.548 174.876V177.322C481.548 181.263 480.835 184.966 479.408 188.432C478.049 191.897 476.01 194.955 473.292 197.605C470.642 200.255 467.381 202.328 463.508 203.823C459.634 205.317 455.218 206.065 450.257 206.065ZM450.257 190.572C453.111 190.572 455.455 189.961 457.29 188.737C459.193 187.514 460.62 185.816 461.571 183.641C462.522 181.399 462.998 178.885 462.998 176.099C462.998 173.177 462.488 170.629 461.469 168.454C460.518 166.212 459.091 164.445 457.188 163.154C455.286 161.863 452.975 161.218 450.257 161.218C447.539 161.218 445.229 161.863 443.326 163.154C441.424 164.445 439.963 166.212 438.943 168.454C437.992 170.629 437.517 173.177 437.517 176.099C437.517 178.885 437.992 181.399 438.943 183.641C439.895 185.816 441.322 187.514 443.224 188.737C445.127 189.961 447.471 190.572 450.257 190.572ZM493.743 204.026V147.763H508.42V172.226H508.216C508.216 164.343 509.847 158.16 513.109 153.675C516.438 149.19 521.195 146.948 527.378 146.948H529.621V162.848H525.34C521.195 162.848 517.967 163.97 515.657 166.212C513.415 168.454 512.293 171.682 512.293 175.895V204.026H493.743ZM564.467 206.065C559.574 206.065 555.327 205.283 551.726 203.721C548.125 202.09 545.101 199.915 542.655 197.197C540.276 194.479 538.476 191.388 537.252 187.922C536.097 184.457 535.52 180.855 535.52 177.118V175.079C535.52 171.138 536.131 167.401 537.354 163.868C538.645 160.334 540.514 157.208 542.96 154.49C545.407 151.772 548.43 149.632 552.032 148.069C555.633 146.506 559.778 145.725 564.467 145.725C569.631 145.725 574.184 146.744 578.125 148.783C582.066 150.821 585.192 153.641 587.502 157.242C589.88 160.776 591.205 164.853 591.477 169.474H573.334C573.13 167.231 572.281 165.329 570.786 163.766C569.359 162.203 567.253 161.421 564.467 161.421C562.088 161.421 560.118 162.033 558.555 163.256C557.06 164.479 555.939 166.178 555.191 168.352C554.444 170.527 554.07 173.109 554.07 176.099C554.07 178.885 554.376 181.365 554.988 183.539C555.667 185.714 556.754 187.412 558.249 188.636C559.812 189.791 561.885 190.368 564.467 190.368C566.369 190.368 567.966 190.029 569.257 189.349C570.548 188.67 571.567 187.718 572.315 186.495C573.062 185.204 573.538 183.709 573.742 182.01H591.885C591.613 186.767 590.254 190.946 587.808 194.547C585.429 198.149 582.236 200.969 578.227 203.007C574.218 205.046 569.631 206.065 564.467 206.065ZM631.359 206.065C626.398 206.065 621.981 205.317 618.108 203.823C614.235 202.328 610.939 200.255 608.221 197.605C605.571 194.955 603.533 191.897 602.106 188.432C600.747 184.966 600.067 181.263 600.067 177.322V174.876C600.067 170.799 600.781 166.993 602.208 163.46C603.703 159.926 605.809 156.835 608.527 154.185C611.245 151.535 614.541 149.462 618.414 147.967C622.287 146.472 626.602 145.725 631.359 145.725C636.183 145.725 640.498 146.472 644.303 147.967C648.176 149.462 651.472 151.535 654.19 154.185C656.908 156.835 658.981 159.926 660.407 163.46C661.902 166.993 662.65 170.799 662.65 174.876V177.322C662.65 181.263 661.936 184.966 660.509 188.432C659.15 191.897 657.112 194.955 654.394 197.605C651.744 200.255 648.482 202.328 644.609 203.823C640.736 205.317 636.319 206.065 631.359 206.065ZM631.359 190.572C634.213 190.572 636.557 189.961 638.392 188.737C640.294 187.514 641.721 185.816 642.672 183.641C643.624 181.399 644.099 178.885 644.099 176.099C644.099 173.177 643.59 170.629 642.57 168.454C641.619 166.212 640.192 164.445 638.29 163.154C636.387 161.863 634.077 161.218 631.359 161.218C628.641 161.218 626.33 161.863 624.428 163.154C622.525 164.445 621.064 166.212 620.045 168.454C619.094 170.629 618.618 173.177 618.618 176.099C618.618 178.885 619.094 181.399 620.045 183.641C620.996 185.816 622.423 187.514 624.326 188.737C626.228 189.961 628.573 190.572 631.359 190.572ZM674.844 204.026V147.763H689.522V172.022H688.706C688.706 166.178 689.42 161.353 690.847 157.548C692.342 153.675 694.516 150.787 697.37 148.885C700.224 146.914 703.723 145.929 707.868 145.929H708.684C712.897 145.929 716.396 146.914 719.182 148.885C722.036 150.787 724.176 153.675 725.603 157.548C727.098 161.353 727.846 166.178 727.846 172.022H723.565C723.565 166.178 724.278 161.353 725.705 157.548C727.2 153.675 729.375 150.787 732.229 148.885C735.082 146.914 738.582 145.929 742.727 145.929H743.542C747.755 145.929 751.289 146.914 754.143 148.885C757.064 150.787 759.273 153.675 760.768 157.548C762.331 161.353 763.112 166.178 763.112 172.022V204.026H744.562V171.512C744.562 168.93 743.848 166.789 742.421 165.091C741.062 163.324 739.092 162.441 736.509 162.441C733.927 162.441 731.889 163.324 730.394 165.091C728.967 166.789 728.253 168.998 728.253 171.716V204.026H709.703V171.512C709.703 168.93 708.989 166.789 707.562 165.091C706.203 163.324 704.233 162.441 701.651 162.441C699.069 162.441 697.03 163.324 695.535 165.091C694.108 166.789 693.395 168.998 693.395 171.716V204.026H674.844Z" fill="#1C1259"/>
<path d="M670.561 255.879C688.209 251.024 701.61 248.891 702.289 251.074C702.967 253.258 690.709 259.069 673.405 265.035C689.324 274.06 700.311 282.01 699.244 284.033C698.177 286.055 685.393 281.512 668.931 273.517C673.795 291.135 675.931 304.512 673.744 305.189C671.557 305.866 665.736 293.63 659.759 276.357C650.718 292.247 642.753 303.215 640.727 302.15C638.701 301.085 643.253 288.323 651.262 271.891C633.613 276.746 620.212 278.879 619.534 276.696C618.855 274.512 631.113 268.701 648.417 262.735C632.498 253.71 621.511 245.76 622.578 243.737C623.645 241.715 636.429 246.258 652.891 254.253C648.027 236.635 645.891 223.258 648.078 222.581C650.265 221.904 656.086 234.14 662.063 251.413C671.104 235.523 679.069 224.555 681.095 225.62C683.121 226.685 678.569 239.447 670.561 255.879Z" fill="#FCD307"/>
<path d="M411.786 58.3775C429.597 54.1565 443.066 52.5038 443.666 54.7097C444.265 56.9157 431.807 62.2851 414.3 67.6293C429.885 77.2169 440.58 85.5552 439.441 87.5383C438.302 89.5214 425.689 84.5242 409.525 75.9463C413.754 93.7262 415.409 107.171 413.199 107.77C410.989 108.368 405.61 95.9316 400.257 78.4564C390.652 94.0135 382.299 104.689 380.312 103.552C378.326 102.416 383.332 89.8252 391.925 73.6894C374.113 77.9105 360.645 79.5632 360.045 77.3572C359.446 75.1513 371.904 69.7819 389.41 64.4376C373.826 54.8501 363.131 46.5117 364.27 44.5287C365.408 42.5456 378.021 47.5428 394.186 56.1207C389.957 38.3408 388.302 24.8959 390.512 24.2974C392.721 23.6988 398.1 36.1353 403.454 53.6105C413.059 38.0534 421.412 27.3778 423.398 28.5145C425.385 29.6511 420.379 42.2418 411.786 58.3775Z" fill="#EE4266"/>
<path d="M411.786 58.3775C429.597 54.1565 443.066 52.5038 443.666 54.7097C444.265 56.9157 431.807 62.2851 414.3 67.6293C429.885 77.2169 440.58 85.5552 439.441 87.5383C438.302 89.5214 425.689 84.5242 409.525 75.9463C413.754 93.7262 415.409 107.171 413.199 107.77C410.989 108.368 405.61 95.9316 400.257 78.4564C390.652 94.0135 382.299 104.689 380.312 103.552C378.326 102.416 383.332 89.8252 391.925 73.6894C374.113 77.9105 360.645 79.5632 360.045 77.3572C359.446 75.1513 371.904 69.7819 389.41 64.4376C373.826 54.8501 363.131 46.5117 364.27 44.5287C365.408 42.5456 378.021 47.5428 394.186 56.1207C389.957 38.3408 388.302 24.8959 390.512 24.2974C392.721 23.6988 398.1 36.1353 403.454 53.6105C413.059 38.0534 421.412 27.3778 423.398 28.5145C425.385 29.6511 420.379 42.2418 411.786 58.3775Z" fill="#EE4266"/>
<path d="M907.547 39.7399C920.407 20.7182 948.422 20.7182 961.282 39.7399C968.564 50.5101 981.668 55.8727 994.429 53.3896C1016.88 49.0212 1036.81 68.745 1032.4 91.1876C1029.9 103.932 1035.3 116.933 1046.09 124.161C1065.13 136.92 1065.13 164.93 1046.09 177.689C1035.3 184.917 1029.9 197.919 1032.4 210.663C1036.81 233.105 1016.88 252.829 994.429 248.461C981.668 245.977 968.564 251.34 961.282 262.11C948.422 281.132 920.407 281.132 907.547 262.11C900.266 251.34 887.162 245.977 874.4 248.461C851.95 252.829 832.018 233.105 836.426 210.663C838.929 197.919 833.534 184.917 822.744 177.689C803.696 164.93 803.696 136.92 822.744 124.161C833.534 116.933 838.929 103.932 836.426 91.1876C832.018 68.745 851.95 49.0212 874.4 53.3896C887.162 55.8727 900.266 50.5101 907.547 39.7399Z" fill="#1C1259"/>
<path d="M907.547 39.7399C920.407 20.7182 948.422 20.7182 961.282 39.7399C968.564 50.5101 981.668 55.8727 994.429 53.3896C1016.88 49.0212 1036.81 68.745 1032.4 91.1876C1029.9 103.932 1035.3 116.933 1046.09 124.161C1065.13 136.92 1065.13 164.93 1046.09 177.689C1035.3 184.917 1029.9 197.919 1032.4 210.663C1036.81 233.105 1016.88 252.829 994.429 248.461C981.668 245.977 968.564 251.34 961.282 262.11C948.422 281.132 920.407 281.132 907.547 262.11C900.266 251.34 887.162 245.977 874.4 248.461C851.95 252.829 832.018 233.105 836.426 210.663C838.929 197.919 833.534 184.917 822.744 177.689C803.696 164.93 803.696 136.92 822.744 124.161C833.534 116.933 838.929 103.932 836.426 91.1876C832.018 68.745 851.95 49.0212 874.4 53.3896C887.162 55.8727 900.266 50.5101 907.547 39.7399Z" fill="#1C1259"/>
<path d="M907.547 39.7399C920.407 20.7182 948.422 20.7182 961.282 39.7399C968.564 50.5101 981.668 55.8727 994.429 53.3896C1016.88 49.0212 1036.81 68.745 1032.4 91.1876C1029.9 103.932 1035.3 116.933 1046.09 124.161C1065.13 136.92 1065.13 164.93 1046.09 177.689C1035.3 184.917 1029.9 197.919 1032.4 210.663C1036.81 233.105 1016.88 252.829 994.429 248.461C981.668 245.977 968.564 251.34 961.282 262.11C948.422 281.132 920.407 281.132 907.547 262.11C900.266 251.34 887.162 245.977 874.4 248.461C851.95 252.829 832.018 233.105 836.426 210.663C838.929 197.919 833.534 184.917 822.744 177.689C803.696 164.93 803.696 136.92 822.744 124.161C833.534 116.933 838.929 103.932 836.426 91.1876C832.018 68.745 851.95 49.0212 874.4 53.3896C887.162 55.8727 900.266 50.5101 907.547 39.7399Z" fill="#1C1259"/>
<path d="M907.547 39.7399C920.407 20.7182 948.422 20.7182 961.282 39.7399C968.564 50.5101 981.668 55.8727 994.429 53.3896C1016.88 49.0212 1036.81 68.745 1032.4 91.1876C1029.9 103.932 1035.3 116.933 1046.09 124.161C1065.13 136.92 1065.13 164.93 1046.09 177.689C1035.3 184.917 1029.9 197.919 1032.4 210.663C1036.81 233.105 1016.88 252.829 994.429 248.461C981.668 245.977 968.564 251.34 961.282 262.11C948.422 281.132 920.407 281.132 907.547 262.11C900.266 251.34 887.162 245.977 874.4 248.461C851.95 252.829 832.018 233.105 836.426 210.663C838.929 197.919 833.534 184.917 822.744 177.689C803.696 164.93 803.696 136.92 822.744 124.161C833.534 116.933 838.929 103.932 836.426 91.1876C832.018 68.745 851.95 49.0212 874.4 53.3896C887.162 55.8727 900.266 50.5101 907.547 39.7399Z" fill="#EE4266"/>
<path d="M908.006 39.7399C920.866 20.7182 948.881 20.7182 961.741 39.7399C969.023 50.5101 982.127 55.8727 994.888 53.3896C1017.34 49.0212 1037.27 68.745 1032.86 91.1876C1030.36 103.932 1035.75 116.933 1046.54 124.161C1065.59 136.92 1065.59 164.93 1046.54 177.689C1035.75 184.917 1030.36 197.919 1032.86 210.663C1037.27 233.105 1017.34 252.829 994.888 248.461C982.127 245.977 969.023 251.34 961.741 262.11C948.881 281.132 920.866 281.132 908.006 262.11C900.725 251.34 887.621 245.977 874.859 248.461C852.409 252.829 832.477 233.105 836.885 210.663C839.388 197.919 833.993 184.917 823.203 177.689C804.155 164.93 804.155 136.92 823.203 124.161C833.993 116.933 839.388 103.932 836.885 91.1876C832.477 68.745 852.409 49.0212 874.859 53.3896C887.621 55.8727 900.725 50.5101 908.006 39.7399Z" fill="#1C1259"/>
<path d="M908.006 39.7399C920.866 20.7182 948.881 20.7182 961.741 39.7399C969.023 50.5101 982.127 55.8727 994.888 53.3896C1017.34 49.0212 1037.27 68.745 1032.86 91.1876C1030.36 103.932 1035.75 116.933 1046.54 124.161C1065.59 136.92 1065.59 164.93 1046.54 177.689C1035.75 184.917 1030.36 197.919 1032.86 210.663C1037.27 233.105 1017.34 252.829 994.888 248.461C982.127 245.977 969.023 251.34 961.741 262.11C948.881 281.132 920.866 281.132 908.006 262.11C900.725 251.34 887.621 245.977 874.859 248.461C852.409 252.829 832.477 233.105 836.885 210.663C839.388 197.919 833.993 184.917 823.203 177.689C804.155 164.93 804.155 136.92 823.203 124.161C833.993 116.933 839.388 103.932 836.885 91.1876C832.477 68.745 852.409 49.0212 874.859 53.3896C887.621 55.8727 900.725 50.5101 908.006 39.7399Z" fill="#1C1259"/>
<path d="M908.006 39.7399C920.866 20.7182 948.881 20.7182 961.741 39.7399C969.023 50.5101 982.127 55.8727 994.888 53.3896C1017.34 49.0212 1037.27 68.745 1032.86 91.1876C1030.36 103.932 1035.75 116.933 1046.54 124.161C1065.59 136.92 1065.59 164.93 1046.54 177.689C1035.75 184.917 1030.36 197.919 1032.86 210.663C1037.27 233.105 1017.34 252.829 994.888 248.461C982.127 245.977 969.023 251.34 961.741 262.11C948.881 281.132 920.866 281.132 908.006 262.11C900.725 251.34 887.621 245.977 874.859 248.461C852.409 252.829 832.477 233.105 836.885 210.663C839.388 197.919 833.993 184.917 823.203 177.689C804.155 164.93 804.155 136.92 823.203 124.161C833.993 116.933 839.388 103.932 836.885 91.1876C832.477 68.745 852.409 49.0212 874.859 53.3896C887.621 55.8727 900.725 50.5101 908.006 39.7399Z" fill="#1C1259"/>
<path d="M908.006 39.7399C920.866 20.7182 948.881 20.7182 961.741 39.7399C969.023 50.5101 982.127 55.8727 994.888 53.3896C1017.34 49.0212 1037.27 68.745 1032.86 91.1876C1030.36 103.932 1035.75 116.933 1046.54 124.161C1065.59 136.92 1065.59 164.93 1046.54 177.689C1035.75 184.917 1030.36 197.919 1032.86 210.663C1037.27 233.105 1017.34 252.829 994.888 248.461C982.127 245.977 969.023 251.34 961.741 262.11C948.881 281.132 920.866 281.132 908.006 262.11C900.725 251.34 887.621 245.977 874.859 248.461C852.409 252.829 832.477 233.105 836.885 210.663C839.388 197.919 833.993 184.917 823.203 177.689C804.155 164.93 804.155 136.92 823.203 124.161C833.993 116.933 839.388 103.932 836.885 91.1876C832.477 68.745 852.409 49.0212 874.859 53.3896C887.621 55.8727 900.725 50.5101 908.006 39.7399Z" fill="#EE4266"/>
<path d="M894.585 207.992V197.12C894.585 194.946 894.947 193.043 895.672 191.412C896.442 189.736 897.62 188.264 899.205 186.995C900.836 185.727 902.943 184.549 905.525 183.462L913.067 180.268C915.015 179.453 916.419 178.479 917.28 177.347C918.186 176.214 918.639 174.787 918.639 173.066C918.639 171.48 918.096 170.144 917.008 169.057C915.966 167.924 914.426 167.358 912.388 167.358C910.304 167.358 908.741 167.947 907.699 169.124C906.657 170.257 906.136 171.797 906.136 173.745H893.905C893.905 170.484 894.607 167.584 896.012 165.047C897.416 162.511 899.477 160.517 902.195 159.068C904.958 157.618 908.356 156.893 912.388 156.893C916.374 156.893 919.726 157.596 922.444 159C925.208 160.359 927.291 162.239 928.696 164.64C930.145 166.995 930.87 169.668 930.87 172.658V173.473C930.87 177.324 929.828 180.495 927.744 182.986C925.661 185.478 922.308 187.72 917.688 189.713L910.145 192.907C909.058 193.36 908.243 193.858 907.699 194.402C907.201 194.946 906.952 195.67 906.952 196.576V199.023L904.03 197.12H930.734V207.992H894.585ZM955.383 209.351C951.487 209.351 948.089 208.649 945.19 207.245C942.291 205.795 940.049 203.847 938.463 201.401C936.923 198.909 936.153 196.078 936.153 192.907H948.384C948.384 194.674 948.995 196.123 950.219 197.256C951.442 198.343 953.163 198.887 955.383 198.887C956.878 198.887 958.146 198.615 959.188 198.071C960.23 197.483 961.023 196.712 961.566 195.761C962.11 194.764 962.382 193.655 962.382 192.432C962.382 190.574 961.77 189.034 960.547 187.811C959.369 186.588 957.648 185.976 955.383 185.976C954.069 185.976 952.891 186.18 951.849 186.588C950.853 186.995 949.992 187.516 949.267 188.151L943.627 178.773L957.353 170.348L956.742 169.26H938.259V158.388H972.778V169.192L954.907 180.065L949.199 177.958C950.151 177.686 951.147 177.482 952.189 177.347C953.276 177.211 954.386 177.143 955.519 177.143C959.415 177.143 962.789 177.754 965.643 178.977C968.497 180.2 970.694 181.967 972.235 184.277C973.82 186.542 974.613 189.26 974.613 192.432V193.247C974.613 196.373 973.82 199.159 972.235 201.605C970.694 204.006 968.475 205.908 965.575 207.313C962.721 208.672 959.324 209.351 955.383 209.351Z" fill="white"/>
<path d="M890.139 138.844V127.972C890.139 125.797 890.501 123.895 891.226 122.264C891.996 120.588 893.174 119.115 894.759 117.847C896.39 116.579 898.497 115.401 901.079 114.314L908.621 111.12C910.569 110.305 911.973 109.331 912.834 108.198C913.74 107.066 914.193 105.639 914.193 103.917C914.193 102.332 913.65 100.995 912.562 99.9081C911.52 98.7756 909.98 98.2093 907.942 98.2093C905.858 98.2093 904.295 98.7982 903.253 99.9761C902.211 101.109 901.69 102.649 901.69 104.597H889.459C889.459 101.335 890.161 98.4358 891.566 95.899C892.97 93.3622 895.031 91.369 897.749 89.9194C900.512 88.4698 903.91 87.745 907.942 87.745C911.928 87.745 915.28 88.4471 917.998 89.8514C920.762 91.2104 922.846 93.0904 924.25 95.4913C925.699 97.8469 926.424 100.52 926.424 103.509V104.325C926.424 108.175 925.382 111.346 923.299 113.838C921.215 116.329 917.862 118.572 913.242 120.565L905.699 123.759C904.612 124.212 903.797 124.71 903.253 125.254C902.755 125.797 902.506 126.522 902.506 127.428V129.874L899.584 127.972H926.288V138.844H890.139ZM955.829 140.203C951.798 140.203 948.355 139.569 945.501 138.3C942.647 136.986 940.314 135.22 938.502 133C936.69 130.735 935.354 128.153 934.493 125.254C933.632 122.309 933.202 119.229 933.202 116.012V112.071C933.202 107.541 934.017 103.442 935.648 99.7722C937.279 96.1029 939.77 93.181 943.123 91.0066C946.475 88.8322 950.71 87.745 955.829 87.745C960.948 87.745 965.161 88.8322 968.468 91.0066C971.82 93.181 974.312 96.1029 975.943 99.7722C977.573 103.442 978.389 107.541 978.389 112.071V116.012C978.389 119.229 977.959 122.309 977.098 125.254C976.237 128.153 974.901 130.735 973.089 133C971.322 135.22 969.012 136.986 966.158 138.3C963.304 139.569 959.861 140.203 955.829 140.203ZM955.829 128.515C959.182 128.515 961.673 127.337 963.304 124.982C964.935 122.626 965.75 119.002 965.75 114.11C965.75 108.9 964.912 105.163 963.236 102.898C961.56 100.588 959.091 99.4324 955.829 99.4324C952.522 99.4324 950.031 100.588 948.355 102.898C946.679 105.163 945.841 108.855 945.841 113.974C945.841 118.912 946.656 122.581 948.287 124.982C949.963 127.337 952.477 128.515 955.829 128.515Z" fill="white"/>
<path d="M75.5235 130.91C74.7367 127.974 72.0955 124.022 68.5117 124.982C64.9468 125.937 64.61 130.661 65.3947 133.589C65.8222 135.185 68.3024 134.523 67.8742 132.925C67.4852 131.473 67.1578 128.002 69.1761 127.462C71.2099 126.917 72.6542 130.12 73.044 131.574C73.4715 133.17 75.9517 132.508 75.5235 130.91Z" fill="#09061D"/>
<path d="M103.285 123.384C102.937 121.945 102.615 118.555 104.613 118.02C106.621 117.482 108.038 120.606 108.453 122.03C108.915 123.614 111.397 122.955 110.933 121.366C110.088 118.47 107.518 114.585 103.949 115.541C100.389 116.494 100.099 121.123 100.805 124.049C101.192 125.656 103.672 124.99 103.285 123.384Z" fill="#09061D"/>
<path d="M75.109 130.193C74.3222 127.257 71.6809 123.305 68.0972 124.265C64.5323 125.22 64.1954 129.944 64.9802 132.873C65.4076 134.468 67.8879 133.806 67.4597 132.208C67.0706 130.756 66.7432 127.286 68.7616 126.745C70.7954 126.2 72.2397 129.403 72.6294 130.858C73.057 132.453 75.5372 131.791 75.109 130.193Z" fill="#09061D"/>
<path d="M102.871 122.67C102.524 121.231 102.202 117.841 104.2 117.306C106.207 116.768 107.624 119.892 108.04 121.316C108.502 122.9 110.983 122.241 110.519 120.652C109.674 117.756 107.104 113.871 103.535 114.827C99.9758 115.78 99.6859 120.409 100.392 123.335C100.779 124.942 103.258 124.276 102.871 122.67Z" fill="#09061D"/>
<path d="M123.041 298.499L123.04 298.497" stroke="#FF7500" stroke-miterlimit="10"/>
<path d="M141.177 310.422C141.471 310.477 141.766 310.278 141.915 310.018C142.064 309.759 142.097 309.451 142.122 309.153C142.193 308.271 142.21 307.386 142.172 306.503C142.169 306.432 142.064 306.427 142.052 306.496C141.956 307.021 141.934 307.423 141.67 307.854C141.556 308.041 141.438 308.226 141.292 308.39C141.15 308.549 140.982 308.688 140.874 308.871C140.73 309.114 140.577 309.686 140.696 310.014C140.779 310.244 140.974 310.341 141.177 310.422Z" fill="#D73502"/>
<path d="M134.325 307.97C134.357 308.004 134.631 308.312 134.652 309.032C134.663 309.416 134.826 309.787 135.121 310.035C135.333 310.214 135.639 310.385 136.078 310.49C136.115 310.499 136.146 310.461 136.131 310.427C136.031 310.203 135.761 309.577 135.677 309.173C135.63 308.949 135.53 308.74 135.384 308.563C135.14 308.266 134.753 307.911 134.326 307.966C134.325 307.966 134.324 307.969 134.325 307.97Z" fill="#FF7500"/>
<path d="M144.312 302.678C144.276 302.618 143.975 302.076 144.182 301.012C144.292 300.445 144.175 299.848 143.825 299.388C143.572 299.055 143.18 298.704 142.571 298.405C142.52 298.38 142.462 298.424 142.473 298.48C142.546 298.841 142.735 299.848 142.726 300.467C142.721 300.811 142.799 301.151 142.953 301.459C143.213 301.975 143.664 302.623 144.308 302.683C144.311 302.683 144.313 302.68 144.312 302.678Z" fill="#FF7500"/>
<path d="M142.97 295.233C142.645 293.638 142.8 291.978 142.887 291.313C142.913 291.107 142.9 290.899 142.846 290.698C141.41 285.338 135.76 282.195 130.227 283.678C124.693 285.16 121.372 290.707 122.808 296.067C123.452 298.47 124.944 300.428 126.893 301.723C127.19 301.921 127.498 302.104 127.817 302.27C127.82 302.272 127.824 302.274 127.827 302.276C133.739 305.876 133.558 307.841 133.558 307.841C134.095 306.826 133.628 305.083 133.628 305.083C136.974 306.985 137.227 311.776 137.227 311.776C143.4 306.084 141.704 298.134 141.133 296.09C141.133 296.089 141.133 296.088 141.133 296.088C142.562 297.824 143.915 297.472 143.915 297.472C143.428 296.837 143.138 296.045 142.972 295.236C142.971 295.235 142.971 295.234 142.97 295.233Z" fill="#D73502"/>
<path d="M140.29 293.181C140.036 291.939 140.157 290.645 140.224 290.128C140.245 289.967 140.235 289.805 140.193 289.648C139.074 285.472 134.672 283.024 130.361 284.179C126.05 285.334 123.462 289.656 124.581 293.832C125.083 295.704 126.245 297.229 127.764 298.238C127.995 298.393 128.235 298.535 128.484 298.664C128.486 298.666 128.489 298.667 128.491 298.669C133.097 301.473 132.957 303.005 132.957 303.005C133.375 302.214 133.011 300.856 133.011 300.856C135.618 302.338 135.815 306.07 135.815 306.07C140.625 301.636 139.303 295.442 138.858 293.849C138.858 293.848 138.858 293.848 138.858 293.847C139.972 295.2 141.026 294.926 141.026 294.926C140.646 294.431 140.42 293.814 140.29 293.183C140.29 293.183 140.29 293.182 140.29 293.181Z" fill="#FF7500"/>
<path d="M137.226 290.403C137.05 289.545 137.134 288.65 137.181 288.292C137.195 288.181 137.188 288.068 137.159 287.96C136.385 285.073 133.342 283.38 130.361 284.179C127.38 284.978 125.591 287.965 126.365 290.853C126.711 292.147 127.515 293.201 128.565 293.899C128.725 294.006 128.891 294.104 129.063 294.194C129.064 294.195 129.067 294.196 129.068 294.197C132.253 296.136 132.156 297.195 132.156 297.195C132.445 296.648 132.193 295.709 132.193 295.709C133.996 296.734 134.132 299.315 134.132 299.315C137.457 296.249 136.544 291.966 136.236 290.865C136.236 290.864 136.236 290.864 136.236 290.863C137.006 291.799 137.735 291.609 137.735 291.609C137.472 291.267 137.316 290.841 137.226 290.404C137.226 290.405 137.226 290.404 137.226 290.403Z" fill="#FAC000"/>
<path d="M151.442 238.3L166.846 249.691C169.011 251.292 168.367 254.686 165.766 255.383L139.891 262.316" fill="#FDE159"/>
<path d="M88.8723 255.066L81.2277 272.633C80.1534 275.102 82.4075 277.719 85.0083 277.022L110.884 270.089" fill="#FDE159"/>
<path d="M151.754 237.956L151.985 196.828C152.08 179.846 136.004 167.42 119.594 171.791L83.1588 181.497C66.7229 185.875 58.9673 204.699 67.5481 219.385L88.3218 254.938C96.0613 268.184 111.705 274.617 126.524 270.646C141.337 266.677 151.668 253.292 151.754 237.956Z" fill="#FDE159"/>
<path d="M99.0445 253.671L88.6724 255.527C95.3762 265.999 107.48 272.432 119.714 271.904C119.718 271.905 119.723 271.904 119.727 271.903C119.941 271.894 120.155 271.881 120.368 271.868C120.383 271.867 120.399 271.867 120.412 271.866C120.873 271.835 121.334 271.796 121.795 271.745C121.808 271.746 121.821 271.745 121.834 271.741C122.511 271.666 123.187 271.569 123.86 271.453C123.865 271.454 123.869 271.453 123.875 271.451C124.55 271.333 125.219 271.193 125.884 271.03C126.117 270.975 126.349 270.915 126.581 270.853C133.986 268.868 140.273 264.528 144.719 258.771C145.501 257.757 146.227 256.661 146.889 255.505C149.763 250.496 151.478 244.334 151.745 238.527L142.041 242.15L99.0445 253.671Z" fill="#C63755"/>
<path d="M99.0442 253.671L142.041 242.15C138.855 243.003 135.454 242.012 133.232 239.571C130.602 236.684 125.6 235.513 117.682 237.635C109.863 239.73 106.251 243.193 105.414 246.897C104.677 250.164 102.28 252.804 99.0442 253.671Z" fill="#C63755"/>
<path d="M88.6724 255.526C94.3434 266.079 107.203 272.475 119.714 271.904C107.48 272.432 95.3762 265.999 88.6724 255.526Z" fill="#C63755"/>
<path d="M120.368 271.869C120.155 271.882 119.941 271.895 119.727 271.903C119.941 271.895 120.155 271.884 120.368 271.869Z" fill="#C63755"/>
<path d="M121.795 271.745C121.334 271.795 120.873 271.835 120.412 271.865C120.873 271.837 121.334 271.795 121.795 271.745Z" fill="#C63755"/>
<path d="M123.861 271.453C123.187 271.569 122.511 271.666 121.834 271.741C122.51 271.669 123.186 271.572 123.861 271.453Z" fill="#C63755"/>
<path d="M125.884 271.03C125.219 271.193 124.55 271.332 123.875 271.451C124.546 271.334 125.215 271.194 125.884 271.03Z" fill="#C63755"/>
<path opacity="0.35" d="M88.6726 255.525C88.6726 255.525 95.4959 270.637 116.627 271.915C116.627 271.915 133.6 274.735 146.288 256.6C146.288 256.6 151.23 249.207 151.746 238.526C151.746 238.526 146.457 250.959 138.151 258.48C138.151 258.48 127.574 268.204 109.346 265.505C109.346 265.505 99.8365 264.14 88.6726 255.525Z" fill="#170F4A"/>
<path d="M81.2184 173.952L117.416 164.253C135.972 159.28 147.087 140.03 142.115 121.473L138.937 109.613C133.965 91.0571 114.714 79.9426 96.1574 84.9148L59.9599 94.6139C41.4034 99.5861 30.2889 118.837 35.2611 137.394L38.4389 149.253C43.411 167.809 62.6619 178.924 81.2184 173.952Z" fill="#FDE159"/>
<path opacity="0.35" d="M37.1816 144.559L38.439 149.251C43.4114 167.808 62.6625 178.923 81.2176 173.951L117.417 164.252C135.972 159.28 147.086 140.029 142.114 121.471L140.857 116.779C145.829 135.336 134.714 154.587 116.159 159.559L79.9603 169.259C61.4052 174.23 42.154 163.116 37.1816 144.559Z" fill="#170F4A"/>
<path d="M71.4712 106.463C73.2541 105.986 75.1578 106.372 76.6129 107.508L78.7665 109.189C80.2672 110.361 82.0074 110.679 83.5515 110.266C85.0979 109.851 86.4459 108.705 87.1595 106.94L88.1823 104.41C88.8743 102.698 90.33 101.41 92.1136 100.932L95.3136 100.075C107.393 96.8383 119.925 104.073 123.162 116.153L125.182 123.695C128.42 135.776 121.184 148.309 109.103 151.546L82.0616 158.792C69.982 162.028 57.4504 154.793 54.2136 142.714L52.1921 135.169C48.9551 123.089 56.1918 110.558 68.2701 107.321L71.4712 106.463Z" fill="#FEF0AC"/>
<path d="M119.182 278.611L121.441 281.227C121.89 281.747 122.596 281.964 123.258 281.786C127.107 281.446 130.873 280.468 134.402 278.893L134.924 278.66C135.586 278.483 136.089 277.942 136.218 277.268L136.867 273.872C137.14 272.444 135.691 271.309 134.367 271.909C132.182 272.9 129.894 273.722 127.517 274.359C125.142 274.996 122.752 275.427 120.366 275.661C118.92 275.804 118.232 277.512 119.182 278.611Z" fill="#FDE159"/>
<path opacity="0.35" d="M119.181 278.611L119.325 278.778C119.524 278.132 120.083 277.599 120.864 277.52C123.25 277.286 125.64 276.856 128.016 276.219C130.392 275.583 132.681 274.759 134.865 273.769C135.579 273.444 136.33 273.626 136.826 274.087L136.868 273.872C137.141 272.443 135.689 271.309 134.366 271.909C132.182 272.899 129.894 273.723 127.518 274.36C125.141 274.996 122.752 275.426 120.365 275.66C118.92 275.804 118.233 277.512 119.181 278.611Z" fill="#170F4A"/>
<path d="M164.106 201.317C171.993 216.754 170.107 229.328 181.38 226.23C188.887 224.166 186.814 208.139 178.928 192.703C171.042 177.266 160.096 168.891 155.514 170.078C145.351 172.712 156.22 185.88 164.106 201.317Z" fill="#FDE159"/>
<path opacity="0.35" d="M164.106 201.316C171.993 216.751 170.107 229.326 181.38 226.228C181.594 226.169 181.802 226.1 181.999 226.016C172.097 227.859 174.507 215.577 166.922 200.734C159.373 185.957 148.133 173.343 156.184 169.976C155.948 169.988 155.725 170.024 155.514 170.078C145.35 172.711 156.22 185.878 164.106 201.316Z" fill="#170F4A"/>
<path d="M106.434 214.202C98.3969 206.263 90.3598 198.324 82.3229 190.385C80.7345 188.816 81.4494 186.115 83.6059 185.537L88.7671 184.154C91.0738 183.536 93.4871 184.413 94.9548 186.297C97.2139 189.196 101.066 190.623 104.84 189.612C108.613 188.601 111.236 185.439 111.743 181.798C112.073 179.433 113.724 177.467 116.031 176.849L121.14 175.48C123.308 174.899 125.282 176.903 124.668 179.062L115.342 211.859C114.229 215.772 109.328 217.061 106.434 214.202Z" fill="#C63755"/>
<path d="M116.035 232.324C119.237 231.467 121.136 228.176 120.279 224.975C119.421 221.774 116.13 219.874 112.929 220.732C109.728 221.59 107.829 224.88 108.686 228.081C109.544 231.282 112.834 233.182 116.035 232.324Z" fill="#9E2C44"/>
<path d="M37.1161 168.841C26.4803 155.153 25.9795 142.448 15.4861 147.601C8.4977 151.033 13.5326 166.389 24.1684 180.077C34.8042 193.765 47.1232 199.944 51.4028 197.92C60.8934 193.431 47.7521 182.529 37.1161 168.841Z" fill="#FDE159"/>
<path opacity="0.35" d="M37.1167 168.841C26.4803 155.155 25.9796 142.449 15.4857 147.602C15.2863 147.7 15.0953 147.807 14.9178 147.926C24.2998 144.263 24.2304 156.779 34.4589 169.94C44.6404 183.044 58.0426 193.332 50.7632 198.146C50.9926 198.09 51.2051 198.013 51.4025 197.92C60.894 193.432 47.7522 182.531 37.1167 168.841Z" fill="#170F4A"/>
<path d="M23.0705 178.639C23.0705 178.639 26.651 175.983 26.6992 176.044C28.6666 178.521 31.6264 179.447 33.3123 178.111C34.9981 176.774 34.7716 173.679 32.8051 171.2C32.8018 171.194 36.6746 168.258 36.6746 168.258" stroke="#C63755" stroke-width="8" stroke-miterlimit="10"/>
<path d="M179.736 194.321C179.736 194.321 175.722 196.259 175.686 196.19C174.217 193.389 171.482 191.925 169.576 192.923C167.67 193.921 167.314 197.003 168.781 199.807C168.783 199.813 164.43 201.973 164.43 201.973" stroke="#C63755" stroke-width="8" stroke-miterlimit="10"/>
<path d="M35.1594 137.344L38.3561 149.273C39.2658 152.668 40.6582 155.814 42.4399 158.654C46.5722 154.694 48.3378 147.755 46.4598 140.746C44.5807 133.733 39.5834 128.612 34.0255 127.251C33.9025 130.601 34.2503 133.952 35.1594 137.344Z" fill="#C63755"/>
<path d="M139.059 109.505L142.254 121.434C143.164 124.829 143.531 128.249 143.408 131.6C137.85 130.237 132.851 125.11 130.973 118.101C129.094 111.088 130.861 104.154 134.994 100.197C136.775 103.037 138.149 106.112 139.059 109.505Z" fill="#C63755"/>
<path opacity="0.35" d="M81.0828 274.82C81.6292 276.524 83.2092 277.418 84.9158 277.066L108.741 270.663C100.861 268.538 93.282 263.471 89.2 256.459C89.0162 256.144 88.8628 255.837 88.6728 255.525L87.5827 258.03C90.3838 261.83 94.6019 267.821 99.291 269.691C99.5763 269.805 99.7297 270.487 99.2124 270.638C96.034 271.563 85.6955 274.831 81.0828 274.82Z" fill="#170F4A"/>
<path opacity="0.35" d="M168.06 251.495C168.439 253.244 167.517 254.808 165.864 255.357L142.164 261.709C147.926 255.929 151.006 247.861 151.685 239.701C151.715 239.337 151.738 238.891 151.746 238.525L154.036 240.205C153.51 244.897 152.853 252.194 149.727 256.158C149.537 256.4 149.745 257.067 150.268 256.939C153.483 256.15 164.071 253.811 168.06 251.495Z" fill="#170F4A"/>
<path d="M109.33 119.847C108.744 117.659 106.44 116.307 104.245 116.895C102.033 117.488 100.734 119.818 101.323 122.014C101.376 122.214 101.686 122.131 101.633 121.931C101.089 119.903 102.286 117.752 104.328 117.205C106.354 116.662 108.479 117.91 109.02 119.93C109.074 120.129 109.384 120.047 109.33 119.847Z" fill="#09061D"/>
<path d="M65.9126 131.469C65.4628 129.442 66.5656 127.361 68.6259 126.809C70.679 126.258 72.6694 127.498 73.3007 129.469C73.3634 129.665 73.6739 129.583 73.6106 129.386C72.9271 127.252 70.7677 125.902 68.5428 126.499C66.3117 127.097 65.1156 129.357 65.6027 131.552C65.6474 131.754 65.9572 131.67 65.9126 131.469Z" fill="#09061D"/>
<path d="M75.5235 130.91C74.7367 127.974 72.0955 124.022 68.5117 124.982C64.9468 125.937 64.61 130.661 65.3947 133.589C65.8222 135.185 68.3024 134.523 67.8742 132.925C67.4852 131.473 67.1578 128.002 69.1761 127.462C71.2099 126.917 72.6542 130.12 73.044 131.574C73.4715 133.17 75.9517 132.508 75.5235 130.91Z" fill="#09061D"/>
<path d="M103.285 123.384C102.937 121.945 102.615 118.555 104.613 118.02C106.621 117.482 108.038 120.606 108.453 122.03C108.915 123.614 111.397 122.955 110.933 121.366C110.088 118.47 107.518 114.585 103.949 115.541C100.389 116.494 100.099 121.123 100.805 124.049C101.192 125.656 103.672 124.99 103.285 123.384Z" fill="#09061D"/>
</svg>
