<svg width="92" height="91" viewBox="0 0 92 91" fill="none" xmlns="http://www.w3.org/2000/svg">
<path d="M59.1156 42.5624C78.0878 46.5983 91.7344 51.1265 91.3054 53.5143C90.8764 55.9022 76.5071 55.3973 57.3165 52.5773C67.878 68.8464 74.3257 81.6979 72.3339 83.083C70.3421 84.4682 60.5384 73.9505 48.9627 58.3867C44.9269 77.3588 40.3987 91.0054 38.0108 90.5764C35.623 90.1474 36.1279 75.7781 38.9479 56.5875C22.6788 67.149 9.82728 73.5968 8.44213 71.6049C7.05698 69.6131 17.5747 59.8095 33.1385 48.2337C14.1664 44.1979 0.519773 39.6697 0.948753 37.2819C1.37773 34.894 15.7471 35.3989 34.9377 38.2189C24.3761 21.9498 17.9284 9.0983 19.9202 7.71315C21.912 6.328 31.7157 16.8457 43.2914 32.4096C47.3273 13.4374 51.8554 -0.209214 54.2433 0.219767C56.6312 0.648747 56.1263 15.0181 53.3063 34.2087C69.5754 23.6471 82.4269 17.1994 83.812 19.1912C85.1972 21.183 74.6795 30.9867 59.1156 42.5624Z" fill="#EE4266"/>
</svg>
