<svg width="953" height="379" viewBox="0 0 953 379" fill="none" xmlns="http://www.w3.org/2000/svg">
<path d="M679.841 106.829C684.631 106.829 688.515 110.712 688.515 115.503V195.733C688.515 200.523 684.631 204.407 679.841 204.407H633.871C629.081 204.407 625.198 200.523 625.198 195.733V115.503C625.198 110.712 629.081 106.829 633.871 106.829H679.841Z" fill="#EE4266"/>
<path d="M695.065 106.829C697.421 106.829 699.676 107.788 701.311 109.484L739.964 149.6C743.201 152.959 743.201 158.277 739.964 161.636L701.311 201.751C699.676 203.448 697.421 204.407 695.065 204.407H639.946C635.155 204.407 631.272 200.523 631.272 195.733V189.904C631.272 185.114 635.155 181.231 639.946 181.231H651.266C668.145 181.231 681.828 169.763 681.828 155.618C681.828 141.472 668.145 130.005 651.266 130.005H639.946C635.155 130.005 631.272 126.122 631.272 121.331V115.503C631.272 110.712 635.155 106.829 639.946 106.829H695.065Z" fill="#EE4266"/>
<path fill-rule="evenodd" clip-rule="evenodd" d="M669.398 125.896C669.808 125.359 670.445 125.043 671.122 125.043H690.943C692.755 125.043 693.768 127.133 692.646 128.555L681.757 142.35C680.635 143.773 681.648 145.862 683.459 145.862H704.352C706.309 145.862 707.265 148.249 705.849 149.6L663.683 189.82C661.943 191.48 659.197 189.495 660.227 187.322L670.38 165.909C671.062 164.47 670.012 162.811 668.42 162.811H645.627C643.832 162.811 642.814 160.755 643.902 159.328L669.398 125.896Z" fill="white"/>
<path d="M293.438 106.828C298.228 106.828 302.111 110.711 302.111 115.502V195.732C302.111 200.522 298.228 204.406 293.438 204.406H163.335C158.545 204.406 154.661 200.522 154.661 195.732V115.502C154.661 110.711 158.545 106.828 163.335 106.828L293.438 106.828Z" fill="#FCD307"/>
<path d="M297.817 106.828C300.173 106.828 302.428 107.787 304.063 109.483L342.715 149.599C345.952 152.958 345.952 158.276 342.715 161.635L304.063 201.75C302.428 203.447 300.173 204.406 297.817 204.406H242.697C237.907 204.406 234.024 200.522 234.024 195.732V189.903C234.024 185.113 237.907 181.23 242.697 181.23H254.018C270.897 181.23 284.58 169.762 284.58 155.617C284.58 141.471 270.897 130.004 254.018 130.004H242.697C237.907 130.004 234.024 126.121 234.024 121.33V115.502C234.024 110.711 237.907 106.828 242.697 106.828H297.817Z" fill="#FCD307"/>
<path d="M214.075 106.828C218.865 106.828 222.748 110.711 222.748 115.502V195.732C222.748 200.522 218.865 204.406 214.075 204.406H83.9716C79.1813 204.406 75.298 200.522 75.298 195.732V115.502C75.298 110.711 79.1813 106.828 83.9716 106.828L214.075 106.828Z" fill="#FCD307"/>
<path d="M218.454 106.828C220.811 106.828 223.065 107.787 224.7 109.483L263.353 149.599C266.59 152.958 266.59 158.276 263.353 161.635L224.7 201.75C223.065 203.447 220.811 204.406 218.454 204.406H163.335C158.545 204.406 154.661 200.522 154.661 195.732V189.903C154.661 185.113 158.545 181.23 163.335 181.23H174.656C191.534 181.23 205.217 169.762 205.217 155.617C205.217 141.471 191.534 130.004 174.656 130.004H163.335C158.545 130.004 154.661 126.121 154.661 121.33V115.502C154.661 110.711 158.545 106.828 163.335 106.828H218.454Z" fill="#FCD307"/>
<path d="M564.918 106.828C569.709 106.828 573.592 110.711 573.592 115.502V195.732C573.592 200.522 569.709 204.406 564.918 204.406H434.815C430.025 204.406 426.142 200.522 426.142 195.732V115.502C426.142 110.711 430.025 106.828 434.815 106.828L564.918 106.828Z" fill="#FCD307"/>
<path d="M569.299 106.828C571.655 106.828 573.91 107.787 575.545 109.483L614.197 149.599C617.434 152.958 617.434 158.276 614.197 161.635L575.545 201.75C573.91 203.447 571.655 204.406 569.299 204.406H514.179C509.389 204.406 505.506 200.522 505.506 195.732V189.903C505.506 185.113 509.389 181.23 514.179 181.23H525.5C542.379 181.23 556.062 169.762 556.062 155.617C556.062 141.471 542.379 130.004 525.5 130.004H514.179C509.389 130.004 505.506 126.121 505.506 121.33V115.502C505.506 110.711 509.389 106.828 514.179 106.828H569.299Z" fill="#FCD307"/>
<path d="M427.879 106.828C432.669 106.828 436.552 110.711 436.552 115.502V195.732C436.552 200.522 432.669 204.406 427.879 204.406H297.776C292.985 204.406 289.102 200.522 289.102 195.732V115.502C289.102 110.711 292.986 106.828 297.776 106.828L427.879 106.828Z" fill="#FCD307"/>
<path d="M434.427 106.828C436.783 106.828 439.038 107.787 440.673 109.483L479.325 149.599C482.562 152.958 482.562 158.276 479.325 161.635L440.673 201.75C439.038 203.447 436.783 204.406 434.427 204.406H379.307C374.517 204.406 370.633 200.522 370.633 195.732V189.903C370.633 185.113 374.517 181.23 379.307 181.23H390.628C407.507 181.23 421.189 169.762 421.189 155.617C421.189 141.471 407.507 130.004 390.628 130.004H379.307C374.517 130.004 370.633 126.121 370.633 121.33V115.502C370.633 110.711 374.517 106.828 379.307 106.828H434.427Z" fill="#FCD307"/>
<path d="M143.625 174.745V165.124H152.178C154.316 165.124 156.244 164.809 157.963 164.18C159.682 163.51 161.149 162.587 162.365 161.413C163.58 160.198 164.503 158.751 165.131 157.075C165.76 155.356 166.075 153.469 166.075 151.415C166.075 149.277 165.76 147.37 165.131 145.693C164.503 144.016 163.58 142.59 162.365 141.417C161.149 140.243 159.682 139.362 157.963 138.776C156.244 138.147 154.316 137.832 152.178 137.832H143.625V128.211H151.612C155.762 128.211 159.388 128.819 162.49 130.035C165.593 131.25 168.192 132.906 170.288 135.003C172.384 137.099 173.935 139.509 174.941 142.234C175.989 144.917 176.513 147.747 176.513 150.723V152.107C176.513 154.874 175.989 157.62 174.941 160.344C173.935 163.027 172.384 165.459 170.288 167.639C168.192 169.777 165.593 171.496 162.49 172.795C159.388 174.095 155.762 174.745 151.612 174.745H143.625ZM134.57 174.745V128.211H144.883V174.745H134.57ZM186.024 174.493V140.033H196.086V174.493H186.024ZM181.434 147.453V140.033H196.086V147.453H181.434ZM189.923 136.637C188.037 136.637 186.632 136.155 185.71 135.191C184.83 134.185 184.389 132.927 184.389 131.418C184.389 129.867 184.83 128.609 185.71 127.645C186.632 126.639 188.037 126.136 189.923 126.136C191.81 126.136 193.193 126.639 194.073 127.645C194.996 128.609 195.457 129.867 195.457 131.418C195.457 132.927 194.996 134.185 194.073 135.191C193.193 136.155 191.81 136.637 189.923 136.637ZM206.649 187.07V140.033H214.635V154.936L213.566 154.874C213.734 151.436 214.447 148.543 215.704 146.196C216.962 143.806 218.66 142.024 220.798 140.851C222.936 139.635 225.346 139.027 228.029 139.027C230.419 139.027 232.578 139.467 234.506 140.348C236.477 141.228 238.154 142.465 239.537 144.058C240.962 145.609 242.031 147.453 242.744 149.591C243.499 151.688 243.876 153.993 243.876 156.509V157.955C243.876 160.428 243.52 162.755 242.807 164.935C242.094 167.073 241.046 168.938 239.663 170.532C238.321 172.125 236.665 173.382 234.695 174.305C232.767 175.185 230.545 175.625 228.029 175.625C225.43 175.625 223.083 175.101 220.986 174.053C218.932 172.963 217.276 171.328 216.019 169.148C214.761 166.926 214.069 164.117 213.944 160.722L216.71 164.495V187.07H206.649ZM225.2 167.199C226.918 167.199 228.407 166.779 229.664 165.941C230.964 165.103 231.97 163.929 232.683 162.42C233.395 160.91 233.752 159.171 233.752 157.2C233.752 155.23 233.395 153.511 232.683 152.044C231.97 150.577 230.985 149.445 229.727 148.648C228.47 147.81 226.96 147.391 225.2 147.391C223.69 147.391 222.265 147.747 220.924 148.46C219.582 149.172 218.492 150.199 217.654 151.541C216.857 152.84 216.459 154.433 216.459 156.32V158.647C216.459 160.449 216.878 162 217.717 163.3C218.597 164.558 219.708 165.522 221.049 166.193C222.391 166.863 223.774 167.199 225.2 167.199ZM268.911 175.688C265.893 175.688 263.21 175.227 260.862 174.305C258.515 173.34 256.523 172.041 254.888 170.406C253.295 168.771 252.08 166.905 251.241 164.809C250.403 162.671 249.983 160.428 249.983 158.081V156.634C249.983 154.245 250.403 151.981 251.241 149.843C252.122 147.663 253.379 145.756 255.014 144.121C256.691 142.486 258.703 141.207 261.051 140.285C263.399 139.321 266.019 138.838 268.911 138.838C271.888 138.838 274.529 139.321 276.835 140.285C279.182 141.207 281.174 142.486 282.809 144.121C284.443 145.756 285.701 147.663 286.582 149.843C287.462 151.981 287.902 154.245 287.902 156.634V158.081C287.902 160.428 287.483 162.671 286.644 164.809C285.806 166.905 284.569 168.771 282.934 170.406C281.341 172.041 279.371 173.34 277.023 174.305C274.676 175.227 271.972 175.688 268.911 175.688ZM268.911 167.199C270.882 167.199 272.517 166.779 273.816 165.941C275.116 165.103 276.101 163.929 276.772 162.42C277.484 160.91 277.841 159.234 277.841 157.389C277.841 155.419 277.484 153.7 276.772 152.233C276.059 150.723 275.032 149.529 273.69 148.648C272.391 147.768 270.798 147.328 268.911 147.328C267.067 147.328 265.474 147.768 264.132 148.648C262.791 149.529 261.764 150.723 261.051 152.233C260.38 153.7 260.045 155.419 260.045 157.389C260.045 159.234 260.38 160.91 261.051 162.42C261.722 163.929 262.728 165.103 264.069 165.941C265.411 166.779 267.025 167.199 268.911 167.199ZM296.182 174.493V140.033H304.168V154.811H303.602C303.602 151.289 304.042 148.355 304.922 146.007C305.845 143.659 307.228 141.899 309.073 140.725C310.917 139.551 313.16 138.964 315.801 138.964H316.241C320.266 138.964 323.326 140.285 325.422 142.926C327.56 145.525 328.629 149.487 328.629 154.811V174.493H318.568V154.245C318.568 152.4 318.023 150.891 316.933 149.717C315.843 148.543 314.376 147.956 312.531 147.956C310.645 147.956 309.114 148.564 307.941 149.78C306.809 150.954 306.243 152.505 306.243 154.433V174.493H296.182ZM354.244 175.688C351.31 175.688 348.711 175.185 346.447 174.179C344.225 173.173 342.359 171.831 340.85 170.154C339.383 168.435 338.251 166.528 337.454 164.432C336.7 162.294 336.323 160.114 336.323 157.892V156.634C336.323 154.329 336.7 152.128 337.454 150.032C338.251 147.894 339.383 145.986 340.85 144.309C342.317 142.632 344.141 141.312 346.321 140.348C348.543 139.341 351.058 138.838 353.867 138.838C357.556 138.838 360.658 139.677 363.174 141.354C365.731 142.989 367.68 145.148 369.022 147.831C370.363 150.472 371.034 153.364 371.034 156.509V159.904H340.536V154.182H364.934L361.665 156.823C361.665 154.769 361.371 153.008 360.784 151.541C360.197 150.074 359.317 148.963 358.143 148.208C357.011 147.411 355.586 147.013 353.867 147.013C352.106 147.013 350.618 147.411 349.402 148.208C348.187 149.005 347.264 150.178 346.635 151.729C346.007 153.239 345.692 155.104 345.692 157.326C345.692 159.38 345.986 161.183 346.573 162.734C347.159 164.243 348.082 165.417 349.339 166.255C350.597 167.094 352.232 167.513 354.244 167.513C356.089 167.513 357.598 167.157 358.772 166.444C359.946 165.731 360.742 164.851 361.161 163.803H370.405C369.902 166.109 368.917 168.163 367.45 169.966C365.982 171.768 364.138 173.173 361.916 174.179C359.694 175.185 357.137 175.688 354.244 175.688ZM392.542 188.202C390.865 188.202 389.146 188.139 387.385 188.013C385.624 187.887 384.01 187.72 382.543 187.51V179.021C384.01 179.23 385.624 179.398 387.385 179.524C389.188 179.692 390.823 179.775 392.29 179.775C395.015 179.775 397.216 179.461 398.893 178.832C400.612 178.203 401.869 177.239 402.666 175.939C403.462 174.682 403.861 173.047 403.861 171.035V164.18L405.684 160.156C405.6 163.216 404.992 165.836 403.861 168.016C402.771 170.196 401.24 171.873 399.27 173.047C397.3 174.179 394.952 174.745 392.227 174.745C389.88 174.745 387.742 174.325 385.813 173.487C383.927 172.607 382.313 171.391 380.971 169.84C379.63 168.289 378.603 166.486 377.89 164.432C377.177 162.336 376.821 160.072 376.821 157.64V156.194C376.821 153.763 377.198 151.499 377.953 149.403C378.707 147.307 379.797 145.483 381.223 143.932C382.648 142.381 384.346 141.186 386.316 140.348C388.287 139.467 390.466 139.027 392.856 139.027C395.623 139.027 398.012 139.635 400.025 140.851C402.079 142.066 403.693 143.848 404.867 146.196C406.041 148.543 406.669 151.373 406.753 154.685L405.37 155.062V140.033H413.356V170.406C413.356 174.64 412.601 178.057 411.092 180.656C409.583 183.255 407.277 185.162 404.175 186.378C401.115 187.594 397.237 188.202 392.542 188.202ZM395.371 166.255C396.922 166.255 398.327 165.92 399.585 165.249C400.842 164.537 401.827 163.531 402.54 162.231C403.295 160.931 403.672 159.359 403.672 157.515V155.691C403.672 153.888 403.274 152.379 402.477 151.164C401.723 149.906 400.716 148.963 399.459 148.334C398.201 147.663 396.86 147.328 395.434 147.328C393.757 147.328 392.269 147.726 390.97 148.522C389.67 149.319 388.664 150.43 387.951 151.855C387.238 153.281 386.882 154.957 386.882 156.886C386.882 158.856 387.238 160.554 387.951 161.979C388.706 163.363 389.712 164.432 390.97 165.186C392.269 165.899 393.736 166.255 395.371 166.255ZM440.116 175.688C437.097 175.688 434.414 175.227 432.067 174.305C429.719 173.34 427.728 172.041 426.093 170.406C424.5 168.771 423.284 166.905 422.446 164.809C421.607 162.671 421.188 160.428 421.188 158.081V156.634C421.188 154.245 421.607 151.981 422.446 149.843C423.326 147.663 424.584 145.756 426.219 144.121C427.895 142.486 429.908 141.207 432.255 140.285C434.603 139.321 437.223 138.838 440.116 138.838C443.092 138.838 445.733 139.321 448.039 140.285C450.387 141.207 452.378 142.486 454.013 144.121C455.648 145.756 456.906 147.663 457.786 149.843C458.666 151.981 459.106 154.245 459.106 156.634V158.081C459.106 160.428 458.687 162.671 457.849 164.809C457.01 166.905 455.774 168.771 454.139 170.406C452.546 172.041 450.575 173.34 448.228 174.305C445.88 175.227 443.176 175.688 440.116 175.688ZM440.116 167.199C442.086 167.199 443.721 166.779 445.021 165.941C446.32 165.103 447.305 163.929 447.976 162.42C448.689 160.91 449.045 159.234 449.045 157.389C449.045 155.419 448.689 153.7 447.976 152.233C447.263 150.723 446.236 149.529 444.895 148.648C443.595 147.768 442.002 147.328 440.116 147.328C438.271 147.328 436.678 147.768 435.337 148.648C433.995 149.529 432.968 150.723 432.255 152.233C431.585 153.7 431.249 155.419 431.249 157.389C431.249 159.234 431.585 160.91 432.255 162.42C432.926 163.929 433.932 165.103 435.274 165.941C436.615 166.779 438.229 167.199 440.116 167.199ZM467.386 174.493V140.033H475.372V154.811H475.183C475.183 149.948 476.21 146.196 478.265 143.555C480.361 140.914 483.379 139.593 487.32 139.593H488.64V148.271H486.125C483.358 148.271 481.22 149.025 479.711 150.535C478.202 152.002 477.447 154.14 477.447 156.949V174.493H467.386ZM511.717 175.688C508.698 175.688 506.015 175.227 503.667 174.305C501.32 173.34 499.329 172.041 497.694 170.406C496.101 168.771 494.885 166.905 494.046 164.809C493.208 162.671 492.789 160.428 492.789 158.081V156.634C492.789 154.245 493.208 151.981 494.046 149.843C494.927 147.663 496.184 145.756 497.819 144.121C499.496 142.486 501.508 141.207 503.856 140.285C506.204 139.321 508.824 138.838 511.717 138.838C514.693 138.838 517.334 139.321 519.64 140.285C521.987 141.207 523.979 142.486 525.614 144.121C527.249 145.756 528.506 147.663 529.387 149.843C530.267 151.981 530.707 154.245 530.707 156.634V158.081C530.707 160.428 530.288 162.671 529.45 164.809C528.611 166.905 527.374 168.771 525.739 170.406C524.146 172.041 522.176 173.34 519.828 174.305C517.481 175.227 514.777 175.688 511.717 175.688ZM511.717 167.199C513.687 167.199 515.322 166.779 516.621 165.941C517.921 165.103 518.906 163.929 519.577 162.42C520.29 160.91 520.646 159.234 520.646 157.389C520.646 155.419 520.29 153.7 519.577 152.233C518.864 150.723 517.837 149.529 516.496 148.648C515.196 147.768 513.603 147.328 511.717 147.328C509.872 147.328 508.279 147.768 506.937 148.648C505.596 149.529 504.569 150.723 503.856 152.233C503.185 153.7 502.85 155.419 502.85 157.389C502.85 159.234 503.185 160.91 503.856 162.42C504.527 163.929 505.533 165.103 506.875 165.941C508.216 166.779 509.83 167.199 511.717 167.199Z" fill="#1C1259"/>
<path d="M121.576 102.706C130.491 100.59 137.232 99.7612 137.532 100.867C137.833 101.973 131.597 104.666 122.834 107.345C130.635 112.153 135.988 116.334 135.418 117.328C134.848 118.323 128.535 115.817 120.444 111.516C122.561 120.431 123.389 127.172 122.283 127.473C121.177 127.773 118.485 121.537 115.805 112.774C110.998 120.575 106.817 125.928 105.822 125.358C104.828 124.788 107.334 118.475 111.635 110.384C102.72 112.501 95.978 113.329 95.6779 112.223C95.3778 111.117 101.614 108.425 110.376 105.745C102.575 100.938 97.2226 96.7567 97.7925 95.7623C98.3624 94.768 104.676 97.2737 112.766 101.575C110.65 92.6596 109.821 85.9181 110.927 85.618C112.033 85.3179 114.726 91.5537 117.405 100.316C122.213 92.5155 126.394 87.1626 127.388 87.7325C128.382 88.3024 125.877 94.6156 121.576 102.706Z" fill="#EE4266"/>
<rect x="334" y="24.5" width="284.4" height="64.8002" rx="32.4001" fill="white"/>
<path d="M585.528 24.3368C594.49 26.2433 600.937 28.3824 600.734 29.5105C600.531 30.6385 593.743 30.4 584.678 29.0678C589.667 36.7533 592.713 42.8244 591.772 43.4787C590.831 44.133 586.2 39.1645 580.731 31.8121C578.825 40.7746 576.686 47.2212 575.558 47.0186C574.43 46.8159 574.668 40.0278 576 30.9622C568.315 35.9515 562.244 38.9974 561.59 38.0564C560.935 37.1155 565.904 32.4843 573.256 27.0159C564.294 25.1094 557.847 22.9703 558.05 21.8422C558.252 20.7142 565.04 20.9527 574.106 22.2849C569.117 14.5994 566.071 8.52833 567.012 7.87399C567.953 7.21964 572.584 12.1882 578.052 19.5406C579.959 10.5781 582.098 4.13146 583.226 4.33411C584.354 4.53676 584.115 11.3248 582.783 20.3905C590.469 15.4012 596.54 12.3553 597.194 13.2962C597.849 14.2372 592.88 18.8684 585.528 24.3368Z" fill="#EE4266"/>
<path d="M401.062 64.3948C399.344 64.3948 397.87 64.0912 396.638 63.4841C395.407 62.8769 394.4 62.0876 393.62 61.1162C392.857 60.1447 392.293 59.0866 391.928 57.9417C391.564 56.7968 391.382 55.6952 391.382 54.637V54.0646C391.382 52.885 391.564 51.7227 391.928 50.5778C392.31 49.4329 392.891 48.3921 393.672 47.4554C394.452 46.5186 395.441 45.7727 396.638 45.2176C397.852 44.6451 399.284 44.3589 400.932 44.3589C402.649 44.3589 404.141 44.6711 405.407 45.2956C406.691 45.9028 407.714 46.7701 408.478 47.8977C409.241 49.0079 409.701 50.309 409.857 51.8008H406.136C405.997 50.9334 405.685 50.2049 405.199 49.6151C404.731 49.0079 404.132 48.5569 403.404 48.262C402.675 47.9497 401.851 47.7936 400.932 47.7936C399.995 47.7936 399.162 47.9584 398.434 48.288C397.705 48.6003 397.098 49.0513 396.612 49.6411C396.126 50.2309 395.753 50.9248 395.493 51.7227C395.25 52.5207 395.129 53.4054 395.129 54.3768C395.129 55.3136 395.25 56.1809 395.493 56.9789C395.753 57.7769 396.135 58.4794 396.638 59.0866C397.141 59.6764 397.757 60.1361 398.486 60.4657C399.232 60.7953 400.09 60.9601 401.062 60.9601C402.484 60.9601 403.681 60.6131 404.653 59.9192C405.641 59.208 406.24 58.2192 406.448 56.9529H410.169C409.995 58.306 409.536 59.5463 408.79 60.6738C408.044 61.8014 407.02 62.7034 405.719 63.38C404.418 64.0565 402.866 64.3948 401.062 64.3948ZM419.792 64.3948C418.543 64.3948 417.442 64.1953 416.487 63.7963C415.533 63.3973 414.727 62.8596 414.068 62.183C413.408 61.4891 412.905 60.7085 412.558 59.8412C412.229 58.9738 412.064 58.0718 412.064 57.135V56.5886C412.064 55.6172 412.237 54.6978 412.584 53.8304C412.949 52.9457 413.46 52.1651 414.12 51.4886C414.796 50.7947 415.611 50.2569 416.566 49.8753C417.52 49.4763 418.595 49.2768 419.792 49.2768C420.989 49.2768 422.065 49.4763 423.019 49.8753C423.973 50.2569 424.779 50.7947 425.439 51.4886C426.115 52.1651 426.627 52.9457 426.974 53.8304C427.321 54.6978 427.494 55.6172 427.494 56.5886V57.135C427.494 58.0718 427.321 58.9738 426.974 59.8412C426.644 60.7085 426.15 61.4891 425.491 62.183C424.831 62.8596 424.025 63.3973 423.071 63.7963C422.117 64.1953 421.024 64.3948 419.792 64.3948ZM419.792 61.2983C420.677 61.2983 421.423 61.1075 422.03 60.7259C422.637 60.3269 423.097 59.7978 423.409 59.1386C423.721 58.4621 423.877 57.6988 423.877 56.8488C423.877 55.9814 423.713 55.2182 423.383 54.559C423.071 53.8824 422.602 53.3534 421.978 52.9717C421.371 52.5727 420.642 52.3733 419.792 52.3733C418.942 52.3733 418.205 52.5727 417.58 52.9717C416.973 53.3534 416.505 53.8824 416.175 54.559C415.846 55.2182 415.681 55.9814 415.681 56.8488C415.681 57.6988 415.837 58.4621 416.149 59.1386C416.479 59.7978 416.947 60.3269 417.554 60.7259C418.161 61.1075 418.907 61.2983 419.792 61.2983ZM430.661 63.9004V49.7712H433.523V55.834H433.263C433.263 54.4115 433.445 53.2233 433.81 52.2692C434.174 51.2977 434.712 50.5692 435.423 50.0834C436.152 49.5804 437.054 49.3288 438.129 49.3288H438.285C439.378 49.3288 440.28 49.5804 440.991 50.0834C441.72 50.5692 442.258 51.2977 442.605 52.2692C442.969 53.2233 443.151 54.4115 443.151 55.834H442.24C442.24 54.4115 442.422 53.2233 442.787 52.2692C443.168 51.2977 443.715 50.5692 444.426 50.0834C445.155 49.5804 446.057 49.3288 447.132 49.3288H447.288C448.381 49.3288 449.292 49.5804 450.021 50.0834C450.749 50.5692 451.296 51.2977 451.66 52.2692C452.041 53.2233 452.232 54.4115 452.232 55.834V63.9004H448.615V55.4957C448.615 54.611 448.39 53.9085 447.939 53.3881C447.488 52.8503 446.846 52.5814 446.013 52.5814C445.181 52.5814 444.513 52.859 444.01 53.4141C443.507 53.9518 443.255 54.6804 443.255 55.5998V63.9004H439.638V55.4957C439.638 54.611 439.413 53.9085 438.962 53.3881C438.511 52.8503 437.869 52.5814 437.036 52.5814C436.204 52.5814 435.536 52.859 435.033 53.4141C434.53 53.9518 434.278 54.6804 434.278 55.5998V63.9004H430.661ZM456.097 69.1045V49.7712H458.96V55.86L458.517 55.834C458.587 54.3942 458.882 53.1886 459.402 52.2171C459.94 51.2457 460.651 50.5258 461.536 50.0574C462.42 49.5717 463.409 49.3288 464.502 49.3288C465.508 49.3288 466.41 49.511 467.208 49.8753C468.023 50.2396 468.717 50.7513 469.29 51.4105C469.88 52.0697 470.331 52.8416 470.643 53.7263C470.955 54.5937 471.111 55.5304 471.111 56.5366V57.083C471.111 58.1065 470.955 59.0606 470.643 59.9453C470.348 60.8126 469.906 61.5846 469.316 62.2611C468.743 62.9203 468.049 63.4407 467.234 63.8223C466.419 64.1866 465.508 64.3688 464.502 64.3688C463.444 64.3688 462.472 64.1519 461.588 63.7182C460.72 63.2672 460.018 62.582 459.48 61.6626C458.942 60.7259 458.639 59.5203 458.569 58.0457L459.714 59.7891V69.1045H456.097ZM463.591 61.3243C464.372 61.3243 465.048 61.1335 465.621 60.7519C466.211 60.3703 466.67 59.8412 467 59.1646C467.33 58.4708 467.494 57.6901 467.494 56.8228C467.494 55.9207 467.33 55.1401 467 54.4809C466.67 53.8217 466.211 53.31 465.621 52.9457C465.048 52.5641 464.372 52.3733 463.591 52.3733C462.88 52.3733 462.221 52.5294 461.614 52.8416C461.024 53.1539 460.538 53.6136 460.157 54.2207C459.792 54.8279 459.61 55.5564 459.61 56.4065V57.4473C459.61 58.2626 459.801 58.9565 460.183 59.5289C460.564 60.1014 461.059 60.5437 461.666 60.856C462.273 61.1682 462.915 61.3243 463.591 61.3243ZM480.614 64.3948C479.4 64.3948 478.333 64.1866 477.414 63.7703C476.512 63.354 475.757 62.7989 475.15 62.105C474.56 61.3937 474.109 60.6044 473.797 59.7371C473.502 58.8697 473.355 57.985 473.355 57.083V56.5886C473.355 55.6519 473.502 54.7498 473.797 53.8824C474.109 52.9977 474.56 52.2171 475.15 51.5406C475.757 50.8467 476.503 50.3003 477.388 49.9013C478.273 49.485 479.296 49.2768 480.458 49.2768C481.985 49.2768 483.26 49.6151 484.283 50.2916C485.324 50.9508 486.105 51.8268 486.625 52.9197C487.146 53.9952 487.406 55.1575 487.406 56.4065V57.7075H474.89V55.4957H485.142L484.023 56.5886C484.023 55.6865 483.893 54.9146 483.633 54.2728C483.373 53.6309 482.974 53.1365 482.436 52.7896C481.915 52.4426 481.256 52.2692 480.458 52.2692C479.66 52.2692 478.984 52.4513 478.429 52.8156C477.874 53.1799 477.449 53.709 477.154 54.4029C476.876 55.0794 476.737 55.8947 476.737 56.8488C476.737 57.7335 476.876 58.5228 477.154 59.2167C477.431 59.8932 477.856 60.431 478.429 60.83C479.001 61.2116 479.73 61.4024 480.614 61.4024C481.499 61.4024 482.219 61.2289 482.774 60.882C483.329 60.5177 483.685 60.0754 483.841 59.5549H487.172C486.963 60.5264 486.565 61.3764 485.975 62.105C485.385 62.8335 484.63 63.3973 483.711 63.7963C482.809 64.1953 481.777 64.3948 480.614 64.3948ZM496.568 64.0825C495.267 64.0825 494.192 63.9177 493.342 63.5881C492.509 63.2412 491.884 62.6687 491.468 61.8708C491.052 61.0555 490.844 59.9626 490.844 58.5922L490.87 45.79H494.252L494.226 58.8264C494.226 59.5203 494.408 60.058 494.773 60.4396C495.154 60.8039 495.692 60.9861 496.386 60.9861H498.598V64.0825H496.568ZM488.606 52.4253V49.7712H498.598V52.4253H488.606ZM502.31 63.9004V49.7712H505.927V63.9004H502.31ZM500.332 52.4773V49.7712H505.927V52.4773H500.332ZM503.637 48.0799C502.926 48.0799 502.397 47.8977 502.05 47.5334C501.72 47.1518 501.555 46.6834 501.555 46.1283C501.555 45.5385 501.72 45.0615 502.05 44.6972C502.397 44.3329 502.926 44.1507 503.637 44.1507C504.348 44.1507 504.869 44.3329 505.198 44.6972C505.528 45.0615 505.693 45.5385 505.693 46.1283C505.693 46.6834 505.528 47.1518 505.198 47.5334C504.869 47.8977 504.348 48.0799 503.637 48.0799ZM516.236 64.0825C514.935 64.0825 513.86 63.9177 513.01 63.5881C512.177 63.2412 511.552 62.6687 511.136 61.8708C510.72 61.0555 510.512 59.9626 510.512 58.5922L510.538 45.79H513.92L513.894 58.8264C513.894 59.5203 514.076 60.058 514.441 60.4396C514.822 60.8039 515.36 60.9861 516.054 60.9861H518.266V64.0825H516.236ZM508.274 52.4253V49.7712H518.266V52.4253H508.274ZM521.978 63.9004V49.7712H525.595V63.9004H521.978ZM520 52.4773V49.7712H525.595V52.4773H520ZM523.305 48.0799C522.594 48.0799 522.065 47.8977 521.718 47.5334C521.388 47.1518 521.223 46.6834 521.223 46.1283C521.223 45.5385 521.388 45.0615 521.718 44.6972C522.065 44.3329 522.594 44.1507 523.305 44.1507C524.016 44.1507 524.537 44.3329 524.866 44.6972C525.196 45.0615 525.361 45.5385 525.361 46.1283C525.361 46.6834 525.196 47.1518 524.866 47.5334C524.537 47.8977 524.016 48.0799 523.305 48.0799ZM536.555 64.3948C535.306 64.3948 534.204 64.1953 533.25 63.7963C532.296 63.3973 531.489 62.8596 530.83 62.183C530.171 61.4891 529.668 60.7085 529.321 59.8412C528.991 58.9738 528.826 58.0718 528.826 57.135V56.5886C528.826 55.6172 529 54.6978 529.347 53.8304C529.711 52.9457 530.223 52.1651 530.882 51.4886C531.559 50.7947 532.374 50.2569 533.328 49.8753C534.282 49.4763 535.358 49.2768 536.555 49.2768C537.751 49.2768 538.827 49.4763 539.781 49.8753C540.735 50.2569 541.542 50.7947 542.201 51.4886C542.878 52.1651 543.389 52.9457 543.736 53.8304C544.083 54.6978 544.257 55.6172 544.257 56.5886V57.135C544.257 58.0718 544.083 58.9738 543.736 59.8412C543.407 60.7085 542.912 61.4891 542.253 62.183C541.594 62.8596 540.787 63.3973 539.833 63.7963C538.879 64.1953 537.786 64.3948 536.555 64.3948ZM536.555 61.2983C537.439 61.2983 538.185 61.1075 538.792 60.7259C539.399 60.3269 539.859 59.7978 540.171 59.1386C540.484 58.4621 540.64 57.6988 540.64 56.8488C540.64 55.9814 540.475 55.2182 540.145 54.559C539.833 53.8824 539.365 53.3534 538.74 52.9717C538.133 52.5727 537.405 52.3733 536.555 52.3733C535.705 52.3733 534.967 52.5727 534.343 52.9717C533.736 53.3534 533.267 53.8824 532.938 54.559C532.608 55.2182 532.443 55.9814 532.443 56.8488C532.443 57.6988 532.599 58.4621 532.912 59.1386C533.241 59.7978 533.71 60.3269 534.317 60.7259C534.924 61.1075 535.67 61.2983 536.555 61.2983ZM547.424 63.9004V49.7712H550.286V55.834H550.026C550.026 54.3942 550.217 53.1972 550.598 52.2432C550.98 51.2717 551.544 50.5431 552.289 50.0574C553.053 49.5717 553.998 49.3288 555.126 49.3288H555.282C556.965 49.3288 558.24 49.8753 559.107 50.9681C559.974 52.0437 560.408 53.6569 560.408 55.808V63.9004H556.791V55.4957C556.791 54.6284 556.54 53.9258 556.036 53.3881C555.551 52.8503 554.874 52.5814 554.007 52.5814C553.122 52.5814 552.402 52.859 551.847 53.4141C551.309 53.9518 551.04 54.6804 551.04 55.5998V63.9004H547.424Z" fill="#1C1259"/>
<path d="M554.485 89.0479H583.146C583.146 121.353 549.608 127.607 532.839 126.695C551.759 126.695 555.153 101.597 554.485 89.0479Z" fill="white"/>
<g clip-path="url(#clip0_1233_1062)">
<rect x="81.5605" y="216.549" width="738.985" height="105.384" rx="52.6919" fill="white"/>
<path d="M205.81 263.387C198.951 263.387 193.391 268.78 193.391 275.432V280.088H189.566C182.37 280.088 176.537 285.228 176.537 291.569C176.537 297.91 182.37 303.05 189.566 303.05C189.566 303.05 200.241 302.326 200.241 313.554C200.241 328.296 192.626 338.89 203.836 340.049C205.117 340.181 205.855 340.18 207.137 340.049C218.382 338.896 211.378 328.296 211.378 313.554C211.378 302.326 222.053 303.05 222.053 303.05C229.249 303.05 235.083 297.91 235.083 291.569C235.083 285.228 229.249 280.088 222.053 280.088H218.229V275.432C218.229 268.78 212.669 263.387 205.81 263.387Z" fill="#EE4266"/>
<path d="M151.383 206.14C141.019 206.14 132.617 215.006 132.617 225.943V233.597H126.838C115.964 233.597 107.148 242.048 107.148 252.473C107.148 262.898 115.964 271.349 126.838 271.349C126.838 271.349 142.969 270.158 142.969 288.619C142.969 312.854 131.461 330.272 148.4 332.177C150.336 332.395 151.452 332.393 153.389 332.177C170.381 330.283 159.798 312.854 159.798 288.619C159.798 270.158 175.929 271.349 175.929 271.349C186.803 271.349 195.618 262.898 195.618 252.473C195.618 242.048 186.803 233.597 175.929 233.597H170.15V225.943C170.15 215.006 161.748 206.14 151.383 206.14Z" fill="#EE4266"/>
<path d="M225.202 288.028V246.872H234.448V288.028H225.202ZM233.321 288.028V279.91H250.572V288.028H233.321ZM271.363 289.1C268.657 289.1 266.252 288.686 264.147 287.859C262.042 286.995 260.257 285.83 258.791 284.364C257.363 282.898 256.273 281.225 255.521 279.346C254.77 277.429 254.394 275.418 254.394 273.314V272.017C254.394 269.875 254.77 267.845 255.521 265.928C256.311 263.974 257.438 262.264 258.904 260.798C260.407 259.332 262.211 258.186 264.316 257.359C266.421 256.494 268.77 256.062 271.363 256.062C274.032 256.062 276.4 256.494 278.467 257.359C280.572 258.186 282.357 259.332 283.823 260.798C285.289 262.264 286.416 263.974 287.206 265.928C287.995 267.845 288.39 269.875 288.39 272.017V273.314C288.39 275.418 288.014 277.429 287.262 279.346C286.51 281.225 285.402 282.898 283.936 284.364C282.508 285.83 280.741 286.995 278.636 287.859C276.531 288.686 274.107 289.1 271.363 289.1ZM271.363 281.488C273.13 281.488 274.596 281.113 275.761 280.361C276.926 279.609 277.809 278.557 278.411 277.204C279.05 275.851 279.369 274.347 279.369 272.693C279.369 270.927 279.05 269.386 278.411 268.071C277.772 266.717 276.851 265.646 275.648 264.857C274.483 264.068 273.055 263.673 271.363 263.673C269.71 263.673 268.281 264.068 267.079 264.857C265.876 265.646 264.955 266.717 264.316 268.071C263.715 269.386 263.414 270.927 263.414 272.693C263.414 274.347 263.715 275.851 264.316 277.204C264.918 278.557 265.82 279.609 267.022 280.361C268.225 281.113 269.672 281.488 271.363 281.488ZM307.426 300.319C305.923 300.319 304.382 300.262 302.803 300.15C301.225 300.037 299.778 299.886 298.462 299.699V292.088C299.778 292.275 301.225 292.426 302.803 292.539C304.42 292.689 305.885 292.764 307.201 292.764C309.644 292.764 311.617 292.482 313.121 291.918C314.662 291.355 315.789 290.49 316.503 289.325C317.217 288.197 317.575 286.732 317.575 284.928V278.782L319.209 275.174C319.134 277.918 318.589 280.267 317.575 282.221C316.597 284.176 315.225 285.679 313.459 286.732C311.692 287.746 309.588 288.254 307.145 288.254C305.04 288.254 303.123 287.878 301.394 287.126C299.703 286.337 298.256 285.247 297.053 283.856C295.85 282.466 294.929 280.85 294.29 279.008C293.651 277.129 293.332 275.099 293.332 272.919V271.622C293.332 269.442 293.67 267.413 294.347 265.533C295.023 263.654 296.001 262.019 297.278 260.629C298.556 259.238 300.079 258.167 301.845 257.415C303.612 256.626 305.566 256.231 307.708 256.231C310.189 256.231 312.331 256.776 314.135 257.866C315.977 258.956 317.424 260.553 318.477 262.658C319.529 264.763 320.093 267.3 320.168 270.269L318.928 270.608V257.133H326.088V284.364C326.088 288.16 325.411 291.223 324.058 293.553C322.705 295.884 320.638 297.594 317.856 298.684C315.113 299.774 311.636 300.319 307.426 300.319ZM309.963 280.643C311.354 280.643 312.613 280.342 313.741 279.741C314.868 279.102 315.752 278.2 316.391 277.035C317.067 275.869 317.405 274.46 317.405 272.806V271.171C317.405 269.555 317.048 268.202 316.334 267.112C315.658 265.985 314.756 265.139 313.628 264.575C312.5 263.974 311.298 263.673 310.02 263.673C308.516 263.673 307.182 264.03 306.017 264.744C304.852 265.458 303.95 266.454 303.311 267.732C302.672 269.01 302.352 270.514 302.352 272.242C302.352 274.009 302.672 275.531 303.311 276.809C303.987 278.049 304.889 279.008 306.017 279.684C307.182 280.323 308.498 280.643 309.963 280.643ZM335.928 288.028V257.133H344.949V288.028H335.928ZM331.813 263.786V257.133H344.949V263.786H331.813ZM339.424 254.089C337.732 254.089 336.473 253.657 335.646 252.792C334.857 251.89 334.462 250.762 334.462 249.409C334.462 248.019 334.857 246.891 335.646 246.027C336.473 245.125 337.732 244.674 339.424 244.674C341.115 244.674 342.355 245.125 343.145 246.027C343.971 246.891 344.385 248.019 344.385 249.409C344.385 250.762 343.971 251.89 343.145 252.792C342.355 253.657 341.115 254.089 339.424 254.089ZM367.725 289.1C365.056 289.1 362.726 288.667 360.734 287.803C358.779 286.901 357.144 285.698 355.829 284.195C354.513 282.691 353.536 281 352.897 279.121C352.258 277.204 351.939 275.231 351.939 273.201V272.13C351.939 270.025 352.277 268.014 352.953 266.097C353.63 264.143 354.626 262.414 355.942 260.91C357.257 259.407 358.892 258.223 360.846 257.359C362.838 256.494 365.112 256.062 367.668 256.062C370.449 256.062 372.911 256.607 375.054 257.697C377.196 258.749 378.906 260.234 380.184 262.151C381.462 264.068 382.176 266.266 382.326 268.747H373.475C373.325 267.356 372.761 266.191 371.784 265.252C370.844 264.274 369.472 263.786 367.668 263.786C366.165 263.786 364.906 264.162 363.891 264.913C362.914 265.665 362.181 266.699 361.692 268.014C361.203 269.33 360.959 270.889 360.959 272.693C360.959 274.347 361.185 275.851 361.636 277.204C362.087 278.519 362.801 279.553 363.778 280.305C364.793 281.019 366.108 281.376 367.725 281.376C368.927 281.376 369.942 281.169 370.769 280.756C371.633 280.305 372.31 279.703 372.799 278.951C373.325 278.162 373.644 277.26 373.757 276.245H382.552C382.439 278.801 381.725 281.056 380.41 283.011C379.094 284.928 377.346 286.431 375.166 287.521C372.986 288.573 370.506 289.1 367.725 289.1ZM420.68 289.1C416.959 289.1 413.764 288.461 411.096 287.183C408.427 285.867 406.247 284.157 404.556 282.052C402.864 279.91 401.605 277.617 400.778 275.174C399.989 272.693 399.594 270.288 399.594 267.958V266.717C399.594 264.162 400.008 261.643 400.835 259.163C401.662 256.645 402.921 254.371 404.612 252.341C406.341 250.311 408.502 248.695 411.096 247.493C413.726 246.252 416.827 245.632 420.398 245.632C424.119 245.632 427.408 246.327 430.264 247.718C433.121 249.109 435.394 251.044 437.086 253.525C438.815 255.968 439.83 258.843 440.13 262.151H430.828C430.565 260.497 429.963 259.088 429.024 257.922C428.084 256.757 426.863 255.855 425.359 255.216C423.893 254.577 422.24 254.258 420.398 254.258C418.556 254.258 416.921 254.577 415.493 255.216C414.065 255.855 412.862 256.757 411.885 257.922C410.945 259.088 410.212 260.478 409.686 262.094C409.197 263.673 408.953 265.44 408.953 267.394C408.953 269.311 409.197 271.077 409.686 272.693C410.212 274.272 410.964 275.663 411.941 276.865C412.956 278.031 414.196 278.933 415.662 279.572C417.128 280.173 418.801 280.474 420.68 280.474C423.536 280.474 425.942 279.778 427.896 278.388C429.888 276.997 431.091 275.08 431.504 272.637H440.75C440.412 275.644 439.397 278.406 437.706 280.925C436.052 283.405 433.778 285.397 430.884 286.901C428.028 288.367 424.626 289.1 420.68 289.1ZM461.994 289.1C459.288 289.1 456.882 288.686 454.777 287.859C452.673 286.995 450.887 285.83 449.422 284.364C447.993 282.898 446.903 281.225 446.152 279.346C445.4 277.429 445.024 275.418 445.024 273.314V272.017C445.024 269.875 445.4 267.845 446.152 265.928C446.941 263.974 448.068 262.264 449.534 260.798C451.038 259.332 452.842 258.186 454.947 257.359C457.051 256.494 459.4 256.062 461.994 256.062C464.662 256.062 467.03 256.494 469.097 257.359C471.202 258.186 472.988 259.332 474.453 260.798C475.919 262.264 477.047 263.974 477.836 265.928C478.625 267.845 479.02 269.875 479.02 272.017V273.314C479.02 275.418 478.644 277.429 477.892 279.346C477.141 281.225 476.032 282.898 474.566 284.364C473.138 285.83 471.371 286.995 469.267 287.859C467.162 288.686 464.738 289.1 461.994 289.1ZM461.994 281.488C463.76 281.488 465.226 281.113 466.391 280.361C467.556 279.609 468.44 278.557 469.041 277.204C469.68 275.851 470 274.347 470 272.693C470 270.927 469.68 269.386 469.041 268.071C468.402 266.717 467.481 265.646 466.279 264.857C465.113 264.068 463.685 263.673 461.994 263.673C460.34 263.673 458.912 264.068 457.709 264.857C456.506 265.646 455.586 266.717 454.947 268.071C454.345 269.386 454.045 270.927 454.045 272.693C454.045 274.347 454.345 275.851 454.947 277.204C455.548 278.557 456.45 279.609 457.653 280.361C458.855 281.113 460.303 281.488 461.994 281.488ZM485.879 288.028V257.133H493.039V270.438H492.532C492.532 267.281 492.926 264.65 493.716 262.545C494.505 260.441 495.689 258.862 497.268 257.81C498.846 256.72 500.782 256.175 503.075 256.175H503.469C505.799 256.175 507.735 256.72 509.276 257.81C510.855 258.862 512.039 260.441 512.828 262.545C513.655 264.65 514.068 267.281 514.068 270.438H511.869C511.869 267.281 512.264 264.65 513.053 262.545C513.88 260.441 515.083 258.862 516.662 257.81C518.24 256.72 520.176 256.175 522.469 256.175H522.863C525.193 256.175 527.148 256.72 528.727 257.81C530.343 258.862 531.564 260.441 532.391 262.545C533.218 264.65 533.631 267.281 533.631 270.438V288.028H524.611V269.931C524.611 268.24 524.16 266.868 523.258 265.815C522.393 264.763 521.153 264.237 519.537 264.237C517.921 264.237 516.643 264.782 515.703 265.872C514.764 266.924 514.294 268.334 514.294 270.1V288.028H505.217V269.931C505.217 268.24 504.766 266.868 503.864 265.815C502.999 264.763 501.778 264.237 500.199 264.237C498.545 264.237 497.249 264.782 496.309 265.872C495.37 266.924 494.9 268.334 494.9 270.1V288.028H485.879ZM541.885 299.304V257.133H549.045V270.495L548.087 270.438C548.237 267.356 548.876 264.763 550.003 262.658C551.131 260.516 552.653 258.918 554.57 257.866C556.487 256.776 558.648 256.231 561.054 256.231C563.196 256.231 565.132 256.626 566.86 257.415C568.627 258.204 570.13 259.313 571.371 260.741C572.649 262.132 573.607 263.786 574.246 265.703C574.923 267.582 575.261 269.649 575.261 271.904V273.201C575.261 275.418 574.941 277.504 574.302 279.459C573.663 281.376 572.724 283.048 571.483 284.477C570.281 285.905 568.796 287.032 567.03 287.859C565.301 288.648 563.309 289.043 561.054 289.043C558.723 289.043 556.618 288.573 554.739 287.634C552.898 286.656 551.413 285.191 550.285 283.236C549.158 281.244 548.538 278.726 548.425 275.682L550.906 279.064V299.304H541.885ZM558.517 281.488C560.058 281.488 561.392 281.113 562.519 280.361C563.685 279.609 564.587 278.557 565.226 277.204C565.864 275.851 566.184 274.291 566.184 272.524C566.184 270.758 565.864 269.217 565.226 267.901C564.587 266.586 563.703 265.571 562.576 264.857C561.448 264.105 560.095 263.729 558.517 263.729C557.163 263.729 555.886 264.049 554.683 264.688C553.48 265.327 552.503 266.248 551.751 267.45C551.037 268.615 550.68 270.044 550.68 271.735V273.821C550.68 275.437 551.056 276.828 551.808 277.993C552.597 279.121 553.593 279.985 554.796 280.586C555.998 281.188 557.239 281.488 558.517 281.488ZM596.24 289.1C593.61 289.1 591.279 288.648 589.25 287.746C587.258 286.844 585.585 285.642 584.232 284.138C582.916 282.597 581.902 280.887 581.188 279.008C580.511 277.091 580.173 275.137 580.173 273.145V272.017C580.173 269.95 580.511 267.977 581.188 266.097C581.902 264.18 582.916 262.47 584.232 260.967C585.547 259.463 587.182 258.28 589.137 257.415C591.129 256.513 593.384 256.062 595.902 256.062C599.21 256.062 601.991 256.814 604.246 258.317C606.539 259.783 608.287 261.719 609.489 264.124C610.692 266.492 611.293 269.085 611.293 271.904V274.949H583.95V269.818H605.825L602.893 272.186C602.893 270.344 602.63 268.766 602.104 267.45C601.578 266.135 600.788 265.139 599.736 264.462C598.721 263.748 597.443 263.391 595.902 263.391C594.324 263.391 592.989 263.748 591.899 264.462C590.809 265.176 589.983 266.229 589.419 267.619C588.855 268.973 588.573 270.645 588.573 272.637C588.573 274.479 588.836 276.095 589.362 277.486C589.889 278.839 590.715 279.891 591.843 280.643C592.971 281.395 594.436 281.77 596.24 281.77C597.894 281.77 599.247 281.451 600.3 280.812C601.352 280.173 602.066 279.384 602.442 278.444H610.73C610.279 280.511 609.395 282.353 608.08 283.969C606.764 285.585 605.111 286.844 603.119 287.746C601.127 288.648 598.834 289.1 596.24 289.1ZM631.873 288.423C628.753 288.423 626.235 288.047 624.318 287.295C622.401 286.506 620.992 285.209 620.09 283.405C619.225 281.564 618.793 279.083 618.793 275.963V248.789H627.193V276.302C627.193 277.768 627.569 278.895 628.321 279.684C629.11 280.436 630.219 280.812 631.647 280.812H636.214V288.423H631.873ZM614.114 263.729V257.133H636.214V263.729H614.114ZM644.309 288.028V257.133H653.33V288.028H644.309ZM640.194 263.786V257.133H653.33V263.786H640.194ZM647.805 254.089C646.113 254.089 644.854 253.657 644.027 252.792C643.238 251.89 642.844 250.762 642.844 249.409C642.844 248.019 643.238 246.891 644.027 246.027C644.854 245.125 646.113 244.674 647.805 244.674C649.496 244.674 650.736 245.125 651.526 246.027C652.353 246.891 652.766 248.019 652.766 249.409C652.766 250.762 652.353 251.89 651.526 252.792C650.736 253.657 649.496 254.089 647.805 254.089ZM676.275 288.423C673.155 288.423 670.637 288.047 668.72 287.295C666.803 286.506 665.394 285.209 664.492 283.405C663.627 281.564 663.195 279.083 663.195 275.963V248.789H671.595V276.302C671.595 277.768 671.971 278.895 672.723 279.684C673.512 280.436 674.621 280.812 676.049 280.812H680.616V288.423H676.275ZM658.516 263.729V257.133H680.616V263.729H658.516ZM688.711 288.028V257.133H697.732V288.028H688.711ZM684.596 263.786V257.133H697.732V263.786H684.596ZM692.207 254.089C690.516 254.089 689.256 253.657 688.43 252.792C687.64 251.89 687.246 250.762 687.246 249.409C687.246 248.019 687.64 246.891 688.43 246.027C689.256 245.125 690.516 244.674 692.207 244.674C693.898 244.674 695.139 245.125 695.928 246.027C696.755 246.891 697.168 248.019 697.168 249.409C697.168 250.762 696.755 251.89 695.928 252.792C695.139 253.657 693.898 254.089 692.207 254.089ZM721.692 289.1C718.986 289.1 716.58 288.686 714.475 287.859C712.371 286.995 710.585 285.83 709.119 284.364C707.691 282.898 706.601 281.225 705.849 279.346C705.098 277.429 704.722 275.418 704.722 273.314V272.017C704.722 269.875 705.098 267.845 705.849 265.928C706.639 263.974 707.766 262.264 709.232 260.798C710.736 259.332 712.54 258.186 714.644 257.359C716.749 256.494 719.098 256.062 721.692 256.062C724.36 256.062 726.728 256.494 728.795 257.359C730.9 258.186 732.685 259.332 734.151 260.798C735.617 262.264 736.745 263.974 737.534 265.928C738.323 267.845 738.718 269.875 738.718 272.017V273.314C738.718 275.418 738.342 277.429 737.59 279.346C736.839 281.225 735.73 282.898 734.264 284.364C732.836 285.83 731.069 286.995 728.964 287.859C726.86 288.686 724.435 289.1 721.692 289.1ZM721.692 281.488C723.458 281.488 724.924 281.113 726.089 280.361C727.254 279.609 728.138 278.557 728.739 277.204C729.378 275.851 729.697 274.347 729.697 272.693C729.697 270.927 729.378 269.386 728.739 268.071C728.1 266.717 727.179 265.646 725.976 264.857C724.811 264.068 723.383 263.673 721.692 263.673C720.038 263.673 718.61 264.068 717.407 264.857C716.204 265.646 715.283 266.717 714.644 268.071C714.043 269.386 713.742 270.927 713.742 272.693C713.742 274.347 714.043 275.851 714.644 277.204C715.246 278.557 716.148 279.609 717.351 280.361C718.553 281.113 720 281.488 721.692 281.488ZM745.577 288.028V257.133H752.737V270.382H752.23C752.23 267.225 752.624 264.594 753.414 262.489C754.24 260.384 755.481 258.806 757.135 257.753C758.788 256.701 760.799 256.175 763.167 256.175H763.562C767.17 256.175 769.914 257.359 771.793 259.727C773.71 262.057 774.668 265.609 774.668 270.382V288.028H765.648V269.875C765.648 268.221 765.159 266.868 764.182 265.815C763.205 264.763 761.889 264.237 760.235 264.237C758.544 264.237 757.172 264.782 756.12 265.872C755.105 266.924 754.598 268.315 754.598 270.044V288.028H745.577Z" fill="#1C1259"/>
</g>
<path d="M386.56 320.151C395.394 317.716 402.101 316.647 402.441 317.742C402.78 318.836 396.645 321.75 387.984 324.742C395.952 329.267 401.451 333.254 400.917 334.268C400.383 335.282 393.984 333.004 385.745 328.995C388.179 337.829 389.248 344.536 388.154 344.876C387.059 345.215 384.145 339.08 381.154 330.419C376.629 338.387 372.642 343.886 371.628 343.352C370.614 342.818 372.892 336.419 376.9 328.179C368.067 330.614 361.359 331.683 361.02 330.589C360.68 329.494 366.816 326.58 375.476 323.588C367.509 319.063 362.01 315.077 362.544 314.063C363.078 313.048 369.476 315.327 377.716 319.335C375.282 310.502 374.212 303.794 375.307 303.454C376.401 303.115 379.315 309.25 382.307 317.911C386.832 309.944 390.819 304.444 391.833 304.978C392.847 305.512 390.569 311.911 386.56 320.151Z" fill="#FCD307"/>
<path d="M81.1827 226.243C84.1338 223.028 81.9951 216.549 77.6313 216.549H48.6533C22.2788 216.549 0.89799 240.14 0.89799 269.241C0.89799 298.342 22.2788 321.933 48.6533 321.933H77.6313C81.9951 321.933 84.1338 315.453 81.1828 312.238C71.1262 301.284 64.8938 286.065 64.8938 269.241C64.8938 252.416 71.1262 237.198 81.1827 226.243Z" fill="#FCD307"/>
<path d="M81.1827 226.243C84.1338 223.028 81.9951 216.549 77.6313 216.549H48.6533C22.2788 216.549 0.89799 240.14 0.89799 269.241C0.89799 298.342 22.2788 321.933 48.6533 321.933H77.6313C81.9951 321.933 84.1338 315.453 81.1828 312.238C71.1262 301.284 64.8938 286.065 64.8938 269.241C64.8938 252.416 71.1262 237.198 81.1827 226.243Z" fill="#FCD307"/>
<path fill-rule="evenodd" clip-rule="evenodd" d="M25.4095 264.334C24.6853 263.074 24.2775 261.65 24.2775 260.143C24.2775 254.988 29.0515 250.809 34.9406 250.809V259.213C35.7451 257.992 36.8618 256.944 38.2623 256.185C43.042 253.593 49.317 255.339 52.278 260.085L44.4425 264.335C45.9834 264.372 47.5195 264.75 48.9291 265.503C53.7266 268.066 55.242 274.006 52.3139 278.77L44.4717 274.58C45.1959 275.84 45.6037 277.263 45.6037 278.77C45.6037 283.926 40.8297 288.105 34.9406 288.105V279.7C34.1361 280.922 33.0194 281.969 31.619 282.729C26.8392 285.321 20.5642 283.574 17.6033 278.828L25.4387 274.579C23.8979 274.542 22.3617 274.164 20.9521 273.411C16.1546 270.847 14.6392 264.907 17.5673 260.143L25.4095 264.334ZM34.9462 269.435C34.9443 269.432 34.9425 269.429 34.9406 269.426L34.9406 269.435C34.9425 269.435 34.9443 269.435 34.9462 269.435ZM34.9406 269.478V269.487L34.935 269.478L34.9406 269.478Z" fill="#1C1259"/>
<path fill-rule="evenodd" clip-rule="evenodd" d="M25.4095 264.334C24.6853 263.074 24.2775 261.65 24.2775 260.143C24.2775 254.988 29.0515 250.809 34.9406 250.809V259.213C35.7451 257.992 36.8618 256.944 38.2623 256.185C43.042 253.593 49.317 255.339 52.278 260.085L44.4425 264.335C45.9834 264.372 47.5195 264.75 48.9291 265.503C53.7266 268.066 55.242 274.006 52.3139 278.77L44.4717 274.58C45.1959 275.84 45.6037 277.263 45.6037 278.77C45.6037 283.926 40.8297 288.105 34.9406 288.105V279.7C34.1361 280.922 33.0194 281.969 31.619 282.729C26.8392 285.321 20.5642 283.574 17.6033 278.828L25.4387 274.579C23.8979 274.542 22.3617 274.164 20.9521 273.411C16.1546 270.847 14.6392 264.907 17.5673 260.143L25.4095 264.334ZM34.9462 269.435C34.9443 269.432 34.9425 269.429 34.9406 269.426L34.9406 269.435C34.9425 269.435 34.9443 269.435 34.9462 269.435ZM34.9406 269.478V269.487L34.935 269.478L34.9406 269.478Z" fill="#1C1259"/>
<path d="M797.507 282.441L781.782 294.07C779.572 295.704 780.229 299.168 782.884 299.88L809.299 306.958" fill="#FDE159"/>
<path d="M861.381 299.556L869.185 317.489C870.282 320.009 867.98 322.681 865.325 321.97L838.911 314.892" fill="#FDE159"/>
<path d="M797.188 282.089L796.952 240.103C796.855 222.767 813.266 210.082 830.019 214.545L867.213 224.453C883.992 228.923 891.909 248.139 883.149 263.131L861.943 299.426C854.042 312.948 838.072 319.514 822.944 315.461C807.822 311.409 797.276 297.745 797.188 282.089Z" fill="#FDE159"/>
<path d="M850.907 298.243L861.495 300.138C854.652 310.829 842.296 317.395 829.807 316.857C829.802 316.858 829.798 316.857 829.793 316.856C829.574 316.847 829.356 316.833 829.138 316.82C829.123 316.818 829.107 316.819 829.094 316.817C828.623 316.786 828.152 316.746 827.682 316.694C827.668 316.695 827.655 316.694 827.642 316.691C826.951 316.614 826.261 316.515 825.574 316.396C825.569 316.397 825.565 316.396 825.558 316.394C824.869 316.273 824.186 316.131 823.507 315.965C823.27 315.908 823.033 315.847 822.796 315.783C815.237 313.758 808.818 309.327 804.28 303.449C803.481 302.415 802.741 301.296 802.065 300.116C799.13 295.002 797.38 288.712 797.107 282.783L807.013 286.482L850.907 298.243Z" fill="#C63755"/>
<path d="M850.906 298.244L807.013 286.483C810.266 287.355 813.738 286.343 816.006 283.851C818.691 280.903 823.797 279.708 831.88 281.874C839.862 284.013 843.549 287.548 844.403 291.329C845.156 294.664 847.603 297.359 850.906 298.244Z" fill="#C63755"/>
<path d="M861.495 300.138C855.706 310.91 842.578 317.44 829.807 316.857C842.296 317.396 854.652 310.829 861.495 300.138Z" fill="#C63755"/>
<path d="M829.138 316.821C829.356 316.834 829.574 316.848 829.793 316.857C829.574 316.848 829.355 316.837 829.138 316.821Z" fill="#C63755"/>
<path d="M827.681 316.695C828.151 316.747 828.622 316.787 829.093 316.818C828.622 316.789 828.151 316.747 827.681 316.695Z" fill="#C63755"/>
<path d="M825.573 316.397C826.26 316.515 826.95 316.614 827.642 316.691C826.952 316.617 826.261 316.518 825.573 316.397Z" fill="#C63755"/>
<path d="M823.507 315.965C824.186 316.131 824.869 316.274 825.558 316.395C824.873 316.275 824.19 316.133 823.507 315.965Z" fill="#C63755"/>
<path opacity="0.35" d="M861.585 300.025C861.585 300.025 854.619 315.452 833.048 316.757C833.048 316.757 815.72 319.635 802.768 301.122C802.768 301.122 797.723 293.575 797.196 282.671C797.196 282.671 802.595 295.364 811.075 303.042C811.075 303.042 821.872 312.968 840.48 310.213C840.48 310.213 850.188 308.82 861.585 300.025Z" fill="#170F4A"/>
<path d="M869.194 216.751L832.242 206.849C813.298 201.773 801.952 182.121 807.028 163.177L810.272 151.071C815.348 132.127 835 120.781 853.944 125.857L890.896 135.758C909.839 140.834 921.186 160.486 916.11 179.43L912.866 191.537C907.79 210.48 888.138 221.826 869.194 216.751Z" fill="#FDE159"/>
<path opacity="0.35" d="M914.149 186.745L912.866 191.535C907.79 210.479 888.137 221.825 869.195 216.75L832.241 206.848C813.299 201.773 801.953 182.12 807.029 163.176L808.312 158.386C803.236 177.33 814.583 196.982 833.525 202.058L870.479 211.96C889.421 217.035 909.073 205.689 914.149 186.745Z" fill="#170F4A"/>
<path d="M879.144 147.855C877.324 147.367 875.381 147.762 873.895 148.921L871.697 150.637C870.165 151.834 868.388 152.159 866.812 151.736C865.233 151.313 863.857 150.143 863.129 148.341L862.085 145.758C861.378 144.011 859.892 142.696 858.071 142.208L854.805 141.333C842.473 138.029 829.68 145.415 826.376 157.746L824.313 165.446C821.008 177.778 828.395 190.573 840.728 193.877L868.333 201.274C880.665 204.578 893.458 197.192 896.762 184.861L898.825 177.159C902.13 164.827 894.742 152.034 882.412 148.73L879.144 147.855Z" fill="#FEF0AC"/>
<path d="M830.438 323.591L828.132 326.262C827.674 326.792 826.954 327.014 826.277 326.832C822.348 326.485 818.503 325.487 814.901 323.879L814.368 323.641C813.692 323.46 813.179 322.908 813.047 322.22L812.384 318.753C812.105 317.296 813.586 316.136 814.937 316.749C817.167 317.761 819.503 318.601 821.93 319.251C824.354 319.9 826.794 320.34 829.23 320.58C830.706 320.725 831.408 322.469 830.438 323.591Z" fill="#FDE159"/>
<path opacity="0.35" d="M830.441 323.591L830.293 323.762C830.09 323.102 829.52 322.558 828.723 322.477C826.286 322.238 823.847 321.8 821.421 321.15C818.995 320.5 816.659 319.659 814.43 318.648C813.7 318.317 812.934 318.502 812.428 318.973L812.385 318.753C812.106 317.295 813.588 316.136 814.938 316.749C817.168 317.76 819.504 318.601 821.93 319.251C824.356 319.901 826.795 320.34 829.231 320.579C830.707 320.726 831.408 322.469 830.441 323.591Z" fill="#170F4A"/>
<path d="M843.453 257.84C851.658 249.736 859.862 241.631 868.067 233.527C869.688 231.925 868.958 229.168 866.757 228.578L861.488 227.166C859.133 226.535 856.67 227.43 855.171 229.353C852.865 232.313 848.932 233.769 845.08 232.737C841.228 231.705 838.55 228.477 838.033 224.761C837.697 222.346 836.011 220.339 833.656 219.708L828.44 218.311C826.227 217.718 824.212 219.764 824.839 221.968L834.36 255.448C835.495 259.443 840.498 260.759 843.453 257.84Z" fill="#C63755"/>
<path d="M833.651 276.34C836.919 277.216 840.278 275.277 841.154 272.009C842.029 268.741 840.09 265.382 836.822 264.506C833.554 263.631 830.195 265.57 829.32 268.838C828.444 272.106 830.384 275.465 833.651 276.34Z" fill="#9E2C44"/>
<path d="M914.213 211.532C925.07 197.558 925.582 184.588 936.294 189.848C943.428 193.352 938.288 209.028 927.431 223.002C916.573 236.975 903.997 243.283 899.628 241.217C889.94 236.634 903.355 225.505 914.213 211.532Z" fill="#FDE159"/>
<path opacity="0.35" d="M914.213 211.532C925.071 197.56 925.582 184.589 936.295 189.849C936.498 189.95 936.693 190.059 936.875 190.18C927.297 186.441 927.368 199.217 916.926 212.653C906.532 226.03 892.851 236.533 900.282 241.447C900.048 241.39 899.831 241.312 899.629 241.217C889.94 236.635 903.356 225.507 914.213 211.532Z" fill="#170F4A"/>
<path d="M928.552 221.534C928.552 221.534 924.897 218.823 924.847 218.885C922.839 221.414 919.817 222.359 918.096 220.994C916.375 219.63 916.607 216.471 918.614 213.94C918.618 213.934 914.664 210.937 914.664 210.937" stroke="#C63755" stroke-width="8" stroke-miterlimit="10"/>
<path d="M796.068 179.704C793.652 162.174 799.695 150.685 787.787 149.885C779.857 149.352 776.47 165.498 778.886 183.028C781.303 200.559 789.04 212.31 793.856 212.704C804.538 213.58 798.484 197.234 796.068 179.704Z" fill="#FDE159"/>
<path opacity="0.35" d="M796.069 179.704C793.651 162.175 799.694 150.686 787.787 149.885C787.56 149.871 787.337 149.867 787.119 149.882C797.283 151.432 790.834 162.462 793.158 179.319C795.471 196.1 802.069 212.037 793.176 212.577C793.407 212.644 793.634 212.685 793.856 212.703C804.539 213.581 798.484 197.235 796.069 179.704Z" fill="#170F4A"/>
<path d="M778.65 181.197C778.65 181.197 783.171 180.677 783.182 180.755C783.658 183.949 785.801 186.279 787.974 185.957C790.147 185.636 791.526 182.785 791.053 179.589C791.053 179.582 795.976 178.963 795.976 178.963" stroke="#C63755" stroke-width="8" stroke-miterlimit="10"/>
<path d="M916.213 179.38L912.95 191.557C912.021 195.023 910.6 198.234 908.781 201.134C904.563 197.091 902.76 190.007 904.677 182.852C906.596 175.693 911.697 170.465 917.371 169.076C917.496 172.496 917.141 175.916 916.213 179.38Z" fill="#C63755"/>
<path d="M810.148 150.96L806.886 163.137C805.957 166.603 805.582 170.095 805.708 173.515C811.382 172.124 816.485 166.89 818.403 159.735C820.321 152.576 818.517 145.498 814.298 141.457C812.479 144.357 811.076 147.496 810.148 150.96Z" fill="#C63755"/>
<path opacity="0.35" d="M869.332 319.721C868.774 321.461 867.161 322.373 865.419 322.014L841.097 315.478C849.141 313.308 856.878 308.136 861.045 300.978C861.233 300.655 861.39 300.343 861.584 300.024L862.696 302.581C859.837 306.461 855.531 312.576 850.744 314.486C850.453 314.602 850.296 315.298 850.824 315.452C854.069 316.396 864.623 319.732 869.332 319.721Z" fill="#170F4A"/>
<path opacity="0.35" d="M780.543 295.912C780.156 297.697 781.097 299.294 782.785 299.854L806.979 306.338C801.097 300.437 797.952 292.202 797.26 283.871C797.229 283.5 797.206 283.044 797.197 282.671L794.859 284.386C795.396 289.176 796.067 296.625 799.258 300.672C799.452 300.918 799.24 301.6 798.706 301.469C795.423 300.664 784.615 298.276 780.543 295.912Z" fill="#170F4A"/>
<path d="M805.856 338.361L805.856 338.359" stroke="#FF7500" stroke-miterlimit="10"/>
<path d="M815.805 358.16C816.037 358.358 816.4 358.333 816.664 358.18C816.928 358.026 817.115 357.771 817.288 357.52C817.802 356.778 818.268 356.003 818.685 355.203C818.719 355.139 818.629 355.081 818.583 355.136C818.23 355.551 818.005 355.895 817.552 356.142C817.356 356.249 817.156 356.352 816.944 356.422C816.738 356.49 816.519 356.528 816.329 356.634C816.078 356.775 815.65 357.203 815.588 357.554C815.545 357.8 815.668 357.985 815.805 358.16Z" fill="#D73502"/>
<path d="M810.998 352.494C811.01 352.541 811.095 352.953 810.746 353.6C810.559 353.946 810.514 354.357 810.648 354.726C810.745 354.993 810.928 355.3 811.262 355.617C811.29 355.644 811.337 355.627 811.341 355.589C811.367 355.34 811.448 354.649 811.579 354.249C811.652 354.027 811.671 353.79 811.632 353.56C811.568 353.172 811.407 352.661 811.001 352.492C811 352.491 810.998 352.493 810.998 352.494Z" fill="#FF7500"/>
<path d="M822.528 352.913C822.527 352.841 822.538 352.209 823.263 351.374C823.65 350.929 823.852 350.341 823.777 349.756C823.724 349.332 823.556 348.822 823.171 348.246C823.139 348.198 823.064 348.208 823.046 348.263C822.925 348.619 822.579 349.606 822.254 350.149C822.074 350.45 821.97 350.791 821.95 351.141C821.916 351.731 821.984 352.533 822.523 352.915C822.525 352.917 822.529 352.915 822.528 352.913Z" fill="#FF7500"/>
<path d="M825.142 345.648C825.668 344.072 826.654 342.683 827.069 342.139C827.198 341.971 827.292 341.78 827.347 341.575C828.813 336.103 825.423 330.441 819.774 328.927C814.125 327.414 808.357 330.622 806.891 336.094C806.234 338.547 806.554 341.039 807.616 343.179C807.777 343.506 807.956 343.824 808.154 344.135C808.155 344.137 808.158 344.142 808.159 344.144C811.548 350.345 810.385 351.99 810.385 351.99C811.378 351.367 811.855 349.588 811.855 349.588C813.843 352.977 811.621 357.342 811.621 357.342C819.984 355.461 822.542 347.567 823.081 345.468C823.081 345.467 823.081 345.466 823.081 345.465C823.459 347.73 824.834 348.11 824.834 348.11C824.728 347.3 824.876 346.451 825.142 345.651C825.142 345.65 825.142 345.649 825.142 345.648Z" fill="#D73502"/>
<path d="M823.819 342.466C824.229 341.238 824.997 340.156 825.32 339.733C825.421 339.601 825.494 339.452 825.537 339.293C826.679 335.03 824.038 330.618 819.637 329.439C815.236 328.26 810.742 330.759 809.6 335.022C809.088 336.934 809.337 338.875 810.164 340.542C810.29 340.797 810.429 341.045 810.583 341.287C810.585 341.289 810.587 341.293 810.588 341.295C813.228 346.125 812.322 347.407 812.322 347.407C813.096 346.922 813.467 345.535 813.467 345.535C815.016 348.176 813.284 351.577 813.284 351.577C819.8 350.111 821.793 343.961 822.213 342.325C822.213 342.325 822.213 342.324 822.214 342.324C822.508 344.088 823.579 344.384 823.579 344.384C823.497 343.753 823.611 343.092 823.819 342.468C823.819 342.468 823.819 342.467 823.819 342.466Z" fill="#FF7500"/>
<path d="M822.528 338.446C822.812 337.597 823.342 336.849 823.566 336.556C823.636 336.465 823.686 336.362 823.716 336.252C824.506 333.305 822.68 330.255 819.637 329.439C816.594 328.624 813.487 330.352 812.697 333.3C812.343 334.621 812.515 335.964 813.087 337.116C813.174 337.292 813.271 337.464 813.377 337.631C813.378 337.632 813.379 337.635 813.38 337.636C815.206 340.976 814.579 341.862 814.579 341.862C815.114 341.527 815.371 340.568 815.371 340.568C816.442 342.394 815.245 344.745 815.245 344.745C819.75 343.732 821.128 339.48 821.418 338.349C821.418 338.348 821.418 338.348 821.418 338.348C821.622 339.568 822.363 339.772 822.363 339.772C822.306 339.336 822.385 338.879 822.528 338.447C822.528 338.448 822.528 338.447 822.528 338.446Z" fill="#FAC000"/>
<path d="M842.085 160.037C844.095 162.5 846.104 164.963 848.114 167.426C848.206 166.741 848.298 166.055 848.391 165.37C845.871 166.433 843.351 167.496 840.831 168.559C839.279 169.214 840.605 171.477 842.141 170.828C844.661 169.765 847.181 168.702 849.701 167.639C850.551 167.28 850.446 166.157 849.977 165.583C847.968 163.119 845.958 160.656 843.948 158.193C842.881 156.885 841.028 158.74 842.085 160.037Z" fill="#09061D"/>
<path d="M882.831 168.612C879.859 169.74 876.887 170.868 873.915 171.997C873.223 172.26 872.569 173.18 873.126 173.916C874.777 176.096 876.428 178.277 878.079 180.458C879.084 181.787 881.365 180.491 880.348 179.147C878.697 176.967 877.047 174.786 875.396 172.606C875.133 173.245 874.87 173.885 874.607 174.525C877.579 173.396 880.551 172.268 883.523 171.14C885.085 170.547 884.412 168.012 882.831 168.612Z" fill="#09061D"/>
<defs>
<clipPath id="clip0_1233_1062">
<rect x="81.5605" y="216.549" width="738.985" height="105.384" rx="52.6919" fill="white"/>
</clipPath>
</defs>
</svg>
