<svg width="953" height="379" viewBox="0 0 953 379" fill="none" xmlns="http://www.w3.org/2000/svg">
<path d="M679.84 106.829C684.63 106.829 688.514 110.712 688.514 115.503V195.733C688.514 200.523 684.63 204.407 679.84 204.407H633.87C629.08 204.407 625.197 200.523 625.197 195.733V115.503C625.197 110.712 629.08 106.829 633.87 106.829H679.84Z" fill="#EE4266"/>
<path d="M695.064 106.829C697.421 106.829 699.675 107.788 701.31 109.484L739.963 149.6C743.2 152.959 743.2 158.277 739.963 161.636L701.31 201.751C699.675 203.448 697.421 204.407 695.064 204.407H639.945C635.154 204.407 631.271 200.523 631.271 195.733V189.904C631.271 185.114 635.154 181.231 639.945 181.231H651.265C668.144 181.231 681.827 169.763 681.827 155.618C681.827 141.472 668.144 130.005 651.265 130.005H639.945C635.154 130.005 631.271 126.122 631.271 121.331V115.503C631.271 110.712 635.154 106.829 639.945 106.829H695.064Z" fill="#EE4266"/>
<path fill-rule="evenodd" clip-rule="evenodd" d="M669.398 125.896C669.808 125.359 670.445 125.043 671.122 125.043H690.943C692.755 125.043 693.768 127.133 692.646 128.555L681.757 142.35C680.635 143.773 681.648 145.862 683.459 145.862H704.352C706.309 145.862 707.265 148.249 705.849 149.6L663.683 189.82C661.943 191.48 659.197 189.495 660.227 187.322L670.38 165.909C671.062 164.47 670.012 162.811 668.42 162.811H645.627C643.832 162.811 642.814 160.755 643.902 159.328L669.398 125.896Z" fill="white"/>
<path d="M293.437 106.828C298.227 106.828 302.11 110.711 302.11 115.502V195.732C302.11 200.522 298.227 204.406 293.437 204.406H163.334C158.544 204.406 154.66 200.522 154.66 195.732V115.502C154.66 110.711 158.544 106.828 163.334 106.828L293.437 106.828Z" fill="#FCD307"/>
<path d="M297.816 106.828C300.172 106.828 302.427 107.787 304.062 109.483L342.715 149.599C345.952 152.958 345.952 158.276 342.715 161.635L304.062 201.75C302.427 203.447 300.172 204.406 297.816 204.406H242.697C237.906 204.406 234.023 200.522 234.023 195.732V189.903C234.023 185.113 237.906 181.23 242.697 181.23H254.017C270.896 181.23 284.579 169.762 284.579 155.617C284.579 141.471 270.896 130.004 254.017 130.004H242.697C237.906 130.004 234.023 126.121 234.023 121.33V115.502C234.023 110.711 237.906 106.828 242.697 106.828H297.816Z" fill="#FCD307"/>
<path d="M214.075 106.828C218.865 106.828 222.748 110.711 222.748 115.502V195.732C222.748 200.522 218.865 204.406 214.075 204.406H83.9716C79.1813 204.406 75.298 200.522 75.298 195.732V115.502C75.298 110.711 79.1813 106.828 83.9716 106.828L214.075 106.828Z" fill="#FCD307"/>
<path d="M218.454 106.828C220.81 106.828 223.065 107.787 224.7 109.483L263.353 149.599C266.589 152.958 266.589 158.276 263.353 161.635L224.7 201.75C223.065 203.447 220.81 204.406 218.454 204.406H163.334C158.544 204.406 154.661 200.522 154.661 195.732V189.903C154.661 185.113 158.544 181.23 163.334 181.23H174.655C191.534 181.23 205.217 169.762 205.217 155.617C205.217 141.471 191.534 130.004 174.655 130.004H163.334C158.544 130.004 154.661 126.121 154.661 121.33V115.502C154.661 110.711 158.544 106.828 163.334 106.828H218.454Z" fill="#FCD307"/>
<path d="M564.917 106.828C569.708 106.828 573.591 110.711 573.591 115.502V195.732C573.591 200.522 569.708 204.406 564.917 204.406H434.814C430.024 204.406 426.141 200.522 426.141 195.732V115.502C426.141 110.711 430.024 106.828 434.814 106.828L564.917 106.828Z" fill="#FCD307"/>
<path d="M569.298 106.828C571.654 106.828 573.909 107.787 575.544 109.483L614.196 149.599C617.433 152.958 617.433 158.276 614.196 161.635L575.544 201.75C573.909 203.447 571.654 204.406 569.298 204.406H514.178C509.388 204.406 505.505 200.522 505.505 195.732V189.903C505.505 185.113 509.388 181.23 514.178 181.23H525.499C542.378 181.23 556.061 169.762 556.061 155.617C556.061 141.471 542.378 130.004 525.499 130.004H514.178C509.388 130.004 505.505 126.121 505.505 121.33V115.502C505.505 110.711 509.388 106.828 514.178 106.828H569.298Z" fill="#FCD307"/>
<path d="M427.878 106.828C432.668 106.828 436.552 110.711 436.552 115.502V195.732C436.552 200.522 432.668 204.406 427.878 204.406H297.775C292.985 204.406 289.102 200.522 289.102 195.732V115.502C289.102 110.711 292.985 106.828 297.775 106.828L427.878 106.828Z" fill="#FCD307"/>
<path d="M434.427 106.828C436.783 106.828 439.038 107.787 440.673 109.483L479.325 149.599C482.562 152.958 482.562 158.276 479.325 161.635L440.673 201.75C439.038 203.447 436.783 204.406 434.427 204.406H379.307C374.517 204.406 370.633 200.522 370.633 195.732V189.903C370.633 185.113 374.517 181.23 379.307 181.23H390.628C407.507 181.23 421.189 169.762 421.189 155.617C421.189 141.471 407.507 130.004 390.628 130.004H379.307C374.517 130.004 370.633 126.121 370.633 121.33V115.502C370.633 110.711 374.517 106.828 379.307 106.828H434.427Z" fill="#FCD307"/>
<path d="M143.625 174.745V165.124H152.178C154.316 165.124 156.244 164.809 157.963 164.18C159.682 163.51 161.149 162.587 162.365 161.413C163.58 160.198 164.503 158.751 165.131 157.075C165.76 155.356 166.075 153.469 166.075 151.415C166.075 149.277 165.76 147.37 165.131 145.693C164.503 144.016 163.58 142.59 162.365 141.417C161.149 140.243 159.682 139.362 157.963 138.776C156.244 138.147 154.316 137.832 152.178 137.832H143.625V128.211H151.612C155.762 128.211 159.388 128.819 162.49 130.035C165.593 131.25 168.192 132.906 170.288 135.003C172.384 137.099 173.935 139.509 174.941 142.234C175.989 144.917 176.513 147.747 176.513 150.723V152.107C176.513 154.874 175.989 157.62 174.941 160.344C173.935 163.027 172.384 165.459 170.288 167.639C168.192 169.777 165.593 171.496 162.49 172.795C159.388 174.095 155.762 174.745 151.612 174.745H143.625ZM134.57 174.745V128.211H144.883V174.745H134.57ZM186.024 174.493V140.033H196.086V174.493H186.024ZM181.434 147.453V140.033H196.086V147.453H181.434ZM189.923 136.637C188.037 136.637 186.632 136.155 185.71 135.191C184.83 134.185 184.389 132.927 184.389 131.418C184.389 129.867 184.83 128.609 185.71 127.645C186.632 126.639 188.037 126.136 189.923 126.136C191.81 126.136 193.193 126.639 194.073 127.645C194.996 128.609 195.457 129.867 195.457 131.418C195.457 132.927 194.996 134.185 194.073 135.191C193.193 136.155 191.81 136.637 189.923 136.637ZM206.649 187.07V140.033H214.635V154.936L213.566 154.874C213.734 151.436 214.447 148.543 215.704 146.196C216.962 143.806 218.66 142.024 220.798 140.851C222.936 139.635 225.346 139.027 228.029 139.027C230.419 139.027 232.578 139.467 234.506 140.348C236.477 141.228 238.154 142.465 239.537 144.058C240.962 145.609 242.031 147.453 242.744 149.591C243.499 151.688 243.876 153.993 243.876 156.509V157.955C243.876 160.428 243.52 162.755 242.807 164.935C242.094 167.073 241.046 168.938 239.663 170.532C238.321 172.125 236.665 173.382 234.695 174.305C232.767 175.185 230.545 175.625 228.029 175.625C225.43 175.625 223.083 175.101 220.986 174.053C218.932 172.963 217.276 171.328 216.019 169.148C214.761 166.926 214.069 164.117 213.944 160.722L216.71 164.495V187.07H206.649ZM225.2 167.199C226.918 167.199 228.407 166.779 229.664 165.941C230.964 165.103 231.97 163.929 232.683 162.42C233.395 160.91 233.752 159.171 233.752 157.2C233.752 155.23 233.395 153.511 232.683 152.044C231.97 150.577 230.985 149.445 229.727 148.648C228.47 147.81 226.96 147.391 225.2 147.391C223.69 147.391 222.265 147.747 220.924 148.46C219.582 149.172 218.492 150.199 217.654 151.541C216.857 152.84 216.459 154.433 216.459 156.32V158.647C216.459 160.449 216.878 162 217.717 163.3C218.597 164.558 219.708 165.522 221.049 166.193C222.391 166.863 223.774 167.199 225.2 167.199ZM268.911 175.688C265.893 175.688 263.21 175.227 260.862 174.305C258.515 173.34 256.523 172.041 254.888 170.406C253.295 168.771 252.08 166.905 251.241 164.809C250.403 162.671 249.983 160.428 249.983 158.081V156.634C249.983 154.245 250.403 151.981 251.241 149.843C252.122 147.663 253.379 145.756 255.014 144.121C256.691 142.486 258.703 141.207 261.051 140.285C263.399 139.321 266.019 138.838 268.911 138.838C271.888 138.838 274.529 139.321 276.835 140.285C279.182 141.207 281.174 142.486 282.809 144.121C284.443 145.756 285.701 147.663 286.582 149.843C287.462 151.981 287.902 154.245 287.902 156.634V158.081C287.902 160.428 287.483 162.671 286.644 164.809C285.806 166.905 284.569 168.771 282.934 170.406C281.341 172.041 279.371 173.34 277.023 174.305C274.676 175.227 271.972 175.688 268.911 175.688ZM268.911 167.199C270.882 167.199 272.517 166.779 273.816 165.941C275.116 165.103 276.101 163.929 276.772 162.42C277.484 160.91 277.841 159.234 277.841 157.389C277.841 155.419 277.484 153.7 276.772 152.233C276.059 150.723 275.032 149.529 273.69 148.648C272.391 147.768 270.798 147.328 268.911 147.328C267.067 147.328 265.474 147.768 264.132 148.648C262.791 149.529 261.764 150.723 261.051 152.233C260.38 153.7 260.045 155.419 260.045 157.389C260.045 159.234 260.38 160.91 261.051 162.42C261.722 163.929 262.728 165.103 264.069 165.941C265.411 166.779 267.025 167.199 268.911 167.199ZM296.182 174.493V140.033H304.168V154.811H303.602C303.602 151.289 304.042 148.355 304.922 146.007C305.845 143.659 307.228 141.899 309.073 140.725C310.917 139.551 313.16 138.964 315.801 138.964H316.241C320.266 138.964 323.326 140.285 325.422 142.926C327.56 145.525 328.629 149.487 328.629 154.811V174.493H318.568V154.245C318.568 152.4 318.023 150.891 316.933 149.717C315.843 148.543 314.376 147.956 312.531 147.956C310.645 147.956 309.114 148.564 307.941 149.78C306.809 150.954 306.243 152.505 306.243 154.433V174.493H296.182ZM354.244 175.688C351.31 175.688 348.711 175.185 346.447 174.179C344.225 173.173 342.359 171.831 340.85 170.154C339.383 168.435 338.251 166.528 337.454 164.432C336.7 162.294 336.323 160.114 336.323 157.892V156.634C336.323 154.329 336.7 152.128 337.454 150.032C338.251 147.894 339.383 145.986 340.85 144.309C342.317 142.632 344.141 141.312 346.321 140.348C348.543 139.341 351.058 138.838 353.867 138.838C357.556 138.838 360.658 139.677 363.174 141.354C365.731 142.989 367.68 145.148 369.022 147.831C370.363 150.472 371.034 153.364 371.034 156.509V159.904H340.536V154.182H364.934L361.665 156.823C361.665 154.769 361.371 153.008 360.784 151.541C360.197 150.074 359.317 148.963 358.143 148.208C357.011 147.411 355.586 147.013 353.867 147.013C352.106 147.013 350.618 147.411 349.402 148.208C348.187 149.005 347.264 150.178 346.635 151.729C346.007 153.239 345.692 155.104 345.692 157.326C345.692 159.38 345.986 161.183 346.573 162.734C347.159 164.243 348.082 165.417 349.339 166.255C350.597 167.094 352.232 167.513 354.244 167.513C356.089 167.513 357.598 167.157 358.772 166.444C359.946 165.731 360.742 164.851 361.161 163.803H370.405C369.902 166.109 368.917 168.163 367.45 169.966C365.982 171.768 364.138 173.173 361.916 174.179C359.694 175.185 357.137 175.688 354.244 175.688ZM392.542 188.202C390.865 188.202 389.146 188.139 387.385 188.013C385.624 187.887 384.01 187.72 382.543 187.51V179.021C384.01 179.23 385.624 179.398 387.385 179.524C389.188 179.692 390.823 179.775 392.29 179.775C395.015 179.775 397.216 179.461 398.893 178.832C400.612 178.203 401.869 177.239 402.666 175.939C403.462 174.682 403.861 173.047 403.861 171.035V164.18L405.684 160.156C405.6 163.216 404.992 165.836 403.861 168.016C402.771 170.196 401.24 171.873 399.27 173.047C397.3 174.179 394.952 174.745 392.227 174.745C389.88 174.745 387.742 174.325 385.813 173.487C383.927 172.607 382.313 171.391 380.971 169.84C379.63 168.289 378.603 166.486 377.89 164.432C377.177 162.336 376.821 160.072 376.821 157.64V156.194C376.821 153.763 377.198 151.499 377.953 149.403C378.707 147.307 379.797 145.483 381.223 143.932C382.648 142.381 384.346 141.186 386.316 140.348C388.287 139.467 390.466 139.027 392.856 139.027C395.623 139.027 398.012 139.635 400.025 140.851C402.079 142.066 403.693 143.848 404.867 146.196C406.041 148.543 406.669 151.373 406.753 154.685L405.37 155.062V140.033H413.356V170.406C413.356 174.64 412.601 178.057 411.092 180.656C409.583 183.255 407.277 185.162 404.175 186.378C401.115 187.594 397.237 188.202 392.542 188.202ZM395.371 166.255C396.922 166.255 398.327 165.92 399.585 165.249C400.842 164.537 401.827 163.531 402.54 162.231C403.295 160.931 403.672 159.359 403.672 157.515V155.691C403.672 153.888 403.274 152.379 402.477 151.164C401.723 149.906 400.716 148.963 399.459 148.334C398.201 147.663 396.86 147.328 395.434 147.328C393.757 147.328 392.269 147.726 390.97 148.522C389.67 149.319 388.664 150.43 387.951 151.855C387.238 153.281 386.882 154.957 386.882 156.886C386.882 158.856 387.238 160.554 387.951 161.979C388.706 163.363 389.712 164.432 390.97 165.186C392.269 165.899 393.736 166.255 395.371 166.255ZM440.116 175.688C437.097 175.688 434.414 175.227 432.067 174.305C429.719 173.34 427.728 172.041 426.093 170.406C424.5 168.771 423.284 166.905 422.446 164.809C421.607 162.671 421.188 160.428 421.188 158.081V156.634C421.188 154.245 421.607 151.981 422.446 149.843C423.326 147.663 424.584 145.756 426.219 144.121C427.895 142.486 429.908 141.207 432.255 140.285C434.603 139.321 437.223 138.838 440.116 138.838C443.092 138.838 445.733 139.321 448.039 140.285C450.387 141.207 452.378 142.486 454.013 144.121C455.648 145.756 456.906 147.663 457.786 149.843C458.666 151.981 459.106 154.245 459.106 156.634V158.081C459.106 160.428 458.687 162.671 457.849 164.809C457.01 166.905 455.774 168.771 454.139 170.406C452.546 172.041 450.575 173.34 448.228 174.305C445.88 175.227 443.176 175.688 440.116 175.688ZM440.116 167.199C442.086 167.199 443.721 166.779 445.021 165.941C446.32 165.103 447.305 163.929 447.976 162.42C448.689 160.91 449.045 159.234 449.045 157.389C449.045 155.419 448.689 153.7 447.976 152.233C447.263 150.723 446.236 149.529 444.895 148.648C443.595 147.768 442.002 147.328 440.116 147.328C438.271 147.328 436.678 147.768 435.337 148.648C433.995 149.529 432.968 150.723 432.255 152.233C431.585 153.7 431.249 155.419 431.249 157.389C431.249 159.234 431.585 160.91 432.255 162.42C432.926 163.929 433.932 165.103 435.274 165.941C436.615 166.779 438.229 167.199 440.116 167.199ZM467.386 174.493V140.033H475.372V154.811H475.183C475.183 149.948 476.21 146.196 478.265 143.555C480.361 140.914 483.379 139.593 487.32 139.593H488.64V148.271H486.125C483.358 148.271 481.22 149.025 479.711 150.535C478.202 152.002 477.447 154.14 477.447 156.949V174.493H467.386ZM511.717 175.688C508.698 175.688 506.015 175.227 503.667 174.305C501.32 173.34 499.329 172.041 497.694 170.406C496.101 168.771 494.885 166.905 494.046 164.809C493.208 162.671 492.789 160.428 492.789 158.081V156.634C492.789 154.245 493.208 151.981 494.046 149.843C494.927 147.663 496.184 145.756 497.819 144.121C499.496 142.486 501.508 141.207 503.856 140.285C506.204 139.321 508.824 138.838 511.717 138.838C514.693 138.838 517.334 139.321 519.64 140.285C521.987 141.207 523.979 142.486 525.614 144.121C527.249 145.756 528.506 147.663 529.387 149.843C530.267 151.981 530.707 154.245 530.707 156.634V158.081C530.707 160.428 530.288 162.671 529.45 164.809C528.611 166.905 527.374 168.771 525.739 170.406C524.146 172.041 522.176 173.34 519.828 174.305C517.481 175.227 514.777 175.688 511.717 175.688ZM511.717 167.199C513.687 167.199 515.322 166.779 516.621 165.941C517.921 165.103 518.906 163.929 519.577 162.42C520.29 160.91 520.646 159.234 520.646 157.389C520.646 155.419 520.29 153.7 519.577 152.233C518.864 150.723 517.837 149.529 516.496 148.648C515.196 147.768 513.603 147.328 511.717 147.328C509.872 147.328 508.279 147.768 506.937 148.648C505.596 149.529 504.569 150.723 503.856 152.233C503.185 153.7 502.85 155.419 502.85 157.389C502.85 159.234 503.185 160.91 503.856 162.42C504.527 163.929 505.533 165.103 506.875 165.941C508.216 166.779 509.83 167.199 511.717 167.199Z" fill="#1C1259"/>
<path d="M121.576 102.706C130.491 100.59 137.232 99.7612 137.532 100.867C137.833 101.973 131.597 104.666 122.834 107.345C130.635 112.153 135.988 116.334 135.418 117.328C134.848 118.323 128.535 115.817 120.444 111.516C122.561 120.431 123.389 127.172 122.283 127.473C121.177 127.773 118.485 121.537 115.805 112.774C110.998 120.575 106.817 125.928 105.822 125.358C104.828 124.788 107.334 118.475 111.635 110.384C102.72 112.501 95.978 113.329 95.6779 112.223C95.3778 111.117 101.614 108.425 110.376 105.745C102.575 100.938 97.2226 96.7567 97.7925 95.7623C98.3624 94.768 104.676 97.2737 112.766 101.575C110.65 92.6596 109.821 85.9181 110.927 85.618C112.033 85.3179 114.726 91.5537 117.405 100.316C122.213 92.5155 126.394 87.1626 127.388 87.7325C128.382 88.3024 125.877 94.6156 121.576 102.706Z" fill="#EE4266"/>
<rect x="334" y="24.5" width="284.4" height="64.8002" rx="32.4001" fill="white"/>
<path d="M585.528 24.3368C594.49 26.2433 600.937 28.3824 600.734 29.5105C600.531 30.6385 593.743 30.4 584.678 29.0678C589.667 36.7533 592.713 42.8244 591.772 43.4787C590.831 44.133 586.2 39.1645 580.731 31.8121C578.825 40.7746 576.686 47.2212 575.558 47.0186C574.43 46.8159 574.668 40.0278 576 30.9622C568.315 35.9515 562.244 38.9974 561.59 38.0564C560.935 37.1155 565.904 32.4843 573.256 27.0159C564.294 25.1094 557.847 22.9703 558.05 21.8422C558.252 20.7142 565.04 20.9527 574.106 22.2849C569.117 14.5994 566.071 8.52833 567.012 7.87399C567.953 7.21964 572.584 12.1882 578.052 19.5406C579.959 10.5781 582.098 4.13146 583.226 4.33411C584.354 4.53676 584.115 11.3248 582.783 20.3905C590.469 15.4012 596.54 12.3553 597.194 13.2962C597.849 14.2372 592.88 18.8684 585.528 24.3368Z" fill="#EE4266"/>
<path d="M401.061 64.3948C399.344 64.3948 397.869 64.0912 396.638 63.4841C395.406 62.8769 394.4 62.0876 393.619 61.1162C392.856 60.1447 392.292 59.0866 391.928 57.9417C391.564 56.7968 391.382 55.6952 391.382 54.637V54.0646C391.382 52.885 391.564 51.7227 391.928 50.5778C392.31 49.4329 392.891 48.3921 393.671 47.4554C394.452 46.5186 395.441 45.7727 396.638 45.2176C397.852 44.6451 399.283 44.3589 400.931 44.3589C402.648 44.3589 404.14 44.6711 405.407 45.2956C406.69 45.9028 407.714 46.7701 408.477 47.8977C409.24 49.0079 409.7 50.309 409.856 51.8008H406.135C405.996 50.9334 405.684 50.2049 405.198 49.6151C404.73 49.0079 404.132 48.5569 403.403 48.262C402.674 47.9497 401.85 47.7936 400.931 47.7936C399.994 47.7936 399.162 47.9584 398.433 48.288C397.705 48.6003 397.097 49.0513 396.612 49.6411C396.126 50.2309 395.753 50.9248 395.493 51.7227C395.25 52.5207 395.128 53.4054 395.128 54.3768C395.128 55.3136 395.25 56.1809 395.493 56.9789C395.753 57.7769 396.135 58.4794 396.638 59.0866C397.141 59.6764 397.757 60.1361 398.485 60.4657C399.231 60.7953 400.09 60.9601 401.061 60.9601C402.484 60.9601 403.681 60.6131 404.652 59.9192C405.641 59.208 406.239 58.2192 406.447 56.9529H410.168C409.995 58.306 409.535 59.5463 408.789 60.6738C408.043 61.8014 407.02 62.7034 405.719 63.38C404.418 64.0565 402.865 64.3948 401.061 64.3948ZM419.792 64.3948C418.543 64.3948 417.441 64.1953 416.487 63.7963C415.533 63.3973 414.726 62.8596 414.067 62.183C413.408 61.4891 412.905 60.7085 412.558 59.8412C412.228 58.9738 412.063 58.0718 412.063 57.135V56.5886C412.063 55.6172 412.237 54.6978 412.584 53.8304C412.948 52.9457 413.46 52.1651 414.119 51.4886C414.796 50.7947 415.611 50.2569 416.565 49.8753C417.519 49.4763 418.595 49.2768 419.792 49.2768C420.989 49.2768 422.064 49.4763 423.018 49.8753C423.972 50.2569 424.779 50.7947 425.438 51.4886C426.115 52.1651 426.626 52.9457 426.973 53.8304C427.32 54.6978 427.494 55.6172 427.494 56.5886V57.135C427.494 58.0718 427.32 58.9738 426.973 59.8412C426.644 60.7085 426.149 61.4891 425.49 62.183C424.831 62.8596 424.024 63.3973 423.07 63.7963C422.116 64.1953 421.023 64.3948 419.792 64.3948ZM419.792 61.2983C420.676 61.2983 421.422 61.1075 422.029 60.7259C422.636 60.3269 423.096 59.7978 423.408 59.1386C423.721 58.4621 423.877 57.6988 423.877 56.8488C423.877 55.9814 423.712 55.2182 423.382 54.559C423.07 53.8824 422.602 53.3534 421.977 52.9717C421.37 52.5727 420.642 52.3733 419.792 52.3733C418.942 52.3733 418.204 52.5727 417.58 52.9717C416.973 53.3534 416.504 53.8824 416.175 54.559C415.845 55.2182 415.68 55.9814 415.68 56.8488C415.68 57.6988 415.836 58.4621 416.149 59.1386C416.478 59.7978 416.947 60.3269 417.554 60.7259C418.161 61.1075 418.907 61.2983 419.792 61.2983ZM430.661 63.9004V49.7712H433.523V55.834H433.263C433.263 54.4115 433.445 53.2233 433.809 52.2692C434.173 51.2977 434.711 50.5692 435.422 50.0834C436.151 49.5804 437.053 49.3288 438.129 49.3288H438.285C439.378 49.3288 440.28 49.5804 440.991 50.0834C441.719 50.5692 442.257 51.2977 442.604 52.2692C442.968 53.2233 443.151 54.4115 443.151 55.834H442.24C442.24 54.4115 442.422 53.2233 442.786 52.2692C443.168 51.2977 443.714 50.5692 444.426 50.0834C445.154 49.5804 446.056 49.3288 447.132 49.3288H447.288C448.381 49.3288 449.291 49.5804 450.02 50.0834C450.749 50.5692 451.295 51.2977 451.659 52.2692C452.041 53.2233 452.232 54.4115 452.232 55.834V63.9004H448.615V55.4957C448.615 54.611 448.389 53.9085 447.938 53.3881C447.487 52.8503 446.845 52.5814 446.013 52.5814C445.18 52.5814 444.512 52.859 444.009 53.4141C443.506 53.9518 443.255 54.6804 443.255 55.5998V63.9004H439.638V55.4957C439.638 54.611 439.412 53.9085 438.961 53.3881C438.51 52.8503 437.868 52.5814 437.036 52.5814C436.203 52.5814 435.535 52.859 435.032 53.4141C434.529 53.9518 434.278 54.6804 434.278 55.5998V63.9004H430.661ZM456.097 69.1045V49.7712H458.959V55.86L458.517 55.834C458.586 54.3942 458.881 53.1886 459.401 52.2171C459.939 51.2457 460.65 50.5258 461.535 50.0574C462.42 49.5717 463.409 49.3288 464.502 49.3288C465.508 49.3288 466.41 49.511 467.208 49.8753C468.023 50.2396 468.717 50.7513 469.289 51.4105C469.879 52.0697 470.33 52.8416 470.642 53.7263C470.955 54.5937 471.111 55.5304 471.111 56.5366V57.083C471.111 58.1065 470.955 59.0606 470.642 59.9453C470.347 60.8126 469.905 61.5846 469.315 62.2611C468.743 62.9203 468.049 63.4407 467.234 63.8223C466.418 64.1866 465.508 64.3688 464.502 64.3688C463.443 64.3688 462.472 64.1519 461.587 63.7182C460.72 63.2672 460.017 62.582 459.48 61.6626C458.942 60.7259 458.638 59.5203 458.569 58.0457L459.714 59.7891V69.1045H456.097ZM463.591 61.3243C464.371 61.3243 465.048 61.1335 465.62 60.7519C466.21 60.3703 466.67 59.8412 466.999 59.1646C467.329 58.4708 467.494 57.6901 467.494 56.8228C467.494 55.9207 467.329 55.1401 466.999 54.4809C466.67 53.8217 466.21 53.31 465.62 52.9457C465.048 52.5641 464.371 52.3733 463.591 52.3733C462.88 52.3733 462.22 52.5294 461.613 52.8416C461.023 53.1539 460.538 53.6136 460.156 54.2207C459.792 54.8279 459.61 55.5564 459.61 56.4065V57.4473C459.61 58.2626 459.8 58.9565 460.182 59.5289C460.564 60.1014 461.058 60.5437 461.665 60.856C462.272 61.1682 462.914 61.3243 463.591 61.3243ZM480.614 64.3948C479.4 64.3948 478.333 64.1866 477.413 63.7703C476.511 63.354 475.757 62.7989 475.15 62.105C474.56 61.3937 474.109 60.6044 473.797 59.7371C473.502 58.8697 473.354 57.985 473.354 57.083V56.5886C473.354 55.6519 473.502 54.7498 473.797 53.8824C474.109 52.9977 474.56 52.2171 475.15 51.5406C475.757 50.8467 476.503 50.3003 477.387 49.9013C478.272 49.485 479.296 49.2768 480.458 49.2768C481.984 49.2768 483.259 49.6151 484.283 50.2916C485.324 50.9508 486.104 51.8268 486.625 52.9197C487.145 53.9952 487.405 55.1575 487.405 56.4065V57.7075H474.889V55.4957H485.142L484.023 56.5886C484.023 55.6865 483.893 54.9146 483.632 54.2728C483.372 53.6309 482.973 53.1365 482.435 52.7896C481.915 52.4426 481.256 52.2692 480.458 52.2692C479.66 52.2692 478.983 52.4513 478.428 52.8156C477.873 53.1799 477.448 53.709 477.153 54.4029C476.876 55.0794 476.737 55.8947 476.737 56.8488C476.737 57.7335 476.876 58.5228 477.153 59.2167C477.431 59.8932 477.856 60.431 478.428 60.83C479.001 61.2116 479.729 61.4024 480.614 61.4024C481.499 61.4024 482.219 61.2289 482.774 60.882C483.329 60.5177 483.684 60.0754 483.841 59.5549H487.171C486.963 60.5264 486.564 61.3764 485.974 62.105C485.384 62.8335 484.63 63.3973 483.71 63.7963C482.808 64.1953 481.776 64.3948 480.614 64.3948ZM496.568 64.0825C495.267 64.0825 494.191 63.9177 493.341 63.5881C492.508 63.2412 491.884 62.6687 491.468 61.8708C491.051 61.0555 490.843 59.9626 490.843 58.5922L490.869 45.79H494.252L494.226 58.8264C494.226 59.5203 494.408 60.058 494.772 60.4396C495.154 60.8039 495.692 60.9861 496.386 60.9861H498.597V64.0825H496.568ZM488.605 52.4253V49.7712H498.597V52.4253H488.605ZM502.309 63.9004V49.7712H505.926V63.9004H502.309ZM500.332 52.4773V49.7712H505.926V52.4773H500.332ZM503.637 48.0799C502.925 48.0799 502.396 47.8977 502.049 47.5334C501.72 47.1518 501.555 46.6834 501.555 46.1283C501.555 45.5385 501.72 45.0615 502.049 44.6972C502.396 44.3329 502.925 44.1507 503.637 44.1507C504.348 44.1507 504.868 44.3329 505.198 44.6972C505.527 45.0615 505.692 45.5385 505.692 46.1283C505.692 46.6834 505.527 47.1518 505.198 47.5334C504.868 47.8977 504.348 48.0799 503.637 48.0799ZM516.236 64.0825C514.935 64.0825 513.859 63.9177 513.009 63.5881C512.176 63.2412 511.552 62.6687 511.136 61.8708C510.719 61.0555 510.511 59.9626 510.511 58.5922L510.537 45.79H513.92L513.894 58.8264C513.894 59.5203 514.076 60.058 514.44 60.4396C514.822 60.8039 515.36 60.9861 516.053 60.9861H518.265V64.0825H516.236ZM508.273 52.4253V49.7712H518.265V52.4253H508.273ZM521.977 63.9004V49.7712H525.594V63.9004H521.977ZM520 52.4773V49.7712H525.594V52.4773H520ZM523.304 48.0799C522.593 48.0799 522.064 47.8977 521.717 47.5334C521.388 47.1518 521.223 46.6834 521.223 46.1283C521.223 45.5385 521.388 45.0615 521.717 44.6972C522.064 44.3329 522.593 44.1507 523.304 44.1507C524.016 44.1507 524.536 44.3329 524.866 44.6972C525.195 45.0615 525.36 45.5385 525.36 46.1283C525.36 46.6834 525.195 47.1518 524.866 47.5334C524.536 47.8977 524.016 48.0799 523.304 48.0799ZM536.554 64.3948C535.305 64.3948 534.204 64.1953 533.249 63.7963C532.295 63.3973 531.489 62.8596 530.83 62.183C530.17 61.4891 529.667 60.7085 529.32 59.8412C528.991 58.9738 528.826 58.0718 528.826 57.135V56.5886C528.826 55.6172 528.999 54.6978 529.346 53.8304C529.711 52.9457 530.222 52.1651 530.882 51.4886C531.558 50.7947 532.373 50.2569 533.327 49.8753C534.282 49.4763 535.357 49.2768 536.554 49.2768C537.751 49.2768 538.827 49.4763 539.781 49.8753C540.735 50.2569 541.541 50.7947 542.201 51.4886C542.877 52.1651 543.389 52.9457 543.736 53.8304C544.083 54.6978 544.256 55.6172 544.256 56.5886V57.135C544.256 58.0718 544.083 58.9738 543.736 59.8412C543.406 60.7085 542.912 61.4891 542.253 62.183C541.593 62.8596 540.787 63.3973 539.833 63.7963C538.879 64.1953 537.786 64.3948 536.554 64.3948ZM536.554 61.2983C537.439 61.2983 538.185 61.1075 538.792 60.7259C539.399 60.3269 539.859 59.7978 540.171 59.1386C540.483 58.4621 540.639 57.6988 540.639 56.8488C540.639 55.9814 540.474 55.2182 540.145 54.559C539.833 53.8824 539.364 53.3534 538.74 52.9717C538.133 52.5727 537.404 52.3733 536.554 52.3733C535.704 52.3733 534.967 52.5727 534.342 52.9717C533.735 53.3534 533.267 53.8824 532.937 54.559C532.608 55.2182 532.443 55.9814 532.443 56.8488C532.443 57.6988 532.599 58.4621 532.911 59.1386C533.241 59.7978 533.709 60.3269 534.316 60.7259C534.923 61.1075 535.669 61.2983 536.554 61.2983ZM547.423 63.9004V49.7712H550.285V55.834H550.025C550.025 54.3942 550.216 53.1972 550.598 52.2432C550.979 51.2717 551.543 50.5431 552.289 50.0574C553.052 49.5717 553.998 49.3288 555.125 49.3288H555.281C556.964 49.3288 558.239 49.8753 559.106 50.9681C559.974 52.0437 560.407 53.6569 560.407 55.808V63.9004H556.791V55.4957C556.791 54.6284 556.539 53.9258 556.036 53.3881C555.55 52.8503 554.874 52.5814 554.006 52.5814C553.122 52.5814 552.402 52.859 551.847 53.4141C551.309 53.9518 551.04 54.6804 551.04 55.5998V63.9004H547.423Z" fill="#1C1259"/>
<path d="M554.485 89.0479H583.146C583.146 121.353 549.608 127.607 532.839 126.695C551.759 126.695 555.153 101.597 554.485 89.0479Z" fill="white"/>
<g clip-path="url(#clip0_1345_1295)">
<rect x="81.5605" y="216.549" width="738.985" height="105.384" rx="52.6919" fill="white"/>
<path d="M205.81 263.387C198.951 263.387 193.391 268.78 193.391 275.432V280.088H189.567C182.371 280.088 176.537 285.228 176.537 291.569C176.537 297.91 182.371 303.05 189.567 303.05C189.567 303.05 200.242 302.326 200.242 313.554C200.242 328.296 192.626 338.89 203.836 340.049C205.117 340.181 205.856 340.18 207.137 340.049C218.382 338.896 211.379 328.296 211.379 313.554C211.379 302.326 222.054 303.05 222.054 303.05C229.25 303.05 235.083 297.91 235.083 291.569C235.083 285.228 229.25 280.088 222.054 280.088H218.229V275.432C218.229 268.78 212.669 263.387 205.81 263.387Z" fill="#EE4266"/>
<path d="M151.383 206.14C141.019 206.14 132.617 215.006 132.617 225.943V233.597H126.838C115.964 233.597 107.148 242.048 107.148 252.473C107.148 262.898 115.964 271.349 126.838 271.349C126.838 271.349 142.969 270.158 142.969 288.619C142.969 312.854 131.461 330.272 148.4 332.177C150.336 332.395 151.452 332.393 153.389 332.177C170.381 330.283 159.798 312.854 159.798 288.619C159.798 270.158 175.929 271.349 175.929 271.349C186.803 271.349 195.618 262.898 195.618 252.473C195.618 242.048 186.803 233.597 175.929 233.597H170.15V225.943C170.15 215.006 161.748 206.14 151.383 206.14Z" fill="#EE4266"/>
<path d="M238.435 289.1C234.563 289.1 231.275 288.385 228.569 286.957C225.9 285.491 223.87 283.424 222.48 280.756C221.089 278.087 220.394 274.93 220.394 271.284V246.872H229.64V271.622C229.64 273.426 229.978 275.005 230.655 276.358C231.369 277.674 232.365 278.688 233.643 279.402C234.958 280.117 236.555 280.474 238.435 280.474C240.352 280.474 241.949 280.117 243.227 279.402C244.542 278.688 245.538 277.674 246.215 276.358C246.891 275.043 247.23 273.464 247.23 271.622V246.872H256.476V271.284C256.476 274.93 255.78 278.087 254.39 280.756C252.999 283.424 250.969 285.491 248.301 286.957C245.632 288.385 242.344 289.1 238.435 289.1ZM265.63 288.028V246.872H274.876V288.028H265.63ZM281.192 291.411L292.862 244.053H302.108L290.438 291.411H281.192ZM325.574 289.1C321.703 289.1 318.414 288.385 315.708 286.957C313.039 285.491 311.01 283.424 309.619 280.756C308.228 278.087 307.533 274.93 307.533 271.284V246.872H316.779V271.622C316.779 273.426 317.117 275.005 317.794 276.358C318.508 277.674 319.504 278.688 320.782 279.402C322.097 280.117 323.695 280.474 325.574 280.474C327.491 280.474 329.088 280.117 330.366 279.402C331.682 278.688 332.678 277.674 333.354 276.358C334.031 275.043 334.369 273.464 334.369 271.622V246.872H343.615V271.284C343.615 274.93 342.92 278.087 341.529 280.756C340.138 283.424 338.109 285.491 335.44 286.957C332.772 288.385 329.483 289.1 325.574 289.1ZM348.045 288.028L362.083 266.097L362.196 267.056L349.229 246.872H359.377L367.383 259.727H368.679L376.572 246.872H386.439L373.415 267.168L373.246 266.266L387.735 288.028H377.531L368.172 273.483H366.819L357.911 288.028H348.045ZM424.699 289.1C420.978 289.1 417.783 288.461 415.115 287.183C412.446 285.867 410.266 284.157 408.575 282.052C406.883 279.91 405.624 277.617 404.797 275.174C404.008 272.693 403.614 270.288 403.614 267.958V266.717C403.614 264.162 404.027 261.643 404.854 259.163C405.681 256.645 406.94 254.371 408.631 252.341C410.36 250.311 412.521 248.695 415.115 247.493C417.746 246.252 420.846 245.632 424.417 245.632C428.138 245.632 431.427 246.327 434.283 247.718C437.14 249.109 439.414 251.044 441.105 253.525C442.834 255.968 443.849 258.843 444.149 262.151H434.847C434.584 260.497 433.982 259.088 433.043 257.922C432.103 256.757 430.882 255.855 429.378 255.216C427.912 254.577 426.259 254.258 424.417 254.258C422.575 254.258 420.94 254.577 419.512 255.216C418.084 255.855 416.881 256.757 415.904 257.922C414.964 259.088 414.231 260.478 413.705 262.094C413.217 263.673 412.972 265.44 412.972 267.394C412.972 269.311 413.217 271.077 413.705 272.693C414.231 274.272 414.983 275.663 415.96 276.865C416.975 278.031 418.215 278.933 419.681 279.572C421.147 280.173 422.82 280.474 424.699 280.474C427.555 280.474 429.961 279.778 431.915 278.388C433.907 276.997 435.11 275.08 435.523 272.637H444.769C444.431 275.644 443.416 278.406 441.725 280.925C440.071 283.405 437.797 285.397 434.903 286.901C432.047 288.367 428.645 289.1 424.699 289.1ZM466.013 289.1C463.307 289.1 460.901 288.686 458.797 287.859C456.692 286.995 454.907 285.83 453.441 284.364C452.012 282.898 450.922 281.225 450.171 279.346C449.419 277.429 449.043 275.418 449.043 273.314V272.017C449.043 269.875 449.419 267.845 450.171 265.928C450.96 263.974 452.088 262.264 453.553 260.798C455.057 259.332 456.861 258.186 458.966 257.359C461.071 256.494 463.42 256.062 466.013 256.062C468.682 256.062 471.049 256.494 473.117 257.359C475.221 258.186 477.007 259.332 478.473 260.798C479.938 262.264 481.066 263.974 481.855 265.928C482.645 267.845 483.039 269.875 483.039 272.017V273.314C483.039 275.418 482.663 277.429 481.912 279.346C481.16 281.225 480.051 282.898 478.585 284.364C477.157 285.83 475.391 286.995 473.286 287.859C471.181 288.686 468.757 289.1 466.013 289.1ZM466.013 281.488C467.78 281.488 469.245 281.113 470.41 280.361C471.576 279.609 472.459 278.557 473.06 277.204C473.699 275.851 474.019 274.347 474.019 272.693C474.019 270.927 473.699 269.386 473.06 268.071C472.421 266.717 471.5 265.646 470.298 264.857C469.133 264.068 467.704 263.673 466.013 263.673C464.359 263.673 462.931 264.068 461.728 264.857C460.526 265.646 459.605 266.717 458.966 268.071C458.364 269.386 458.064 270.927 458.064 272.693C458.064 274.347 458.364 275.851 458.966 277.204C459.567 278.557 460.469 279.609 461.672 280.361C462.875 281.113 464.322 281.488 466.013 281.488ZM489.898 288.028V257.133H497.058V270.438H496.551C496.551 267.281 496.946 264.65 497.735 262.545C498.524 260.441 499.708 258.862 501.287 257.81C502.865 256.72 504.801 256.175 507.094 256.175H507.488C509.819 256.175 511.754 256.72 513.295 257.81C514.874 258.862 516.058 260.441 516.847 262.545C517.674 264.65 518.087 267.281 518.087 270.438H515.889C515.889 267.281 516.283 264.65 517.073 262.545C517.899 260.441 519.102 258.862 520.681 257.81C522.259 256.72 524.195 256.175 526.488 256.175H526.882C529.213 256.175 531.167 256.72 532.746 257.81C534.362 258.862 535.583 260.441 536.41 262.545C537.237 264.65 537.651 267.281 537.651 270.438V288.028H528.63V269.931C528.63 268.24 528.179 266.868 527.277 265.815C526.413 264.763 525.172 264.237 523.556 264.237C521.94 264.237 520.662 264.782 519.722 265.872C518.783 266.924 518.313 268.334 518.313 270.1V288.028H509.236V269.931C509.236 268.24 508.785 266.868 507.883 265.815C507.018 264.763 505.797 264.237 504.218 264.237C502.565 264.237 501.268 264.782 500.328 265.872C499.389 266.924 498.919 268.334 498.919 270.1V288.028H489.898ZM545.904 299.304V257.133H553.064V270.495L552.106 270.438C552.256 267.356 552.895 264.763 554.023 262.658C555.15 260.516 556.672 258.918 558.589 257.866C560.506 256.776 562.667 256.231 565.073 256.231C567.215 256.231 569.151 256.626 570.88 257.415C572.646 258.204 574.15 259.313 575.39 260.741C576.668 262.132 577.626 263.786 578.265 265.703C578.942 267.582 579.28 269.649 579.28 271.904V273.201C579.28 275.418 578.96 277.504 578.322 279.459C577.683 281.376 576.743 283.048 575.503 284.477C574.3 285.905 572.815 287.032 571.049 287.859C569.32 288.648 567.328 289.043 565.073 289.043C562.742 289.043 560.638 288.573 558.758 287.634C556.917 286.656 555.432 285.191 554.304 283.236C553.177 281.244 552.557 278.726 552.444 275.682L554.925 279.064V299.304H545.904ZM562.536 281.488C564.077 281.488 565.411 281.113 566.539 280.361C567.704 279.609 568.606 278.557 569.245 277.204C569.884 275.851 570.203 274.291 570.203 272.524C570.203 270.758 569.884 269.217 569.245 267.901C568.606 266.586 567.722 265.571 566.595 264.857C565.467 264.105 564.114 263.729 562.536 263.729C561.183 263.729 559.905 264.049 558.702 264.688C557.499 265.327 556.522 266.248 555.77 267.45C555.056 268.615 554.699 270.044 554.699 271.735V273.821C554.699 275.437 555.075 276.828 555.827 277.993C556.616 279.121 557.612 279.985 558.815 280.586C560.017 281.188 561.258 281.488 562.536 281.488ZM600.26 289.1C597.629 289.1 595.298 288.648 593.269 287.746C591.277 286.844 589.604 285.642 588.251 284.138C586.936 282.597 585.921 280.887 585.207 279.008C584.53 277.091 584.192 275.137 584.192 273.145V272.017C584.192 269.95 584.53 267.977 585.207 266.097C585.921 264.18 586.936 262.47 588.251 260.967C589.567 259.463 591.202 258.28 593.156 257.415C595.148 256.513 597.403 256.062 599.921 256.062C603.229 256.062 606.01 256.814 608.265 258.317C610.558 259.783 612.306 261.719 613.508 264.124C614.711 266.492 615.313 269.085 615.313 271.904V274.949H587.969V269.818H609.844L606.912 272.186C606.912 270.344 606.649 268.766 606.123 267.45C605.597 266.135 604.807 265.139 603.755 264.462C602.74 263.748 601.462 263.391 599.921 263.391C598.343 263.391 597.008 263.748 595.919 264.462C594.829 265.176 594.002 266.229 593.438 267.619C592.874 268.973 592.592 270.645 592.592 272.637C592.592 274.479 592.855 276.095 593.381 277.486C593.908 278.839 594.735 279.891 595.862 280.643C596.99 281.395 598.456 281.77 600.26 281.77C601.913 281.77 603.266 281.451 604.319 280.812C605.371 280.173 606.085 279.384 606.461 278.444H614.749C614.298 280.511 613.414 282.353 612.099 283.969C610.784 285.585 609.13 286.844 607.138 287.746C605.146 288.648 602.853 289.1 600.26 289.1ZM635.892 288.423C632.772 288.423 630.254 288.047 628.337 287.295C626.42 286.506 625.011 285.209 624.109 283.405C623.244 281.564 622.812 279.083 622.812 275.963V248.789H631.212V276.302C631.212 277.768 631.588 278.895 632.34 279.684C633.129 280.436 634.238 280.812 635.666 280.812H640.233V288.423H635.892ZM618.133 263.729V257.133H640.233V263.729H618.133ZM648.328 288.028V257.133H657.349V288.028H648.328ZM644.213 263.786V257.133H657.349V263.786H644.213ZM651.824 254.089C650.133 254.089 648.873 253.657 648.047 252.792C647.257 251.89 646.863 250.762 646.863 249.409C646.863 248.019 647.257 246.891 648.047 246.027C648.873 245.125 650.133 244.674 651.824 244.674C653.515 244.674 654.756 245.125 655.545 246.027C656.372 246.891 656.785 248.019 656.785 249.409C656.785 250.762 656.372 251.89 655.545 252.792C654.756 253.657 653.515 254.089 651.824 254.089ZM680.294 288.423C677.174 288.423 674.656 288.047 672.739 287.295C670.822 286.506 669.413 285.209 668.511 283.405C667.646 281.564 667.214 279.083 667.214 275.963V248.789H675.615V276.302C675.615 277.768 675.99 278.895 676.742 279.684C677.531 280.436 678.64 280.812 680.068 280.812H684.635V288.423H680.294ZM662.535 263.729V257.133H684.635V263.729H662.535ZM692.731 288.028V257.133H701.751V288.028H692.731ZM688.615 263.786V257.133H701.751V263.786H688.615ZM696.226 254.089C694.535 254.089 693.276 253.657 692.449 252.792C691.659 251.89 691.265 250.762 691.265 249.409C691.265 248.019 691.659 246.891 692.449 246.027C693.276 245.125 694.535 244.674 696.226 244.674C697.917 244.674 699.158 245.125 699.947 246.027C700.774 246.891 701.187 248.019 701.187 249.409C701.187 250.762 700.774 251.89 699.947 252.792C699.158 253.657 697.917 254.089 696.226 254.089ZM725.711 289.1C723.005 289.1 720.599 288.686 718.494 287.859C716.39 286.995 714.604 285.83 713.139 284.364C711.71 282.898 710.62 281.225 709.869 279.346C709.117 277.429 708.741 275.418 708.741 273.314V272.017C708.741 269.875 709.117 267.845 709.869 265.928C710.658 263.974 711.786 262.264 713.251 260.798C714.755 259.332 716.559 258.186 718.664 257.359C720.768 256.494 723.117 256.062 725.711 256.062C728.379 256.062 730.747 256.494 732.815 257.359C734.919 258.186 736.705 259.332 738.17 260.798C739.636 262.264 740.764 263.974 741.553 265.928C742.342 267.845 742.737 269.875 742.737 272.017V273.314C742.737 275.418 742.361 277.429 741.609 279.346C740.858 281.225 739.749 282.898 738.283 284.364C736.855 285.83 735.088 286.995 732.984 287.859C730.879 288.686 728.455 289.1 725.711 289.1ZM725.711 281.488C727.477 281.488 728.943 281.113 730.108 280.361C731.274 279.609 732.157 278.557 732.758 277.204C733.397 275.851 733.717 274.347 733.717 272.693C733.717 270.927 733.397 269.386 732.758 268.071C732.119 266.717 731.198 265.646 729.996 264.857C728.83 264.068 727.402 263.673 725.711 263.673C724.057 263.673 722.629 264.068 721.426 264.857C720.223 265.646 719.303 266.717 718.664 268.071C718.062 269.386 717.762 270.927 717.762 272.693C717.762 274.347 718.062 275.851 718.664 277.204C719.265 278.557 720.167 279.609 721.37 280.361C722.573 281.113 724.02 281.488 725.711 281.488ZM749.596 288.028V257.133H756.756V270.382H756.249C756.249 267.225 756.643 264.594 757.433 262.489C758.26 260.384 759.5 258.806 761.154 257.753C762.807 256.701 764.818 256.175 767.186 256.175H767.581C771.189 256.175 773.933 257.359 775.812 259.727C777.729 262.057 778.687 265.609 778.687 270.382V288.028H769.667V269.875C769.667 268.221 769.178 266.868 768.201 265.815C767.224 264.763 765.908 264.237 764.254 264.237C762.563 264.237 761.191 264.782 760.139 265.872C759.124 266.924 758.617 268.315 758.617 270.044V288.028H749.596Z" fill="#1C1259"/>
</g>
<path d="M386.56 320.151C395.393 317.716 402.101 316.647 402.44 317.742C402.78 318.836 396.644 321.75 387.983 324.742C395.951 329.267 401.45 333.254 400.916 334.268C400.382 335.282 393.984 333.004 385.744 328.995C388.178 337.829 389.248 344.536 388.153 344.876C387.059 345.215 384.145 339.08 381.153 330.419C376.628 338.387 372.641 343.886 371.627 343.352C370.613 342.818 372.891 336.419 376.9 328.179C368.066 330.614 361.359 331.683 361.019 330.589C360.68 329.494 366.815 326.58 375.476 323.588C367.508 319.063 362.009 315.077 362.543 314.063C363.077 313.048 369.476 315.327 377.715 319.335C375.281 310.502 374.212 303.794 375.306 303.454C376.401 303.115 379.315 309.25 382.306 317.911C386.831 309.944 390.818 304.444 391.832 304.978C392.846 305.512 390.568 311.911 386.56 320.151Z" fill="#FCD307"/>
<path d="M81.1822 226.243C84.1333 223.028 81.9946 216.549 77.6308 216.549H48.6528C22.2783 216.549 0.897502 240.14 0.897502 269.241C0.897502 298.342 22.2783 321.933 48.6528 321.933H77.6308C81.9946 321.933 84.1333 315.453 81.1823 312.238C71.1258 301.284 64.8933 286.065 64.8933 269.241C64.8933 252.416 71.1258 237.198 81.1822 226.243Z" fill="#FCD307"/>
<path d="M81.1822 226.243C84.1333 223.028 81.9946 216.549 77.6308 216.549H48.6528C22.2783 216.549 0.897502 240.14 0.897502 269.241C0.897502 298.342 22.2783 321.933 48.6528 321.933H77.6308C81.9946 321.933 84.1333 315.453 81.1823 312.238C71.1258 301.284 64.8933 286.065 64.8933 269.241C64.8933 252.416 71.1258 237.198 81.1822 226.243Z" fill="#FCD307"/>
<path fill-rule="evenodd" clip-rule="evenodd" d="M25.409 264.334C24.6848 263.074 24.277 261.65 24.277 260.143C24.277 254.988 29.051 250.809 34.9401 250.809V259.213C35.7446 257.992 36.8613 256.944 38.2618 256.185C43.0415 253.593 49.3165 255.339 52.2775 260.085L44.442 264.335C45.9829 264.372 47.519 264.75 48.9286 265.503C53.7261 268.066 55.2416 274.006 52.3134 278.77L44.4712 274.58C45.1955 275.84 45.6033 277.263 45.6033 278.77C45.6033 283.926 40.8292 288.105 34.9401 288.105V279.7C34.1356 280.922 33.0189 281.969 31.6185 282.729C26.8387 285.321 20.5637 283.574 17.6028 278.828L25.4382 274.579C23.8974 274.542 22.3612 274.164 20.9516 273.411C16.1541 270.847 14.6387 264.907 17.5668 260.143L25.409 264.334ZM34.9457 269.435C34.9439 269.432 34.942 269.429 34.9401 269.426L34.9401 269.435C34.942 269.435 34.9439 269.435 34.9457 269.435ZM34.9401 269.478V269.487L34.9345 269.478L34.9401 269.478Z" fill="#1C1259"/>
<path fill-rule="evenodd" clip-rule="evenodd" d="M25.409 264.334C24.6848 263.074 24.277 261.65 24.277 260.143C24.277 254.988 29.051 250.809 34.9401 250.809V259.213C35.7446 257.992 36.8613 256.944 38.2618 256.185C43.0415 253.593 49.3165 255.339 52.2775 260.085L44.442 264.335C45.9829 264.372 47.519 264.75 48.9286 265.503C53.7261 268.066 55.2416 274.006 52.3134 278.77L44.4712 274.58C45.1955 275.84 45.6033 277.263 45.6033 278.77C45.6033 283.926 40.8292 288.105 34.9401 288.105V279.7C34.1356 280.922 33.0189 281.969 31.6185 282.729C26.8387 285.321 20.5637 283.574 17.6028 278.828L25.4382 274.579C23.8974 274.542 22.3612 274.164 20.9516 273.411C16.1541 270.847 14.6387 264.907 17.5668 260.143L25.409 264.334ZM34.9457 269.435C34.9439 269.432 34.942 269.429 34.9401 269.426L34.9401 269.435C34.942 269.435 34.9439 269.435 34.9457 269.435ZM34.9401 269.478V269.487L34.9345 269.478L34.9401 269.478Z" fill="#1C1259"/>
<path d="M797.506 282.441L781.781 294.07C779.571 295.704 780.228 299.168 782.883 299.88L809.298 306.958" fill="#FDE159"/>
<path d="M861.38 299.556L869.184 317.489C870.281 320.009 867.979 322.681 865.324 321.97L838.91 314.892" fill="#FDE159"/>
<path d="M797.187 282.089L796.951 240.103C796.854 222.767 813.265 210.082 830.018 214.545L867.212 224.453C883.991 228.923 891.908 248.139 883.148 263.131L861.942 299.426C854.041 312.948 838.071 319.514 822.943 315.461C807.821 311.409 797.275 297.745 797.187 282.089Z" fill="#FDE159"/>
<path d="M850.906 298.243L861.494 300.138C854.651 310.829 842.295 317.395 829.806 316.857C829.801 316.858 829.797 316.857 829.792 316.856C829.573 316.847 829.355 316.833 829.137 316.82C829.122 316.818 829.106 316.819 829.093 316.817C828.622 316.786 828.151 316.746 827.681 316.694C827.667 316.695 827.654 316.694 827.641 316.691C826.95 316.614 826.26 316.515 825.573 316.396C825.568 316.397 825.564 316.396 825.557 316.394C824.868 316.273 824.185 316.131 823.506 315.965C823.269 315.908 823.032 315.847 822.795 315.783C815.236 313.758 808.817 309.327 804.279 303.449C803.48 302.415 802.74 301.296 802.064 300.116C799.129 295.002 797.379 288.712 797.106 282.783L807.012 286.482L850.906 298.243Z" fill="#C63755"/>
<path d="M850.905 298.244L807.012 286.483C810.265 287.355 813.737 286.343 816.005 283.851C818.69 280.903 823.796 279.708 831.879 281.874C839.861 284.013 843.548 287.548 844.402 291.329C845.155 294.664 847.602 297.359 850.905 298.244Z" fill="#C63755"/>
<path d="M861.494 300.138C855.705 310.91 842.577 317.44 829.806 316.857C842.295 317.396 854.651 310.829 861.494 300.138Z" fill="#C63755"/>
<path d="M829.137 316.821C829.355 316.834 829.573 316.848 829.792 316.857C829.573 316.848 829.354 316.837 829.137 316.821Z" fill="#C63755"/>
<path d="M827.68 316.695C828.15 316.747 828.621 316.787 829.092 316.818C828.621 316.789 828.15 316.747 827.68 316.695Z" fill="#C63755"/>
<path d="M825.572 316.397C826.259 316.515 826.949 316.614 827.641 316.691C826.951 316.617 826.26 316.518 825.572 316.397Z" fill="#C63755"/>
<path d="M823.506 315.965C824.185 316.131 824.868 316.274 825.557 316.395C824.872 316.275 824.189 316.133 823.506 315.965Z" fill="#C63755"/>
<path opacity="0.35" d="M861.584 300.025C861.584 300.025 854.618 315.452 833.047 316.757C833.047 316.757 815.719 319.635 802.767 301.122C802.767 301.122 797.722 293.575 797.195 282.671C797.195 282.671 802.594 295.364 811.074 303.042C811.074 303.042 821.871 312.968 840.479 310.213C840.479 310.213 850.187 308.82 861.584 300.025Z" fill="#170F4A"/>
<path d="M869.193 216.751L832.241 206.849C813.297 201.773 801.951 182.121 807.027 163.177L810.271 151.071C815.347 132.127 834.999 120.781 853.943 125.857L890.895 135.758C909.838 140.834 921.185 160.486 916.109 179.43L912.865 191.537C907.789 210.48 888.137 221.826 869.193 216.751Z" fill="#FDE159"/>
<path opacity="0.35" d="M914.148 186.745L912.865 191.535C907.789 210.479 888.136 221.825 869.194 216.75L832.24 206.848C813.298 201.773 801.952 182.12 807.028 163.176L808.312 158.386C803.235 177.33 814.582 196.982 833.524 202.058L870.478 211.96C889.42 217.035 909.072 205.689 914.148 186.745Z" fill="#170F4A"/>
<path d="M879.143 147.855C877.323 147.367 875.38 147.762 873.894 148.921L871.696 150.637C870.164 151.834 868.387 152.159 866.811 151.736C865.232 151.313 863.856 150.143 863.128 148.341L862.084 145.758C861.377 144.011 859.891 142.696 858.07 142.208L854.804 141.333C842.472 138.029 829.679 145.415 826.375 157.746L824.312 165.446C821.008 177.778 828.394 190.573 840.727 193.877L868.332 201.274C880.664 204.578 893.457 197.192 896.761 184.861L898.825 177.159C902.129 164.827 894.741 152.034 882.411 148.73L879.143 147.855Z" fill="#FEF0AC"/>
<path d="M830.437 323.591L828.131 326.262C827.673 326.792 826.953 327.014 826.276 326.832C822.347 326.485 818.502 325.487 814.9 323.879L814.367 323.641C813.691 323.46 813.178 322.908 813.046 322.22L812.383 318.753C812.104 317.296 813.585 316.136 814.936 316.749C817.166 317.761 819.502 318.601 821.929 319.251C824.353 319.9 826.793 320.34 829.229 320.58C830.705 320.725 831.407 322.469 830.437 323.591Z" fill="#FDE159"/>
<path opacity="0.35" d="M830.44 323.591L830.292 323.762C830.09 323.102 829.519 322.558 828.722 322.477C826.285 322.238 823.846 321.8 821.42 321.15C818.994 320.5 816.658 319.659 814.429 318.648C813.699 318.317 812.933 318.502 812.427 318.973L812.384 318.753C812.105 317.295 813.587 316.136 814.937 316.749C817.167 317.76 819.503 318.601 821.929 319.251C824.355 319.901 826.794 320.34 829.23 320.579C830.706 320.726 831.407 322.469 830.44 323.591Z" fill="#170F4A"/>
<path d="M843.452 257.84C851.657 249.736 859.861 241.631 868.066 233.527C869.687 231.925 868.957 229.168 866.756 228.578L861.487 227.166C859.132 226.535 856.669 227.43 855.17 229.353C852.864 232.313 848.931 233.769 845.079 232.737C841.227 231.705 838.549 228.477 838.032 224.761C837.696 222.346 836.01 220.339 833.655 219.708L828.439 218.311C826.226 217.718 824.211 219.764 824.838 221.968L834.359 255.448C835.494 259.443 840.497 260.759 843.452 257.84Z" fill="#C63755"/>
<path d="M833.65 276.34C836.918 277.216 840.277 275.277 841.153 272.009C842.028 268.741 840.089 265.382 836.821 264.506C833.553 263.631 830.194 265.57 829.319 268.838C828.443 272.106 830.383 275.465 833.65 276.34Z" fill="#9E2C44"/>
<path d="M914.212 211.532C925.069 197.558 925.581 184.588 936.293 189.848C943.427 193.352 938.287 209.028 927.43 223.002C916.572 236.975 903.996 243.283 899.627 241.217C889.939 236.634 903.354 225.505 914.212 211.532Z" fill="#FDE159"/>
<path opacity="0.35" d="M914.212 211.532C925.07 197.56 925.581 184.589 936.294 189.849C936.497 189.95 936.692 190.059 936.874 190.18C927.296 186.441 927.367 199.217 916.925 212.653C906.531 226.03 892.85 236.533 900.281 241.447C900.047 241.39 899.83 241.312 899.628 241.217C889.939 236.635 903.355 225.507 914.212 211.532Z" fill="#170F4A"/>
<path d="M928.551 221.534C928.551 221.534 924.896 218.823 924.846 218.885C922.838 221.414 919.816 222.359 918.096 220.994C916.374 219.63 916.606 216.471 918.613 213.94C918.617 213.934 914.663 210.937 914.663 210.937" stroke="#C63755" stroke-width="8" stroke-miterlimit="10"/>
<path d="M796.067 179.704C793.651 162.174 799.694 150.685 787.786 149.885C779.856 149.352 776.469 165.498 778.886 183.028C781.302 200.559 789.039 212.31 793.855 212.704C804.537 213.58 798.483 197.234 796.067 179.704Z" fill="#FDE159"/>
<path opacity="0.35" d="M796.068 179.704C793.651 162.175 799.693 150.686 787.786 149.885C787.559 149.871 787.336 149.867 787.118 149.882C797.282 151.432 790.833 162.462 793.157 179.319C795.47 196.1 802.068 212.037 793.175 212.577C793.406 212.644 793.633 212.685 793.855 212.703C804.538 213.581 798.483 197.235 796.068 179.704Z" fill="#170F4A"/>
<path d="M778.649 181.197C778.649 181.197 783.17 180.677 783.181 180.755C783.657 183.949 785.8 186.279 787.973 185.957C790.146 185.636 791.525 182.785 791.052 179.589C791.052 179.582 795.975 178.963 795.975 178.963" stroke="#C63755" stroke-width="8" stroke-miterlimit="10"/>
<path d="M916.212 179.38L912.949 191.557C912.02 195.023 910.599 198.234 908.78 201.134C904.562 197.091 902.759 190.007 904.676 182.852C906.595 175.693 911.696 170.465 917.37 169.076C917.495 172.496 917.14 175.916 916.212 179.38Z" fill="#C63755"/>
<path d="M810.147 150.96L806.885 163.137C805.956 166.603 805.581 170.095 805.707 173.515C811.381 172.124 816.484 166.89 818.402 159.735C820.32 152.576 818.516 145.498 814.297 141.457C812.478 144.357 811.075 147.496 810.147 150.96Z" fill="#C63755"/>
<path opacity="0.35" d="M869.331 319.721C868.773 321.461 867.16 322.373 865.418 322.014L841.096 315.478C849.14 313.308 856.877 308.136 861.044 300.978C861.232 300.655 861.389 300.343 861.583 300.024L862.695 302.581C859.836 306.461 855.53 312.576 850.743 314.486C850.452 314.602 850.295 315.298 850.823 315.452C854.068 316.396 864.622 319.732 869.331 319.721Z" fill="#170F4A"/>
<path opacity="0.35" d="M780.542 295.912C780.155 297.697 781.096 299.294 782.784 299.854L806.978 306.338C801.096 300.437 797.951 292.202 797.259 283.871C797.228 283.5 797.205 283.044 797.196 282.671L794.858 284.386C795.395 289.176 796.066 296.625 799.257 300.672C799.451 300.918 799.239 301.6 798.705 301.469C795.422 300.664 784.614 298.276 780.542 295.912Z" fill="#170F4A"/>
<path d="M805.855 338.361L805.855 338.359" stroke="#FF7500" stroke-miterlimit="10"/>
<path d="M815.804 358.16C816.036 358.358 816.399 358.333 816.663 358.18C816.927 358.026 817.114 357.771 817.287 357.52C817.801 356.778 818.267 356.003 818.684 355.203C818.718 355.139 818.628 355.081 818.582 355.136C818.229 355.551 818.004 355.895 817.551 356.142C817.355 356.249 817.156 356.352 816.943 356.422C816.737 356.49 816.518 356.528 816.328 356.634C816.077 356.775 815.649 357.203 815.587 357.554C815.544 357.8 815.667 357.985 815.804 358.16Z" fill="#D73502"/>
<path d="M810.997 352.494C811.009 352.541 811.094 352.953 810.745 353.6C810.558 353.946 810.513 354.357 810.647 354.726C810.744 354.993 810.927 355.3 811.261 355.617C811.289 355.644 811.336 355.627 811.34 355.589C811.366 355.34 811.447 354.649 811.578 354.249C811.652 354.027 811.67 353.79 811.631 353.56C811.568 353.172 811.406 352.661 811 352.492C810.999 352.491 810.997 352.493 810.997 352.494Z" fill="#FF7500"/>
<path d="M822.527 352.913C822.526 352.841 822.537 352.209 823.262 351.374C823.649 350.929 823.851 350.341 823.776 349.756C823.723 349.332 823.555 348.822 823.17 348.246C823.138 348.198 823.063 348.208 823.045 348.263C822.924 348.619 822.578 349.606 822.253 350.149C822.073 350.45 821.969 350.791 821.949 351.141C821.915 351.731 821.983 352.533 822.522 352.915C822.524 352.917 822.528 352.915 822.527 352.913Z" fill="#FF7500"/>
<path d="M825.141 345.648C825.667 344.072 826.653 342.683 827.068 342.139C827.197 341.971 827.291 341.78 827.346 341.575C828.812 336.103 825.422 330.441 819.773 328.927C814.124 327.414 808.356 330.622 806.89 336.094C806.233 338.547 806.553 341.039 807.615 343.179C807.776 343.506 807.955 343.824 808.153 344.135C808.154 344.137 808.157 344.142 808.158 344.144C811.548 350.345 810.384 351.99 810.384 351.99C811.377 351.367 811.854 349.588 811.854 349.588C813.842 352.977 811.62 357.342 811.62 357.342C819.983 355.461 822.541 347.567 823.08 345.468C823.08 345.467 823.08 345.466 823.08 345.465C823.458 347.73 824.833 348.11 824.833 348.11C824.727 347.3 824.875 346.451 825.141 345.651C825.141 345.65 825.141 345.649 825.141 345.648Z" fill="#D73502"/>
<path d="M823.818 342.466C824.228 341.238 824.996 340.156 825.319 339.733C825.42 339.601 825.493 339.452 825.536 339.293C826.678 335.03 824.037 330.618 819.636 329.439C815.235 328.26 810.741 330.759 809.599 335.022C809.087 336.934 809.336 338.875 810.163 340.542C810.289 340.797 810.428 341.045 810.582 341.287C810.584 341.289 810.586 341.293 810.587 341.295C813.227 346.125 812.321 347.407 812.321 347.407C813.095 346.922 813.466 345.535 813.466 345.535C815.015 348.176 813.283 351.577 813.283 351.577C819.799 350.111 821.792 343.961 822.212 342.325C822.212 342.325 822.212 342.324 822.213 342.324C822.507 344.088 823.578 344.384 823.578 344.384C823.496 343.753 823.61 343.092 823.818 342.468C823.818 342.468 823.818 342.467 823.818 342.466Z" fill="#FF7500"/>
<path d="M822.527 338.446C822.811 337.597 823.341 336.849 823.565 336.556C823.635 336.465 823.685 336.362 823.715 336.252C824.505 333.305 822.679 330.255 819.636 329.439C816.593 328.624 813.486 330.352 812.696 333.3C812.342 334.621 812.514 335.964 813.086 337.116C813.173 337.292 813.27 337.464 813.376 337.631C813.377 337.632 813.378 337.635 813.379 337.636C815.205 340.976 814.578 341.862 814.578 341.862C815.113 341.527 815.37 340.568 815.37 340.568C816.441 342.394 815.244 344.745 815.244 344.745C819.749 343.732 821.127 339.48 821.417 338.349C821.417 338.348 821.417 338.348 821.418 338.348C821.621 339.568 822.362 339.772 822.362 339.772C822.305 339.336 822.384 338.879 822.527 338.447C822.527 338.448 822.527 338.447 822.527 338.446Z" fill="#FAC000"/>
<path d="M842.084 160.037C844.094 162.5 846.103 164.963 848.113 167.426C848.205 166.741 848.297 166.055 848.39 165.37C845.87 166.433 843.35 167.496 840.83 168.559C839.278 169.214 840.604 171.477 842.14 170.828C844.66 169.765 847.18 168.702 849.7 167.639C850.55 167.28 850.445 166.157 849.976 165.583C847.967 163.119 845.957 160.656 843.947 158.193C842.88 156.885 841.027 158.74 842.084 160.037Z" fill="#09061D"/>
<path d="M882.83 168.612C879.858 169.74 876.886 170.868 873.914 171.997C873.222 172.26 872.568 173.18 873.125 173.916C874.776 176.096 876.427 178.277 878.078 180.458C879.083 181.787 881.364 180.491 880.347 179.147C878.696 176.967 877.046 174.786 875.395 172.606C875.132 173.245 874.869 173.885 874.606 174.525C877.578 173.396 880.55 172.268 883.522 171.14C885.084 170.547 884.411 168.012 882.83 168.612Z" fill="#09061D"/>
<defs>
<clipPath id="clip0_1345_1295">
<rect x="81.5605" y="216.549" width="738.985" height="105.384" rx="52.6919" fill="white"/>
</clipPath>
</defs>
</svg>
