<svg width="242" height="288" viewBox="0 0 242 288" fill="none" xmlns="http://www.w3.org/2000/svg">
<path d="M75.5 274.159V144.5C75.5 140.082 79.0817 136.5 83.5 136.5H159.5C163.918 136.5 167.5 140.082 167.5 144.5V274.159C167.5 280.314 160.84 284.163 155.507 281.091L125.493 263.801C123.022 262.377 119.978 262.377 117.507 263.801L87.4934 281.091C82.1601 284.163 75.5 280.314 75.5 274.159Z" fill="#3D3D3D"/>
<path d="M99.6471 32.0982C109.866 16.9767 132.134 16.9767 142.353 32.0982C148.139 40.6605 158.547 44.9253 168.691 42.9506C186.542 39.4754 202.376 55.1607 198.873 73.0066C196.884 83.1377 201.171 93.4731 209.748 99.2208C224.888 109.367 224.888 131.633 209.748 141.779C201.171 147.527 196.884 157.862 198.873 167.993C202.376 185.839 186.542 201.525 168.691 198.049C158.547 196.075 148.139 200.34 142.353 208.902C132.134 224.023 109.866 224.023 99.6471 208.902C93.861 200.34 83.4529 196.075 73.3094 198.049C55.458 201.525 39.6242 185.839 43.1273 167.993C45.1161 157.862 40.8286 147.527 32.252 141.779C17.1118 131.633 17.1118 109.367 32.252 99.2208C40.8286 93.4731 45.1161 83.1377 43.1273 73.0066C39.6242 55.1607 55.458 39.4754 73.3094 42.9506C83.4529 44.9253 93.8611 40.6605 99.6471 32.0982Z" fill="#1C1259"/>
<path d="M99.6471 32.0982C109.866 16.9767 132.134 16.9767 142.353 32.0982C148.139 40.6605 158.547 44.9253 168.691 42.9506C186.542 39.4754 202.376 55.1607 198.873 73.0066C196.884 83.1377 201.171 93.4731 209.748 99.2208C224.888 109.367 224.888 131.633 209.748 141.779C201.171 147.527 196.884 157.862 198.873 167.993C202.376 185.839 186.542 201.525 168.691 198.049C158.547 196.075 148.139 200.34 142.353 208.902C132.134 224.023 109.866 224.023 99.6471 208.902C93.861 200.34 83.4529 196.075 73.3094 198.049C55.458 201.525 39.6242 185.839 43.1273 167.993C45.1161 157.862 40.8286 147.527 32.252 141.779C17.1118 131.633 17.1118 109.367 32.252 99.2208C40.8286 93.4731 45.1161 83.1377 43.1273 73.0066C39.6242 55.1607 55.458 39.4754 73.3094 42.9506C83.4529 44.9253 93.8611 40.6605 99.6471 32.0982Z" fill="#1C1259"/>
<path d="M99.6471 32.0982C109.866 16.9767 132.134 16.9767 142.353 32.0982C148.139 40.6605 158.547 44.9253 168.691 42.9506C186.542 39.4754 202.376 55.1607 198.873 73.0066C196.884 83.1377 201.171 93.4731 209.748 99.2208C224.888 109.367 224.888 131.633 209.748 141.779C201.171 147.527 196.884 157.862 198.873 167.993C202.376 185.839 186.542 201.525 168.691 198.049C158.547 196.075 148.139 200.34 142.353 208.902C132.134 224.023 109.866 224.023 99.6471 208.902C93.861 200.34 83.4529 196.075 73.3094 198.049C55.458 201.525 39.6242 185.839 43.1273 167.993C45.1161 157.862 40.8286 147.527 32.252 141.779C17.1118 131.633 17.1118 109.367 32.252 99.2208C40.8286 93.4731 45.1161 83.1377 43.1273 73.0066C39.6242 55.1607 55.458 39.4754 73.3094 42.9506C83.4529 44.9253 93.8611 40.6605 99.6471 32.0982Z" fill="#1C1259"/>
<path d="M99.6471 32.0982C109.866 16.9767 132.134 16.9767 142.353 32.0982C148.139 40.6605 158.547 44.9253 168.691 42.9506C186.542 39.4754 202.376 55.1607 198.873 73.0066C196.884 83.1377 201.171 93.4731 209.748 99.2208C224.888 109.367 224.888 131.633 209.748 141.779C201.171 147.527 196.884 157.862 198.873 167.993C202.376 185.839 186.542 201.525 168.691 198.049C158.547 196.075 148.139 200.34 142.353 208.902C132.134 224.023 109.866 224.023 99.6471 208.902C93.861 200.34 83.4529 196.075 73.3094 198.049C55.458 201.525 39.6242 185.839 43.1273 167.993C45.1161 157.862 40.8286 147.527 32.252 141.779C17.1118 131.633 17.1118 109.367 32.252 99.2208C40.8286 93.4731 45.1161 83.1377 43.1273 73.0066C39.6242 55.1607 55.458 39.4754 73.3094 42.9506C83.4529 44.9253 93.8611 40.6605 99.6471 32.0982Z" fill="#945821"/>
<path d="M120.22 155.228C114.972 155.228 110.524 154.204 106.876 152.156C103.228 150.108 100.444 147.388 98.5236 143.996C96.6676 140.604 95.7396 136.924 95.7396 132.956H104.764C104.764 137.308 106.14 140.764 108.892 143.324C111.708 145.884 115.484 147.164 120.22 147.164C123.356 147.164 126.076 146.588 128.38 145.436C130.684 144.284 132.476 142.652 133.756 140.54C135.036 138.364 135.676 135.836 135.676 132.956C135.676 128.604 134.268 125.084 131.452 122.396C128.7 119.708 124.988 118.364 120.316 118.364C118.332 118.364 116.604 118.62 115.132 119.132C113.724 119.58 112.476 120.156 111.388 120.86L106.78 112.604L133.564 93.02L132.604 91.292H98.5236V83.42H141.244V96.188L119.068 112.316L112.348 112.604C113.436 112.22 114.62 111.9 115.9 111.644C117.244 111.388 118.812 111.26 120.604 111.26C125.724 111.26 130.076 112.22 133.66 114.14C137.244 116.06 139.964 118.62 141.82 121.82C143.74 125.02 144.7 128.508 144.7 132.284V133.628C144.7 137.34 143.74 140.86 141.82 144.188C139.964 147.452 137.212 150.108 133.564 152.156C129.98 154.204 125.532 155.228 120.22 155.228Z" fill="white"/>
</svg>
