<svg width="242" height="288" viewBox="0 0 242 288" fill="none" xmlns="http://www.w3.org/2000/svg">
<path d="M75.5 274.159V144.5C75.5 140.082 79.0817 136.5 83.5 136.5H159.5C163.918 136.5 167.5 140.082 167.5 144.5V274.159C167.5 280.314 160.84 284.163 155.507 281.091L125.493 263.801C123.022 262.377 119.978 262.377 117.507 263.801L87.4934 281.091C82.1601 284.163 75.5 280.314 75.5 274.159Z" fill="#3D3D3D"/>
<path d="M99.6471 32.0982C109.866 16.9767 132.134 16.9767 142.353 32.0982C148.139 40.6605 158.547 44.9253 168.691 42.9506C186.542 39.4754 202.376 55.1607 198.873 73.0066C196.884 83.1377 201.171 93.4731 209.748 99.2208C224.888 109.367 224.888 131.633 209.748 141.779C201.171 147.527 196.884 157.862 198.873 167.993C202.376 185.839 186.542 201.525 168.691 198.049C158.547 196.075 148.139 200.34 142.353 208.902C132.134 224.023 109.866 224.023 99.6471 208.902C93.861 200.34 83.4529 196.075 73.3094 198.049C55.458 201.525 39.6242 185.839 43.1273 167.993C45.1161 157.862 40.8286 147.527 32.252 141.779C17.1118 131.633 17.1118 109.367 32.252 99.2208C40.8286 93.4731 45.1161 83.1377 43.1273 73.0066C39.6242 55.1607 55.458 39.4754 73.3094 42.9506C83.4529 44.9253 93.8611 40.6605 99.6471 32.0982Z" fill="#1C1259"/>
<path d="M99.6471 32.0982C109.866 16.9767 132.134 16.9767 142.353 32.0982C148.139 40.6605 158.547 44.9253 168.691 42.9506C186.542 39.4754 202.376 55.1607 198.873 73.0066C196.884 83.1377 201.171 93.4731 209.748 99.2208C224.888 109.367 224.888 131.633 209.748 141.779C201.171 147.527 196.884 157.862 198.873 167.993C202.376 185.839 186.542 201.525 168.691 198.049C158.547 196.075 148.139 200.34 142.353 208.902C132.134 224.023 109.866 224.023 99.6471 208.902C93.861 200.34 83.4529 196.075 73.3094 198.049C55.458 201.525 39.6242 185.839 43.1273 167.993C45.1161 157.862 40.8286 147.527 32.252 141.779C17.1118 131.633 17.1118 109.367 32.252 99.2208C40.8286 93.4731 45.1161 83.1377 43.1273 73.0066C39.6242 55.1607 55.458 39.4754 73.3094 42.9506C83.4529 44.9253 93.8611 40.6605 99.6471 32.0982Z" fill="#1C1259"/>
<path d="M99.6471 32.0982C109.866 16.9767 132.134 16.9767 142.353 32.0982C148.139 40.6605 158.547 44.9253 168.691 42.9506C186.542 39.4754 202.376 55.1607 198.873 73.0066C196.884 83.1377 201.171 93.4731 209.748 99.2208C224.888 109.367 224.888 131.633 209.748 141.779C201.171 147.527 196.884 157.862 198.873 167.993C202.376 185.839 186.542 201.525 168.691 198.049C158.547 196.075 148.139 200.34 142.353 208.902C132.134 224.023 109.866 224.023 99.6471 208.902C93.861 200.34 83.4529 196.075 73.3094 198.049C55.458 201.525 39.6242 185.839 43.1273 167.993C45.1161 157.862 40.8286 147.527 32.252 141.779C17.1118 131.633 17.1118 109.367 32.252 99.2208C40.8286 93.4731 45.1161 83.1377 43.1273 73.0066C39.6242 55.1607 55.458 39.4754 73.3094 42.9506C83.4529 44.9253 93.8611 40.6605 99.6471 32.0982Z" fill="#1C1259"/>
<path d="M99.6471 32.0982C109.866 16.9767 132.134 16.9767 142.353 32.0982C148.139 40.6605 158.547 44.9253 168.691 42.9506C186.542 39.4754 202.376 55.1607 198.873 73.0066C196.884 83.1377 201.171 93.4731 209.748 99.2208C224.888 109.367 224.888 131.633 209.748 141.779C201.171 147.527 196.884 157.862 198.873 167.993C202.376 185.839 186.542 201.525 168.691 198.049C158.547 196.075 148.139 200.34 142.353 208.902C132.134 224.023 109.866 224.023 99.6471 208.902C93.861 200.34 83.4529 196.075 73.3094 198.049C55.458 201.525 39.6242 185.839 43.1273 167.993C45.1161 157.862 40.8286 147.527 32.252 141.779C17.1118 131.633 17.1118 109.367 32.252 99.2208C40.8286 93.4731 45.1161 83.1377 43.1273 73.0066C39.6242 55.1607 55.458 39.4754 73.3094 42.9506C83.4529 44.9253 93.8611 40.6605 99.6471 32.0982Z" fill="#FEB82F"/>
<path d="M120.428 153.5V88.028L124.652 91.292H104.876V83.42H129.644V153.5H120.428Z" fill="white"/>
</svg>
