<svg width="242" height="288" viewBox="0 0 242 288" fill="none" xmlns="http://www.w3.org/2000/svg">
<path d="M75.5 274.159V144.5C75.5 140.082 79.0817 136.5 83.5 136.5H159.5C163.918 136.5 167.5 140.082 167.5 144.5V274.159C167.5 280.314 160.84 284.163 155.507 281.091L125.493 263.801C123.022 262.377 119.978 262.377 117.507 263.801L87.4934 281.091C82.1601 284.163 75.5 280.314 75.5 274.159Z" fill="#3D3D3D"/>
<path d="M99.6471 32.0982C109.866 16.9767 132.134 16.9767 142.353 32.0982C148.139 40.6605 158.547 44.9253 168.691 42.9506C186.542 39.4754 202.376 55.1607 198.873 73.0066C196.884 83.1377 201.171 93.4731 209.748 99.2208C224.888 109.367 224.888 131.633 209.748 141.779C201.171 147.527 196.884 157.862 198.873 167.993C202.376 185.839 186.542 201.525 168.691 198.049C158.547 196.075 148.139 200.34 142.353 208.902C132.134 224.023 109.866 224.023 99.6471 208.902C93.861 200.34 83.4529 196.075 73.3094 198.049C55.458 201.525 39.6242 185.839 43.1273 167.993C45.1161 157.862 40.8286 147.527 32.252 141.779C17.1118 131.633 17.1118 109.367 32.252 99.2208C40.8286 93.4731 45.1161 83.1377 43.1273 73.0066C39.6242 55.1607 55.458 39.4754 73.3094 42.9506C83.4529 44.9253 93.8611 40.6605 99.6471 32.0982Z" fill="#1C1259"/>
<path d="M99.6471 32.0982C109.866 16.9767 132.134 16.9767 142.353 32.0982C148.139 40.6605 158.547 44.9253 168.691 42.9506C186.542 39.4754 202.376 55.1607 198.873 73.0066C196.884 83.1377 201.171 93.4731 209.748 99.2208C224.888 109.367 224.888 131.633 209.748 141.779C201.171 147.527 196.884 157.862 198.873 167.993C202.376 185.839 186.542 201.525 168.691 198.049C158.547 196.075 148.139 200.34 142.353 208.902C132.134 224.023 109.866 224.023 99.6471 208.902C93.861 200.34 83.4529 196.075 73.3094 198.049C55.458 201.525 39.6242 185.839 43.1273 167.993C45.1161 157.862 40.8286 147.527 32.252 141.779C17.1118 131.633 17.1118 109.367 32.252 99.2208C40.8286 93.4731 45.1161 83.1377 43.1273 73.0066C39.6242 55.1607 55.458 39.4754 73.3094 42.9506C83.4529 44.9253 93.8611 40.6605 99.6471 32.0982Z" fill="#1C1259"/>
<path d="M99.6471 32.0982C109.866 16.9767 132.134 16.9767 142.353 32.0982C148.139 40.6605 158.547 44.9253 168.691 42.9506C186.542 39.4754 202.376 55.1607 198.873 73.0066C196.884 83.1377 201.171 93.4731 209.748 99.2208C224.888 109.367 224.888 131.633 209.748 141.779C201.171 147.527 196.884 157.862 198.873 167.993C202.376 185.839 186.542 201.525 168.691 198.049C158.547 196.075 148.139 200.34 142.353 208.902C132.134 224.023 109.866 224.023 99.6471 208.902C93.861 200.34 83.4529 196.075 73.3094 198.049C55.458 201.525 39.6242 185.839 43.1273 167.993C45.1161 157.862 40.8286 147.527 32.252 141.779C17.1118 131.633 17.1118 109.367 32.252 99.2208C40.8286 93.4731 45.1161 83.1377 43.1273 73.0066C39.6242 55.1607 55.458 39.4754 73.3094 42.9506C83.4529 44.9253 93.8611 40.6605 99.6471 32.0982Z" fill="#1C1259"/>
<path d="M99.6471 32.0982C109.866 16.9767 132.134 16.9767 142.353 32.0982C148.139 40.6605 158.547 44.9253 168.691 42.9506C186.542 39.4754 202.376 55.1607 198.873 73.0066C196.884 83.1377 201.171 93.4731 209.748 99.2208C224.888 109.367 224.888 131.633 209.748 141.779C201.171 147.527 196.884 157.862 198.873 167.993C202.376 185.839 186.542 201.525 168.691 198.049C158.547 196.075 148.139 200.34 142.353 208.902C132.134 224.023 109.866 224.023 99.6471 208.902C93.861 200.34 83.4529 196.075 73.3094 198.049C55.458 201.525 39.6242 185.839 43.1273 167.993C45.1161 157.862 40.8286 147.527 32.252 141.779C17.1118 131.633 17.1118 109.367 32.252 99.2208C40.8286 93.4731 45.1161 83.1377 43.1273 73.0066C39.6242 55.1607 55.458 39.4754 73.3094 42.9506C83.4529 44.9253 93.8611 40.6605 99.6471 32.0982Z" fill="#B6B6B6"/>
<path d="M98.1241 153.5V141.98C98.1241 139.164 98.5081 136.764 99.2761 134.78C100.108 132.796 101.516 131.004 103.5 129.404C105.484 127.74 108.172 126.14 111.564 124.604L124.716 118.556C127.916 117.084 130.444 115.196 132.3 112.892C134.156 110.524 135.084 107.484 135.084 103.772C135.084 99.292 133.836 95.804 131.34 93.308C128.844 90.812 125.324 89.564 120.78 89.564C116.3 89.564 112.78 90.812 110.22 93.308C107.66 95.804 106.38 99.292 106.38 103.772H97.3561C97.3561 99.74 98.1881 96.028 99.8521 92.636C101.58 89.244 104.172 86.556 107.628 84.572C111.084 82.524 115.468 81.5 120.78 81.5C126.092 81.5 130.444 82.524 133.836 84.572C137.292 86.556 139.852 89.18 141.516 92.444C143.244 95.708 144.108 99.26 144.108 103.1V104.444C144.108 109.5 142.636 113.756 139.692 117.212C136.812 120.668 132.908 123.516 127.98 125.756L114.828 131.804C111.884 133.148 109.9 134.492 108.876 135.836C107.852 137.18 107.34 138.972 107.34 141.212V150.044L104.844 145.628H144.972V153.5H98.1241Z" fill="white"/>
</svg>
