<svg width="292" height="260" viewBox="0 0 292 260" fill="none" xmlns="http://www.w3.org/2000/svg">
<path d="M222.994 9.94573C223.02 57.0577 223.046 104.166 223.073 151.27C223.086 158.344 220.206 162.305 214.755 163.074C212.466 163.34 210.157 162.786 208.217 161.507C169.269 138.425 130.322 115.344 91.3742 92.2621C85.3821 88.6672 84.6028 84.2507 88.1741 76.5637L122.368 56.3133C124.175 57.2844 125.335 58.9237 126.505 60.5783C130.877 66.909 137.368 71.3627 144.733 73.0835C152.096 74.8048 159.813 73.6722 166.401 69.9029C179.801 62.1203 185.262 44.9565 179.125 29.9462C178.309 27.9497 177.258 26.0307 177.331 23.7628L210.759 3.96633C215.069 3.12797 218.58 4.8349 221.764 7.65376L222.994 9.94573Z" fill="white"/>
<path d="M66.4749 248.234C66.5442 227.885 66.6081 207.532 66.6668 187.175C66.6896 160.785 66.6785 134.388 66.6336 107.984C66.643 97.5995 73.7034 93.3263 82.4034 98.4708C120.801 121.245 159.051 144.128 197.562 166.61C205.272 171.106 205.722 181.107 197.433 185.137C188.021 189.691 179.222 195.566 170.274 201.069C167.372 202.859 165.795 202.701 163.722 199.653C154.601 186.216 138.618 181.864 125.15 188.819C111.012 196.172 104.694 211.496 109.502 226.966C109.632 227.39 109.747 227.842 109.886 228.229C112.48 235.183 112.48 235.183 106.289 238.85C98.4903 243.469 90.5024 247.822 82.9606 252.808C78.3347 255.854 74.1166 256.24 69.4752 253.529L66.4749 248.234Z" fill="white"/>
<g clip-path="url(#clip0_381_1190)">
<path d="M95.529 200.958L57.2332 162.662C61.0207 152.983 58.9165 141.621 50.9207 133.625C42.5041 125.208 29.8791 123.525 19.7791 128.154L37.8749 146.25L25.2499 158.875L6.73322 140.779C1.68322 150.879 3.78739 163.504 12.2041 171.921C20.1999 179.917 31.5624 182.021 41.2416 178.233L79.5374 216.529C81.2207 218.212 83.7457 218.212 85.429 216.529L95.1082 206.85C97.2124 205.167 97.2124 202.221 95.529 200.958Z" fill="white"/>
</g>
<g clip-path="url(#clip1_381_1190)">
<path d="M267.294 85.7785C267.498 84.2535 267.599 82.6777 267.599 81.0002C267.599 79.3735 267.498 77.7469 267.244 76.2219L277.563 68.1902C278.478 67.4785 278.732 66.106 278.173 65.0894L268.413 48.2127C267.803 47.0944 266.532 46.7385 265.414 47.0944L253.264 51.9744C250.723 50.0427 248.029 48.416 245.029 47.196L243.199 34.2844C242.996 33.0644 241.979 32.2002 240.759 32.2002H221.239C220.019 32.2002 219.054 33.0644 218.85 34.2844L217.02 47.196C214.021 48.416 211.276 50.0935 208.785 51.9744L196.636 47.0944C195.518 46.6877 194.247 47.0944 193.637 48.2127L183.928 65.0894C183.318 66.1569 183.521 67.4785 184.538 68.1902L194.857 76.2219C194.603 77.7469 194.399 79.4244 194.399 81.0002C194.399 82.576 194.501 84.2535 194.755 85.7785L184.436 93.8102C183.521 94.5219 183.267 95.8944 183.826 96.911L193.586 113.788C194.196 114.906 195.467 115.262 196.585 114.906L208.734 110.026C211.276 111.958 213.97 113.584 216.969 114.804L218.799 127.716C219.054 128.936 220.019 129.8 221.239 129.8H240.759C241.979 129.8 242.996 128.936 243.149 127.716L244.979 114.804C247.978 113.584 250.723 111.958 253.214 110.026L265.363 114.906C266.481 115.313 267.752 114.906 268.362 113.788L278.122 96.911C278.732 95.7927 278.478 94.5219 277.512 93.8102L267.294 85.7785ZM230.999 99.3002C220.934 99.3002 212.699 91.0652 212.699 81.0002C212.699 70.9352 220.934 62.7002 230.999 62.7002C241.064 62.7002 249.299 70.9352 249.299 81.0002C249.299 91.0652 241.064 99.3002 230.999 99.3002Z" fill="white"/>
</g>
<defs>
<clipPath id="clip0_381_1190">
<rect width="101" height="101" fill="white" transform="translate(0 121)"/>
</clipPath>
<clipPath id="clip1_381_1190">
<rect width="122" height="122" fill="white" transform="translate(170 20)"/>
</clipPath>
</defs>
</svg>
