<svg width="946" height="966" viewBox="0 0 946 966" fill="none" xmlns="http://www.w3.org/2000/svg">
<g clip-path="url(#clip0_1686_904)">
<rect x="83" y="181.066" width="574" height="161" rx="80.5" fill="white"/>
<path d="M540 293.566C540 268.411 523.144 247.028 499.666 239.226C489.184 235.742 480 245.02 480 256.066V293.566C480 325.322 506.863 351.066 540 351.066C573.137 351.066 600 325.322 600 293.566V256.066C600 245.02 590.816 235.742 580.334 239.226C556.856 247.028 540 268.411 540 293.566Z" fill="#EE4266"/>
</g>
<path d="M564 372.066C575.046 372.066 584 381.02 584 392.066V517.066C584 528.112 575.046 537.066 564 537.066H264C252.954 537.066 244 528.112 244 517.066V392.066C244 381.02 252.954 372.066 264 372.066L564 372.066Z" fill="#FCD307"/>
<path d="M778 372.066C789.046 372.066 798 381.02 798 392.066V517.066C798 528.112 789.046 537.066 778 537.066H478C466.954 537.066 458 528.112 458 517.066V392.066C458 381.02 466.954 372.066 478 372.066L778 372.066Z" fill="#FCD307"/>
<path d="M806.534 372.066C812.239 372.066 817.673 374.502 821.468 378.762L877.148 441.262C883.903 448.845 883.903 460.287 877.148 467.87L821.468 530.37C817.673 534.63 812.239 537.066 806.534 537.066H729.595C718.773 537.066 710 528.293 710 517.471C710 506.649 718.773 497.876 729.595 497.876H741.26C767.649 497.876 789.042 478.486 789.042 454.566C789.042 430.646 767.649 411.255 741.26 411.255H729.595C718.773 411.255 710 402.483 710 391.661C710 380.839 718.773 372.066 729.595 372.066H806.534Z" fill="#FCD307"/>
<path d="M182.701 299.726V284.106H200.411C203.418 284.106 205.655 283.336 207.121 281.796C208.588 280.256 209.321 278.019 209.321 275.086C209.321 272.153 208.588 269.953 207.121 268.486C205.655 266.946 203.418 266.176 200.411 266.176H182.701V254.076H199.751C205.398 254.076 210.458 254.773 214.931 256.166C219.405 257.486 222.925 259.686 225.491 262.766C228.058 265.846 229.341 269.953 229.341 275.086V276.626C229.341 281.466 228.205 285.609 225.931 289.056C223.658 292.503 220.321 295.143 215.921 296.976C211.521 298.809 206.131 299.726 199.751 299.726H182.701ZM165.101 299.726V218.106H184.901V299.726H165.101ZM182.701 263.096V250.996H197.441C200.448 250.996 202.611 250.263 203.931 248.796C205.325 247.256 206.021 245.129 206.021 242.416C206.021 239.629 205.325 237.503 203.931 236.036C202.611 234.496 200.448 233.726 197.441 233.726H182.701V218.106H196.561C205.948 218.106 213.208 220.086 218.341 224.046C223.475 227.933 226.041 233.506 226.041 240.766V242.416C226.041 247.476 224.721 251.546 222.081 254.626C219.515 257.633 215.995 259.796 211.521 261.116C207.121 262.436 202.135 263.096 196.561 263.096H182.701ZM263.363 301.046C256.47 301.046 251.116 298.809 247.303 294.336C243.563 289.789 241.693 282.859 241.693 273.546V238.346H261.713V274.096C261.713 276.809 262.52 279.009 264.133 280.696C265.746 282.383 267.91 283.226 270.623 283.226C273.336 283.226 275.536 282.383 277.223 280.696C278.91 279.009 279.753 276.736 279.753 273.876V238.346H299.773V299.066H283.933V273.546H285.033C285.033 279.779 284.226 284.949 282.613 289.056C281.073 293.089 278.763 296.096 275.683 298.076C272.603 300.056 268.79 301.046 264.243 301.046H263.363ZM319.616 299.066V238.346H339.636V299.066H319.616ZM311.916 252.866V238.346H339.636V252.866H311.916ZM327.866 233.506C324.199 233.506 321.486 232.589 319.726 230.756C318.039 228.849 317.196 226.429 317.196 223.496C317.196 220.563 318.039 218.179 319.726 216.346C321.486 214.439 324.163 213.486 327.756 213.486C331.423 213.486 334.099 214.439 335.786 216.346C337.473 218.179 338.316 220.563 338.316 223.496C338.316 226.429 337.473 228.849 335.786 230.756C334.099 232.589 331.459 233.506 327.866 233.506ZM357.434 299.066V218.766H377.454V299.066H357.434ZM350.614 233.286V218.766H377.454V233.286H350.614ZM419.388 301.046C415.135 301.046 411.248 300.276 407.728 298.736C404.281 297.196 401.275 295.069 398.708 292.356C396.215 289.569 394.271 286.306 392.878 282.566C391.558 278.826 390.898 274.756 390.898 270.356V267.716C390.898 263.316 391.521 259.246 392.768 255.506C394.088 251.693 395.958 248.393 398.378 245.606C400.798 242.746 403.731 240.546 407.178 239.006C410.625 237.393 414.475 236.586 418.728 236.586C423.641 236.586 427.821 237.686 431.268 239.886C434.788 242.013 437.465 245.129 439.298 249.236C441.205 253.343 442.231 258.329 442.378 264.196L437.758 260.786V218.766H457.778V299.066H441.938V274.426H444.138C443.991 279.853 442.891 284.583 440.838 288.616C438.785 292.576 435.925 295.656 432.258 297.856C428.665 299.983 424.375 301.046 419.388 301.046ZM424.778 284.546C427.198 284.546 429.398 283.996 431.378 282.896C433.431 281.796 435.081 280.183 436.328 278.056C437.575 275.929 438.198 273.363 438.198 270.356V266.616C438.198 263.683 437.538 261.226 436.218 259.246C434.971 257.266 433.321 255.763 431.268 254.736C429.288 253.636 427.125 253.086 424.778 253.086C422.138 253.086 419.755 253.783 417.628 255.176C415.575 256.496 413.925 258.366 412.678 260.786C411.505 263.133 410.918 265.883 410.918 269.036C410.918 272.189 411.505 274.939 412.678 277.286C413.925 279.559 415.575 281.356 417.628 282.676C419.755 283.923 422.138 284.546 424.778 284.546Z" fill="#1C1259"/>
<path d="M730.411 179.576C743.113 160.702 770.887 160.702 783.589 179.576C790.783 190.267 803.68 195.609 816.327 193.137C838.654 188.772 858.294 208.412 853.929 230.739C851.457 243.386 856.799 256.283 867.49 263.477C886.364 276.179 886.364 303.953 867.49 316.655C856.799 323.849 851.457 336.746 853.929 349.393C858.294 371.72 838.654 391.36 816.327 386.995C803.68 384.523 790.783 389.865 783.589 400.555C770.887 419.43 743.113 419.43 730.411 400.555C723.217 389.865 710.32 384.523 697.673 386.995C675.346 391.36 655.706 371.72 660.071 349.393C662.543 336.746 657.201 323.849 646.51 316.655C627.636 303.953 627.636 276.179 646.511 263.477C657.201 256.283 662.543 243.386 660.071 230.739C655.706 208.412 675.346 188.772 697.673 193.137C710.32 195.609 723.217 190.267 730.411 179.576Z" fill="#1C1259"/>
<path d="M730.411 179.576C743.113 160.702 770.887 160.702 783.589 179.576C790.783 190.267 803.68 195.609 816.327 193.137C838.654 188.772 858.294 208.412 853.929 230.739C851.457 243.386 856.799 256.283 867.49 263.477C886.364 276.179 886.364 303.953 867.49 316.655C856.799 323.849 851.457 336.746 853.929 349.393C858.294 371.72 838.654 391.36 816.327 386.995C803.68 384.523 790.783 389.865 783.589 400.555C770.887 419.43 743.113 419.43 730.411 400.555C723.217 389.865 710.32 384.523 697.673 386.995C675.346 391.36 655.706 371.72 660.071 349.393C662.543 336.746 657.201 323.849 646.51 316.655C627.636 303.953 627.636 276.179 646.511 263.477C657.201 256.283 662.543 243.386 660.071 230.739C655.706 208.412 675.346 188.772 697.673 193.137C710.32 195.609 723.217 190.267 730.411 179.576Z" fill="#1C1259"/>
<path d="M730.411 179.576C743.113 160.702 770.887 160.702 783.589 179.576C790.783 190.267 803.68 195.609 816.327 193.137C838.654 188.772 858.294 208.412 853.929 230.739C851.457 243.386 856.799 256.283 867.49 263.477C886.364 276.179 886.364 303.953 867.49 316.655C856.799 323.849 851.457 336.746 853.929 349.393C858.294 371.72 838.654 391.36 816.327 386.995C803.68 384.523 790.783 389.865 783.589 400.555C770.887 419.43 743.113 419.43 730.411 400.555C723.217 389.865 710.32 384.523 697.673 386.995C675.346 391.36 655.706 371.72 660.071 349.393C662.543 336.746 657.201 323.849 646.51 316.655C627.636 303.953 627.636 276.179 646.511 263.477C657.201 256.283 662.543 243.386 660.071 230.739C655.706 208.412 675.346 188.772 697.673 193.137C710.32 195.609 723.217 190.267 730.411 179.576Z" fill="#1C1259"/>
<path d="M730.411 179.576C743.113 160.702 770.887 160.702 783.589 179.576C790.783 190.267 803.68 195.609 816.327 193.137C838.654 188.772 858.294 208.412 853.929 230.739C851.457 243.386 856.799 256.283 867.49 263.477C886.364 276.179 886.364 303.953 867.49 316.655C856.799 323.849 851.457 336.746 853.929 349.393C858.294 371.72 838.654 391.36 816.327 386.995C803.68 384.523 790.783 389.865 783.589 400.555C770.887 419.43 743.113 419.43 730.411 400.555C723.217 389.865 710.32 384.523 697.673 386.995C675.346 391.36 655.706 371.72 660.071 349.393C662.543 336.746 657.201 323.849 646.51 316.655C627.636 303.953 627.636 276.179 646.511 263.477C657.201 256.283 662.543 243.386 660.071 230.739C655.706 208.412 675.346 188.772 697.673 193.137C710.32 195.609 723.217 190.267 730.411 179.576Z" fill="#EE4266"/>
<path d="M714.431 317.706C709.631 317.706 705.791 317.119 702.911 315.946C700.084 314.773 698.031 312.826 696.751 310.106C695.471 307.386 694.831 303.706 694.831 299.066L694.911 261.386H708.351L708.271 299.466C708.271 301.439 708.778 302.959 709.791 304.026C710.858 305.039 712.378 305.546 714.351 305.546H720.431V317.706H714.431ZM688.431 283.466V272.906H720.431V283.466H688.431ZM728.235 317.066V258.666H742.795V291.946H740.875C740.875 287.466 741.435 283.706 742.555 280.666C743.675 277.626 745.302 275.333 747.435 273.786C749.622 272.239 752.315 271.466 755.515 271.466H756.155C760.955 271.466 764.608 273.199 767.115 276.666C769.675 280.133 770.955 285.226 770.955 291.946V317.066H756.395V291.386C756.395 289.359 755.782 287.706 754.555 286.426C753.328 285.093 751.702 284.426 749.675 284.426C747.648 284.426 745.995 285.093 744.715 286.426C743.435 287.706 742.795 289.413 742.795 291.546V317.066H728.235ZM801.455 318.666C797.722 318.666 794.415 318.026 791.535 316.746C788.655 315.466 786.228 313.733 784.255 311.546C782.282 309.359 780.762 306.906 779.695 304.186C778.682 301.466 778.175 298.666 778.175 295.786V294.186C778.175 291.199 778.682 288.346 779.695 285.626C780.762 282.853 782.255 280.399 784.175 278.266C786.148 276.133 788.548 274.453 791.375 273.226C794.202 271.946 797.402 271.306 800.975 271.306C805.722 271.306 809.748 272.373 813.055 274.506C816.362 276.639 818.895 279.466 820.655 282.986C822.415 286.453 823.295 290.239 823.295 294.346V298.986H784.255V291.146H814.895L809.855 294.666C809.855 292.159 809.508 290.053 808.815 288.346C808.175 286.586 807.188 285.253 805.855 284.346C804.575 283.439 802.948 282.986 800.975 282.986C799.055 282.986 797.375 283.439 795.935 284.346C794.548 285.199 793.482 286.533 792.735 288.346C791.988 290.106 791.615 292.346 791.615 295.066C791.615 297.519 791.962 299.653 792.655 301.466C793.348 303.226 794.415 304.586 795.855 305.546C797.295 306.506 799.162 306.986 801.455 306.986C803.482 306.986 805.135 306.639 806.415 305.946C807.748 305.253 808.682 304.319 809.215 303.146H822.495C821.855 306.133 820.575 308.799 818.655 311.146C816.788 313.493 814.388 315.333 811.455 316.666C808.575 317.999 805.242 318.666 801.455 318.666Z" fill="white"/>
<path d="M140.432 372.066C151.477 372.066 160.432 381.02 160.432 392.066V517.066C160.432 528.112 151.477 537.066 140.432 537.066H88C76.9543 537.066 68 528.112 68 517.066L68 392.066C68 381.02 76.9543 372.066 88 372.066H140.432Z" fill="#FCD307"/>
<path d="M165.995 372.066C171.937 372.066 177.571 374.708 181.371 379.276L233.361 441.776C239.526 449.188 239.526 459.944 233.361 467.356L181.371 529.856C177.571 534.424 171.937 537.066 165.995 537.066H96.4582C85.6363 537.066 76.8634 528.293 76.8634 517.471C76.8634 506.649 85.6363 497.876 96.4582 497.876H106.052C130.692 497.876 150.667 478.486 150.667 454.566C150.667 430.646 130.692 411.255 106.052 411.255H96.4582C85.6363 411.255 76.8634 402.483 76.8634 391.661C76.8634 380.839 85.6363 372.066 96.4582 372.066H165.995Z" fill="#FCD307"/>
<path fill-rule="evenodd" clip-rule="evenodd" d="M128.428 409.097C129.376 407.887 130.828 407.18 132.365 407.18H161.164C165.371 407.18 167.697 412.059 165.048 415.328L151.232 432.377C148.583 435.645 150.909 440.525 155.116 440.525H182.523C187.067 440.525 189.255 446.096 185.926 449.188L125.15 505.646C121.093 509.414 114.827 504.772 117.251 499.794L129.39 474.86C131.007 471.539 128.588 467.671 124.894 467.671H92.827C88.6586 467.671 86.3204 462.87 88.8903 459.588L128.428 409.097Z" fill="#1C1259"/>
<path d="M98.5807 364.015C116.788 359.319 130.561 357.27 131.179 359.402C131.798 361.534 119.068 367.175 101.176 372.956C117.14 381.8 128.099 389.585 126.939 391.556C125.779 393.527 112.866 389.063 96.3116 381.223C100.681 398.426 102.407 411.485 100.148 412.14C97.8895 412.796 92.3571 400.841 86.838 383.972C77.0526 399.457 68.5351 410.14 66.5004 409.096C64.4656 408.052 69.5549 395.61 78.3043 379.594C60.0967 384.289 46.3245 386.339 45.7058 384.207C45.0871 382.075 57.8168 376.433 75.7094 370.652C59.7454 361.808 48.7861 354.024 49.9459 352.053C51.1056 350.082 64.0189 354.545 80.5735 362.386C76.2045 345.183 74.4779 332.124 76.7368 331.469C78.9956 330.813 84.528 342.767 90.0471 359.636C99.8325 344.152 108.35 333.469 110.385 334.513C112.419 335.557 107.33 347.999 98.5807 364.015Z" fill="#EE4266"/>
<path d="M291.025 482.386V468.466H300.625C303.132 468.466 305.372 468.119 307.345 467.426C309.372 466.679 311.078 465.639 312.465 464.306C313.852 462.919 314.918 461.266 315.665 459.346C316.412 457.373 316.785 455.159 316.785 452.706C316.785 450.146 316.412 447.906 315.665 445.986C314.918 444.013 313.852 442.386 312.465 441.106C311.078 439.773 309.372 438.786 307.345 438.146C305.372 437.453 303.132 437.106 300.625 437.106H291.025V423.186H299.985C305.265 423.186 309.878 423.933 313.825 425.426C317.825 426.919 321.158 428.999 323.825 431.666C326.492 434.279 328.492 437.319 329.825 440.786C331.158 444.253 331.825 447.933 331.825 451.826V453.586C331.825 457.159 331.158 460.679 329.825 464.146C328.492 467.559 326.492 470.653 323.825 473.426C321.158 476.146 317.825 478.333 313.825 479.986C309.878 481.586 305.265 482.386 299.985 482.386H291.025ZM277.745 482.386V423.186H292.625V482.386H277.745ZM361.691 483.666C357.957 483.666 354.651 483.026 351.771 481.746C348.891 480.466 346.464 478.733 344.491 476.546C342.517 474.359 340.997 471.906 339.931 469.186C338.917 466.466 338.411 463.666 338.411 460.786V459.186C338.411 456.199 338.917 453.346 339.931 450.626C340.997 447.853 342.491 445.399 344.411 443.266C346.384 441.133 348.784 439.453 351.611 438.226C354.437 436.946 357.637 436.306 361.211 436.306C365.957 436.306 369.984 437.373 373.291 439.506C376.597 441.639 379.131 444.466 380.891 447.986C382.651 451.453 383.531 455.239 383.531 459.346V463.986H344.491V456.146H375.131L370.091 459.666C370.091 457.159 369.744 455.053 369.051 453.346C368.411 451.586 367.424 450.253 366.091 449.346C364.811 448.439 363.184 447.986 361.211 447.986C359.291 447.986 357.611 448.439 356.171 449.346C354.784 450.199 353.717 451.533 352.971 453.346C352.224 455.106 351.851 457.346 351.851 460.066C351.851 462.519 352.197 464.653 352.891 466.466C353.584 468.226 354.651 469.586 356.091 470.546C357.531 471.506 359.397 471.986 361.691 471.986C363.717 471.986 365.371 471.639 366.651 470.946C367.984 470.253 368.917 469.319 369.451 468.146H382.731C382.091 471.133 380.811 473.799 378.891 476.146C377.024 478.493 374.624 480.333 371.691 481.666C368.811 482.999 365.477 483.666 361.691 483.666ZM413.525 483.666C409.792 483.666 406.485 483.026 403.605 481.746C400.725 480.466 398.298 478.733 396.325 476.546C394.352 474.359 392.832 471.906 391.765 469.186C390.752 466.466 390.245 463.666 390.245 460.786V459.186C390.245 456.199 390.752 453.346 391.765 450.626C392.832 447.853 394.325 445.399 396.245 443.266C398.218 441.133 400.618 439.453 403.445 438.226C406.272 436.946 409.472 436.306 413.045 436.306C417.792 436.306 421.818 437.373 425.125 439.506C428.432 441.639 430.965 444.466 432.725 447.986C434.485 451.453 435.365 455.239 435.365 459.346V463.986H396.325V456.146H426.965L421.925 459.666C421.925 457.159 421.578 455.053 420.885 453.346C420.245 451.586 419.258 450.253 417.925 449.346C416.645 448.439 415.018 447.986 413.045 447.986C411.125 447.986 409.445 448.439 408.005 449.346C406.618 450.199 405.552 451.533 404.805 453.346C404.058 455.106 403.685 457.346 403.685 460.066C403.685 462.519 404.032 464.653 404.725 466.466C405.418 468.226 406.485 469.586 407.925 470.546C409.365 471.506 411.232 471.986 413.525 471.986C415.552 471.986 417.205 471.639 418.485 470.946C419.818 470.253 420.752 469.319 421.285 468.146H434.565C433.925 471.133 432.645 473.799 430.725 476.146C428.858 478.493 426.458 480.333 423.525 481.666C420.645 482.999 417.312 483.666 413.525 483.666ZM444.639 498.066V437.906H456.159V456.946H454.879C455.039 452.626 455.893 448.946 457.439 445.906C459.039 442.866 461.199 440.573 463.919 439.026C466.639 437.426 469.759 436.626 473.279 436.626C476.319 436.626 479.066 437.186 481.519 438.306C483.973 439.373 486.079 440.919 487.839 442.946C489.599 444.919 490.933 447.266 491.839 449.986C492.799 452.706 493.279 455.693 493.279 458.946V460.866C493.279 464.119 492.853 467.133 491.999 469.906C491.146 472.626 489.866 475.026 488.159 477.106C486.453 479.133 484.346 480.706 481.839 481.826C479.386 482.946 476.559 483.506 473.359 483.506C469.946 483.506 466.933 482.839 464.319 481.506C461.706 480.119 459.626 478.066 458.079 475.346C456.586 472.573 455.786 469.106 455.679 464.946L459.199 469.266V498.066H444.639ZM468.959 471.506C470.879 471.506 472.559 471.026 473.999 470.066C475.493 469.053 476.639 467.666 477.439 465.906C478.293 464.146 478.719 462.146 478.719 459.906C478.719 457.613 478.293 455.639 477.439 453.986C476.639 452.279 475.519 450.973 474.079 450.066C472.639 449.106 470.933 448.626 468.959 448.626C467.199 448.626 465.546 449.026 463.999 449.826C462.506 450.626 461.279 451.799 460.319 453.346C459.359 454.893 458.879 456.759 458.879 458.946V461.666C458.879 463.746 459.386 465.533 460.399 467.026C461.413 468.466 462.693 469.586 464.239 470.386C465.786 471.133 467.359 471.506 468.959 471.506ZM521.448 482.066V423.666H536.328V482.066H521.448ZM534.728 482.066V469.106H558.408V482.066H534.728ZM587.425 483.666C583.692 483.666 580.385 483.026 577.505 481.746C574.625 480.466 572.198 478.733 570.225 476.546C568.252 474.359 566.732 471.906 565.665 469.186C564.652 466.466 564.145 463.666 564.145 460.786V459.186C564.145 456.199 564.652 453.346 565.665 450.626C566.732 447.853 568.225 445.399 570.145 443.266C572.118 441.133 574.518 439.453 577.345 438.226C580.172 436.946 583.372 436.306 586.945 436.306C591.692 436.306 595.718 437.373 599.025 439.506C602.332 441.639 604.865 444.466 606.625 447.986C608.385 451.453 609.265 455.239 609.265 459.346V463.986H570.225V456.146H600.865L595.825 459.666C595.825 457.159 595.478 455.053 594.785 453.346C594.145 451.586 593.158 450.253 591.825 449.346C590.545 448.439 588.918 447.986 586.945 447.986C585.025 447.986 583.345 448.439 581.905 449.346C580.518 450.199 579.452 451.533 578.705 453.346C577.958 455.106 577.585 457.346 577.585 460.066C577.585 462.519 577.932 464.653 578.625 466.466C579.318 468.226 580.385 469.586 581.825 470.546C583.265 471.506 585.132 471.986 587.425 471.986C589.452 471.986 591.105 471.639 592.385 470.946C593.718 470.253 594.652 469.319 595.185 468.146H608.465C607.825 471.133 606.545 473.799 604.625 476.146C602.758 478.493 600.358 480.333 597.425 481.666C594.545 482.999 591.212 483.666 587.425 483.666ZM645.259 482.066V469.106H642.859V455.266C642.859 453.239 642.379 451.746 641.419 450.786C640.513 449.773 638.993 449.266 636.859 449.266C635.846 449.266 634.353 449.293 632.379 449.346C630.406 449.399 628.326 449.479 626.139 449.586C623.953 449.693 621.953 449.799 620.139 449.906V437.746C621.419 437.639 622.939 437.533 624.699 437.426C626.459 437.319 628.273 437.239 630.139 437.186C632.059 437.133 633.819 437.106 635.419 437.106C639.953 437.106 643.793 437.773 646.939 439.106C650.139 440.439 652.566 442.439 654.219 445.106C655.926 447.773 656.779 451.159 656.779 455.266V482.066H645.259ZM631.259 483.186C628.166 483.186 625.419 482.626 623.019 481.506C620.619 480.386 618.726 478.786 617.339 476.706C616.006 474.573 615.339 472.039 615.339 469.106C615.339 465.799 616.219 463.133 617.979 461.106C619.739 459.026 622.166 457.506 625.259 456.546C628.353 455.586 631.899 455.106 635.899 455.106H644.459V462.626H635.899C633.926 462.626 632.406 463.133 631.339 464.146C630.273 465.106 629.739 466.413 629.739 468.066C629.739 469.666 630.273 470.973 631.339 471.986C632.406 472.946 633.926 473.426 635.899 473.426C637.179 473.426 638.299 473.213 639.259 472.786C640.273 472.306 641.099 471.506 641.739 470.386C642.379 469.266 642.753 467.719 642.859 465.746L646.219 468.946C645.953 471.986 645.206 474.573 643.979 476.706C642.806 478.786 641.153 480.386 639.019 481.506C636.939 482.626 634.353 483.186 631.259 483.186ZM668.108 482.066V437.906H679.628V457.106H679.468C679.468 450.919 680.748 446.066 683.308 442.546C685.921 439.026 689.655 437.266 694.508 437.266H696.268V449.746H692.908C689.655 449.746 687.121 450.626 685.308 452.386C683.548 454.146 682.668 456.679 682.668 459.986V482.066H668.108ZM703.614 482.066V437.906H715.134V456.866H714.494C714.494 452.279 715.081 448.493 716.254 445.506C717.428 442.466 719.161 440.199 721.454 438.706C723.801 437.213 726.628 436.466 729.934 436.466H730.574C735.588 436.466 739.454 438.146 742.174 441.506C744.948 444.813 746.334 449.906 746.334 456.786V482.066H731.774V456.386C731.774 454.359 731.161 452.706 729.934 451.426C728.761 450.093 727.134 449.426 725.054 449.426C722.974 449.426 721.294 450.093 720.014 451.426C718.788 452.706 718.174 454.413 718.174 456.546V482.066H703.614ZM778.434 483.666C774.701 483.666 771.394 483.026 768.514 481.746C765.634 480.466 763.208 478.733 761.234 476.546C759.261 474.359 757.741 471.906 756.674 469.186C755.661 466.466 755.154 463.666 755.154 460.786V459.186C755.154 456.199 755.661 453.346 756.674 450.626C757.741 447.853 759.234 445.399 761.154 443.266C763.128 441.133 765.528 439.453 768.354 438.226C771.181 436.946 774.381 436.306 777.954 436.306C782.701 436.306 786.728 437.373 790.034 439.506C793.341 441.639 795.874 444.466 797.634 447.986C799.394 451.453 800.274 455.239 800.274 459.346V463.986H761.234V456.146H791.874L786.834 459.666C786.834 457.159 786.488 455.053 785.794 453.346C785.154 451.586 784.168 450.253 782.834 449.346C781.554 448.439 779.928 447.986 777.954 447.986C776.034 447.986 774.354 448.439 772.914 449.346C771.528 450.199 770.461 451.533 769.714 453.346C768.968 455.106 768.594 457.346 768.594 460.066C768.594 462.519 768.941 464.653 769.634 466.466C770.328 468.226 771.394 469.586 772.834 470.546C774.274 471.506 776.141 471.986 778.434 471.986C780.461 471.986 782.114 471.639 783.394 470.946C784.728 470.253 785.661 469.319 786.194 468.146H799.474C798.834 471.133 797.554 473.799 795.634 476.146C793.768 478.493 791.368 480.333 788.434 481.666C785.554 482.999 782.221 483.666 778.434 483.666ZM809.549 482.066V437.906H821.069V457.106H820.909C820.909 450.919 822.189 446.066 824.749 442.546C827.362 439.026 831.095 437.266 835.949 437.266H837.709V449.746H834.349C831.095 449.746 828.562 450.626 826.749 452.386C824.989 454.146 824.109 456.679 824.109 459.986V482.066H809.549Z" fill="#1C1259"/>
<g clip-path="url(#clip1_1686_904)">
<rect x="79" y="567.066" width="805" height="177" rx="88.5" fill="white"/>
<path d="M161 650.066C149.988 650.066 141.06 658.567 141.06 669.053V676.392H134.92C123.366 676.392 114 684.495 114 694.49C114 704.485 123.366 712.588 134.92 712.588C134.92 712.588 152.06 711.446 152.06 729.146C152.06 752.383 139.832 769.083 157.83 770.91C159.887 771.119 161.073 771.117 163.13 770.91C181.185 769.093 169.94 752.383 169.94 729.146C169.94 711.446 187.08 712.588 187.08 712.588C198.634 712.588 208 704.485 208 694.49C208 684.495 198.634 676.392 187.08 676.392H180.94V669.053C180.94 658.567 172.012 650.066 161 650.066Z" fill="#F6A0B2"/>
<path d="M263.5 547.066C245.81 547.066 231.469 561.468 231.469 579.235V591.668H221.605C203.046 591.668 188 605.396 188 622.33C188 639.264 203.046 652.992 221.605 652.992C221.605 652.992 249.138 651.057 249.138 681.045C249.138 720.414 229.497 748.707 258.408 751.802C261.713 752.155 263.618 752.152 266.922 751.802C295.925 748.724 277.862 720.414 277.862 681.045C277.862 651.057 305.395 652.992 305.395 652.992C323.954 652.992 339 639.264 339 622.33C339 605.396 323.954 591.668 305.395 591.668H295.531V579.235C295.531 561.468 281.19 547.066 263.5 547.066Z" fill="#F6A0B2"/>
<path d="M359.575 699.066V618.766H380.035V699.066H359.575ZM397.843 699.066V638.346H413.683V664.416H412.803C412.803 658.109 413.61 652.903 415.223 648.796C416.837 644.616 419.22 641.499 422.373 639.446C425.6 637.393 429.487 636.366 434.033 636.366H434.913C441.807 636.366 447.123 638.676 450.863 643.296C454.677 647.843 456.583 654.846 456.583 664.306V699.066H436.563V663.756C436.563 660.969 435.72 658.696 434.033 656.936C432.42 655.103 430.183 654.186 427.323 654.186C424.463 654.186 422.153 655.103 420.393 656.936C418.707 658.696 417.863 661.043 417.863 663.976V699.066H397.843ZM475.091 699.066V638.346H495.111V699.066H475.091ZM467.391 652.866V638.346H495.111V652.866H467.391ZM483.341 633.506C479.674 633.506 476.961 632.589 475.201 630.756C473.514 628.849 472.671 626.429 472.671 623.496C472.671 620.563 473.514 618.179 475.201 616.346C476.961 614.439 479.637 613.486 483.231 613.486C486.897 613.486 489.574 614.439 491.261 616.346C492.947 618.179 493.791 620.563 493.791 623.496C493.791 626.429 492.947 628.849 491.261 630.756C489.574 632.589 486.934 633.506 483.341 633.506ZM540.958 699.946C534.358 699.946 529.078 699.139 525.118 697.526C521.232 695.913 518.408 693.236 516.648 689.496C514.888 685.756 514.008 680.696 514.008 674.316L514.118 622.506H532.598L532.488 674.866C532.488 677.579 533.185 679.669 534.578 681.136C536.045 682.529 538.135 683.226 540.848 683.226H549.208V699.946H540.958ZM505.208 652.866V638.346H549.208V652.866H505.208ZM564.999 699.066V638.346H585.019V699.066H564.999ZM557.299 652.866V638.346H585.019V652.866H557.299ZM573.249 633.506C569.582 633.506 566.869 632.589 565.109 630.756C563.422 628.849 562.579 626.429 562.579 623.496C562.579 620.563 563.422 618.179 565.109 616.346C566.869 614.439 569.545 613.486 573.139 613.486C576.805 613.486 579.482 614.439 581.169 616.346C582.855 618.179 583.699 620.563 583.699 623.496C583.699 626.429 582.855 628.849 581.169 630.756C579.482 632.589 576.842 633.506 573.249 633.506ZM638.676 699.066V681.246H635.376V662.216C635.376 659.429 634.716 657.376 633.396 656.056C632.15 654.663 630.06 653.966 627.126 653.966C625.733 653.966 623.68 654.003 620.966 654.076C618.253 654.149 615.393 654.259 612.386 654.406C609.38 654.553 606.63 654.699 604.136 654.846V638.126C605.896 637.979 607.986 637.833 610.406 637.686C612.826 637.539 615.32 637.429 617.886 637.356C620.526 637.283 622.946 637.246 625.146 637.246C631.38 637.246 636.66 638.163 640.986 639.996C645.386 641.829 648.723 644.579 650.996 648.246C653.343 651.913 654.516 656.569 654.516 662.216V699.066H638.676ZM619.426 700.606C615.173 700.606 611.396 699.836 608.096 698.296C604.796 696.756 602.193 694.556 600.286 691.696C598.453 688.763 597.536 685.279 597.536 681.246C597.536 676.699 598.746 673.033 601.166 670.246C603.586 667.386 606.923 665.296 611.176 663.976C615.43 662.656 620.306 661.996 625.806 661.996H637.576V672.336H625.806C623.093 672.336 621.003 673.033 619.536 674.426C618.07 675.746 617.336 677.543 617.336 679.816C617.336 682.016 618.07 683.813 619.536 685.206C621.003 686.526 623.093 687.186 625.806 687.186C627.566 687.186 629.106 686.893 630.426 686.306C631.82 685.646 632.956 684.546 633.836 683.006C634.716 681.466 635.23 679.339 635.376 676.626L639.996 681.026C639.63 685.206 638.603 688.763 636.916 691.696C635.303 694.556 633.03 696.756 630.096 698.296C627.236 699.836 623.68 700.606 619.426 700.606ZM699.023 699.946C692.423 699.946 687.143 699.139 683.183 697.526C679.297 695.913 676.473 693.236 674.713 689.496C672.953 685.756 672.073 680.696 672.073 674.316L672.183 622.506H690.663L690.553 674.866C690.553 677.579 691.25 679.669 692.643 681.136C694.11 682.529 696.2 683.226 698.913 683.226H707.273V699.946H699.023ZM663.273 652.866V638.346H707.273V652.866H663.273ZM748.479 701.266C743.345 701.266 738.799 700.386 734.839 698.626C730.879 696.866 727.542 694.483 724.829 691.476C722.115 688.469 720.025 685.096 718.559 681.356C717.165 677.616 716.469 673.766 716.469 669.806V667.606C716.469 663.499 717.165 659.576 718.559 655.836C720.025 652.023 722.079 648.649 724.719 645.716C727.432 642.783 730.732 640.473 734.619 638.786C738.505 637.026 742.905 636.146 747.819 636.146C754.345 636.146 759.882 637.613 764.429 640.546C768.975 643.479 772.459 647.366 774.879 652.206C777.299 656.973 778.509 662.179 778.509 667.826V674.206H724.829V663.426H766.959L760.029 668.266C760.029 664.819 759.552 661.923 758.599 659.576C757.719 657.156 756.362 655.323 754.529 654.076C752.769 652.829 750.532 652.206 747.819 652.206C745.179 652.206 742.869 652.829 740.889 654.076C738.982 655.249 737.515 657.083 736.489 659.576C735.462 661.996 734.949 665.076 734.949 668.816C734.949 672.189 735.425 675.123 736.379 677.616C737.332 680.036 738.799 681.906 740.779 683.226C742.759 684.546 745.325 685.206 748.479 685.206C751.265 685.206 753.539 684.729 755.299 683.776C757.132 682.823 758.415 681.539 759.149 679.926H777.409C776.529 684.033 774.769 687.699 772.129 690.926C769.562 694.153 766.262 696.683 762.229 698.516C758.269 700.349 753.685 701.266 748.479 701.266Z" fill="#1C1259"/>
</g>
<path d="M167.5 938.066C121.937 938.066 85 901.129 85 855.566C85 810.002 121.937 773.066 167.5 773.066L853 773.066C864.046 773.066 873 782.02 873 793.066V918.066C873 929.112 864.046 938.066 853 938.066L167.5 938.066Z" fill="#F6A0B2"/>
<path d="M99.7168 807.357C127.947 800.071 149.283 796.836 150.217 800.06C151.15 803.284 131.387 811.95 103.632 820.877C128.238 834.124 145.111 845.814 143.294 848.811C141.477 851.808 121.543 845.167 96.0121 833.446C102.58 859.466 105.106 879.232 101.603 880.247C98.0996 881.261 89.672 863.204 81.3202 837.701C66.0029 861.251 52.7016 877.515 49.5644 875.953C46.4273 874.391 54.4429 855.494 68.1629 831.149C39.9327 838.434 18.5964 841.669 17.6629 838.445C16.7293 835.221 36.4927 826.555 64.2475 817.628C39.6413 804.381 22.7686 792.691 24.5855 789.695C26.4024 786.698 46.3364 793.338 71.8677 805.059C65.2995 779.039 62.774 759.273 66.2771 758.258C69.7801 757.244 78.2077 775.301 86.5595 800.804C101.877 777.254 115.178 760.99 118.315 762.552C121.452 764.114 113.437 783.011 99.7168 807.357Z" fill="white"/>
<path d="M695.59 855.566C695.59 847.683 689.67 841.165 681.986 839.406C643.117 830.508 628 806.21 628 773.066H798C798 806.21 782.883 830.508 744.014 839.406C736.33 841.165 730.41 847.683 730.41 855.566C730.41 863.449 736.33 869.967 744.014 871.726C782.883 880.623 798 904.922 798 938.066H628C628 904.922 643.117 880.623 681.986 871.726C689.67 869.967 695.59 863.449 695.59 855.566Z" fill="#EE4266"/>
<path d="M163.781 880.366C160.011 880.366 156.783 879.673 154.096 878.286C151.453 876.899 149.416 874.906 147.986 872.306C146.599 869.663 145.906 866.478 145.906 862.751V860.151H157.866V863.141C157.866 864.874 158.364 866.304 159.361 867.431C160.401 868.514 161.853 869.056 163.716 869.056C165.579 869.056 167.009 868.514 168.006 867.431C169.046 866.304 169.566 864.874 169.566 863.141V840.846H181.656V862.751C181.656 866.478 180.941 869.663 179.511 872.306C178.124 874.906 176.109 876.899 173.466 878.286C170.823 879.673 167.594 880.366 163.781 880.366ZM151.236 842.146V831.616H181.656V842.146H151.236ZM208.082 880.366C205.049 880.366 202.362 879.846 200.022 878.806C197.682 877.766 195.71 876.358 194.107 874.581C192.504 872.804 191.269 870.811 190.402 868.601C189.579 866.391 189.167 864.116 189.167 861.776V860.476C189.167 858.049 189.579 855.731 190.402 853.521C191.269 851.268 192.482 849.274 194.042 847.541C195.645 845.808 197.595 844.443 199.892 843.446C202.189 842.406 204.789 841.886 207.692 841.886C211.549 841.886 214.82 842.753 217.507 844.486C220.194 846.219 222.252 848.516 223.682 851.376C225.112 854.193 225.827 857.269 225.827 860.606V864.376H194.107V858.006H219.002L214.907 860.866C214.907 858.829 214.625 857.118 214.062 855.731C213.542 854.301 212.74 853.218 211.657 852.481C210.617 851.744 209.295 851.376 207.692 851.376C206.132 851.376 204.767 851.744 203.597 852.481C202.47 853.174 201.604 854.258 200.997 855.731C200.39 857.161 200.087 858.981 200.087 861.191C200.087 863.184 200.369 864.918 200.932 866.391C201.495 867.821 202.362 868.926 203.532 869.706C204.702 870.486 206.219 870.876 208.082 870.876C209.729 870.876 211.072 870.594 212.112 870.031C213.195 869.468 213.954 868.709 214.387 867.756H225.177C224.657 870.183 223.617 872.349 222.057 874.256C220.54 876.163 218.59 877.658 216.207 878.741C213.867 879.824 211.159 880.366 208.082 880.366ZM250.457 879.586C246.557 879.586 243.437 879.109 241.097 878.156C238.801 877.203 237.132 875.621 236.092 873.411C235.052 871.201 234.532 868.211 234.532 864.441L234.597 833.826H245.517L245.452 864.766C245.452 866.369 245.864 867.604 246.687 868.471C247.554 869.294 248.789 869.706 250.392 869.706H255.332V879.586H250.457ZM229.332 851.766V843.186H255.332V851.766H229.332ZM262.973 892.066V843.186H272.333V858.656H271.293C271.423 855.146 272.116 852.156 273.373 849.686C274.673 847.216 276.428 845.353 278.638 844.096C280.848 842.796 283.383 842.146 286.243 842.146C288.713 842.146 290.945 842.601 292.938 843.511C294.931 844.378 296.643 845.634 298.073 847.281C299.503 848.884 300.586 850.791 301.323 853.001C302.103 855.211 302.493 857.638 302.493 860.281V861.841C302.493 864.484 302.146 866.933 301.453 869.186C300.76 871.396 299.72 873.346 298.333 875.036C296.946 876.683 295.235 877.961 293.198 878.871C291.205 879.781 288.908 880.236 286.308 880.236C283.535 880.236 281.086 879.694 278.963 878.611C276.84 877.484 275.15 875.816 273.893 873.606C272.68 871.353 272.03 868.536 271.943 865.156L274.803 868.666V892.066H262.973ZM282.733 870.486C284.293 870.486 285.658 870.096 286.828 869.316C288.041 868.493 288.973 867.366 289.623 865.936C290.316 864.506 290.663 862.881 290.663 861.061C290.663 859.198 290.316 857.594 289.623 856.251C288.973 854.864 288.063 853.803 286.893 853.066C285.723 852.286 284.336 851.896 282.733 851.896C281.303 851.896 279.96 852.221 278.703 852.871C277.49 853.521 276.493 854.474 275.713 855.731C274.933 856.988 274.543 858.504 274.543 860.281V862.491C274.543 864.181 274.955 865.633 275.778 866.846C276.601 868.016 277.641 868.926 278.898 869.576C280.155 870.183 281.433 870.486 282.733 870.486ZM332.004 879.066V868.536H330.054V857.291C330.054 855.644 329.664 854.431 328.884 853.651C328.147 852.828 326.912 852.416 325.179 852.416C324.355 852.416 323.142 852.438 321.539 852.481C319.935 852.524 318.245 852.589 316.469 852.676C314.692 852.763 313.067 852.849 311.594 852.936V843.056C312.634 842.969 313.869 842.883 315.299 842.796C316.729 842.709 318.202 842.644 319.719 842.601C321.279 842.558 322.709 842.536 324.009 842.536C327.692 842.536 330.812 843.078 333.369 844.161C335.969 845.244 337.94 846.869 339.284 849.036C340.67 851.203 341.364 853.954 341.364 857.291V879.066H332.004ZM320.629 879.976C318.115 879.976 315.884 879.521 313.934 878.611C311.984 877.701 310.445 876.401 309.319 874.711C308.235 872.978 307.694 870.919 307.694 868.536C307.694 865.849 308.409 863.683 309.839 862.036C311.269 860.346 313.24 859.111 315.754 858.331C318.267 857.551 321.149 857.161 324.399 857.161H331.354V863.271H324.399C322.795 863.271 321.56 863.683 320.694 864.506C319.827 865.286 319.394 866.348 319.394 867.691C319.394 868.991 319.827 870.053 320.694 870.876C321.56 871.656 322.795 872.046 324.399 872.046C325.439 872.046 326.349 871.873 327.129 871.526C327.952 871.136 328.624 870.486 329.144 869.576C329.664 868.666 329.967 867.409 330.054 865.806L332.784 868.406C332.567 870.876 331.96 872.978 330.964 874.711C330.01 876.401 328.667 877.701 326.934 878.611C325.244 879.521 323.142 879.976 320.629 879.976ZM366.948 880.366C363.828 880.366 361.12 879.868 358.823 878.871C356.526 877.831 354.598 876.444 353.038 874.711C351.521 872.978 350.373 871.006 349.593 868.796C348.856 866.586 348.488 864.289 348.488 861.906V860.606C348.488 858.093 348.878 855.709 349.658 853.456C350.481 851.203 351.673 849.209 353.233 847.476C354.793 845.743 356.721 844.378 359.018 843.381C361.315 842.384 363.958 841.886 366.948 841.886C370.241 841.886 373.145 842.536 375.658 843.836C378.171 845.136 380.165 846.934 381.638 849.231C383.155 851.484 384 854.084 384.173 857.031H372.603C372.473 855.601 371.931 854.388 370.978 853.391C370.068 852.394 368.725 851.896 366.948 851.896C365.431 851.896 364.175 852.286 363.178 853.066C362.225 853.846 361.51 854.929 361.033 856.316C360.556 857.703 360.318 859.349 360.318 861.256C360.318 863.033 360.513 864.614 360.903 866.001C361.336 867.388 362.03 868.471 362.983 869.251C363.98 869.988 365.301 870.356 366.948 870.356C368.161 870.356 369.18 870.139 370.003 869.706C370.826 869.273 371.476 868.666 371.953 867.886C372.43 867.063 372.733 866.109 372.863 865.026H384.433C384.26 868.059 383.393 870.724 381.833 873.021C380.316 875.318 378.28 877.116 375.723 878.416C373.166 879.716 370.241 880.366 366.948 880.366ZM417.211 879.066L406.616 862.296H401.806L415.846 843.186H428.196L414.871 861.191V855.471L430.406 879.066H417.211ZM391.731 879.066V831.616H403.561V879.066H391.731ZM474.037 880.366C469.573 880.366 465.738 879.629 462.532 878.156C459.325 876.639 456.703 874.668 454.667 872.241C452.63 869.814 451.135 867.171 450.182 864.311C449.228 861.451 448.752 858.656 448.752 855.926V854.496C448.752 851.549 449.25 848.646 450.247 845.786C451.243 842.883 452.738 840.261 454.732 837.921C456.768 835.581 459.303 833.718 462.337 832.331C465.37 830.901 468.923 830.186 472.997 830.186C477.373 830.186 481.23 830.988 484.567 832.591C487.947 834.194 490.655 836.426 492.692 839.286C494.728 842.103 495.92 845.374 496.267 849.101H484.177C483.917 847.671 483.288 846.393 482.292 845.266C481.295 844.096 479.995 843.186 478.392 842.536C476.832 841.843 475.033 841.496 472.997 841.496C471.047 841.496 469.313 841.843 467.797 842.536C466.323 843.186 465.067 844.139 464.027 845.396C463.03 846.609 462.272 848.061 461.752 849.751C461.232 851.441 460.972 853.283 460.972 855.276C460.972 857.269 461.253 859.133 461.817 860.866C462.38 862.556 463.203 864.051 464.287 865.351C465.37 866.608 466.735 867.583 468.382 868.276C470.028 868.969 471.913 869.316 474.037 869.316C476.723 869.316 479.042 868.753 480.992 867.626C482.942 866.499 484.307 865.004 485.087 863.141L484.177 870.291V859.956H495.227V869.706C493.233 873.129 490.395 875.773 486.712 877.636C483.072 879.456 478.847 880.366 474.037 880.366ZM472.737 862.296V853.846H499.127V862.296H472.737ZM522.852 880.366C519.819 880.366 517.132 879.846 514.792 878.806C512.452 877.766 510.481 876.358 508.877 874.581C507.274 872.804 506.039 870.811 505.172 868.601C504.349 866.391 503.937 864.116 503.937 861.776V860.476C503.937 858.049 504.349 855.731 505.172 853.521C506.039 851.268 507.252 849.274 508.812 847.541C510.416 845.808 512.366 844.443 514.662 843.446C516.959 842.406 519.559 841.886 522.462 841.886C526.319 841.886 529.591 842.753 532.277 844.486C534.964 846.219 537.022 848.516 538.452 851.376C539.882 854.193 540.597 857.269 540.597 860.606V864.376H508.877V858.006H533.772L529.677 860.866C529.677 858.829 529.396 857.118 528.832 855.731C528.312 854.301 527.511 853.218 526.427 852.481C525.387 851.744 524.066 851.376 522.462 851.376C520.902 851.376 519.537 851.744 518.367 852.481C517.241 853.174 516.374 854.258 515.767 855.731C515.161 857.161 514.857 858.981 514.857 861.191C514.857 863.184 515.139 864.918 515.702 866.391C516.266 867.821 517.132 868.926 518.302 869.706C519.472 870.486 520.989 870.876 522.852 870.876C524.499 870.876 525.842 870.594 526.882 870.031C527.966 869.468 528.724 868.709 529.157 867.756H539.947C539.427 870.183 538.387 872.349 536.827 874.256C535.311 876.163 533.361 877.658 530.977 878.741C528.637 879.824 525.929 880.366 522.852 880.366ZM548.133 879.066V843.186H557.493V858.591H556.973C556.973 854.864 557.449 851.788 558.403 849.361C559.356 846.891 560.764 845.049 562.628 843.836C564.534 842.623 566.831 842.016 569.518 842.016H570.038C574.111 842.016 577.253 843.381 579.463 846.111C581.716 848.798 582.843 852.936 582.843 858.526V879.066H571.013V858.201C571.013 856.554 570.514 855.211 569.518 854.171C568.564 853.088 567.243 852.546 565.553 852.546C563.863 852.546 562.498 853.088 561.458 854.171C560.461 855.211 559.963 856.598 559.963 858.331V879.066H548.133ZM608.924 880.366C605.89 880.366 603.204 879.846 600.864 878.806C598.524 877.766 596.552 876.358 594.949 874.581C593.345 872.804 592.11 870.811 591.244 868.601C590.42 866.391 590.009 864.116 590.009 861.776V860.476C590.009 858.049 590.42 855.731 591.244 853.521C592.11 851.268 593.324 849.274 594.884 847.541C596.487 845.808 598.437 844.443 600.734 843.446C603.03 842.406 605.63 841.886 608.534 841.886C612.39 841.886 615.662 842.753 618.349 844.486C621.035 846.219 623.094 848.516 624.524 851.376C625.954 854.193 626.669 857.269 626.669 860.606V864.376H594.949V858.006H619.844L615.749 860.866C615.749 858.829 615.467 857.118 614.904 855.731C614.384 854.301 613.582 853.218 612.499 852.481C611.459 851.744 610.137 851.376 608.534 851.376C606.974 851.376 605.609 851.744 604.439 852.481C603.312 853.174 602.445 854.258 601.839 855.731C601.232 857.161 600.929 858.981 600.929 861.191C600.929 863.184 601.21 864.918 601.774 866.391C602.337 867.821 603.204 868.926 604.374 869.706C605.544 870.486 607.06 870.876 608.924 870.876C610.57 870.876 611.914 870.594 612.954 870.031C614.037 869.468 614.795 868.709 615.229 867.756H626.019C625.499 870.183 624.459 872.349 622.899 874.256C621.382 876.163 619.432 877.658 617.049 878.741C614.709 879.824 612 880.366 608.924 880.366ZM634.204 879.066V843.186H643.564V858.786H643.434C643.434 853.759 644.474 849.816 646.554 846.956C648.678 844.096 651.711 842.666 655.654 842.666H657.084V852.806H654.354C651.711 852.806 649.653 853.521 648.179 854.951C646.749 856.381 646.034 858.439 646.034 861.126V879.066H634.204ZM684.509 879.066V868.536H682.559V857.291C682.559 855.644 682.169 854.431 681.389 853.651C680.653 852.828 679.418 852.416 677.684 852.416C676.861 852.416 675.648 852.438 674.044 852.481C672.441 852.524 670.751 852.589 668.974 852.676C667.198 852.763 665.573 852.849 664.099 852.936V843.056C665.139 842.969 666.374 842.883 667.804 842.796C669.234 842.709 670.708 842.644 672.224 842.601C673.784 842.558 675.214 842.536 676.514 842.536C680.198 842.536 683.318 843.078 685.874 844.161C688.474 845.244 690.446 846.869 691.789 849.036C693.176 851.203 693.869 853.954 693.869 857.291V879.066H684.509ZM673.134 879.976C670.621 879.976 668.389 879.521 666.439 878.611C664.489 877.701 662.951 876.401 661.824 874.711C660.741 872.978 660.199 870.919 660.199 868.536C660.199 865.849 660.914 863.683 662.344 862.036C663.774 860.346 665.746 859.111 668.259 858.331C670.773 857.551 673.654 857.161 676.904 857.161H683.859V863.271H676.904C675.301 863.271 674.066 863.683 673.199 864.506C672.333 865.286 671.899 866.348 671.899 867.691C671.899 868.991 672.333 870.053 673.199 870.876C674.066 871.656 675.301 872.046 676.904 872.046C677.944 872.046 678.854 871.873 679.634 871.526C680.458 871.136 681.129 870.486 681.649 869.576C682.169 868.666 682.473 867.409 682.559 865.806L685.289 868.406C685.073 870.876 684.466 872.978 683.469 874.711C682.516 876.401 681.173 877.701 679.439 878.611C677.749 879.521 675.648 879.976 673.134 879.976ZM720.169 879.586C716.269 879.586 713.149 879.109 710.809 878.156C708.512 877.203 706.844 875.621 705.804 873.411C704.764 871.201 704.244 868.211 704.244 864.441L704.309 833.826H715.229L715.164 864.766C715.164 866.369 715.575 867.604 716.399 868.471C717.265 869.294 718.5 869.706 720.104 869.706H725.044V879.586H720.169ZM699.044 851.766V843.186H725.044V851.766H699.044ZM734.374 879.066V843.186H746.204V879.066H734.374ZM729.824 851.766V843.186H746.204V851.766H729.824ZM739.249 840.326C737.083 840.326 735.479 839.784 734.439 838.701C733.443 837.574 732.944 836.144 732.944 834.411C732.944 832.678 733.443 831.269 734.439 830.186C735.479 829.059 737.061 828.496 739.184 828.496C741.351 828.496 742.933 829.059 743.929 830.186C744.926 831.269 745.424 832.678 745.424 834.411C745.424 836.144 744.926 837.574 743.929 838.701C742.933 839.784 741.373 840.326 739.249 840.326ZM774.076 880.366C770.913 880.366 768.096 879.889 765.626 878.936C763.156 877.983 761.054 876.661 759.321 874.971C757.631 873.281 756.331 871.331 755.421 869.121C754.554 866.911 754.121 864.549 754.121 862.036V860.476C754.121 857.876 754.576 855.449 755.486 853.196C756.439 850.943 757.783 848.971 759.516 847.281C761.249 845.591 763.351 844.269 765.821 843.316C768.291 842.363 771.043 841.886 774.076 841.886C777.153 841.886 779.904 842.363 782.331 843.316C784.801 844.269 786.903 845.591 788.636 847.281C790.369 848.971 791.691 850.943 792.601 853.196C793.554 855.449 794.031 857.876 794.031 860.476V862.036C794.031 864.549 793.576 866.911 792.666 869.121C791.799 871.331 790.499 873.281 788.766 874.971C787.076 876.661 784.996 877.983 782.526 878.936C780.056 879.889 777.239 880.366 774.076 880.366ZM774.076 870.486C775.896 870.486 777.391 870.096 778.561 869.316C779.774 868.536 780.684 867.453 781.291 866.066C781.898 864.636 782.201 863.033 782.201 861.256C782.201 859.393 781.876 857.768 781.226 856.381C780.619 854.951 779.709 853.824 778.496 853.001C777.283 852.178 775.809 851.766 774.076 851.766C772.343 851.766 770.869 852.178 769.656 853.001C768.443 853.824 767.511 854.951 766.861 856.381C766.254 857.768 765.951 859.393 765.951 861.256C765.951 863.033 766.254 864.636 766.861 866.066C767.468 867.453 768.378 868.536 769.591 869.316C770.804 870.096 772.299 870.486 774.076 870.486ZM801.808 879.066V843.186H811.168V858.591H810.648C810.648 854.864 811.124 851.788 812.078 849.361C813.031 846.891 814.439 845.049 816.303 843.836C818.209 842.623 820.506 842.016 823.193 842.016H823.713C827.786 842.016 830.928 843.381 833.138 846.111C835.391 848.798 836.518 852.936 836.518 858.526V879.066H824.688V858.201C824.688 856.554 824.189 855.211 823.193 854.171C822.239 853.088 820.918 852.546 819.228 852.546C817.538 852.546 816.173 853.088 815.133 854.171C814.136 855.211 813.638 856.598 813.638 858.331V879.066H801.808Z" fill="#1C1259"/>
<path d="M884.667 609.683C913.068 616.274 933.483 623.269 932.82 626.559C932.157 629.849 910.626 628.398 881.888 623.482C897.583 646.604 907.141 664.77 904.144 666.587C901.148 668.405 886.541 653.301 869.321 631.105C863.116 657.213 856.218 675.908 852.642 675.188C849.067 674.468 849.942 654.56 854.326 628.085C829.857 641.886 810.543 650.159 808.484 647.324C806.424 644.488 822.268 631.437 845.689 616.192C817.288 609.602 796.873 602.607 797.536 599.316C798.198 596.026 819.73 597.478 848.467 602.393C832.773 579.271 823.215 561.106 826.212 559.288C829.208 557.471 843.814 572.574 861.035 594.771C867.24 568.662 874.138 549.967 877.714 550.687C881.289 551.407 880.414 571.315 876.029 597.79C900.499 583.989 919.813 575.716 921.872 578.552C923.932 581.387 908.088 594.438 884.667 609.683Z" fill="#FCD307"/>
<rect x="68" y="65.0659" width="821" height="88" rx="44" fill="#F6A0B2"/>
<path d="M169.525 124.066L177.719 99.2459H186.729L195.229 124.066H189.449L182.581 103.088L184.349 103.802H179.963L181.799 103.088L175.101 124.066H169.525ZM175.747 117.912L177.447 113.288H187.171L188.905 117.912H175.747ZM199.827 124.066V99.2459H208.973L218.323 119.544H219.479L218.799 120.156V99.2459H224.035V124.066H214.821L205.471 103.768H204.315L204.995 103.156V124.066H199.827ZM230.97 124.066V99.2459H236.546V124.066H230.97ZM235.866 114.07V109.446H245.454V114.07H235.866ZM235.866 103.87V99.2459H245.862V103.87H235.866ZM263.189 124.712C260.945 124.712 258.984 124.327 257.307 123.556C255.652 122.763 254.281 121.731 253.193 120.462C252.105 119.17 251.289 117.776 250.745 116.28C250.224 114.784 249.963 113.345 249.963 111.962V111.214C249.963 109.673 250.235 108.154 250.779 106.658C251.346 105.139 252.184 103.768 253.295 102.544C254.406 101.32 255.788 100.345 257.443 99.6199C259.098 98.8719 261.013 98.4979 263.189 98.4979C265.365 98.4979 267.28 98.8719 268.935 99.6199C270.59 100.345 271.972 101.32 273.083 102.544C274.194 103.768 275.032 105.139 275.599 106.658C276.166 108.154 276.449 109.673 276.449 111.214V111.962C276.449 113.345 276.177 114.784 275.633 116.28C275.089 117.776 274.273 119.17 273.185 120.462C272.097 121.731 270.714 122.763 269.037 123.556C267.382 124.327 265.433 124.712 263.189 124.712ZM263.189 119.51C264.368 119.51 265.422 119.306 266.351 118.898C267.303 118.49 268.108 117.923 268.765 117.198C269.445 116.473 269.955 115.634 270.295 114.682C270.635 113.73 270.805 112.71 270.805 111.622C270.805 110.466 270.624 109.412 270.261 108.46C269.921 107.485 269.411 106.647 268.731 105.944C268.074 105.219 267.28 104.663 266.351 104.278C265.422 103.893 264.368 103.7 263.189 103.7C262.01 103.7 260.956 103.893 260.027 104.278C259.098 104.663 258.293 105.219 257.613 105.944C256.956 106.647 256.457 107.485 256.117 108.46C255.777 109.412 255.607 110.466 255.607 111.622C255.607 112.71 255.777 113.73 256.117 114.682C256.457 115.634 256.956 116.473 257.613 117.198C258.293 117.923 259.098 118.49 260.027 118.898C260.956 119.306 262.01 119.51 263.189 119.51ZM282.034 124.066V99.0419H287.61V124.066H282.034ZM297.096 124.066L289.82 113.39H295.94L303.556 124.066H297.096ZM286.114 116.11V111.724H292.234C293.05 111.724 293.752 111.565 294.342 111.248C294.954 110.908 295.418 110.443 295.736 109.854C296.076 109.242 296.246 108.539 296.246 107.746C296.246 106.953 296.076 106.261 295.736 105.672C295.418 105.06 294.954 104.595 294.342 104.278C293.752 103.938 293.05 103.768 292.234 103.768H286.114V99.0419H291.792C293.854 99.0419 295.645 99.3592 297.164 99.9939C298.682 100.606 299.85 101.524 300.666 102.748C301.482 103.972 301.89 105.513 301.89 107.372V107.916C301.89 109.752 301.47 111.282 300.632 112.506C299.816 113.707 298.648 114.614 297.13 115.226C295.634 115.815 293.854 116.11 291.792 116.11H286.114ZM319.321 124.712C317.077 124.712 315.15 124.327 313.541 123.556C311.931 122.763 310.617 121.731 309.597 120.462C308.577 119.17 307.817 117.787 307.319 116.314C306.843 114.818 306.605 113.367 306.605 111.962V111.214C306.605 109.673 306.854 108.154 307.353 106.658C307.851 105.139 308.611 103.768 309.631 102.544C310.673 101.32 311.977 100.345 313.541 99.6199C315.127 98.8719 316.997 98.4979 319.151 98.4979C321.395 98.4979 323.378 98.9173 325.101 99.7559C326.823 100.595 328.195 101.762 329.215 103.258C330.257 104.731 330.869 106.465 331.051 108.46H325.441C325.282 107.463 324.919 106.613 324.353 105.91C323.786 105.207 323.049 104.663 322.143 104.278C321.259 103.893 320.261 103.7 319.151 103.7C318.04 103.7 317.054 103.893 316.193 104.278C315.331 104.663 314.606 105.207 314.017 105.91C313.45 106.613 313.008 107.451 312.691 108.426C312.396 109.378 312.249 110.443 312.249 111.622C312.249 112.778 312.396 113.843 312.691 114.818C313.008 115.77 313.461 116.609 314.051 117.334C314.663 118.037 315.411 118.581 316.295 118.966C317.179 119.329 318.187 119.51 319.321 119.51C321.043 119.51 322.494 119.091 323.673 118.252C324.874 117.413 325.599 116.257 325.849 114.784H331.425C331.221 116.597 330.609 118.263 329.589 119.782C328.591 121.278 327.22 122.479 325.475 123.386C323.752 124.27 321.701 124.712 319.321 124.712ZM348.384 124.712C346.14 124.712 344.179 124.327 342.502 123.556C340.847 122.763 339.476 121.731 338.388 120.462C337.3 119.17 336.484 117.776 335.94 116.28C335.419 114.784 335.158 113.345 335.158 111.962V111.214C335.158 109.673 335.43 108.154 335.974 106.658C336.541 105.139 337.379 103.768 338.49 102.544C339.601 101.32 340.983 100.345 342.638 99.6199C344.293 98.8719 346.208 98.4979 348.384 98.4979C350.56 98.4979 352.475 98.8719 354.13 99.6199C355.785 100.345 357.167 101.32 358.278 102.544C359.389 103.768 360.227 105.139 360.794 106.658C361.361 108.154 361.644 109.673 361.644 111.214V111.962C361.644 113.345 361.372 114.784 360.828 116.28C360.284 117.776 359.468 119.17 358.38 120.462C357.292 121.731 355.909 122.763 354.232 123.556C352.577 124.327 350.628 124.712 348.384 124.712ZM348.384 119.51C349.563 119.51 350.617 119.306 351.546 118.898C352.498 118.49 353.303 117.923 353.96 117.198C354.64 116.473 355.15 115.634 355.49 114.682C355.83 113.73 356 112.71 356 111.622C356 110.466 355.819 109.412 355.456 108.46C355.116 107.485 354.606 106.647 353.926 105.944C353.269 105.219 352.475 104.663 351.546 104.278C350.617 103.893 349.563 103.7 348.384 103.7C347.205 103.7 346.151 103.893 345.222 104.278C344.293 104.663 343.488 105.219 342.808 105.944C342.151 106.647 341.652 107.485 341.312 108.46C340.972 109.412 340.802 110.466 340.802 111.622C340.802 112.71 340.972 113.73 341.312 114.682C341.652 115.634 342.151 116.473 342.808 117.198C343.488 117.923 344.293 118.49 345.222 118.898C346.151 119.306 347.205 119.51 348.384 119.51ZM367.229 124.066V99.2459H374.913L380.591 113.186H381.237L386.847 99.2459H394.667V124.066H389.159V102.884L389.941 102.952L383.379 119.034H378.075L371.479 102.952L372.329 102.884V124.066H367.229ZM409.343 124.066V118.966C409.343 117.901 409.513 116.971 409.853 116.178C410.216 115.385 410.783 114.682 411.553 114.07C412.324 113.435 413.344 112.846 414.613 112.302L418.625 110.568C419.645 110.137 420.393 109.605 420.869 108.97C421.368 108.335 421.617 107.531 421.617 106.556C421.617 105.559 421.311 104.743 420.699 104.108C420.087 103.473 419.192 103.156 418.013 103.156C416.835 103.156 415.939 103.485 415.327 104.142C414.715 104.799 414.409 105.683 414.409 106.794H409.003C409.003 105.23 409.343 103.825 410.023 102.578C410.703 101.309 411.712 100.311 413.049 99.5859C414.387 98.8606 416.041 98.4979 418.013 98.4979C419.985 98.4979 421.629 98.8493 422.943 99.5519C424.281 100.255 425.289 101.195 425.969 102.374C426.672 103.553 427.023 104.879 427.023 106.352V106.76C427.023 108.664 426.502 110.239 425.459 111.486C424.417 112.71 422.807 113.798 420.631 114.75L416.653 116.484C415.973 116.779 415.486 117.085 415.191 117.402C414.919 117.719 414.783 118.15 414.783 118.694V120.394L413.457 119.272H427.057V124.066H409.343ZM443.134 124.712C441.162 124.712 439.473 124.395 438.068 123.76C436.663 123.103 435.518 122.219 434.634 121.108C433.773 119.997 433.127 118.717 432.696 117.266C432.288 115.793 432.084 114.24 432.084 112.608V110.67C432.084 108.403 432.481 106.352 433.274 104.516C434.067 102.68 435.28 101.218 436.912 100.13C438.544 99.0419 440.618 98.4979 443.134 98.4979C445.65 98.4979 447.713 99.0419 449.322 100.13C450.954 101.218 452.167 102.68 452.96 104.516C453.753 106.352 454.15 108.403 454.15 110.67V112.608C454.15 114.24 453.935 115.793 453.504 117.266C453.096 118.717 452.45 119.997 451.566 121.108C450.705 122.219 449.571 123.103 448.166 123.76C446.783 124.395 445.106 124.712 443.134 124.712ZM443.134 119.578C444.97 119.578 446.33 118.943 447.214 117.674C448.121 116.382 448.574 114.387 448.574 111.69C448.574 108.834 448.109 106.783 447.18 105.536C446.273 104.267 444.925 103.632 443.134 103.632C441.298 103.632 439.927 104.267 439.02 105.536C438.113 106.783 437.66 108.811 437.66 111.622C437.66 114.342 438.102 116.348 438.986 117.64C439.893 118.932 441.275 119.578 443.134 119.578ZM459.478 124.066V118.966C459.478 117.901 459.648 116.971 459.988 116.178C460.35 115.385 460.917 114.682 461.688 114.07C462.458 113.435 463.478 112.846 464.748 112.302L468.76 110.568C469.78 110.137 470.528 109.605 471.004 108.97C471.502 108.335 471.752 107.531 471.752 106.556C471.752 105.559 471.446 104.743 470.834 104.108C470.222 103.473 469.326 103.156 468.148 103.156C466.969 103.156 466.074 103.485 465.462 104.142C464.85 104.799 464.544 105.683 464.544 106.794H459.138C459.138 105.23 459.478 103.825 460.158 102.578C460.838 101.309 461.846 100.311 463.184 99.5859C464.521 98.8606 466.176 98.4979 468.148 98.4979C470.12 98.4979 471.763 98.8493 473.078 99.5519C474.415 100.255 475.424 101.195 476.104 102.374C476.806 103.553 477.158 104.879 477.158 106.352V106.76C477.158 108.664 476.636 110.239 475.594 111.486C474.551 112.71 472.942 113.798 470.766 114.75L466.788 116.484C466.108 116.779 465.62 117.085 465.326 117.402C465.054 117.719 464.918 118.15 464.918 118.694V120.394L463.592 119.272H477.192V124.066H459.478ZM490.82 124.712C488.893 124.712 487.216 124.361 485.788 123.658C484.383 122.933 483.306 121.958 482.558 120.734C481.81 119.51 481.436 118.127 481.436 116.586H486.808C486.808 117.629 487.159 118.479 487.862 119.136C488.565 119.771 489.551 120.088 490.82 120.088C491.659 120.088 492.373 119.929 492.962 119.612C493.551 119.295 494.005 118.864 494.322 118.32C494.639 117.753 494.798 117.119 494.798 116.416C494.798 115.328 494.447 114.433 493.744 113.73C493.064 113.027 492.089 112.676 490.82 112.676C490.14 112.676 489.539 112.778 489.018 112.982C488.519 113.186 488.089 113.435 487.726 113.73L485.21 109.48L492.724 104.584L492.418 104.006H482.456V99.2459H499.184V104.414L490.514 109.922L487.794 109.174C488.247 109.038 488.723 108.936 489.222 108.868C489.743 108.777 490.299 108.732 490.888 108.732C492.815 108.732 494.469 109.049 495.852 109.684C497.235 110.319 498.3 111.214 499.048 112.37C499.819 113.503 500.204 114.829 500.204 116.348V116.756C500.204 118.275 499.819 119.635 499.048 120.836C498.3 122.037 497.223 122.989 495.818 123.692C494.435 124.372 492.769 124.712 490.82 124.712ZM526.309 124.712C524.065 124.712 522.104 124.327 520.427 123.556C518.772 122.763 517.401 121.731 516.313 120.462C515.225 119.17 514.409 117.776 513.865 116.28C513.344 114.784 513.083 113.345 513.083 111.962V111.214C513.083 109.673 513.355 108.154 513.899 106.658C514.466 105.139 515.304 103.768 516.415 102.544C517.526 101.32 518.908 100.345 520.563 99.6199C522.218 98.8719 524.133 98.4979 526.309 98.4979C528.485 98.4979 530.4 98.8719 532.055 99.6199C533.71 100.345 535.092 101.32 536.203 102.544C537.314 103.768 538.152 105.139 538.719 106.658C539.286 108.154 539.569 109.673 539.569 111.214V111.962C539.569 113.345 539.297 114.784 538.753 116.28C538.209 117.776 537.393 119.17 536.305 120.462C535.217 121.731 533.834 122.763 532.157 123.556C530.502 124.327 528.553 124.712 526.309 124.712ZM526.309 119.51C527.488 119.51 528.542 119.306 529.471 118.898C530.423 118.49 531.228 117.923 531.885 117.198C532.565 116.473 533.075 115.634 533.415 114.682C533.755 113.73 533.925 112.71 533.925 111.622C533.925 110.466 533.744 109.412 533.381 108.46C533.041 107.485 532.531 106.647 531.851 105.944C531.194 105.219 530.4 104.663 529.471 104.278C528.542 103.893 527.488 103.7 526.309 103.7C525.13 103.7 524.076 103.893 523.147 104.278C522.218 104.663 521.413 105.219 520.733 105.944C520.076 106.647 519.577 107.485 519.237 108.46C518.897 109.412 518.727 110.466 518.727 111.622C518.727 112.71 518.897 113.73 519.237 114.682C519.577 115.634 520.076 116.473 520.733 117.198C521.413 117.923 522.218 118.49 523.147 118.898C524.076 119.306 525.13 119.51 526.309 119.51ZM545.222 124.066V104.924C545.222 102.771 545.822 101.173 547.024 100.13C548.248 99.0646 550.05 98.5319 552.43 98.5319H554.164V102.646H552.192C551.58 102.646 551.104 102.816 550.764 103.156C550.446 103.496 550.288 103.972 550.288 104.584V124.066H545.222ZM557.428 124.066V105.128C557.428 102.975 558.04 101.377 559.264 100.334C560.488 99.2686 562.29 98.7359 564.67 98.7359H566.88V102.85H564.432C563.82 102.85 563.344 103.02 563.004 103.36C562.664 103.7 562.494 104.176 562.494 104.788V124.066H557.428ZM570.076 124.066V105.434H575.55V124.066H570.076ZM543.046 109.582V105.604H566.404V109.582H543.046ZM567.9 109.446V105.434H575.55V109.446H567.9ZM572.218 103.598C571.198 103.598 570.438 103.337 569.94 102.816C569.464 102.272 569.226 101.592 569.226 100.776C569.226 99.9372 569.464 99.2572 569.94 98.7359C570.438 98.1919 571.198 97.9199 572.218 97.9199C573.238 97.9199 573.986 98.1919 574.462 98.7359C574.938 99.2572 575.176 99.9372 575.176 100.776C575.176 101.592 574.938 102.272 574.462 102.816C573.986 103.337 573.238 103.598 572.218 103.598ZM590.265 124.712C588.656 124.712 587.251 124.451 586.049 123.93C584.871 123.386 583.885 122.661 583.091 121.754C582.298 120.847 581.709 119.827 581.323 118.694C580.938 117.538 580.745 116.348 580.745 115.124V114.478C580.745 113.209 580.949 111.996 581.357 110.84C581.765 109.661 582.366 108.619 583.159 107.712C583.953 106.805 584.939 106.091 586.117 105.57C587.319 105.049 588.69 104.788 590.231 104.788C591.909 104.788 593.393 105.117 594.685 105.774C595.977 106.409 597.009 107.304 597.779 108.46C598.55 109.616 598.981 110.942 599.071 112.438H593.733C593.643 111.599 593.303 110.897 592.713 110.33C592.147 109.741 591.319 109.446 590.231 109.446C589.325 109.446 588.565 109.673 587.953 110.126C587.364 110.579 586.922 111.203 586.627 111.996C586.333 112.789 586.185 113.73 586.185 114.818C586.185 115.815 586.321 116.722 586.593 117.538C586.865 118.331 587.296 118.955 587.885 119.408C588.497 119.839 589.291 120.054 590.265 120.054C590.991 120.054 591.603 119.929 592.101 119.68C592.623 119.408 593.031 119.045 593.325 118.592C593.643 118.116 593.835 117.572 593.903 116.96H599.207C599.139 118.501 598.709 119.861 597.915 121.04C597.122 122.196 596.068 123.103 594.753 123.76C593.439 124.395 591.943 124.712 590.265 124.712ZM604.93 124.066V105.434H610.37V124.066H604.93ZM602.448 109.446V105.434H610.37V109.446H602.448ZM607.038 103.598C606.018 103.598 605.259 103.337 604.76 102.816C604.284 102.272 604.046 101.592 604.046 100.776C604.046 99.9372 604.284 99.2572 604.76 98.7359C605.259 98.1919 606.018 97.9199 607.038 97.9199C608.058 97.9199 608.806 98.1919 609.282 98.7359C609.781 99.2572 610.03 99.9372 610.03 100.776C610.03 101.592 609.781 102.272 609.282 102.816C608.806 103.337 608.058 103.598 607.038 103.598ZM628.016 124.066V118.558H627.098V112.574C627.098 111.622 626.871 110.908 626.418 110.432C625.964 109.956 625.239 109.718 624.242 109.718C623.743 109.718 623.086 109.729 622.27 109.752C621.454 109.775 620.615 109.809 619.754 109.854C618.892 109.899 618.11 109.945 617.408 109.99V105.4C617.929 105.355 618.541 105.309 619.244 105.264C619.946 105.219 620.672 105.185 621.42 105.162C622.168 105.139 622.87 105.128 623.528 105.128C625.432 105.128 627.03 105.4 628.322 105.944C629.636 106.488 630.634 107.315 631.314 108.426C631.994 109.514 632.334 110.919 632.334 112.642V124.066H628.016ZM622.066 124.542C620.728 124.542 619.55 124.304 618.53 123.828C617.532 123.352 616.75 122.672 616.184 121.788C615.617 120.881 615.334 119.805 615.334 118.558C615.334 117.198 615.685 116.087 616.388 115.226C617.09 114.342 618.076 113.696 619.346 113.288C620.615 112.857 622.077 112.642 623.732 112.642H627.71V115.668H623.698C622.746 115.668 622.009 115.906 621.488 116.382C620.989 116.835 620.74 117.459 620.74 118.252C620.74 119 620.989 119.612 621.488 120.088C622.009 120.541 622.746 120.768 623.698 120.768C624.31 120.768 624.854 120.666 625.33 120.462C625.828 120.235 626.236 119.861 626.554 119.34C626.871 118.819 627.052 118.093 627.098 117.164L628.39 118.524C628.276 119.816 627.959 120.904 627.438 121.788C626.939 122.672 626.236 123.352 625.33 123.828C624.446 124.304 623.358 124.542 622.066 124.542ZM638.547 124.066V99.2459H644.021V124.066H638.547ZM636.337 103.258V99.2459H644.021V103.258H636.337ZM664.129 124.066V103.428H669.705V124.066H664.129ZM657.159 104.108V99.2459H676.709V104.108H657.159ZM681.27 124.066V99.2459H686.71V113.56H685.894C685.894 111.679 686.132 110.092 686.608 108.8C687.084 107.508 687.787 106.533 688.716 105.876C689.646 105.196 690.813 104.856 692.218 104.856H692.456C694.519 104.856 696.094 105.593 697.182 107.066C698.27 108.517 698.814 110.647 698.814 113.458V124.066H693.374V113.118C693.374 112.098 693.068 111.282 692.456 110.67C691.867 110.035 691.085 109.718 690.11 109.718C689.09 109.718 688.263 110.047 687.628 110.704C687.016 111.361 686.71 112.234 686.71 113.322V124.066H681.27ZM713.344 124.712C711.757 124.712 710.352 124.44 709.128 123.896C707.927 123.352 706.918 122.627 706.102 121.72C705.309 120.791 704.697 119.759 704.266 118.626C703.858 117.47 703.654 116.291 703.654 115.09V114.41C703.654 113.163 703.858 111.973 704.266 110.84C704.697 109.684 705.309 108.653 706.102 107.746C706.895 106.839 707.881 106.125 709.06 105.604C710.261 105.06 711.621 104.788 713.14 104.788C715.135 104.788 716.812 105.241 718.172 106.148C719.555 107.032 720.609 108.199 721.334 109.65C722.059 111.078 722.422 112.642 722.422 114.342V116.178H705.932V113.084H719.124L717.356 114.512C717.356 113.401 717.197 112.449 716.88 111.656C716.563 110.863 716.087 110.262 715.452 109.854C714.84 109.423 714.069 109.208 713.14 109.208C712.188 109.208 711.383 109.423 710.726 109.854C710.069 110.285 709.57 110.919 709.23 111.758C708.89 112.574 708.72 113.583 708.72 114.784C708.72 115.895 708.879 116.869 709.196 117.708C709.513 118.524 710.012 119.159 710.692 119.612C711.372 120.065 712.256 120.292 713.344 120.292C714.341 120.292 715.157 120.099 715.792 119.714C716.427 119.329 716.857 118.853 717.084 118.286H722.082C721.81 119.533 721.277 120.643 720.484 121.618C719.691 122.593 718.693 123.352 717.492 123.896C716.291 124.44 714.908 124.712 713.344 124.712ZM727.387 124.066V105.434H731.705V113.458H731.399C731.399 111.554 731.637 109.967 732.113 108.698C732.589 107.429 733.303 106.477 734.255 105.842C735.207 105.185 736.374 104.856 737.757 104.856H737.995C739.4 104.856 740.567 105.185 741.497 105.842C742.449 106.477 743.163 107.429 743.639 108.698C744.137 109.967 744.387 111.554 744.387 113.458H743.061C743.061 111.554 743.299 109.967 743.775 108.698C744.273 107.429 744.999 106.477 745.951 105.842C746.903 105.185 748.07 104.856 749.453 104.856H749.691C751.096 104.856 752.275 105.185 753.227 105.842C754.201 106.477 754.938 107.429 755.437 108.698C755.935 109.967 756.185 111.554 756.185 113.458V124.066H750.745V113.152C750.745 112.132 750.473 111.305 749.929 110.67C749.407 110.035 748.659 109.718 747.685 109.718C746.71 109.718 745.939 110.047 745.373 110.704C744.806 111.339 744.523 112.189 744.523 113.254V124.066H739.049V113.152C739.049 112.132 738.777 111.305 738.233 110.67C737.711 110.035 736.975 109.718 736.023 109.718C735.025 109.718 734.243 110.047 733.677 110.704C733.11 111.339 732.827 112.189 732.827 113.254V124.066H727.387ZM770.716 124.712C769.13 124.712 767.724 124.44 766.5 123.896C765.299 123.352 764.29 122.627 763.474 121.72C762.681 120.791 762.069 119.759 761.638 118.626C761.23 117.47 761.026 116.291 761.026 115.09V114.41C761.026 113.163 761.23 111.973 761.638 110.84C762.069 109.684 762.681 108.653 763.474 107.746C764.268 106.839 765.254 106.125 766.432 105.604C767.634 105.06 768.994 104.788 770.512 104.788C772.507 104.788 774.184 105.241 775.544 106.148C776.927 107.032 777.981 108.199 778.706 109.65C779.432 111.078 779.794 112.642 779.794 114.342V116.178H763.304V113.084H776.496L774.728 114.512C774.728 113.401 774.57 112.449 774.252 111.656C773.935 110.863 773.459 110.262 772.824 109.854C772.212 109.423 771.442 109.208 770.512 109.208C769.56 109.208 768.756 109.423 768.098 109.854C767.441 110.285 766.942 110.919 766.602 111.758C766.262 112.574 766.092 113.583 766.092 114.784C766.092 115.895 766.251 116.869 766.568 117.708C766.886 118.524 767.384 119.159 768.064 119.612C768.744 120.065 769.628 120.292 770.716 120.292C771.714 120.292 772.53 120.099 773.164 119.714C773.799 119.329 774.23 118.853 774.456 118.286H779.454C779.182 119.533 778.65 120.643 777.856 121.618C777.063 122.593 776.066 123.352 774.864 123.896C773.663 124.44 772.28 124.712 770.716 124.712Z" fill="#1C1259"/>
<path d="M804.562 151.066H849C849 206.72 797 217.494 771 215.924C800.335 215.924 805.598 172.685 804.562 151.066Z" fill="#F6A0B2"/>
<path d="M852.652 55.9182C871.987 47.3987 886.93 42.7067 888.072 45.0899C889.214 47.4731 876.196 56.1805 857.442 65.9134C877.138 73.561 891.022 80.8094 890.144 83.3021C889.267 85.7949 873.904 82.7465 853.761 76.3681C862.281 95.7029 866.973 110.646 864.59 111.788C862.207 112.93 853.499 99.9113 843.766 81.1579C836.119 100.854 828.87 114.738 826.378 113.86C823.885 112.982 826.933 97.62 833.312 77.4772C813.977 85.9967 799.034 90.6887 797.892 88.3055C796.75 85.9222 809.768 77.2149 828.522 67.482C808.826 59.8344 794.942 52.586 795.82 50.0933C796.697 47.6005 812.06 50.6489 832.202 57.0273C823.683 37.6925 818.991 22.7498 821.374 21.6077C823.757 20.4657 832.465 33.4841 842.198 52.2374C849.845 32.5415 857.094 18.6576 859.586 19.5353C862.079 20.4129 859.031 35.7754 852.652 55.9182Z" fill="white"/>
<defs>
<clipPath id="clip0_1686_904">
<rect x="83" y="181.066" width="574" height="161" rx="80.5" fill="white"/>
</clipPath>
<clipPath id="clip1_1686_904">
<rect x="79" y="567.066" width="805" height="177" rx="88.5" fill="white"/>
</clipPath>
</defs>
</svg>
