<svg width="510" height="318" viewBox="0 0 510 318" fill="none" xmlns="http://www.w3.org/2000/svg">
<rect y="43.6465" width="510" height="146.25" rx="73.1251" fill="white"/>
<path d="M50.975 143L68.863 87.1956H91.6434L110.143 143H95.4657L81.0941 97.1334L85.1457 98.6623H75.055L79.183 97.1334L65.1937 143H50.975ZM65.5759 130.081L69.8568 118.461H91.0319L95.3128 130.081H65.5759ZM117.332 143V100.803H128.34V118.92H127.728C127.728 114.537 128.289 110.919 129.41 108.065C130.531 105.16 132.187 102.994 134.379 101.567C136.621 100.14 139.322 99.4267 142.482 99.4267H143.093C147.884 99.4267 151.579 101.032 154.178 104.243C156.828 107.402 158.153 112.269 158.153 118.844V143H144.24V118.461C144.24 116.525 143.654 114.945 142.482 113.722C141.361 112.448 139.806 111.811 137.819 111.811C135.831 111.811 134.226 112.448 133.003 113.722C131.831 114.945 131.245 116.576 131.245 118.614V143H117.332ZM169.945 143V100.956C169.945 96.0122 171.372 92.3429 174.225 89.9476C177.079 87.5014 181.309 86.2783 186.915 86.2783H192.343V96.5218H186.609C185.386 96.5218 184.444 96.8531 183.781 97.5156C183.118 98.1781 182.787 99.1209 182.787 100.344V143H169.945ZM165.205 111.811V101.72H192.954V111.811H165.205ZM220.693 144.529C216.973 144.529 213.66 143.968 210.755 142.847C207.85 141.726 205.379 140.172 203.34 138.184C201.352 136.196 199.824 133.903 198.753 131.304C197.734 128.705 197.224 125.927 197.224 122.972V121.137C197.224 118.079 197.76 115.225 198.83 112.575C199.951 109.925 201.531 107.606 203.569 105.619C205.608 103.631 208.08 102.077 210.984 100.956C213.889 99.8344 217.125 99.2738 220.693 99.2738C224.311 99.2738 227.547 99.8344 230.401 100.956C233.306 102.077 235.778 103.631 237.816 105.619C239.855 107.606 241.409 109.925 242.48 112.575C243.601 115.225 244.161 118.079 244.161 121.137V122.972C244.161 125.927 243.626 128.705 242.556 131.304C241.537 133.903 240.008 136.196 237.969 138.184C235.982 140.172 233.536 141.726 230.631 142.847C227.726 143.968 224.413 144.529 220.693 144.529ZM220.693 132.909C222.833 132.909 224.592 132.451 225.968 131.533C227.395 130.616 228.465 129.342 229.178 127.711C229.892 126.029 230.248 124.144 230.248 122.054C230.248 119.863 229.866 117.952 229.102 116.321C228.388 114.639 227.318 113.314 225.891 112.346C224.464 111.378 222.731 110.893 220.693 110.893C218.654 110.893 216.922 111.378 215.495 112.346C214.068 113.314 212.972 114.639 212.208 116.321C211.494 117.952 211.137 119.863 211.137 122.054C211.137 124.144 211.494 126.029 212.208 127.711C212.921 129.342 213.991 130.616 215.418 131.533C216.845 132.451 218.603 132.909 220.693 132.909ZM253.307 143V100.803H264.315V119.149H264.162C264.162 113.238 265.385 108.6 267.832 105.236C270.329 101.873 273.896 100.191 278.534 100.191H280.216V112.116H277.005C273.896 112.116 271.475 112.957 269.743 114.639C268.061 116.321 267.22 118.742 267.22 121.901V143H253.307ZM306.35 144.529C302.681 144.529 299.496 143.943 296.794 142.771C294.093 141.548 291.826 139.917 289.991 137.878C288.207 135.84 286.857 133.521 285.939 130.922C285.073 128.323 284.64 125.622 284.64 122.819V121.29C284.64 118.334 285.098 115.531 286.016 112.881C286.984 110.231 288.386 107.887 290.22 105.848C292.055 103.81 294.323 102.204 297.024 101.032C299.725 99.8599 302.834 99.2738 306.35 99.2738C310.223 99.2738 313.638 100.038 316.594 101.567C319.549 103.096 321.894 105.211 323.626 107.912C325.41 110.562 326.404 113.62 326.608 117.085H313.001C312.848 115.404 312.211 113.977 311.09 112.804C310.019 111.632 308.44 111.046 306.35 111.046C304.566 111.046 303.088 111.505 301.916 112.422C300.795 113.34 299.954 114.614 299.394 116.244C298.833 117.875 298.553 119.812 298.553 122.054C298.553 124.144 298.782 126.004 299.241 127.635C299.75 129.265 300.566 130.54 301.687 131.457C302.859 132.323 304.413 132.756 306.35 132.756C307.777 132.756 308.975 132.502 309.943 131.992C310.911 131.482 311.676 130.769 312.236 129.852C312.797 128.883 313.154 127.762 313.306 126.488H326.914C326.71 130.055 325.69 133.19 323.856 135.891C322.072 138.592 319.677 140.707 316.67 142.236C313.663 143.764 310.223 144.529 306.35 144.529ZM356.519 144.529C352.799 144.529 349.486 143.968 346.581 142.847C343.676 141.726 341.205 140.172 339.166 138.184C337.179 136.196 335.65 133.903 334.58 131.304C333.56 128.705 333.051 125.927 333.051 122.972V121.137C333.051 118.079 333.586 115.225 334.656 112.575C335.777 109.925 337.357 107.606 339.396 105.619C341.434 103.631 343.906 102.077 346.811 100.956C349.715 99.8344 352.952 99.2738 356.519 99.2738C360.137 99.2738 363.374 99.8344 366.227 100.956C369.132 102.077 371.604 103.631 373.643 105.619C375.681 107.606 377.235 109.925 378.306 112.575C379.427 115.225 379.987 118.079 379.987 121.137V122.972C379.987 125.927 379.452 128.705 378.382 131.304C377.363 133.903 375.834 136.196 373.795 138.184C371.808 140.172 369.362 141.726 366.457 142.847C363.552 143.968 360.239 144.529 356.519 144.529ZM356.519 132.909C358.659 132.909 360.418 132.451 361.794 131.533C363.221 130.616 364.291 129.342 365.004 127.711C365.718 126.029 366.075 124.144 366.075 122.054C366.075 119.863 365.692 117.952 364.928 116.321C364.214 114.639 363.144 113.314 361.717 112.346C360.29 111.378 358.558 110.893 356.519 110.893C354.481 110.893 352.748 111.378 351.321 112.346C349.894 113.314 348.798 114.639 348.034 116.321C347.32 117.952 346.963 119.863 346.963 122.054C346.963 124.144 347.32 126.029 348.034 127.711C348.747 129.342 349.817 130.616 351.244 131.533C352.671 132.451 354.43 132.909 356.519 132.909ZM389.133 143V100.803H400.141V118.996H399.53C399.53 114.614 400.065 110.995 401.135 108.141C402.256 105.236 403.887 103.071 406.028 101.644C408.168 100.166 410.793 99.4267 413.901 99.4267H414.513C417.673 99.4267 420.297 100.166 422.387 101.644C424.527 103.071 426.132 105.236 427.203 108.141C428.324 110.995 428.884 114.614 428.884 118.996H425.674C425.674 114.614 426.209 110.995 427.279 108.141C428.4 105.236 430.031 103.071 432.171 101.644C434.312 100.166 436.937 99.4267 440.045 99.4267H440.657C443.817 99.4267 446.467 100.166 448.607 101.644C450.798 103.071 452.455 105.236 453.576 108.141C454.748 110.995 455.334 114.614 455.334 118.996V143H441.421V118.614C441.421 116.678 440.886 115.072 439.816 113.798C438.797 112.473 437.319 111.811 435.382 111.811C433.446 111.811 431.917 112.473 430.795 113.798C429.725 115.072 429.19 116.729 429.19 118.767V143H415.277V118.614C415.277 116.678 414.742 115.072 413.672 113.798C412.653 112.473 411.175 111.811 409.238 111.811C407.302 111.811 405.773 112.473 404.652 113.798C403.581 115.072 403.046 116.729 403.046 118.767V143H389.133Z" fill="#1C1259"/>
<path d="M381.421 182.38C394.657 178.739 404.708 177.139 405.217 178.777C405.725 180.414 396.532 184.772 383.554 189.247C395.493 196.016 403.733 201.979 402.933 203.496C402.133 205.013 392.545 201.605 380.199 195.609C383.846 208.822 385.449 218.855 383.809 219.363C382.168 219.871 377.802 210.693 373.319 197.739C366.539 209.657 360.565 217.882 359.046 217.083C357.526 216.285 360.94 206.714 366.946 194.389C353.71 198.03 343.659 199.63 343.15 197.993C342.642 196.355 351.835 191.997 364.813 187.522C352.874 180.754 344.634 174.791 345.434 173.274C346.234 171.757 355.822 175.164 368.168 181.16C364.521 167.947 362.918 157.915 364.559 157.407C366.199 156.899 370.565 166.076 375.048 179.031C381.828 167.113 387.802 158.887 389.321 159.686C390.841 160.485 387.427 170.056 381.421 182.38Z" fill="#FCD307"/>
<path d="M187.339 34.2529C200.698 31.0871 210.8 29.8476 211.249 31.5021C211.699 33.1565 202.355 37.1836 189.225 41.1918C200.914 48.3824 208.935 54.6362 208.081 56.1235C207.227 57.6108 197.767 53.8629 185.644 47.4295C188.815 60.7644 190.057 70.8481 188.399 71.297C186.742 71.7459 182.708 62.4185 178.693 49.3121C171.489 60.9799 165.224 68.9866 163.734 68.1341C162.244 67.2817 165.999 57.8387 172.444 45.7368C159.085 48.9026 148.983 50.1421 148.534 48.4877C148.084 46.8332 157.428 42.8062 170.558 38.798C158.869 31.6073 150.848 25.3535 151.702 23.8662C152.556 22.379 162.016 26.1269 174.139 32.5603C170.968 19.2253 169.726 9.14161 171.384 8.69273C173.041 8.24384 177.075 17.5712 181.091 30.6776C188.294 19.0098 194.559 11.0031 196.049 11.8556C197.539 12.708 193.784 22.1511 187.339 34.2529Z" fill="#EE4266"/>
<path d="M187.339 34.2529C200.698 31.0871 210.8 29.8476 211.249 31.5021C211.699 33.1565 202.355 37.1836 189.225 41.1918C200.914 48.3824 208.935 54.6362 208.081 56.1235C207.227 57.6108 197.767 53.8629 185.644 47.4295C188.815 60.7644 190.057 70.8481 188.399 71.297C186.742 71.7459 182.708 62.4185 178.693 49.3121C171.489 60.9799 165.224 68.9866 163.734 68.1341C162.244 67.2817 165.999 57.8387 172.444 45.7368C159.085 48.9026 148.983 50.1421 148.534 48.4877C148.084 46.8332 157.428 42.8062 170.558 38.798C158.869 31.6073 150.848 25.3535 151.702 23.8662C152.556 22.379 162.016 26.1269 174.139 32.5603C170.968 19.2253 169.726 9.14161 171.384 8.69273C173.041 8.24384 177.075 17.5712 181.091 30.6776C188.294 19.0098 194.559 11.0031 196.049 11.8556C197.539 12.708 193.784 22.1511 187.339 34.2529Z" fill="#EE4266"/>
<path d="M240.177 170.354C247.411 159.654 263.169 159.654 270.403 170.354V170.354C274.499 176.412 281.87 179.428 289.048 178.032V178.032C301.676 175.574 312.888 186.669 310.409 199.293V199.293C309.001 206.461 312.035 213.775 318.105 217.841V217.841C328.819 225.018 328.819 240.773 318.105 247.95V247.95C312.035 252.016 309.001 259.329 310.409 266.498V266.498C312.888 279.122 301.676 290.216 289.048 287.759V287.759C281.87 286.362 274.499 289.379 270.403 295.437V295.437C263.169 306.137 247.411 306.137 240.177 295.437V295.437C236.081 289.379 228.71 286.362 221.532 287.759V287.759C208.904 290.216 197.692 279.122 200.171 266.498V266.498C201.579 259.329 198.545 252.016 192.475 247.95V247.95C181.761 240.773 181.761 225.018 192.475 217.841V217.841C198.545 213.775 201.579 206.461 200.171 199.293V199.293C197.692 186.669 208.904 175.574 221.532 178.032V178.032C228.71 179.428 236.081 176.412 240.177 170.354V170.354Z" fill="#1C1259"/>
<path d="M240.177 170.354C247.411 159.654 263.169 159.654 270.403 170.354V170.354C274.499 176.412 281.87 179.428 289.048 178.032V178.032C301.676 175.574 312.888 186.669 310.409 199.293V199.293C309.001 206.461 312.035 213.775 318.105 217.841V217.841C328.819 225.018 328.819 240.773 318.105 247.95V247.95C312.035 252.016 309.001 259.329 310.409 266.498V266.498C312.888 279.122 301.676 290.216 289.048 287.759V287.759C281.87 286.362 274.499 289.379 270.403 295.437V295.437C263.169 306.137 247.411 306.137 240.177 295.437V295.437C236.081 289.379 228.71 286.362 221.532 287.759V287.759C208.904 290.216 197.692 279.122 200.171 266.498V266.498C201.579 259.329 198.545 252.016 192.475 247.95V247.95C181.761 240.773 181.761 225.018 192.475 217.841V217.841C198.545 213.775 201.579 206.461 200.171 199.293V199.293C197.692 186.669 208.904 175.574 221.532 178.032V178.032C228.71 179.428 236.081 176.412 240.177 170.354V170.354Z" fill="#1C1259"/>
<path d="M240.177 170.354C247.411 159.654 263.169 159.654 270.403 170.354V170.354C274.499 176.412 281.87 179.428 289.048 178.032V178.032C301.676 175.574 312.888 186.669 310.409 199.293V199.293C309.001 206.461 312.035 213.775 318.105 217.841V217.841C328.819 225.018 328.819 240.773 318.105 247.95V247.95C312.035 252.016 309.001 259.329 310.409 266.498V266.498C312.888 279.122 301.676 290.216 289.048 287.759V287.759C281.87 286.362 274.499 289.379 270.403 295.437V295.437C263.169 306.137 247.411 306.137 240.177 295.437V295.437C236.081 289.379 228.71 286.362 221.532 287.759V287.759C208.904 290.216 197.692 279.122 200.171 266.498V266.498C201.579 259.329 198.545 252.016 192.475 247.95V247.95C181.761 240.773 181.761 225.018 192.475 217.841V217.841C198.545 213.775 201.579 206.461 200.171 199.293V199.293C197.692 186.669 208.904 175.574 221.532 178.032V178.032C228.71 179.428 236.081 176.412 240.177 170.354V170.354Z" fill="#1C1259"/>
<path d="M240.177 170.354C247.411 159.654 263.169 159.654 270.403 170.354V170.354C274.499 176.412 281.87 179.428 289.048 178.032V178.032C301.676 175.574 312.888 186.669 310.409 199.293V199.293C309.001 206.461 312.035 213.775 318.105 217.841V217.841C328.819 225.018 328.819 240.773 318.105 247.95V247.95C312.035 252.016 309.001 259.329 310.409 266.498V266.498C312.888 279.122 301.676 290.216 289.048 287.759V287.759C281.87 286.362 274.499 289.379 270.403 295.437V295.437C263.169 306.137 247.411 306.137 240.177 295.437V295.437C236.081 289.379 228.71 286.362 221.532 287.759V287.759C208.904 290.216 197.692 279.122 200.171 266.498V266.498C201.579 259.329 198.545 252.016 192.475 247.95V247.95C181.761 240.773 181.761 225.018 192.475 217.841V217.841C198.545 213.775 201.579 206.461 200.171 199.293V199.293C197.692 186.669 208.904 175.574 221.532 178.032V178.032C228.71 179.428 236.081 176.412 240.177 170.354V170.354Z" fill="#EE4266"/>
<path d="M233.204 264.871V258.756C233.204 257.532 233.407 256.462 233.815 255.545C234.248 254.602 234.911 253.774 235.803 253.06C236.72 252.347 237.905 251.684 239.357 251.073L243.6 249.276C244.696 248.818 245.486 248.27 245.97 247.633C246.479 246.996 246.734 246.193 246.734 245.225C246.734 244.333 246.428 243.581 245.817 242.97C245.231 242.333 244.364 242.014 243.218 242.014C242.046 242.014 241.167 242.346 240.58 243.008C239.994 243.645 239.701 244.511 239.701 245.607H232.821C232.821 243.772 233.216 242.142 234.006 240.715C234.796 239.288 235.956 238.167 237.484 237.351C239.039 236.536 240.95 236.128 243.218 236.128C245.46 236.128 247.346 236.523 248.875 237.313C250.429 238.077 251.601 239.135 252.391 240.485C253.207 241.81 253.614 243.314 253.614 244.996V245.454C253.614 247.62 253.028 249.404 251.856 250.805C250.684 252.207 248.798 253.468 246.199 254.589L241.956 256.386C241.345 256.641 240.886 256.921 240.58 257.227C240.3 257.532 240.16 257.94 240.16 258.45V259.826L238.516 258.756H253.538V264.871H233.204ZM267.403 265.636C265.211 265.636 263.3 265.241 261.669 264.451C260.038 263.635 258.777 262.54 257.885 261.164C257.019 259.762 256.586 258.169 256.586 256.386H263.466C263.466 257.38 263.81 258.195 264.498 258.832C265.186 259.444 266.154 259.749 267.403 259.749C268.243 259.749 268.957 259.596 269.543 259.291C270.129 258.959 270.575 258.526 270.881 257.991C271.187 257.431 271.339 256.806 271.339 256.118C271.339 255.073 270.995 254.207 270.307 253.519C269.645 252.831 268.677 252.487 267.403 252.487C266.664 252.487 266.001 252.602 265.415 252.831C264.854 253.06 264.37 253.353 263.963 253.71L260.79 248.436L268.511 243.696L268.167 243.084H257.771V236.969H277.187V243.046L267.135 249.162L263.924 247.977C264.459 247.824 265.02 247.709 265.606 247.633C266.218 247.556 266.842 247.518 267.479 247.518C269.67 247.518 271.569 247.862 273.174 248.55C274.779 249.238 276.015 250.232 276.882 251.532C277.774 252.806 278.219 254.335 278.219 256.118V256.577C278.219 258.335 277.774 259.902 276.882 261.278C276.015 262.629 274.767 263.699 273.136 264.489C271.531 265.253 269.619 265.636 267.403 265.636Z" fill="white"/>
<path d="M230.703 225.975V219.859C230.703 218.636 230.907 217.566 231.314 216.648C231.747 215.706 232.41 214.877 233.302 214.164C234.219 213.45 235.404 212.788 236.856 212.176L241.099 210.38C242.195 209.921 242.985 209.373 243.469 208.736C243.979 208.099 244.233 207.297 244.233 206.328C244.233 205.437 243.928 204.685 243.316 204.073C242.73 203.436 241.864 203.118 240.717 203.118C239.545 203.118 238.666 203.449 238.08 204.112C237.494 204.749 237.2 205.615 237.2 206.711H230.321C230.321 204.876 230.715 203.245 231.505 201.818C232.295 200.391 233.455 199.27 234.984 198.455C236.538 197.639 238.449 197.232 240.717 197.232C242.959 197.232 244.845 197.627 246.374 198.416C247.928 199.181 249.1 200.238 249.89 201.589C250.706 202.914 251.113 204.417 251.113 206.099V206.558C251.113 208.724 250.527 210.507 249.355 211.909C248.183 213.31 246.297 214.572 243.698 215.693L239.456 217.489C238.844 217.744 238.385 218.024 238.08 218.33C237.799 218.636 237.659 219.044 237.659 219.553V220.929L236.016 219.859H251.037V225.975H230.703ZM267.654 226.739C265.386 226.739 263.449 226.382 261.844 225.669C260.239 224.93 258.926 223.936 257.907 222.688C256.888 221.413 256.136 219.961 255.652 218.33C255.168 216.674 254.926 214.941 254.926 213.132V210.915C254.926 208.367 255.384 206.061 256.302 203.997C257.219 201.933 258.621 200.289 260.506 199.066C262.392 197.843 264.774 197.232 267.654 197.232C270.533 197.232 272.903 197.843 274.763 199.066C276.649 200.289 278.05 201.933 278.967 203.997C279.885 206.061 280.343 208.367 280.343 210.915V213.132C280.343 214.941 280.101 216.674 279.617 218.33C279.133 219.961 278.381 221.413 277.362 222.688C276.368 223.936 275.069 224.93 273.463 225.669C271.858 226.382 269.922 226.739 267.654 226.739ZM267.654 220.165C269.539 220.165 270.941 219.502 271.858 218.177C272.775 216.852 273.234 214.814 273.234 212.062C273.234 209.131 272.763 207.029 271.82 205.755C270.877 204.456 269.488 203.806 267.654 203.806C265.794 203.806 264.392 204.456 263.449 205.755C262.506 207.029 262.035 209.106 262.035 211.985C262.035 214.763 262.494 216.827 263.411 218.177C264.354 219.502 265.768 220.165 267.654 220.165Z" fill="white"/>
</svg>
