<svg width="119" height="119" viewBox="0 0 119 119" fill="none" xmlns="http://www.w3.org/2000/svg">
<path opacity="0.5" d="M46.8328 6.74327C52.9022 -2.21257 66.0978 -2.21258 72.1672 6.74326C75.6031 11.8132 81.7983 14.333 87.8106 13.1659C98.3683 11.1164 107.787 20.3862 105.709 30.9384C104.528 36.9383 107.07 43.0607 112.155 46.4583C121.129 52.4556 121.129 65.6479 112.155 71.6452C107.07 75.0428 104.528 81.1652 105.709 87.1651C107.787 97.7173 98.3683 106.987 87.8106 104.938C81.7983 103.771 75.6031 106.29 72.1672 111.36C66.0978 120.316 52.9022 120.316 46.8328 111.36C43.3969 106.29 37.2017 103.771 31.1894 104.938C20.6317 106.987 11.2135 97.7173 13.2908 87.1651C14.472 81.1652 11.9296 75.0428 6.84531 71.6452C-2.12925 65.6479 -2.12925 52.4556 6.84531 46.4583C11.9296 43.0607 14.472 36.9383 13.2908 30.9384C11.2135 20.3862 20.6317 11.1164 31.1894 13.1659C37.2017 14.333 43.3969 11.8133 46.8328 6.74327Z" fill="#40C057"/>
</svg>
