<svg width="181" height="181" viewBox="0 0 181 181" fill="none" xmlns="http://www.w3.org/2000/svg">
<path d="M74.5466 23.8098C82.1676 12.4852 98.8324 12.4852 106.453 23.8098V23.8098C110.77 30.2241 118.508 33.4294 126.096 31.9461V31.9461C139.493 29.3272 151.276 41.1109 148.657 54.5075V54.5075C147.174 62.0953 150.379 69.8336 156.794 74.1502V74.1502C168.118 81.7712 168.118 98.4359 156.794 106.057V106.057C150.379 110.373 147.174 118.112 148.657 125.7V125.7C151.276 139.096 139.493 150.88 126.096 148.261V148.261C118.508 146.778 110.77 149.983 106.453 156.397V156.397C98.8324 167.722 82.1676 167.722 74.5466 156.397V156.397C70.2301 149.983 62.4918 146.778 54.904 148.261V148.261C41.5074 150.88 29.7237 139.096 32.3425 125.7V125.7C33.8259 118.112 30.6206 110.373 24.2063 106.057V106.057C12.8817 98.4359 12.8817 81.7712 24.2063 74.1502V74.1502C30.6206 69.8336 33.8259 62.0953 32.3425 54.5075V54.5075C29.7237 41.1109 41.5074 29.3272 54.904 31.9461V31.9461C62.4918 33.4294 70.2301 30.2241 74.5466 23.8098V23.8098Z" fill="#1C1259"/>
<path d="M74.5466 23.8098C82.1676 12.4852 98.8324 12.4852 106.453 23.8098V23.8098C110.77 30.2241 118.508 33.4294 126.096 31.9461V31.9461C139.493 29.3272 151.276 41.1109 148.657 54.5075V54.5075C147.174 62.0953 150.379 69.8336 156.794 74.1502V74.1502C168.118 81.7712 168.118 98.4359 156.794 106.057V106.057C150.379 110.373 147.174 118.112 148.657 125.7V125.7C151.276 139.096 139.493 150.88 126.096 148.261V148.261C118.508 146.778 110.77 149.983 106.453 156.397V156.397C98.8324 167.722 82.1676 167.722 74.5466 156.397V156.397C70.2301 149.983 62.4918 146.778 54.904 148.261V148.261C41.5074 150.88 29.7237 139.096 32.3425 125.7V125.7C33.8259 118.112 30.6206 110.373 24.2063 106.057V106.057C12.8817 98.4359 12.8817 81.7712 24.2063 74.1502V74.1502C30.6206 69.8336 33.8259 62.0953 32.3425 54.5075V54.5075C29.7237 41.1109 41.5074 29.3272 54.904 31.9461V31.9461C62.4918 33.4294 70.2301 30.2241 74.5466 23.8098V23.8098Z" fill="#1C1259"/>
<path d="M74.5466 23.8098C82.1676 12.4852 98.8324 12.4852 106.453 23.8098V23.8098C110.77 30.2241 118.508 33.4294 126.096 31.9461V31.9461C139.493 29.3272 151.276 41.1109 148.657 54.5075V54.5075C147.174 62.0953 150.379 69.8336 156.794 74.1502V74.1502C168.118 81.7712 168.118 98.4359 156.794 106.057V106.057C150.379 110.373 147.174 118.112 148.657 125.7V125.7C151.276 139.096 139.493 150.88 126.096 148.261V148.261C118.508 146.778 110.77 149.983 106.453 156.397V156.397C98.8324 167.722 82.1676 167.722 74.5466 156.397V156.397C70.2301 149.983 62.4918 146.778 54.904 148.261V148.261C41.5074 150.88 29.7237 139.096 32.3425 125.7V125.7C33.8259 118.112 30.6206 110.373 24.2063 106.057V106.057C12.8817 98.4359 12.8817 81.7712 24.2063 74.1502V74.1502C30.6206 69.8336 33.8259 62.0953 32.3425 54.5075V54.5075C29.7237 41.1109 41.5074 29.3272 54.904 31.9461V31.9461C62.4918 33.4294 70.2301 30.2241 74.5466 23.8098V23.8098Z" fill="#1C1259"/>
<path d="M74.5466 23.8098C82.1676 12.4852 98.8324 12.4852 106.453 23.8098V23.8098C110.77 30.2241 118.508 33.4294 126.096 31.9461V31.9461C139.493 29.3272 151.276 41.1109 148.657 54.5075V54.5075C147.174 62.0953 150.379 69.8336 156.794 74.1502V74.1502C168.118 81.7712 168.118 98.4359 156.794 106.057V106.057C150.379 110.373 147.174 118.112 148.657 125.7V125.7C151.276 139.096 139.493 150.88 126.096 148.261V148.261C118.508 146.778 110.77 149.983 106.453 156.397V156.397C98.8324 167.722 82.1676 167.722 74.5466 156.397V156.397C70.2301 149.983 62.4918 146.778 54.904 148.261V148.261C41.5074 150.88 29.7237 139.096 32.3425 125.7V125.7C33.8259 118.112 30.6206 110.373 24.2063 106.057V106.057C12.8817 98.4359 12.8817 81.7712 24.2063 74.1502V74.1502C30.6206 69.8336 33.8259 62.0953 32.3425 54.5075V54.5075C29.7237 41.1109 41.5074 29.3272 54.904 31.9461V31.9461C62.4918 33.4294 70.2301 30.2241 74.5466 23.8098V23.8098Z" fill="#2E6958"/>
<path d="M63.5 117.103L68.45 105.703C64.663 100.327 62.968 93.7538 63.6831 87.217C64.3983 80.6802 67.4744 74.6291 72.3341 70.1993C77.1939 65.7694 83.5033 63.2653 90.0781 63.157C96.653 63.0486 103.041 65.3435 108.045 69.6108C113.048 73.8781 116.321 79.8246 117.252 86.3343C118.182 92.844 116.704 99.4693 113.096 104.967C109.488 110.465 103.998 114.457 97.6562 116.194C91.314 117.931 84.5559 117.294 78.65 114.403L63.5 117.103Z" stroke="white" stroke-width="6" stroke-linecap="round" stroke-linejoin="round"/>
<path d="M81.5 84.1035C81.5 84.5013 81.658 84.8829 81.9393 85.1642C82.2206 85.4455 82.6022 85.6035 83 85.6035C83.3978 85.6035 83.7794 85.4455 84.0607 85.1642C84.342 84.8829 84.5 84.5013 84.5 84.1035V81.1035C84.5 80.7057 84.342 80.3242 84.0607 80.0429C83.7794 79.7615 83.3978 79.6035 83 79.6035C82.6022 79.6035 82.2206 79.7615 81.9393 80.0429C81.658 80.3242 81.5 80.7057 81.5 81.1035V84.1035ZM81.5 84.1035C81.5 88.0818 83.0804 91.8971 85.8934 94.7101C88.7064 97.5232 92.5218 99.1035 96.5 99.1035M96.5 99.1035H99.5C99.8978 99.1035 100.279 98.9455 100.561 98.6642C100.842 98.3829 101 98.0013 101 97.6035C101 97.2057 100.842 96.8242 100.561 96.5429C100.279 96.2615 99.8978 96.1035 99.5 96.1035H96.5C96.1022 96.1035 95.7206 96.2615 95.4393 96.5429C95.158 96.8242 95 97.2057 95 97.6035C95 98.0013 95.158 98.3829 95.4393 98.6642C95.7206 98.9455 96.1022 99.1035 96.5 99.1035Z" stroke="white" stroke-width="6" stroke-linecap="round" stroke-linejoin="round"/>
</svg>
