<svg xmlns="http://www.w3.org/2000/svg" width="200" height="200" viewBox="0 0 201 200" fill="none">
  <path d="M79.1471 11.5982C89.3657 -3.52331 111.634 -3.52331 121.853 11.5982V11.5982C127.639 20.1605 138.047 24.4253 148.191 22.4506V22.4506C166.042 18.9754 181.876 34.6607 178.373 52.5066V52.5066C176.384 62.6377 180.671 72.9731 189.248 78.7208V78.7208C204.388 88.8673 204.388 111.133 189.248 121.279V121.279C180.671 127.027 176.384 137.362 178.373 147.493V147.493C181.876 165.339 166.042 181.025 148.191 177.549V177.549C138.047 175.575 127.639 179.84 121.853 188.402V188.402C111.634 203.523 89.3657 203.523 79.1471 188.402V188.402C73.361 179.84 62.9529 175.575 52.8094 177.549V177.549C34.958 181.025 19.1242 165.339 22.6273 147.493V147.493C24.6161 137.362 20.3286 127.027 11.752 121.279V121.279C-3.38819 111.133 -3.38819 88.8673 11.752 78.7208V78.7208C20.3286 72.9731 24.6161 62.6377 22.6273 52.5066V52.5066C19.1242 34.6607 34.958 18.9754 52.8094 22.4506V22.4506C62.9529 24.4253 73.3611 20.1605 79.1471 11.5982V11.5982Z" fill="#1C1259"/>
  <path d="M79.1471 11.5982C89.3657 -3.52331 111.634 -3.52331 121.853 11.5982V11.5982C127.639 20.1605 138.047 24.4253 148.191 22.4506V22.4506C166.042 18.9754 181.876 34.6607 178.373 52.5066V52.5066C176.384 62.6377 180.671 72.9731 189.248 78.7208V78.7208C204.388 88.8673 204.388 111.133 189.248 121.279V121.279C180.671 127.027 176.384 137.362 178.373 147.493V147.493C181.876 165.339 166.042 181.025 148.191 177.549V177.549C138.047 175.575 127.639 179.84 121.853 188.402V188.402C111.634 203.523 89.3657 203.523 79.1471 188.402V188.402C73.361 179.84 62.9529 175.575 52.8094 177.549V177.549C34.958 181.025 19.1242 165.339 22.6273 147.493V147.493C24.6161 137.362 20.3286 127.027 11.752 121.279V121.279C-3.38819 111.133 -3.38819 88.8673 11.752 78.7208V78.7208C20.3286 72.9731 24.6161 62.6377 22.6273 52.5066V52.5066C19.1242 34.6607 34.958 18.9754 52.8094 22.4506V22.4506C62.9529 24.4253 73.3611 20.1605 79.1471 11.5982V11.5982Z" fill="#1C1259"/>
  <path d="M79.1471 11.5982C89.3657 -3.52331 111.634 -3.52331 121.853 11.5982V11.5982C127.639 20.1605 138.047 24.4253 148.191 22.4506V22.4506C166.042 18.9754 181.876 34.6607 178.373 52.5066V52.5066C176.384 62.6377 180.671 72.9731 189.248 78.7208V78.7208C204.388 88.8673 204.388 111.133 189.248 121.279V121.279C180.671 127.027 176.384 137.362 178.373 147.493V147.493C181.876 165.339 166.042 181.025 148.191 177.549V177.549C138.047 175.575 127.639 179.84 121.853 188.402V188.402C111.634 203.523 89.3657 203.523 79.1471 188.402V188.402C73.361 179.84 62.9529 175.575 52.8094 177.549V177.549C34.958 181.025 19.1242 165.339 22.6273 147.493V147.493C24.6161 137.362 20.3286 127.027 11.752 121.279V121.279C-3.38819 111.133 -3.38819 88.8673 11.752 78.7208V78.7208C20.3286 72.9731 24.6161 62.6377 22.6273 52.5066V52.5066C19.1242 34.6607 34.958 18.9754 52.8094 22.4506V22.4506C62.9529 24.4253 73.3611 20.1605 79.1471 11.5982V11.5982Z" fill="#1C1259"/>
  <path d="M79.1471 11.5982C89.3657 -3.52331 111.634 -3.52331 121.853 11.5982V11.5982C127.639 20.1605 138.047 24.4253 148.191 22.4506V22.4506C166.042 18.9754 181.876 34.6607 178.373 52.5066V52.5066C176.384 62.6377 180.671 72.9731 189.248 78.7208V78.7208C204.388 88.8673 204.388 111.133 189.248 121.279V121.279C180.671 127.027 176.384 137.362 178.373 147.493V147.493C181.876 165.339 166.042 181.025 148.191 177.549V177.549C138.047 175.575 127.639 179.84 121.853 188.402V188.402C111.634 203.523 89.3657 203.523 79.1471 188.402V188.402C73.361 179.84 62.9529 175.575 52.8094 177.549V177.549C34.958 181.025 19.1242 165.339 22.6273 147.493V147.493C24.6161 137.362 20.3286 127.027 11.752 121.279V121.279C-3.38819 111.133 -3.38819 88.8673 11.752 78.7208V78.7208C20.3286 72.9731 24.6161 62.6377 22.6273 52.5066V52.5066C19.1242 34.6607 34.958 18.9754 52.8094 22.4506V22.4506C62.9529 24.4253 73.3611 20.1605 79.1471 11.5982V11.5982Z" fill="#EE4266" fill-opacity="0.25"/>
</svg>