<svg width="36" height="36" viewBox="0 0 36 36" fill="none" xmlns="http://www.w3.org/2000/svg">
<path fill-rule="evenodd" clip-rule="evenodd" d="M8.78519 12.7299C8.10351 11.544 7.71968 10.2042 7.71968 8.78605C7.71968 3.93365 12.2131 0 17.756 0V7.91035C18.5133 6.761 19.5643 5.77495 20.8824 5.06013C25.3812 2.62043 31.2874 4.26413 34.0743 8.73142L26.6994 12.7308C28.1497 12.7659 29.5955 13.1215 30.9223 13.8304C35.4378 16.2431 36.8641 21.8339 34.1081 26.3178L26.7269 22.3739C27.4085 23.5599 27.7924 24.8996 27.7924 26.3178C27.7924 31.1702 23.2989 35.1039 17.756 35.1039V27.1935C16.9988 28.3429 15.9477 29.3289 14.6296 30.0437C10.1308 32.4834 4.22466 30.8397 1.43779 26.3724L8.81267 22.373C7.36237 22.338 5.91654 21.9823 4.58978 21.2734C0.0742802 18.8607 -1.35206 13.27 1.40395 8.78606L8.78519 12.7299ZM17.7613 17.5318C17.7595 17.5289 17.7578 17.5261 17.756 17.5232L17.756 17.5318C17.7578 17.5318 17.7595 17.5318 17.7613 17.5318ZM17.756 17.5721V17.5806L17.7507 17.5721L17.756 17.5721Z" fill="#FCD307"/>
</svg>
