<svg width="84" height="84" viewBox="0 0 84 84" fill="none" xmlns="http://www.w3.org/2000/svg">
<path d="M51.7858 34.3775C69.5974 30.1565 83.0662 28.5038 83.6658 30.7097C84.2653 32.9157 71.8067 38.2851 54.3005 43.6293C69.8852 53.2169 80.5798 61.5552 79.4411 63.5383C78.3025 65.5213 65.6894 60.5242 49.525 51.9463C53.7536 69.7262 55.4092 83.1711 53.1993 83.7696C50.9894 84.3681 45.6105 71.9316 40.2567 54.4564C30.6521 70.0135 22.2989 80.6891 20.3124 79.5524C18.3258 78.4158 23.3319 65.8252 31.925 49.6894C14.1135 53.9105 0.644661 55.5631 0.0450862 53.3572C-0.554488 51.1513 11.9041 45.7819 29.4103 40.4376C13.8256 30.8501 3.13106 22.5117 4.26971 20.5287C5.40836 18.5456 18.0214 23.5428 34.1859 32.1207C29.9573 14.3408 28.3017 0.895862 30.5116 0.297351C32.7214 -0.30116 38.1004 12.1353 43.4541 29.6105C53.0587 14.0534 61.4119 3.37785 63.3985 4.51447C65.3851 5.6511 60.379 18.2418 51.7858 34.3775Z" fill="#EE4266"/>
</svg>
