<svg width="84" height="84" viewBox="0 0 84 84" fill="none" xmlns="http://www.w3.org/2000/svg">
<path d="M51.5605 33.8791C69.2093 29.0242 82.6102 26.8913 83.2885 29.0744C83.9668 31.2575 71.7087 37.0687 54.4054 43.0351C70.3239 52.0596 81.3107 60.0104 80.2439 62.0329C79.1771 64.0554 66.3929 59.5121 49.9312 51.5174C54.7947 69.1348 56.9314 82.5119 54.7444 83.189C52.5574 83.8661 46.7359 71.6298 40.7589 54.3571C31.7184 70.2474 23.7534 81.2147 21.7273 80.1498C19.7013 79.0849 24.2526 66.3234 32.2615 49.8909C14.6128 54.7458 1.2119 56.8787 0.533602 54.6956C-0.144699 52.5125 12.1133 46.7013 29.4167 40.7349C13.4982 31.7104 2.5114 23.7596 3.57821 21.7371C4.64501 19.7147 17.4292 24.2579 33.8909 32.2526C29.0274 14.6352 26.8907 1.25811 29.0777 0.581008C31.2647 -0.0960893 37.0862 12.1402 43.0632 29.4128C52.1037 13.5225 60.0687 2.5553 62.0948 3.6202C64.1208 4.68511 59.5695 17.4466 51.5605 33.8791Z" fill="#FCD307"/>
</svg>
